M48
METRIC,TZ
T1C0.600
T2C0.700
T3C1.000
T4C2.200
%
G90
G05
T1
X121920Y-106680
X121920Y-107950
X121920Y-109220
X127000Y-106680
X127000Y-107950
X127000Y-109220
X132080Y-106680
X132080Y-107950
X132080Y-109220
X139700Y-120650
X140970Y-121920
X142240Y-120650
X147320Y-104140
X147320Y-105410
X147320Y-106680
X147320Y-109220
X147320Y-110490
X147320Y-111760
T2
X119380Y-97790
X119380Y-105410
X119380Y-110490
X119380Y-118110
X121920Y-93980
X121920Y-101600
X121920Y-104140
X121920Y-111760
X121920Y-119380
X124460Y-99060
X124460Y-101600
X124460Y-111760
X124460Y-114300
X124460Y-119380
X127000Y-104140
X127000Y-116840
X129540Y-119380
X132080Y-99060
X132080Y-101600
X132080Y-111760
X132080Y-114300
X132080Y-116840
X135890Y-99060
X135890Y-106680
X135890Y-109220
X135890Y-116840
X138430Y-101600
X138430Y-106680
X138430Y-109220
X138430Y-114300
X140970Y-99060
X140970Y-106680
X140970Y-109220
X140970Y-116840
X143510Y-99060
X143510Y-106680
X143510Y-109220
X143510Y-116840
X146050Y-93980
X146050Y-101600
X146050Y-114300
X146050Y-121920
X148590Y-96520
X148590Y-101600
X148590Y-114300
X148590Y-119380
X149860Y-93980
X149860Y-121920
X151130Y-99060
X151130Y-104140
X151130Y-106680
X151130Y-109220
X151130Y-111760
X151130Y-116840
X153670Y-96520
X153670Y-104140
X153670Y-111760
X153670Y-119380
X156210Y-96520
X156210Y-104140
X156210Y-106680
X156210Y-109220
X156210Y-111760
X156210Y-119380
X157480Y-93980
X157480Y-121920
X158750Y-104140
X158750Y-111760
X161290Y-104140
X161290Y-111760
X161290Y-114935
X161290Y-117475
T3
X124460Y-96520
X132080Y-96520
X132715Y-93980
X132715Y-121920
X135255Y-93980
X135255Y-121920
X135890Y-96520
X143510Y-96520
X161290Y-98425
X161290Y-100965
T4
X117700Y-93950
X117700Y-121950
X161700Y-93950
X161700Y-121950
T0
M30
