G04 #@! TF.FileFunction,Copper,L1,Top,Signal*
%FSLAX46Y46*%
G04 Gerber Fmt 4.6, Leading zero omitted, Abs format (unit mm)*
G04 Created by KiCad (PCBNEW 4.0.6) date Wed Dec 13 01:07:51 2017*
%MOMM*%
%LPD*%
G01*
G04 APERTURE LIST*
%ADD10C,0.100000*%
%ADD11O,1.500000X0.900000*%
%ADD12R,1.500000X0.900000*%
%ADD13R,1.400000X1.400000*%
%ADD14C,1.400000*%
%ADD15C,3.800000*%
%ADD16C,1.000000*%
%ADD17R,1.000000X1.000000*%
%ADD18C,1.500000*%
%ADD19O,1.600000X1.500000*%
%ADD20O,1.500000X1.600000*%
%ADD21R,1.500000X1.500000*%
%ADD22O,1.500000X1.500000*%
%ADD23C,1.700000*%
%ADD24R,1.800000X1.800000*%
%ADD25C,1.800000*%
%ADD26C,0.600000*%
%ADD27C,0.250000*%
%ADD28C,0.149900*%
G04 APERTURE END LIST*
D10*
D11*
X147320000Y-110490000D03*
X147320000Y-109220000D03*
D12*
X147320000Y-111760000D03*
D11*
X147320000Y-105410000D03*
X147320000Y-106680000D03*
D12*
X147320000Y-104140000D03*
D11*
X132080000Y-107950000D03*
X132080000Y-106680000D03*
D12*
X132080000Y-109220000D03*
D11*
X127000000Y-107950000D03*
X127000000Y-109220000D03*
D12*
X127000000Y-106680000D03*
D11*
X121920000Y-107950000D03*
X121920000Y-109220000D03*
D12*
X121920000Y-106680000D03*
D13*
X161290000Y-114935000D03*
D14*
X161290000Y-117475000D03*
D15*
X117700000Y-121950000D03*
X117700000Y-93950000D03*
X161700000Y-93950000D03*
X161700000Y-121950000D03*
D16*
X140970000Y-121920000D03*
X139700000Y-120650000D03*
D17*
X142240000Y-120650000D03*
D18*
X156210000Y-111760000D03*
D19*
X156210000Y-119380000D03*
D18*
X119380000Y-97790000D03*
D19*
X119380000Y-105410000D03*
D18*
X119380000Y-110490000D03*
D19*
X119380000Y-118110000D03*
D18*
X121920000Y-119380000D03*
D19*
X121920000Y-111760000D03*
D18*
X121920000Y-101600000D03*
D19*
X121920000Y-93980000D03*
D18*
X132080000Y-111760000D03*
D20*
X124460000Y-111760000D03*
D18*
X124460000Y-101600000D03*
D20*
X132080000Y-101600000D03*
D18*
X135890000Y-106680000D03*
D19*
X135890000Y-99060000D03*
D18*
X132080000Y-99060000D03*
D20*
X124460000Y-99060000D03*
D18*
X135890000Y-109220000D03*
D19*
X135890000Y-116840000D03*
D18*
X132080000Y-114300000D03*
D20*
X124460000Y-114300000D03*
D18*
X140970000Y-106680000D03*
D19*
X140970000Y-99060000D03*
D18*
X143510000Y-99060000D03*
D19*
X143510000Y-106680000D03*
D18*
X146050000Y-101600000D03*
D19*
X146050000Y-93980000D03*
D18*
X149860000Y-93980000D03*
D20*
X157480000Y-93980000D03*
D18*
X153670000Y-96520000D03*
D19*
X153670000Y-104140000D03*
D18*
X153670000Y-119380000D03*
D19*
X153670000Y-111760000D03*
D18*
X146050000Y-114300000D03*
D19*
X146050000Y-121920000D03*
D18*
X149860000Y-121920000D03*
D20*
X157480000Y-121920000D03*
D18*
X143510000Y-116840000D03*
D19*
X143510000Y-109220000D03*
D18*
X140970000Y-109220000D03*
D19*
X140970000Y-116840000D03*
D18*
X156210000Y-96520000D03*
D19*
X156210000Y-104140000D03*
D18*
X129540000Y-119380000D03*
X124460000Y-119380000D03*
X121920000Y-104140000D03*
X127000000Y-104140000D03*
X138430000Y-101600000D03*
X138430000Y-106680000D03*
X151130000Y-104140000D03*
X151130000Y-99060000D03*
X156210000Y-106680000D03*
X151130000Y-106680000D03*
X151130000Y-111760000D03*
X151130000Y-116840000D03*
X156210000Y-109220000D03*
X151130000Y-109220000D03*
X138430000Y-109220000D03*
X138430000Y-114300000D03*
X132080000Y-116840000D03*
X127000000Y-116840000D03*
D21*
X161290000Y-104140000D03*
D22*
X161290000Y-111760000D03*
D21*
X158750000Y-111760000D03*
D22*
X158750000Y-104140000D03*
D18*
X148590000Y-101600000D03*
X148590000Y-96520000D03*
X148590000Y-114300000D03*
X148590000Y-119380000D03*
D23*
X135255000Y-93980000D03*
X132715000Y-93980000D03*
X161290000Y-100965000D03*
X161290000Y-98425000D03*
X132715000Y-121920000D03*
X135255000Y-121920000D03*
D24*
X143510000Y-96520000D03*
D25*
X135890000Y-96520000D03*
D24*
X132080000Y-96520000D03*
D25*
X124460000Y-96520000D03*
D26*
X121920000Y-104140000D02*
X121920000Y-106680000D01*
X121920000Y-101600000D02*
X121920000Y-104140000D01*
X121920000Y-104220000D02*
X122000000Y-104140000D01*
D27*
X122000000Y-101680000D02*
X121920000Y-101600000D01*
D26*
X125730000Y-101600000D02*
X124460000Y-101600000D01*
X127000000Y-102870000D02*
X125730000Y-101600000D01*
X127000000Y-104140000D02*
X127000000Y-102870000D01*
X127000000Y-106680000D02*
X127000000Y-104140000D01*
X126920000Y-106600000D02*
X127000000Y-106680000D01*
X147320000Y-104140000D02*
X147320000Y-102870000D01*
X147320000Y-102870000D02*
X146050000Y-101600000D01*
X151130000Y-104140000D02*
X147320000Y-104140000D01*
X151130000Y-99060000D02*
X151130000Y-95250000D01*
X151130000Y-95250000D02*
X149860000Y-93980000D01*
X147320000Y-111760000D02*
X147320000Y-113030000D01*
X147320000Y-113030000D02*
X146050000Y-114300000D01*
X151130000Y-111760000D02*
X147320000Y-111760000D01*
X151130000Y-116840000D02*
X151130000Y-120650000D01*
X151130000Y-120650000D02*
X149860000Y-121920000D01*
X158750000Y-111760000D02*
X161290000Y-111760000D01*
X156130000Y-109220000D02*
X156210000Y-109220000D01*
X156210000Y-109220000D02*
X158750000Y-111760000D01*
X151130000Y-109220000D02*
X153670000Y-111760000D01*
X147320000Y-109220000D02*
X151130000Y-109220000D01*
X158115000Y-119380000D02*
X160020000Y-117475000D01*
X160020000Y-117475000D02*
X161290000Y-117475000D01*
X156210000Y-119380000D02*
X158115000Y-119380000D01*
X156210000Y-96520000D02*
X158115000Y-96520000D01*
X158115000Y-96520000D02*
X160020000Y-98425000D01*
X160020000Y-98425000D02*
X161290000Y-98425000D01*
X135890000Y-106680000D02*
X135890000Y-109220000D01*
X132080000Y-106680000D02*
X135890000Y-106680000D01*
X138430000Y-106680000D02*
X140970000Y-106680000D01*
X140970000Y-106680000D02*
X143510000Y-106680000D01*
X143510000Y-106680000D02*
X144780000Y-105410000D01*
X144780000Y-105410000D02*
X147320000Y-105410000D01*
X138430000Y-109220000D02*
X140970000Y-109220000D01*
X140970000Y-109220000D02*
X143510000Y-109220000D01*
X143510000Y-109220000D02*
X144780000Y-110490000D01*
X144780000Y-110490000D02*
X147320000Y-110490000D01*
X121920000Y-107950000D02*
X120570000Y-107950000D01*
X120570000Y-107950000D02*
X119380000Y-109140000D01*
X119380000Y-109140000D02*
X119380000Y-110490000D01*
X121920000Y-107950000D02*
X120788630Y-107950000D01*
X120788630Y-107950000D02*
X119380000Y-106541370D01*
X119380000Y-106541370D02*
X119380000Y-105410000D01*
X121920000Y-109220000D02*
X121920000Y-111760000D01*
X123190000Y-109220000D02*
X124460000Y-107950000D01*
X124460000Y-107950000D02*
X127000000Y-107950000D01*
X121920000Y-109220000D02*
X123190000Y-109220000D01*
X127000000Y-110490000D02*
X127000000Y-109220000D01*
X125730000Y-111760000D02*
X127000000Y-110490000D01*
X124460000Y-111760000D02*
X125730000Y-111760000D01*
X127000000Y-109220000D02*
X128350000Y-109220000D01*
X129620000Y-107950000D02*
X132080000Y-107950000D01*
X128350000Y-109220000D02*
X129620000Y-107950000D01*
D27*
X127300000Y-109220000D02*
X127000000Y-109220000D01*
D26*
X133917081Y-119380000D02*
X129540000Y-119380000D01*
X135255000Y-121920000D02*
X135255000Y-120717919D01*
X135255000Y-120717919D02*
X133917081Y-119380000D01*
X135255000Y-121920000D02*
X138430000Y-121920000D01*
X139065000Y-122555000D02*
X140335000Y-122555000D01*
X140335000Y-122555000D02*
X140970000Y-121920000D01*
X138430000Y-121920000D02*
X139065000Y-122555000D01*
X132080000Y-96520000D02*
X132080000Y-94615000D01*
X132080000Y-94615000D02*
X132715000Y-93980000D01*
X135890000Y-100330000D02*
X135890000Y-99060000D01*
X137160000Y-101600000D02*
X135890000Y-100330000D01*
X138430000Y-101600000D02*
X137160000Y-101600000D01*
X132080000Y-96520000D02*
X132080000Y-99060000D01*
X135890000Y-99060000D02*
X135890000Y-96520000D01*
X132080000Y-96520000D02*
X135890000Y-96520000D01*
X135890000Y-99060000D02*
X135890000Y-99140000D01*
X161290000Y-100965000D02*
X161290000Y-104140000D01*
X156130000Y-106680000D02*
X160150000Y-106680000D01*
X160150000Y-106680000D02*
X161290000Y-105540000D01*
X161290000Y-105540000D02*
X161290000Y-104140000D01*
X156210000Y-104140000D02*
X158750000Y-104140000D01*
X153670000Y-104140000D02*
X156210000Y-104140000D01*
X151130000Y-106680000D02*
X153670000Y-104140000D01*
X147320000Y-106680000D02*
X151130000Y-106680000D01*
X137160000Y-114300000D02*
X138430000Y-114300000D01*
X135890000Y-115570000D02*
X137160000Y-114300000D01*
X135890000Y-116840000D02*
X135890000Y-115570000D01*
X134620000Y-114300000D02*
X132080000Y-114300000D01*
X135890000Y-115570000D02*
X134620000Y-114300000D01*
X135890000Y-116840000D02*
X135890000Y-116760000D01*
D28*
G36*
X159125050Y-94950000D02*
X159130559Y-94978203D01*
X159147002Y-95002998D01*
X160647002Y-96502998D01*
X160670840Y-96519045D01*
X160700000Y-96524950D01*
X163150050Y-96524950D01*
X163150050Y-119375050D01*
X160700000Y-119375050D01*
X160671797Y-119380559D01*
X160647002Y-119397002D01*
X159147002Y-120897002D01*
X159130955Y-120920840D01*
X159125050Y-120950000D01*
X159125050Y-123400050D01*
X120274950Y-123400050D01*
X120274950Y-120950000D01*
X120269441Y-120921797D01*
X120252998Y-120897002D01*
X119618693Y-120262697D01*
X121214150Y-120262697D01*
X121290743Y-120458846D01*
X121751499Y-120617529D01*
X122237907Y-120587811D01*
X122549257Y-120458846D01*
X122625850Y-120262697D01*
X121920000Y-119556847D01*
X121214150Y-120262697D01*
X119618693Y-120262697D01*
X118752998Y-119397002D01*
X118729160Y-119380955D01*
X118700000Y-119375050D01*
X116249950Y-119375050D01*
X116249950Y-118110000D01*
X118080072Y-118110000D01*
X118173316Y-118578768D01*
X118438852Y-118976170D01*
X118836254Y-119241706D01*
X119305022Y-119334950D01*
X119454978Y-119334950D01*
X119923746Y-119241706D01*
X119968953Y-119211499D01*
X120682471Y-119211499D01*
X120712189Y-119697907D01*
X120841154Y-120009257D01*
X121037303Y-120085850D01*
X121743153Y-119380000D01*
X122096847Y-119380000D01*
X122802697Y-120085850D01*
X122998846Y-120009257D01*
X123132013Y-119622589D01*
X123234838Y-119622589D01*
X123420933Y-120072972D01*
X123765216Y-120417856D01*
X124215273Y-120604737D01*
X124702589Y-120605162D01*
X125152972Y-120419067D01*
X125497856Y-120074784D01*
X125684737Y-119624727D01*
X125684738Y-119622589D01*
X128314838Y-119622589D01*
X128500933Y-120072972D01*
X128845216Y-120417856D01*
X129295273Y-120604737D01*
X129782589Y-120605162D01*
X130232972Y-120419067D01*
X130497550Y-120154950D01*
X133596087Y-120154950D01*
X134371233Y-120930097D01*
X134132417Y-121168496D01*
X133984887Y-121523789D01*
X133838893Y-121170457D01*
X133466504Y-120797417D01*
X132979705Y-120595281D01*
X132452607Y-120594821D01*
X131965457Y-120796107D01*
X131592417Y-121168496D01*
X131390281Y-121655295D01*
X131389821Y-122182393D01*
X131591107Y-122669543D01*
X131963496Y-123042583D01*
X132450295Y-123244719D01*
X132977393Y-123245179D01*
X133464543Y-123043893D01*
X133837583Y-122671504D01*
X133985113Y-122316211D01*
X134131107Y-122669543D01*
X134503496Y-123042583D01*
X134990295Y-123244719D01*
X135517393Y-123245179D01*
X136004543Y-123043893D01*
X136354096Y-122694950D01*
X138109006Y-122694950D01*
X138517028Y-123102973D01*
X138768440Y-123270961D01*
X139065000Y-123329950D01*
X140335000Y-123329950D01*
X140631561Y-123270960D01*
X140882972Y-123102972D01*
X141090889Y-122895055D01*
X141163079Y-122895118D01*
X141521543Y-122747004D01*
X141796040Y-122472986D01*
X141944780Y-122114780D01*
X141944949Y-121920000D01*
X144750072Y-121920000D01*
X144843316Y-122388768D01*
X145108852Y-122786170D01*
X145506254Y-123051706D01*
X145975022Y-123144950D01*
X146124978Y-123144950D01*
X146593746Y-123051706D01*
X146991148Y-122786170D01*
X147256684Y-122388768D01*
X147301673Y-122162589D01*
X148634838Y-122162589D01*
X148820933Y-122612972D01*
X149165216Y-122957856D01*
X149615273Y-123144737D01*
X150102589Y-123145162D01*
X150552972Y-122959067D01*
X150897856Y-122614784D01*
X151084737Y-122164727D01*
X151085015Y-121845022D01*
X156255050Y-121845022D01*
X156255050Y-121994978D01*
X156348294Y-122463746D01*
X156613830Y-122861148D01*
X157011232Y-123126684D01*
X157480000Y-123219928D01*
X157948768Y-123126684D01*
X158346170Y-122861148D01*
X158611706Y-122463746D01*
X158704950Y-121994978D01*
X158704950Y-121845022D01*
X158611706Y-121376254D01*
X158346170Y-120978852D01*
X157948768Y-120713316D01*
X157480000Y-120620072D01*
X157011232Y-120713316D01*
X156613830Y-120978852D01*
X156348294Y-121376254D01*
X156255050Y-121845022D01*
X151085015Y-121845022D01*
X151085063Y-121790881D01*
X151677972Y-121197973D01*
X151800578Y-121014479D01*
X151845960Y-120946561D01*
X151904950Y-120650000D01*
X151904950Y-120262697D01*
X152964150Y-120262697D01*
X153040743Y-120458846D01*
X153501499Y-120617529D01*
X153987907Y-120587811D01*
X154299257Y-120458846D01*
X154375850Y-120262697D01*
X153670000Y-119556847D01*
X152964150Y-120262697D01*
X151904950Y-120262697D01*
X151904950Y-119211499D01*
X152432471Y-119211499D01*
X152462189Y-119697907D01*
X152591154Y-120009257D01*
X152787303Y-120085850D01*
X153493153Y-119380000D01*
X153846847Y-119380000D01*
X154552697Y-120085850D01*
X154748846Y-120009257D01*
X154907529Y-119548501D01*
X154897235Y-119380000D01*
X154910072Y-119380000D01*
X155003316Y-119848768D01*
X155268852Y-120246170D01*
X155666254Y-120511706D01*
X156135022Y-120604950D01*
X156284978Y-120604950D01*
X156753746Y-120511706D01*
X157151148Y-120246170D01*
X157212099Y-120154950D01*
X158115000Y-120154950D01*
X158411561Y-120095960D01*
X158662972Y-119927972D01*
X160340995Y-118249950D01*
X160403416Y-118249950D01*
X160623575Y-118470494D01*
X161055263Y-118649746D01*
X161522687Y-118650154D01*
X161954686Y-118471655D01*
X162285494Y-118141425D01*
X162464746Y-117709737D01*
X162465154Y-117242313D01*
X162286655Y-116810314D01*
X161956425Y-116479506D01*
X161524737Y-116300254D01*
X161057313Y-116299846D01*
X160625314Y-116478345D01*
X160403221Y-116700050D01*
X160020000Y-116700050D01*
X159723440Y-116759039D01*
X159472028Y-116927027D01*
X157794006Y-118605050D01*
X157212099Y-118605050D01*
X157151148Y-118513830D01*
X156753746Y-118248294D01*
X156284978Y-118155050D01*
X156135022Y-118155050D01*
X155666254Y-118248294D01*
X155268852Y-118513830D01*
X155003316Y-118911232D01*
X154910072Y-119380000D01*
X154897235Y-119380000D01*
X154877811Y-119062093D01*
X154748846Y-118750743D01*
X154552697Y-118674150D01*
X153846847Y-119380000D01*
X153493153Y-119380000D01*
X152787303Y-118674150D01*
X152591154Y-118750743D01*
X152432471Y-119211499D01*
X151904950Y-119211499D01*
X151904950Y-118497303D01*
X152964150Y-118497303D01*
X153670000Y-119203153D01*
X154375850Y-118497303D01*
X154299257Y-118301154D01*
X153838501Y-118142471D01*
X153352093Y-118172189D01*
X153040743Y-118301154D01*
X152964150Y-118497303D01*
X151904950Y-118497303D01*
X151904950Y-117797232D01*
X152167856Y-117534784D01*
X152354737Y-117084727D01*
X152355162Y-116597411D01*
X152169067Y-116147028D01*
X151824784Y-115802144D01*
X151374727Y-115615263D01*
X150887411Y-115614838D01*
X150437028Y-115800933D01*
X150092144Y-116145216D01*
X149905263Y-116595273D01*
X149904838Y-117082589D01*
X150090933Y-117532972D01*
X150355050Y-117797550D01*
X150355050Y-120329005D01*
X149988893Y-120695162D01*
X149617411Y-120694838D01*
X149167028Y-120880933D01*
X148822144Y-121225216D01*
X148635263Y-121675273D01*
X148634838Y-122162589D01*
X147301673Y-122162589D01*
X147349928Y-121920000D01*
X147256684Y-121451232D01*
X146991148Y-121053830D01*
X146593746Y-120788294D01*
X146124978Y-120695050D01*
X145975022Y-120695050D01*
X145506254Y-120788294D01*
X145108852Y-121053830D01*
X144843316Y-121451232D01*
X144750072Y-121920000D01*
X141944949Y-121920000D01*
X141945118Y-121726921D01*
X141906829Y-121634254D01*
X142740000Y-121634254D01*
X142916006Y-121601136D01*
X143077656Y-121497117D01*
X143186102Y-121338402D01*
X143224254Y-121150000D01*
X143224254Y-120150000D01*
X143191136Y-119973994D01*
X143087117Y-119812344D01*
X142928402Y-119703898D01*
X142740000Y-119665746D01*
X141740000Y-119665746D01*
X141563994Y-119698864D01*
X141402344Y-119802883D01*
X141293898Y-119961598D01*
X141255746Y-120150000D01*
X141255746Y-120982992D01*
X141164780Y-120945220D01*
X140776921Y-120944882D01*
X140607136Y-121015036D01*
X140688098Y-120758617D01*
X140654450Y-120372220D01*
X140571317Y-120171521D01*
X140401014Y-120125833D01*
X139876847Y-120650000D01*
X139890990Y-120664143D01*
X139714143Y-120840990D01*
X139700000Y-120826847D01*
X139175833Y-121351014D01*
X139221521Y-121521317D01*
X139591383Y-121638098D01*
X139977780Y-121604450D01*
X140059408Y-121570638D01*
X139995220Y-121725220D01*
X139995172Y-121780050D01*
X139385995Y-121780050D01*
X138977972Y-121372028D01*
X138819127Y-121265891D01*
X138726561Y-121204040D01*
X138430000Y-121145050D01*
X136353530Y-121145050D01*
X136029950Y-120820904D01*
X136029950Y-120717919D01*
X135994835Y-120541383D01*
X138711902Y-120541383D01*
X138745550Y-120927780D01*
X138828683Y-121128479D01*
X138998986Y-121174167D01*
X139523153Y-120650000D01*
X138998986Y-120125833D01*
X138828683Y-120171521D01*
X138711902Y-120541383D01*
X135994835Y-120541383D01*
X135970960Y-120421358D01*
X135804024Y-120171521D01*
X135802972Y-120169946D01*
X135582012Y-119948986D01*
X139175833Y-119948986D01*
X139700000Y-120473153D01*
X140224167Y-119948986D01*
X140178479Y-119778683D01*
X139808617Y-119661902D01*
X139422220Y-119695550D01*
X139221521Y-119778683D01*
X139175833Y-119948986D01*
X135582012Y-119948986D01*
X135255615Y-119622589D01*
X147364838Y-119622589D01*
X147550933Y-120072972D01*
X147895216Y-120417856D01*
X148345273Y-120604737D01*
X148832589Y-120605162D01*
X149282972Y-120419067D01*
X149627856Y-120074784D01*
X149814737Y-119624727D01*
X149815162Y-119137411D01*
X149629067Y-118687028D01*
X149284784Y-118342144D01*
X148834727Y-118155263D01*
X148347411Y-118154838D01*
X147897028Y-118340933D01*
X147552144Y-118685216D01*
X147365263Y-119135273D01*
X147364838Y-119622589D01*
X135255615Y-119622589D01*
X134465053Y-118832028D01*
X134213642Y-118664040D01*
X133917081Y-118605050D01*
X130497232Y-118605050D01*
X130234784Y-118342144D01*
X129784727Y-118155263D01*
X129297411Y-118154838D01*
X128847028Y-118340933D01*
X128502144Y-118685216D01*
X128315263Y-119135273D01*
X128314838Y-119622589D01*
X125684738Y-119622589D01*
X125685162Y-119137411D01*
X125499067Y-118687028D01*
X125154784Y-118342144D01*
X124704727Y-118155263D01*
X124217411Y-118154838D01*
X123767028Y-118340933D01*
X123422144Y-118685216D01*
X123235263Y-119135273D01*
X123234838Y-119622589D01*
X123132013Y-119622589D01*
X123157529Y-119548501D01*
X123127811Y-119062093D01*
X122998846Y-118750743D01*
X122802697Y-118674150D01*
X122096847Y-119380000D01*
X121743153Y-119380000D01*
X121037303Y-118674150D01*
X120841154Y-118750743D01*
X120682471Y-119211499D01*
X119968953Y-119211499D01*
X120321148Y-118976170D01*
X120586684Y-118578768D01*
X120602888Y-118497303D01*
X121214150Y-118497303D01*
X121920000Y-119203153D01*
X122625850Y-118497303D01*
X122549257Y-118301154D01*
X122088501Y-118142471D01*
X121602093Y-118172189D01*
X121290743Y-118301154D01*
X121214150Y-118497303D01*
X120602888Y-118497303D01*
X120679928Y-118110000D01*
X120586684Y-117641232D01*
X120321148Y-117243830D01*
X120079835Y-117082589D01*
X125774838Y-117082589D01*
X125960933Y-117532972D01*
X126305216Y-117877856D01*
X126755273Y-118064737D01*
X127242589Y-118065162D01*
X127692972Y-117879067D01*
X127849614Y-117722697D01*
X131374150Y-117722697D01*
X131450743Y-117918846D01*
X131911499Y-118077529D01*
X132397907Y-118047811D01*
X132709257Y-117918846D01*
X132785850Y-117722697D01*
X132080000Y-117016847D01*
X131374150Y-117722697D01*
X127849614Y-117722697D01*
X128037856Y-117534784D01*
X128224737Y-117084727D01*
X128225097Y-116671499D01*
X130842471Y-116671499D01*
X130872189Y-117157907D01*
X131001154Y-117469257D01*
X131197303Y-117545850D01*
X131903153Y-116840000D01*
X132256847Y-116840000D01*
X132962697Y-117545850D01*
X133158846Y-117469257D01*
X133317529Y-117008501D01*
X133287811Y-116522093D01*
X133158846Y-116210743D01*
X132962697Y-116134150D01*
X132256847Y-116840000D01*
X131903153Y-116840000D01*
X131197303Y-116134150D01*
X131001154Y-116210743D01*
X130842471Y-116671499D01*
X128225097Y-116671499D01*
X128225162Y-116597411D01*
X128039067Y-116147028D01*
X127849673Y-115957303D01*
X131374150Y-115957303D01*
X132080000Y-116663153D01*
X132785850Y-115957303D01*
X132709257Y-115761154D01*
X132248501Y-115602471D01*
X131762093Y-115632189D01*
X131450743Y-115761154D01*
X131374150Y-115957303D01*
X127849673Y-115957303D01*
X127694784Y-115802144D01*
X127244727Y-115615263D01*
X126757411Y-115614838D01*
X126307028Y-115800933D01*
X125962144Y-116145216D01*
X125775263Y-116595273D01*
X125774838Y-117082589D01*
X120079835Y-117082589D01*
X119923746Y-116978294D01*
X119454978Y-116885050D01*
X119305022Y-116885050D01*
X118836254Y-116978294D01*
X118438852Y-117243830D01*
X118173316Y-117641232D01*
X118080072Y-118110000D01*
X116249950Y-118110000D01*
X116249950Y-105410000D01*
X118080072Y-105410000D01*
X118173316Y-105878768D01*
X118438852Y-106276170D01*
X118605050Y-106387220D01*
X118605050Y-106541370D01*
X118664040Y-106837931D01*
X118756670Y-106976561D01*
X118832028Y-107089342D01*
X119583371Y-107840685D01*
X118832028Y-108592028D01*
X118664040Y-108843439D01*
X118605050Y-109140000D01*
X118605050Y-109532768D01*
X118342144Y-109795216D01*
X118155263Y-110245273D01*
X118154838Y-110732589D01*
X118340933Y-111182972D01*
X118685216Y-111527856D01*
X119135273Y-111714737D01*
X119622589Y-111715162D01*
X120072972Y-111529067D01*
X120417856Y-111184784D01*
X120604737Y-110734727D01*
X120605162Y-110247411D01*
X120419067Y-109797028D01*
X120154950Y-109532450D01*
X120154950Y-109460994D01*
X120739363Y-108876581D01*
X120671052Y-109220000D01*
X120741460Y-109573963D01*
X120941964Y-109874038D01*
X121145050Y-110009736D01*
X121145050Y-110782780D01*
X120978852Y-110893830D01*
X120713316Y-111291232D01*
X120620072Y-111760000D01*
X120713316Y-112228768D01*
X120978852Y-112626170D01*
X121376254Y-112891706D01*
X121845022Y-112984950D01*
X121994978Y-112984950D01*
X122463746Y-112891706D01*
X122861148Y-112626170D01*
X123126684Y-112228768D01*
X123219928Y-111760000D01*
X123126684Y-111291232D01*
X122861148Y-110893830D01*
X122694950Y-110782780D01*
X122694950Y-110009736D01*
X122717079Y-109994950D01*
X123190000Y-109994950D01*
X123486561Y-109935960D01*
X123737972Y-109767972D01*
X124780995Y-108724950D01*
X125915731Y-108724950D01*
X125821460Y-108866037D01*
X125751052Y-109220000D01*
X125821460Y-109573963D01*
X126021964Y-109874038D01*
X126225050Y-110009736D01*
X126225050Y-110169005D01*
X125425919Y-110968137D01*
X125326170Y-110818852D01*
X124928768Y-110553316D01*
X124460000Y-110460072D01*
X123991232Y-110553316D01*
X123593830Y-110818852D01*
X123328294Y-111216254D01*
X123235050Y-111685022D01*
X123235050Y-111834978D01*
X123328294Y-112303746D01*
X123593830Y-112701148D01*
X123991232Y-112966684D01*
X124309542Y-113030000D01*
X123991232Y-113093316D01*
X123593830Y-113358852D01*
X123328294Y-113756254D01*
X123235050Y-114225022D01*
X123235050Y-114374978D01*
X123328294Y-114843746D01*
X123593830Y-115241148D01*
X123991232Y-115506684D01*
X124460000Y-115599928D01*
X124928768Y-115506684D01*
X125326170Y-115241148D01*
X125591706Y-114843746D01*
X125651610Y-114542589D01*
X130854838Y-114542589D01*
X131040933Y-114992972D01*
X131385216Y-115337856D01*
X131835273Y-115524737D01*
X132322589Y-115525162D01*
X132772972Y-115339067D01*
X133037550Y-115074950D01*
X134299006Y-115074950D01*
X135098136Y-115874081D01*
X134948852Y-115973830D01*
X134683316Y-116371232D01*
X134590072Y-116840000D01*
X134683316Y-117308768D01*
X134948852Y-117706170D01*
X135346254Y-117971706D01*
X135815022Y-118064950D01*
X135964978Y-118064950D01*
X136433746Y-117971706D01*
X136831148Y-117706170D01*
X137096684Y-117308768D01*
X137189928Y-116840000D01*
X139670072Y-116840000D01*
X139763316Y-117308768D01*
X140028852Y-117706170D01*
X140426254Y-117971706D01*
X140895022Y-118064950D01*
X141044978Y-118064950D01*
X141513746Y-117971706D01*
X141886413Y-117722697D01*
X142804150Y-117722697D01*
X142880743Y-117918846D01*
X143341499Y-118077529D01*
X143827907Y-118047811D01*
X144139257Y-117918846D01*
X144215850Y-117722697D01*
X143510000Y-117016847D01*
X142804150Y-117722697D01*
X141886413Y-117722697D01*
X141911148Y-117706170D01*
X142176684Y-117308768D01*
X142269928Y-116840000D01*
X142236411Y-116671499D01*
X142272471Y-116671499D01*
X142302189Y-117157907D01*
X142431154Y-117469257D01*
X142627303Y-117545850D01*
X143333153Y-116840000D01*
X143686847Y-116840000D01*
X144392697Y-117545850D01*
X144588846Y-117469257D01*
X144747529Y-117008501D01*
X144717811Y-116522093D01*
X144588846Y-116210743D01*
X144392697Y-116134150D01*
X143686847Y-116840000D01*
X143333153Y-116840000D01*
X142627303Y-116134150D01*
X142431154Y-116210743D01*
X142272471Y-116671499D01*
X142236411Y-116671499D01*
X142176684Y-116371232D01*
X141911148Y-115973830D01*
X141886414Y-115957303D01*
X142804150Y-115957303D01*
X143510000Y-116663153D01*
X144215850Y-115957303D01*
X144139257Y-115761154D01*
X143678501Y-115602471D01*
X143192093Y-115632189D01*
X142880743Y-115761154D01*
X142804150Y-115957303D01*
X141886414Y-115957303D01*
X141513746Y-115708294D01*
X141044978Y-115615050D01*
X140895022Y-115615050D01*
X140426254Y-115708294D01*
X140028852Y-115973830D01*
X139763316Y-116371232D01*
X139670072Y-116840000D01*
X137189928Y-116840000D01*
X137096684Y-116371232D01*
X136831148Y-115973830D01*
X136681863Y-115874081D01*
X137476878Y-115079067D01*
X137735216Y-115337856D01*
X138185273Y-115524737D01*
X138672589Y-115525162D01*
X139122972Y-115339067D01*
X139467856Y-114994784D01*
X139654737Y-114544727D01*
X139655162Y-114057411D01*
X139469067Y-113607028D01*
X139124784Y-113262144D01*
X138674727Y-113075263D01*
X138187411Y-113074838D01*
X137737028Y-113260933D01*
X137472450Y-113525050D01*
X137160000Y-113525050D01*
X136863439Y-113584040D01*
X136612027Y-113752028D01*
X135890000Y-114474055D01*
X135167972Y-113752028D01*
X135158891Y-113745960D01*
X134916561Y-113584040D01*
X134620000Y-113525050D01*
X133037232Y-113525050D01*
X132774784Y-113262144D01*
X132324727Y-113075263D01*
X131837411Y-113074838D01*
X131387028Y-113260933D01*
X131042144Y-113605216D01*
X130855263Y-114055273D01*
X130854838Y-114542589D01*
X125651610Y-114542589D01*
X125684950Y-114374978D01*
X125684950Y-114225022D01*
X125591706Y-113756254D01*
X125326170Y-113358852D01*
X124928768Y-113093316D01*
X124610458Y-113030000D01*
X124928768Y-112966684D01*
X125326170Y-112701148D01*
X125365225Y-112642697D01*
X131374150Y-112642697D01*
X131450743Y-112838846D01*
X131911499Y-112997529D01*
X132397907Y-112967811D01*
X132709257Y-112838846D01*
X132785850Y-112642697D01*
X132080000Y-111936847D01*
X131374150Y-112642697D01*
X125365225Y-112642697D01*
X125437220Y-112534950D01*
X125730000Y-112534950D01*
X126026561Y-112475960D01*
X126277972Y-112307972D01*
X126994445Y-111591499D01*
X130842471Y-111591499D01*
X130872189Y-112077907D01*
X131001154Y-112389257D01*
X131197303Y-112465850D01*
X131903153Y-111760000D01*
X132256847Y-111760000D01*
X132962697Y-112465850D01*
X133158846Y-112389257D01*
X133317529Y-111928501D01*
X133287811Y-111442093D01*
X133158846Y-111130743D01*
X132962697Y-111054150D01*
X132256847Y-111760000D01*
X131903153Y-111760000D01*
X131197303Y-111054150D01*
X131001154Y-111130743D01*
X130842471Y-111591499D01*
X126994445Y-111591499D01*
X127547972Y-111037973D01*
X127655328Y-110877303D01*
X131374150Y-110877303D01*
X132080000Y-111583153D01*
X132785850Y-110877303D01*
X132709257Y-110681154D01*
X132248501Y-110522471D01*
X131762093Y-110552189D01*
X131450743Y-110681154D01*
X131374150Y-110877303D01*
X127655328Y-110877303D01*
X127664285Y-110863898D01*
X127715960Y-110786561D01*
X127774950Y-110490000D01*
X127774950Y-110009736D01*
X127797079Y-109994950D01*
X128350000Y-109994950D01*
X128646561Y-109935960D01*
X128897972Y-109767972D01*
X129202157Y-109463787D01*
X130855050Y-109463787D01*
X130855050Y-109764473D01*
X130927357Y-109939037D01*
X131060962Y-110072643D01*
X131235526Y-110144950D01*
X131836213Y-110144950D01*
X131954950Y-110026213D01*
X131954950Y-109345050D01*
X132205050Y-109345050D01*
X132205050Y-110026213D01*
X132323787Y-110144950D01*
X132924474Y-110144950D01*
X133099038Y-110072643D01*
X133232643Y-109939037D01*
X133304950Y-109764473D01*
X133304950Y-109463787D01*
X133186213Y-109345050D01*
X132205050Y-109345050D01*
X131954950Y-109345050D01*
X130973787Y-109345050D01*
X130855050Y-109463787D01*
X129202157Y-109463787D01*
X129940995Y-108724950D01*
X130855050Y-108724950D01*
X130855050Y-108976213D01*
X130973787Y-109094950D01*
X131954950Y-109094950D01*
X131954950Y-109074950D01*
X132205050Y-109074950D01*
X132205050Y-109094950D01*
X133186213Y-109094950D01*
X133304950Y-108976213D01*
X133304950Y-108675527D01*
X133232643Y-108500963D01*
X133169260Y-108437580D01*
X133258540Y-108303963D01*
X133328948Y-107950000D01*
X133258540Y-107596037D01*
X133164269Y-107454950D01*
X134932768Y-107454950D01*
X135115050Y-107637550D01*
X135115050Y-108262768D01*
X134852144Y-108525216D01*
X134665263Y-108975273D01*
X134664838Y-109462589D01*
X134850933Y-109912972D01*
X135195216Y-110257856D01*
X135645273Y-110444737D01*
X136132589Y-110445162D01*
X136582972Y-110259067D01*
X136927856Y-109914784D01*
X137114737Y-109464727D01*
X137114738Y-109462589D01*
X137204838Y-109462589D01*
X137390933Y-109912972D01*
X137735216Y-110257856D01*
X138185273Y-110444737D01*
X138672589Y-110445162D01*
X139122972Y-110259067D01*
X139387550Y-109994950D01*
X140012768Y-109994950D01*
X140275216Y-110257856D01*
X140725273Y-110444737D01*
X141212589Y-110445162D01*
X141662972Y-110259067D01*
X141927550Y-109994950D01*
X142507901Y-109994950D01*
X142568852Y-110086170D01*
X142966254Y-110351706D01*
X143435022Y-110444950D01*
X143584978Y-110444950D01*
X143630042Y-110435986D01*
X144232027Y-111037972D01*
X144272801Y-111065216D01*
X144483439Y-111205960D01*
X144780000Y-111264950D01*
X146094869Y-111264950D01*
X146085746Y-111310000D01*
X146085746Y-112210000D01*
X146118864Y-112386006D01*
X146222883Y-112547656D01*
X146381598Y-112656102D01*
X146545050Y-112689202D01*
X146545050Y-112709005D01*
X146178893Y-113075162D01*
X145807411Y-113074838D01*
X145357028Y-113260933D01*
X145012144Y-113605216D01*
X144825263Y-114055273D01*
X144824838Y-114542589D01*
X145010933Y-114992972D01*
X145355216Y-115337856D01*
X145805273Y-115524737D01*
X146292589Y-115525162D01*
X146742972Y-115339067D01*
X146899614Y-115182697D01*
X147884150Y-115182697D01*
X147960743Y-115378846D01*
X148421499Y-115537529D01*
X148907907Y-115507811D01*
X149219257Y-115378846D01*
X149295850Y-115182697D01*
X148590000Y-114476847D01*
X147884150Y-115182697D01*
X146899614Y-115182697D01*
X147087856Y-114994784D01*
X147274737Y-114544727D01*
X147275063Y-114170881D01*
X147372446Y-114073498D01*
X147352471Y-114131499D01*
X147382189Y-114617907D01*
X147511154Y-114929257D01*
X147707303Y-115005850D01*
X148413153Y-114300000D01*
X148766847Y-114300000D01*
X149472697Y-115005850D01*
X149668846Y-114929257D01*
X149827529Y-114468501D01*
X149813263Y-114235000D01*
X160105746Y-114235000D01*
X160105746Y-115635000D01*
X160138864Y-115811006D01*
X160242883Y-115972656D01*
X160401598Y-116081102D01*
X160590000Y-116119254D01*
X161990000Y-116119254D01*
X162166006Y-116086136D01*
X162327656Y-115982117D01*
X162436102Y-115823402D01*
X162474254Y-115635000D01*
X162474254Y-114235000D01*
X162441136Y-114058994D01*
X162337117Y-113897344D01*
X162178402Y-113788898D01*
X161990000Y-113750746D01*
X160590000Y-113750746D01*
X160413994Y-113783864D01*
X160252344Y-113887883D01*
X160143898Y-114046598D01*
X160105746Y-114235000D01*
X149813263Y-114235000D01*
X149797811Y-113982093D01*
X149668846Y-113670743D01*
X149472697Y-113594150D01*
X148766847Y-114300000D01*
X148413153Y-114300000D01*
X148399011Y-114285858D01*
X148575858Y-114109011D01*
X148590000Y-114123153D01*
X149295850Y-113417303D01*
X149219257Y-113221154D01*
X148758501Y-113062471D01*
X148272093Y-113092189D01*
X148065563Y-113177736D01*
X148094950Y-113030000D01*
X148094950Y-112689559D01*
X148246006Y-112661136D01*
X148407656Y-112557117D01*
X148422802Y-112534950D01*
X150172768Y-112534950D01*
X150435216Y-112797856D01*
X150885273Y-112984737D01*
X151372589Y-112985162D01*
X151822972Y-112799067D01*
X152167856Y-112454784D01*
X152354737Y-112004727D01*
X152355141Y-111541086D01*
X152403915Y-111589860D01*
X152370072Y-111760000D01*
X152463316Y-112228768D01*
X152728852Y-112626170D01*
X153126254Y-112891706D01*
X153595022Y-112984950D01*
X153744978Y-112984950D01*
X154213746Y-112891706D01*
X154586413Y-112642697D01*
X155504150Y-112642697D01*
X155580743Y-112838846D01*
X156041499Y-112997529D01*
X156527907Y-112967811D01*
X156839257Y-112838846D01*
X156915850Y-112642697D01*
X156210000Y-111936847D01*
X155504150Y-112642697D01*
X154586413Y-112642697D01*
X154611148Y-112626170D01*
X154876684Y-112228768D01*
X154969928Y-111760000D01*
X154936411Y-111591499D01*
X154972471Y-111591499D01*
X155002189Y-112077907D01*
X155131154Y-112389257D01*
X155327303Y-112465850D01*
X156033153Y-111760000D01*
X155327303Y-111054150D01*
X155131154Y-111130743D01*
X154972471Y-111591499D01*
X154936411Y-111591499D01*
X154876684Y-111291232D01*
X154611148Y-110893830D01*
X154213746Y-110628294D01*
X153744978Y-110535050D01*
X153595022Y-110535050D01*
X153549958Y-110544014D01*
X152468533Y-109462589D01*
X154984838Y-109462589D01*
X155170933Y-109912972D01*
X155515216Y-110257856D01*
X155965273Y-110444737D01*
X156339119Y-110445063D01*
X156436502Y-110542446D01*
X156378501Y-110522471D01*
X155892093Y-110552189D01*
X155580743Y-110681154D01*
X155504150Y-110877303D01*
X156210000Y-111583153D01*
X156224143Y-111569011D01*
X156400990Y-111745858D01*
X156386847Y-111760000D01*
X157092697Y-112465850D01*
X157288846Y-112389257D01*
X157447529Y-111928501D01*
X157423125Y-111529070D01*
X157515746Y-111621691D01*
X157515746Y-112510000D01*
X157548864Y-112686006D01*
X157652883Y-112847656D01*
X157811598Y-112956102D01*
X158000000Y-112994254D01*
X159500000Y-112994254D01*
X159676006Y-112961136D01*
X159837656Y-112857117D01*
X159946102Y-112698402D01*
X159979202Y-112534950D01*
X160346844Y-112534950D01*
X160423830Y-112650168D01*
X160821232Y-112915704D01*
X161290000Y-113008948D01*
X161758768Y-112915704D01*
X162156170Y-112650168D01*
X162421706Y-112252766D01*
X162514950Y-111783998D01*
X162514950Y-111736002D01*
X162421706Y-111267234D01*
X162156170Y-110869832D01*
X161758768Y-110604296D01*
X161290000Y-110511052D01*
X160821232Y-110604296D01*
X160423830Y-110869832D01*
X160346844Y-110985050D01*
X159979559Y-110985050D01*
X159951136Y-110833994D01*
X159847117Y-110672344D01*
X159688402Y-110563898D01*
X159500000Y-110525746D01*
X158611691Y-110525746D01*
X157434838Y-109348894D01*
X157435162Y-108977411D01*
X157249067Y-108527028D01*
X156904784Y-108182144D01*
X156454727Y-107995263D01*
X155967411Y-107994838D01*
X155517028Y-108180933D01*
X155172144Y-108525216D01*
X154985263Y-108975273D01*
X154984838Y-109462589D01*
X152468533Y-109462589D01*
X152354838Y-109348894D01*
X152355162Y-108977411D01*
X152169067Y-108527028D01*
X151824784Y-108182144D01*
X151374727Y-107995263D01*
X150887411Y-107994838D01*
X150437028Y-108180933D01*
X150172450Y-108445050D01*
X148117079Y-108445050D01*
X147997961Y-108365458D01*
X147643998Y-108295050D01*
X146996002Y-108295050D01*
X146642039Y-108365458D01*
X146341964Y-108565962D01*
X146141460Y-108866037D01*
X146071052Y-109220000D01*
X146141460Y-109573963D01*
X146235731Y-109715050D01*
X145100995Y-109715050D01*
X144776085Y-109390140D01*
X144809928Y-109220000D01*
X144716684Y-108751232D01*
X144451148Y-108353830D01*
X144053746Y-108088294D01*
X143584978Y-107995050D01*
X143435022Y-107995050D01*
X142966254Y-108088294D01*
X142568852Y-108353830D01*
X142507901Y-108445050D01*
X141927232Y-108445050D01*
X141664784Y-108182144D01*
X141214727Y-107995263D01*
X140727411Y-107994838D01*
X140277028Y-108180933D01*
X140012450Y-108445050D01*
X139387232Y-108445050D01*
X139124784Y-108182144D01*
X138674727Y-107995263D01*
X138187411Y-107994838D01*
X137737028Y-108180933D01*
X137392144Y-108525216D01*
X137205263Y-108975273D01*
X137204838Y-109462589D01*
X137114738Y-109462589D01*
X137115162Y-108977411D01*
X136929067Y-108527028D01*
X136664950Y-108262450D01*
X136664950Y-107637232D01*
X136927856Y-107374784D01*
X137114737Y-106924727D01*
X137114738Y-106922589D01*
X137204838Y-106922589D01*
X137390933Y-107372972D01*
X137735216Y-107717856D01*
X138185273Y-107904737D01*
X138672589Y-107905162D01*
X139122972Y-107719067D01*
X139387550Y-107454950D01*
X140012768Y-107454950D01*
X140275216Y-107717856D01*
X140725273Y-107904737D01*
X141212589Y-107905162D01*
X141662972Y-107719067D01*
X141927550Y-107454950D01*
X142507901Y-107454950D01*
X142568852Y-107546170D01*
X142966254Y-107811706D01*
X143435022Y-107904950D01*
X143584978Y-107904950D01*
X144053746Y-107811706D01*
X144451148Y-107546170D01*
X144716684Y-107148768D01*
X144809928Y-106680000D01*
X144776085Y-106509860D01*
X145100995Y-106184950D01*
X146235731Y-106184950D01*
X146141460Y-106326037D01*
X146071052Y-106680000D01*
X146141460Y-107033963D01*
X146341964Y-107334038D01*
X146642039Y-107534542D01*
X146996002Y-107604950D01*
X147643998Y-107604950D01*
X147997961Y-107534542D01*
X148117079Y-107454950D01*
X150172768Y-107454950D01*
X150435216Y-107717856D01*
X150885273Y-107904737D01*
X151372589Y-107905162D01*
X151822972Y-107719067D01*
X152167856Y-107374784D01*
X152354737Y-106924727D01*
X152355063Y-106550881D01*
X153549958Y-105355986D01*
X153595022Y-105364950D01*
X153744978Y-105364950D01*
X154213746Y-105271706D01*
X154611148Y-105006170D01*
X154672099Y-104914950D01*
X155207901Y-104914950D01*
X155268852Y-105006170D01*
X155666254Y-105271706D01*
X156135022Y-105364950D01*
X156284978Y-105364950D01*
X156753746Y-105271706D01*
X157151148Y-105006170D01*
X157212099Y-104914950D01*
X157806844Y-104914950D01*
X157883830Y-105030168D01*
X158281232Y-105295704D01*
X158750000Y-105388948D01*
X159218768Y-105295704D01*
X159616170Y-105030168D01*
X159881706Y-104632766D01*
X159974950Y-104163998D01*
X159974950Y-104116002D01*
X159881706Y-103647234D01*
X159616170Y-103249832D01*
X159218768Y-102984296D01*
X158750000Y-102891052D01*
X158281232Y-102984296D01*
X157883830Y-103249832D01*
X157806844Y-103365050D01*
X157212099Y-103365050D01*
X157151148Y-103273830D01*
X156753746Y-103008294D01*
X156284978Y-102915050D01*
X156135022Y-102915050D01*
X155666254Y-103008294D01*
X155268852Y-103273830D01*
X155207901Y-103365050D01*
X154672099Y-103365050D01*
X154611148Y-103273830D01*
X154213746Y-103008294D01*
X153744978Y-102915050D01*
X153595022Y-102915050D01*
X153126254Y-103008294D01*
X152728852Y-103273830D01*
X152463316Y-103671232D01*
X152370072Y-104140000D01*
X152403915Y-104310140D01*
X152354759Y-104359296D01*
X152355162Y-103897411D01*
X152169067Y-103447028D01*
X151824784Y-103102144D01*
X151374727Y-102915263D01*
X150887411Y-102914838D01*
X150437028Y-103100933D01*
X150172450Y-103365050D01*
X148425293Y-103365050D01*
X148417117Y-103352344D01*
X148258402Y-103243898D01*
X148094950Y-103210798D01*
X148094950Y-102870000D01*
X148064001Y-102714408D01*
X148421499Y-102837529D01*
X148907907Y-102807811D01*
X149219257Y-102678846D01*
X149295850Y-102482697D01*
X148590000Y-101776847D01*
X148575858Y-101790990D01*
X148399011Y-101614143D01*
X148413153Y-101600000D01*
X148766847Y-101600000D01*
X149472697Y-102305850D01*
X149668846Y-102229257D01*
X149827529Y-101768501D01*
X149797811Y-101282093D01*
X149668846Y-100970743D01*
X149472697Y-100894150D01*
X148766847Y-101600000D01*
X148413153Y-101600000D01*
X147707303Y-100894150D01*
X147511154Y-100970743D01*
X147352471Y-101431499D01*
X147376875Y-101830930D01*
X147274838Y-101728893D01*
X147275162Y-101357411D01*
X147089067Y-100907028D01*
X146899673Y-100717303D01*
X147884150Y-100717303D01*
X148590000Y-101423153D01*
X149295850Y-100717303D01*
X149219257Y-100521154D01*
X148758501Y-100362471D01*
X148272093Y-100392189D01*
X147960743Y-100521154D01*
X147884150Y-100717303D01*
X146899673Y-100717303D01*
X146744784Y-100562144D01*
X146294727Y-100375263D01*
X145807411Y-100374838D01*
X145357028Y-100560933D01*
X145012144Y-100905216D01*
X144825263Y-101355273D01*
X144824838Y-101842589D01*
X145010933Y-102292972D01*
X145355216Y-102637856D01*
X145805273Y-102824737D01*
X146179119Y-102825063D01*
X146545050Y-103190995D01*
X146545050Y-103210441D01*
X146393994Y-103238864D01*
X146232344Y-103342883D01*
X146123898Y-103501598D01*
X146085746Y-103690000D01*
X146085746Y-104590000D01*
X146094223Y-104635050D01*
X144780000Y-104635050D01*
X144483439Y-104694040D01*
X144377164Y-104765051D01*
X144232027Y-104862028D01*
X143630042Y-105464014D01*
X143584978Y-105455050D01*
X143435022Y-105455050D01*
X142966254Y-105548294D01*
X142568852Y-105813830D01*
X142507901Y-105905050D01*
X141927232Y-105905050D01*
X141664784Y-105642144D01*
X141214727Y-105455263D01*
X140727411Y-105454838D01*
X140277028Y-105640933D01*
X140012450Y-105905050D01*
X139387232Y-105905050D01*
X139124784Y-105642144D01*
X138674727Y-105455263D01*
X138187411Y-105454838D01*
X137737028Y-105640933D01*
X137392144Y-105985216D01*
X137205263Y-106435273D01*
X137204838Y-106922589D01*
X137114738Y-106922589D01*
X137115162Y-106437411D01*
X136929067Y-105987028D01*
X136584784Y-105642144D01*
X136134727Y-105455263D01*
X135647411Y-105454838D01*
X135197028Y-105640933D01*
X134932450Y-105905050D01*
X132877079Y-105905050D01*
X132757961Y-105825458D01*
X132403998Y-105755050D01*
X131756002Y-105755050D01*
X131402039Y-105825458D01*
X131101964Y-106025962D01*
X130901460Y-106326037D01*
X130831052Y-106680000D01*
X130901460Y-107033963D01*
X130995731Y-107175050D01*
X129620000Y-107175050D01*
X129323439Y-107234040D01*
X129215735Y-107306006D01*
X129072027Y-107402028D01*
X128180638Y-108293418D01*
X128248948Y-107950000D01*
X128178540Y-107596037D01*
X128093432Y-107468664D01*
X128196102Y-107318402D01*
X128234254Y-107130000D01*
X128234254Y-106230000D01*
X128201136Y-106053994D01*
X128097117Y-105892344D01*
X127938402Y-105783898D01*
X127774950Y-105750798D01*
X127774950Y-105097232D01*
X128037856Y-104834784D01*
X128224737Y-104384727D01*
X128225162Y-103897411D01*
X128039067Y-103447028D01*
X127774950Y-103182450D01*
X127774950Y-102870000D01*
X127715960Y-102573439D01*
X127631966Y-102447734D01*
X127547972Y-102322027D01*
X126750967Y-101525022D01*
X130855050Y-101525022D01*
X130855050Y-101674978D01*
X130948294Y-102143746D01*
X131213830Y-102541148D01*
X131611232Y-102806684D01*
X132080000Y-102899928D01*
X132548768Y-102806684D01*
X132946170Y-102541148D01*
X133211706Y-102143746D01*
X133304950Y-101674978D01*
X133304950Y-101525022D01*
X133211706Y-101056254D01*
X132946170Y-100658852D01*
X132548768Y-100393316D01*
X132080000Y-100300072D01*
X131611232Y-100393316D01*
X131213830Y-100658852D01*
X130948294Y-101056254D01*
X130855050Y-101525022D01*
X126750967Y-101525022D01*
X126277972Y-101052028D01*
X126268528Y-101045718D01*
X126026561Y-100884040D01*
X125730000Y-100825050D01*
X125417232Y-100825050D01*
X125154784Y-100562144D01*
X124704727Y-100375263D01*
X124217411Y-100374838D01*
X123767028Y-100560933D01*
X123422144Y-100905216D01*
X123235263Y-101355273D01*
X123234838Y-101842589D01*
X123420933Y-102292972D01*
X123765216Y-102637856D01*
X124215273Y-102824737D01*
X124702589Y-102825162D01*
X125152972Y-102639067D01*
X125413274Y-102379218D01*
X126220933Y-103186878D01*
X125962144Y-103445216D01*
X125775263Y-103895273D01*
X125774838Y-104382589D01*
X125960933Y-104832972D01*
X126225050Y-105097550D01*
X126225050Y-105750441D01*
X126073994Y-105778864D01*
X125912344Y-105882883D01*
X125803898Y-106041598D01*
X125765746Y-106230000D01*
X125765746Y-107130000D01*
X125774223Y-107175050D01*
X124460000Y-107175050D01*
X124163439Y-107234040D01*
X124055735Y-107306006D01*
X123912027Y-107402028D01*
X123120502Y-108193554D01*
X123168948Y-107950000D01*
X123098540Y-107596037D01*
X123013432Y-107468664D01*
X123116102Y-107318402D01*
X123154254Y-107130000D01*
X123154254Y-106230000D01*
X123121136Y-106053994D01*
X123017117Y-105892344D01*
X122858402Y-105783898D01*
X122694950Y-105750798D01*
X122694950Y-105097232D01*
X122957856Y-104834784D01*
X123144737Y-104384727D01*
X123145162Y-103897411D01*
X122959067Y-103447028D01*
X122694950Y-103182450D01*
X122694950Y-102557232D01*
X122957856Y-102294784D01*
X123144737Y-101844727D01*
X123145162Y-101357411D01*
X122959067Y-100907028D01*
X122614784Y-100562144D01*
X122164727Y-100375263D01*
X121677411Y-100374838D01*
X121227028Y-100560933D01*
X120882144Y-100905216D01*
X120695263Y-101355273D01*
X120694838Y-101842589D01*
X120880933Y-102292972D01*
X121145050Y-102557550D01*
X121145050Y-103182768D01*
X120882144Y-103445216D01*
X120695263Y-103895273D01*
X120694838Y-104382589D01*
X120880933Y-104832972D01*
X121145050Y-105097550D01*
X121145050Y-105750441D01*
X120993994Y-105778864D01*
X120832344Y-105882883D01*
X120723898Y-106041598D01*
X120685746Y-106230000D01*
X120685746Y-106751171D01*
X120254966Y-106320392D01*
X120321148Y-106276170D01*
X120586684Y-105878768D01*
X120679928Y-105410000D01*
X120586684Y-104941232D01*
X120321148Y-104543830D01*
X119923746Y-104278294D01*
X119454978Y-104185050D01*
X119305022Y-104185050D01*
X118836254Y-104278294D01*
X118438852Y-104543830D01*
X118173316Y-104941232D01*
X118080072Y-105410000D01*
X116249950Y-105410000D01*
X116249950Y-98672697D01*
X118674150Y-98672697D01*
X118750743Y-98868846D01*
X119211499Y-99027529D01*
X119697907Y-98997811D01*
X120009257Y-98868846D01*
X120085850Y-98672697D01*
X119380000Y-97966847D01*
X118674150Y-98672697D01*
X116249950Y-98672697D01*
X116249950Y-97621499D01*
X118142471Y-97621499D01*
X118172189Y-98107907D01*
X118301154Y-98419257D01*
X118497303Y-98495850D01*
X119203153Y-97790000D01*
X119556847Y-97790000D01*
X120262697Y-98495850D01*
X120458846Y-98419257D01*
X120617529Y-97958501D01*
X120587811Y-97472093D01*
X120458846Y-97160743D01*
X120262697Y-97084150D01*
X119556847Y-97790000D01*
X119203153Y-97790000D01*
X118497303Y-97084150D01*
X118301154Y-97160743D01*
X118142471Y-97621499D01*
X116249950Y-97621499D01*
X116249950Y-96907303D01*
X118674150Y-96907303D01*
X119380000Y-97613153D01*
X120085850Y-96907303D01*
X120040942Y-96792295D01*
X123084812Y-96792295D01*
X123293694Y-97297829D01*
X123680136Y-97684946D01*
X124055046Y-97840622D01*
X123991232Y-97853316D01*
X123593830Y-98118852D01*
X123328294Y-98516254D01*
X123235050Y-98985022D01*
X123235050Y-99134978D01*
X123328294Y-99603746D01*
X123593830Y-100001148D01*
X123991232Y-100266684D01*
X124460000Y-100359928D01*
X124928768Y-100266684D01*
X125326170Y-100001148D01*
X125591706Y-99603746D01*
X125684950Y-99134978D01*
X125684950Y-98985022D01*
X125591706Y-98516254D01*
X125326170Y-98118852D01*
X124928768Y-97853316D01*
X124864549Y-97840542D01*
X125237829Y-97686306D01*
X125624946Y-97299864D01*
X125834711Y-96794694D01*
X125835188Y-96247705D01*
X125626306Y-95742171D01*
X125504349Y-95620000D01*
X130695746Y-95620000D01*
X130695746Y-97420000D01*
X130728864Y-97596006D01*
X130832883Y-97757656D01*
X130991598Y-97866102D01*
X131180000Y-97904254D01*
X131305050Y-97904254D01*
X131305050Y-98102768D01*
X131042144Y-98365216D01*
X130855263Y-98815273D01*
X130854838Y-99302589D01*
X131040933Y-99752972D01*
X131385216Y-100097856D01*
X131835273Y-100284737D01*
X132322589Y-100285162D01*
X132772972Y-100099067D01*
X133117856Y-99754784D01*
X133304737Y-99304727D01*
X133305162Y-98817411D01*
X133119067Y-98367028D01*
X132854950Y-98102450D01*
X132854950Y-97904254D01*
X132980000Y-97904254D01*
X133156006Y-97871136D01*
X133317656Y-97767117D01*
X133426102Y-97608402D01*
X133464254Y-97420000D01*
X133464254Y-97294950D01*
X134722504Y-97294950D01*
X134723694Y-97297829D01*
X135110136Y-97684946D01*
X135115050Y-97686986D01*
X135115050Y-98082780D01*
X134948852Y-98193830D01*
X134683316Y-98591232D01*
X134590072Y-99060000D01*
X134683316Y-99528768D01*
X134948852Y-99926170D01*
X135115050Y-100037220D01*
X135115050Y-100330000D01*
X135174040Y-100626561D01*
X135234672Y-100717303D01*
X135342028Y-100877972D01*
X136612027Y-102147972D01*
X136733679Y-102229257D01*
X136863439Y-102315960D01*
X137160000Y-102374950D01*
X137472768Y-102374950D01*
X137735216Y-102637856D01*
X138185273Y-102824737D01*
X138672589Y-102825162D01*
X139122972Y-102639067D01*
X139467856Y-102294784D01*
X139654737Y-101844727D01*
X139655162Y-101357411D01*
X139469067Y-100907028D01*
X139124784Y-100562144D01*
X138674727Y-100375263D01*
X138187411Y-100374838D01*
X137737028Y-100560933D01*
X137476726Y-100820781D01*
X136681863Y-100025919D01*
X136831148Y-99926170D01*
X137096684Y-99528768D01*
X137189928Y-99060000D01*
X139670072Y-99060000D01*
X139763316Y-99528768D01*
X140028852Y-99926170D01*
X140426254Y-100191706D01*
X140895022Y-100284950D01*
X141044978Y-100284950D01*
X141513746Y-100191706D01*
X141886413Y-99942697D01*
X142804150Y-99942697D01*
X142880743Y-100138846D01*
X143341499Y-100297529D01*
X143827907Y-100267811D01*
X144139257Y-100138846D01*
X144215850Y-99942697D01*
X143510000Y-99236847D01*
X142804150Y-99942697D01*
X141886413Y-99942697D01*
X141911148Y-99926170D01*
X142176684Y-99528768D01*
X142269928Y-99060000D01*
X142236411Y-98891499D01*
X142272471Y-98891499D01*
X142302189Y-99377907D01*
X142431154Y-99689257D01*
X142627303Y-99765850D01*
X143333153Y-99060000D01*
X143686847Y-99060000D01*
X144392697Y-99765850D01*
X144588846Y-99689257D01*
X144747529Y-99228501D01*
X144717811Y-98742093D01*
X144588846Y-98430743D01*
X144392697Y-98354150D01*
X143686847Y-99060000D01*
X143333153Y-99060000D01*
X142627303Y-98354150D01*
X142431154Y-98430743D01*
X142272471Y-98891499D01*
X142236411Y-98891499D01*
X142176684Y-98591232D01*
X141911148Y-98193830D01*
X141513746Y-97928294D01*
X141044978Y-97835050D01*
X140895022Y-97835050D01*
X140426254Y-97928294D01*
X140028852Y-98193830D01*
X139763316Y-98591232D01*
X139670072Y-99060000D01*
X137189928Y-99060000D01*
X137096684Y-98591232D01*
X136831148Y-98193830D01*
X136664950Y-98082780D01*
X136664950Y-97687496D01*
X136667829Y-97686306D01*
X137054946Y-97299864D01*
X137264711Y-96794694D01*
X137265188Y-96247705D01*
X137056306Y-95742171D01*
X136934349Y-95620000D01*
X142125746Y-95620000D01*
X142125746Y-97420000D01*
X142158864Y-97596006D01*
X142262883Y-97757656D01*
X142421598Y-97866102D01*
X142610000Y-97904254D01*
X143066397Y-97904254D01*
X142880743Y-97981154D01*
X142804150Y-98177303D01*
X143510000Y-98883153D01*
X144215850Y-98177303D01*
X144139257Y-97981154D01*
X143915968Y-97904254D01*
X144410000Y-97904254D01*
X144586006Y-97871136D01*
X144747656Y-97767117D01*
X144856102Y-97608402D01*
X144894254Y-97420000D01*
X144894254Y-96762589D01*
X147364838Y-96762589D01*
X147550933Y-97212972D01*
X147895216Y-97557856D01*
X148345273Y-97744737D01*
X148832589Y-97745162D01*
X149282972Y-97559067D01*
X149627856Y-97214784D01*
X149814737Y-96764727D01*
X149815162Y-96277411D01*
X149629067Y-95827028D01*
X149284784Y-95482144D01*
X148834727Y-95295263D01*
X148347411Y-95294838D01*
X147897028Y-95480933D01*
X147552144Y-95825216D01*
X147365263Y-96275273D01*
X147364838Y-96762589D01*
X144894254Y-96762589D01*
X144894254Y-95620000D01*
X144861136Y-95443994D01*
X144757117Y-95282344D01*
X144598402Y-95173898D01*
X144410000Y-95135746D01*
X142610000Y-95135746D01*
X142433994Y-95168864D01*
X142272344Y-95272883D01*
X142163898Y-95431598D01*
X142125746Y-95620000D01*
X136934349Y-95620000D01*
X136669864Y-95355054D01*
X136164694Y-95145289D01*
X135904905Y-95145062D01*
X136004543Y-95103893D01*
X136377583Y-94731504D01*
X136579719Y-94244705D01*
X136579950Y-93980000D01*
X144750072Y-93980000D01*
X144843316Y-94448768D01*
X145108852Y-94846170D01*
X145506254Y-95111706D01*
X145975022Y-95204950D01*
X146124978Y-95204950D01*
X146593746Y-95111706D01*
X146991148Y-94846170D01*
X147256684Y-94448768D01*
X147301673Y-94222589D01*
X148634838Y-94222589D01*
X148820933Y-94672972D01*
X149165216Y-95017856D01*
X149615273Y-95204737D01*
X149989119Y-95205063D01*
X150355050Y-95570995D01*
X150355050Y-98102768D01*
X150092144Y-98365216D01*
X149905263Y-98815273D01*
X149904838Y-99302589D01*
X150090933Y-99752972D01*
X150435216Y-100097856D01*
X150885273Y-100284737D01*
X151372589Y-100285162D01*
X151822972Y-100099067D01*
X152167856Y-99754784D01*
X152354737Y-99304727D01*
X152355162Y-98817411D01*
X152169067Y-98367028D01*
X151904950Y-98102450D01*
X151904950Y-97402697D01*
X152964150Y-97402697D01*
X153040743Y-97598846D01*
X153501499Y-97757529D01*
X153987907Y-97727811D01*
X154299257Y-97598846D01*
X154375850Y-97402697D01*
X153670000Y-96696847D01*
X152964150Y-97402697D01*
X151904950Y-97402697D01*
X151904950Y-96351499D01*
X152432471Y-96351499D01*
X152462189Y-96837907D01*
X152591154Y-97149257D01*
X152787303Y-97225850D01*
X153493153Y-96520000D01*
X153846847Y-96520000D01*
X154552697Y-97225850D01*
X154748846Y-97149257D01*
X154882013Y-96762589D01*
X154984838Y-96762589D01*
X155170933Y-97212972D01*
X155515216Y-97557856D01*
X155965273Y-97744737D01*
X156452589Y-97745162D01*
X156902972Y-97559067D01*
X157167550Y-97294950D01*
X157794006Y-97294950D01*
X159472028Y-98972973D01*
X159723440Y-99140961D01*
X160020000Y-99199950D01*
X160191470Y-99199950D01*
X160538496Y-99547583D01*
X160893789Y-99695113D01*
X160540457Y-99841107D01*
X160167417Y-100213496D01*
X159965281Y-100700295D01*
X159964821Y-101227393D01*
X160166107Y-101714543D01*
X160515050Y-102064096D01*
X160515050Y-102910441D01*
X160363994Y-102938864D01*
X160202344Y-103042883D01*
X160093898Y-103201598D01*
X160055746Y-103390000D01*
X160055746Y-104890000D01*
X160088864Y-105066006D01*
X160192883Y-105227656D01*
X160351598Y-105336102D01*
X160390147Y-105343908D01*
X159829006Y-105905050D01*
X157167232Y-105905050D01*
X156904784Y-105642144D01*
X156454727Y-105455263D01*
X155967411Y-105454838D01*
X155517028Y-105640933D01*
X155172144Y-105985216D01*
X154985263Y-106435273D01*
X154984838Y-106922589D01*
X155170933Y-107372972D01*
X155515216Y-107717856D01*
X155965273Y-107904737D01*
X156452589Y-107905162D01*
X156902972Y-107719067D01*
X157167550Y-107454950D01*
X160150000Y-107454950D01*
X160446561Y-107395960D01*
X160697972Y-107227972D01*
X161837972Y-106087973D01*
X161924835Y-105957973D01*
X162005960Y-105836561D01*
X162064950Y-105540000D01*
X162064950Y-105369559D01*
X162216006Y-105341136D01*
X162377656Y-105237117D01*
X162486102Y-105078402D01*
X162524254Y-104890000D01*
X162524254Y-103390000D01*
X162491136Y-103213994D01*
X162387117Y-103052344D01*
X162228402Y-102943898D01*
X162064950Y-102910798D01*
X162064950Y-102063530D01*
X162412583Y-101716504D01*
X162614719Y-101229705D01*
X162615179Y-100702607D01*
X162413893Y-100215457D01*
X162041504Y-99842417D01*
X161686211Y-99694887D01*
X162039543Y-99548893D01*
X162412583Y-99176504D01*
X162614719Y-98689705D01*
X162615179Y-98162607D01*
X162413893Y-97675457D01*
X162041504Y-97302417D01*
X161554705Y-97100281D01*
X161027607Y-97099821D01*
X160540457Y-97301107D01*
X160266015Y-97575070D01*
X158662972Y-95972028D01*
X158648280Y-95962211D01*
X158411561Y-95804040D01*
X158115000Y-95745050D01*
X157167232Y-95745050D01*
X156904784Y-95482144D01*
X156454727Y-95295263D01*
X155967411Y-95294838D01*
X155517028Y-95480933D01*
X155172144Y-95825216D01*
X154985263Y-96275273D01*
X154984838Y-96762589D01*
X154882013Y-96762589D01*
X154907529Y-96688501D01*
X154877811Y-96202093D01*
X154748846Y-95890743D01*
X154552697Y-95814150D01*
X153846847Y-96520000D01*
X153493153Y-96520000D01*
X152787303Y-95814150D01*
X152591154Y-95890743D01*
X152432471Y-96351499D01*
X151904950Y-96351499D01*
X151904950Y-95637303D01*
X152964150Y-95637303D01*
X153670000Y-96343153D01*
X154375850Y-95637303D01*
X154299257Y-95441154D01*
X153838501Y-95282471D01*
X153352093Y-95312189D01*
X153040743Y-95441154D01*
X152964150Y-95637303D01*
X151904950Y-95637303D01*
X151904950Y-95250000D01*
X151845960Y-94953439D01*
X151761966Y-94827734D01*
X151677972Y-94702027D01*
X151084838Y-94108893D01*
X151085015Y-93905022D01*
X156255050Y-93905022D01*
X156255050Y-94054978D01*
X156348294Y-94523746D01*
X156613830Y-94921148D01*
X157011232Y-95186684D01*
X157480000Y-95279928D01*
X157948768Y-95186684D01*
X158346170Y-94921148D01*
X158611706Y-94523746D01*
X158704950Y-94054978D01*
X158704950Y-93905022D01*
X158611706Y-93436254D01*
X158346170Y-93038852D01*
X157948768Y-92773316D01*
X157480000Y-92680072D01*
X157011232Y-92773316D01*
X156613830Y-93038852D01*
X156348294Y-93436254D01*
X156255050Y-93905022D01*
X151085015Y-93905022D01*
X151085162Y-93737411D01*
X150899067Y-93287028D01*
X150554784Y-92942144D01*
X150104727Y-92755263D01*
X149617411Y-92754838D01*
X149167028Y-92940933D01*
X148822144Y-93285216D01*
X148635263Y-93735273D01*
X148634838Y-94222589D01*
X147301673Y-94222589D01*
X147349928Y-93980000D01*
X147256684Y-93511232D01*
X146991148Y-93113830D01*
X146593746Y-92848294D01*
X146124978Y-92755050D01*
X145975022Y-92755050D01*
X145506254Y-92848294D01*
X145108852Y-93113830D01*
X144843316Y-93511232D01*
X144750072Y-93980000D01*
X136579950Y-93980000D01*
X136580179Y-93717607D01*
X136378893Y-93230457D01*
X136006504Y-92857417D01*
X135519705Y-92655281D01*
X134992607Y-92654821D01*
X134505457Y-92856107D01*
X134132417Y-93228496D01*
X133984887Y-93583789D01*
X133838893Y-93230457D01*
X133466504Y-92857417D01*
X132979705Y-92655281D01*
X132452607Y-92654821D01*
X131965457Y-92856107D01*
X131592417Y-93228496D01*
X131390281Y-93715295D01*
X131389821Y-94242393D01*
X131399386Y-94265541D01*
X131364040Y-94318439D01*
X131305050Y-94615000D01*
X131305050Y-95135746D01*
X131180000Y-95135746D01*
X131003994Y-95168864D01*
X130842344Y-95272883D01*
X130733898Y-95431598D01*
X130695746Y-95620000D01*
X125504349Y-95620000D01*
X125239864Y-95355054D01*
X124734694Y-95145289D01*
X124187705Y-95144812D01*
X123682171Y-95353694D01*
X123295054Y-95740136D01*
X123085289Y-96245306D01*
X123084812Y-96792295D01*
X120040942Y-96792295D01*
X120009257Y-96711154D01*
X119548501Y-96552471D01*
X119062093Y-96582189D01*
X118750743Y-96711154D01*
X118674150Y-96907303D01*
X116249950Y-96907303D01*
X116249950Y-96524950D01*
X118700000Y-96524950D01*
X118728203Y-96519441D01*
X118752998Y-96502998D01*
X120252998Y-95002998D01*
X120269045Y-94979160D01*
X120274950Y-94950000D01*
X120274950Y-93980000D01*
X120620072Y-93980000D01*
X120713316Y-94448768D01*
X120978852Y-94846170D01*
X121376254Y-95111706D01*
X121845022Y-95204950D01*
X121994978Y-95204950D01*
X122463746Y-95111706D01*
X122861148Y-94846170D01*
X123126684Y-94448768D01*
X123219928Y-93980000D01*
X123126684Y-93511232D01*
X122861148Y-93113830D01*
X122463746Y-92848294D01*
X121994978Y-92755050D01*
X121845022Y-92755050D01*
X121376254Y-92848294D01*
X120978852Y-93113830D01*
X120713316Y-93511232D01*
X120620072Y-93980000D01*
X120274950Y-93980000D01*
X120274950Y-92499950D01*
X159125050Y-92499950D01*
X159125050Y-94950000D01*
X159125050Y-94950000D01*
G37*
X159125050Y-94950000D02*
X159130559Y-94978203D01*
X159147002Y-95002998D01*
X160647002Y-96502998D01*
X160670840Y-96519045D01*
X160700000Y-96524950D01*
X163150050Y-96524950D01*
X163150050Y-119375050D01*
X160700000Y-119375050D01*
X160671797Y-119380559D01*
X160647002Y-119397002D01*
X159147002Y-120897002D01*
X159130955Y-120920840D01*
X159125050Y-120950000D01*
X159125050Y-123400050D01*
X120274950Y-123400050D01*
X120274950Y-120950000D01*
X120269441Y-120921797D01*
X120252998Y-120897002D01*
X119618693Y-120262697D01*
X121214150Y-120262697D01*
X121290743Y-120458846D01*
X121751499Y-120617529D01*
X122237907Y-120587811D01*
X122549257Y-120458846D01*
X122625850Y-120262697D01*
X121920000Y-119556847D01*
X121214150Y-120262697D01*
X119618693Y-120262697D01*
X118752998Y-119397002D01*
X118729160Y-119380955D01*
X118700000Y-119375050D01*
X116249950Y-119375050D01*
X116249950Y-118110000D01*
X118080072Y-118110000D01*
X118173316Y-118578768D01*
X118438852Y-118976170D01*
X118836254Y-119241706D01*
X119305022Y-119334950D01*
X119454978Y-119334950D01*
X119923746Y-119241706D01*
X119968953Y-119211499D01*
X120682471Y-119211499D01*
X120712189Y-119697907D01*
X120841154Y-120009257D01*
X121037303Y-120085850D01*
X121743153Y-119380000D01*
X122096847Y-119380000D01*
X122802697Y-120085850D01*
X122998846Y-120009257D01*
X123132013Y-119622589D01*
X123234838Y-119622589D01*
X123420933Y-120072972D01*
X123765216Y-120417856D01*
X124215273Y-120604737D01*
X124702589Y-120605162D01*
X125152972Y-120419067D01*
X125497856Y-120074784D01*
X125684737Y-119624727D01*
X125684738Y-119622589D01*
X128314838Y-119622589D01*
X128500933Y-120072972D01*
X128845216Y-120417856D01*
X129295273Y-120604737D01*
X129782589Y-120605162D01*
X130232972Y-120419067D01*
X130497550Y-120154950D01*
X133596087Y-120154950D01*
X134371233Y-120930097D01*
X134132417Y-121168496D01*
X133984887Y-121523789D01*
X133838893Y-121170457D01*
X133466504Y-120797417D01*
X132979705Y-120595281D01*
X132452607Y-120594821D01*
X131965457Y-120796107D01*
X131592417Y-121168496D01*
X131390281Y-121655295D01*
X131389821Y-122182393D01*
X131591107Y-122669543D01*
X131963496Y-123042583D01*
X132450295Y-123244719D01*
X132977393Y-123245179D01*
X133464543Y-123043893D01*
X133837583Y-122671504D01*
X133985113Y-122316211D01*
X134131107Y-122669543D01*
X134503496Y-123042583D01*
X134990295Y-123244719D01*
X135517393Y-123245179D01*
X136004543Y-123043893D01*
X136354096Y-122694950D01*
X138109006Y-122694950D01*
X138517028Y-123102973D01*
X138768440Y-123270961D01*
X139065000Y-123329950D01*
X140335000Y-123329950D01*
X140631561Y-123270960D01*
X140882972Y-123102972D01*
X141090889Y-122895055D01*
X141163079Y-122895118D01*
X141521543Y-122747004D01*
X141796040Y-122472986D01*
X141944780Y-122114780D01*
X141944949Y-121920000D01*
X144750072Y-121920000D01*
X144843316Y-122388768D01*
X145108852Y-122786170D01*
X145506254Y-123051706D01*
X145975022Y-123144950D01*
X146124978Y-123144950D01*
X146593746Y-123051706D01*
X146991148Y-122786170D01*
X147256684Y-122388768D01*
X147301673Y-122162589D01*
X148634838Y-122162589D01*
X148820933Y-122612972D01*
X149165216Y-122957856D01*
X149615273Y-123144737D01*
X150102589Y-123145162D01*
X150552972Y-122959067D01*
X150897856Y-122614784D01*
X151084737Y-122164727D01*
X151085015Y-121845022D01*
X156255050Y-121845022D01*
X156255050Y-121994978D01*
X156348294Y-122463746D01*
X156613830Y-122861148D01*
X157011232Y-123126684D01*
X157480000Y-123219928D01*
X157948768Y-123126684D01*
X158346170Y-122861148D01*
X158611706Y-122463746D01*
X158704950Y-121994978D01*
X158704950Y-121845022D01*
X158611706Y-121376254D01*
X158346170Y-120978852D01*
X157948768Y-120713316D01*
X157480000Y-120620072D01*
X157011232Y-120713316D01*
X156613830Y-120978852D01*
X156348294Y-121376254D01*
X156255050Y-121845022D01*
X151085015Y-121845022D01*
X151085063Y-121790881D01*
X151677972Y-121197973D01*
X151800578Y-121014479D01*
X151845960Y-120946561D01*
X151904950Y-120650000D01*
X151904950Y-120262697D01*
X152964150Y-120262697D01*
X153040743Y-120458846D01*
X153501499Y-120617529D01*
X153987907Y-120587811D01*
X154299257Y-120458846D01*
X154375850Y-120262697D01*
X153670000Y-119556847D01*
X152964150Y-120262697D01*
X151904950Y-120262697D01*
X151904950Y-119211499D01*
X152432471Y-119211499D01*
X152462189Y-119697907D01*
X152591154Y-120009257D01*
X152787303Y-120085850D01*
X153493153Y-119380000D01*
X153846847Y-119380000D01*
X154552697Y-120085850D01*
X154748846Y-120009257D01*
X154907529Y-119548501D01*
X154897235Y-119380000D01*
X154910072Y-119380000D01*
X155003316Y-119848768D01*
X155268852Y-120246170D01*
X155666254Y-120511706D01*
X156135022Y-120604950D01*
X156284978Y-120604950D01*
X156753746Y-120511706D01*
X157151148Y-120246170D01*
X157212099Y-120154950D01*
X158115000Y-120154950D01*
X158411561Y-120095960D01*
X158662972Y-119927972D01*
X160340995Y-118249950D01*
X160403416Y-118249950D01*
X160623575Y-118470494D01*
X161055263Y-118649746D01*
X161522687Y-118650154D01*
X161954686Y-118471655D01*
X162285494Y-118141425D01*
X162464746Y-117709737D01*
X162465154Y-117242313D01*
X162286655Y-116810314D01*
X161956425Y-116479506D01*
X161524737Y-116300254D01*
X161057313Y-116299846D01*
X160625314Y-116478345D01*
X160403221Y-116700050D01*
X160020000Y-116700050D01*
X159723440Y-116759039D01*
X159472028Y-116927027D01*
X157794006Y-118605050D01*
X157212099Y-118605050D01*
X157151148Y-118513830D01*
X156753746Y-118248294D01*
X156284978Y-118155050D01*
X156135022Y-118155050D01*
X155666254Y-118248294D01*
X155268852Y-118513830D01*
X155003316Y-118911232D01*
X154910072Y-119380000D01*
X154897235Y-119380000D01*
X154877811Y-119062093D01*
X154748846Y-118750743D01*
X154552697Y-118674150D01*
X153846847Y-119380000D01*
X153493153Y-119380000D01*
X152787303Y-118674150D01*
X152591154Y-118750743D01*
X152432471Y-119211499D01*
X151904950Y-119211499D01*
X151904950Y-118497303D01*
X152964150Y-118497303D01*
X153670000Y-119203153D01*
X154375850Y-118497303D01*
X154299257Y-118301154D01*
X153838501Y-118142471D01*
X153352093Y-118172189D01*
X153040743Y-118301154D01*
X152964150Y-118497303D01*
X151904950Y-118497303D01*
X151904950Y-117797232D01*
X152167856Y-117534784D01*
X152354737Y-117084727D01*
X152355162Y-116597411D01*
X152169067Y-116147028D01*
X151824784Y-115802144D01*
X151374727Y-115615263D01*
X150887411Y-115614838D01*
X150437028Y-115800933D01*
X150092144Y-116145216D01*
X149905263Y-116595273D01*
X149904838Y-117082589D01*
X150090933Y-117532972D01*
X150355050Y-117797550D01*
X150355050Y-120329005D01*
X149988893Y-120695162D01*
X149617411Y-120694838D01*
X149167028Y-120880933D01*
X148822144Y-121225216D01*
X148635263Y-121675273D01*
X148634838Y-122162589D01*
X147301673Y-122162589D01*
X147349928Y-121920000D01*
X147256684Y-121451232D01*
X146991148Y-121053830D01*
X146593746Y-120788294D01*
X146124978Y-120695050D01*
X145975022Y-120695050D01*
X145506254Y-120788294D01*
X145108852Y-121053830D01*
X144843316Y-121451232D01*
X144750072Y-121920000D01*
X141944949Y-121920000D01*
X141945118Y-121726921D01*
X141906829Y-121634254D01*
X142740000Y-121634254D01*
X142916006Y-121601136D01*
X143077656Y-121497117D01*
X143186102Y-121338402D01*
X143224254Y-121150000D01*
X143224254Y-120150000D01*
X143191136Y-119973994D01*
X143087117Y-119812344D01*
X142928402Y-119703898D01*
X142740000Y-119665746D01*
X141740000Y-119665746D01*
X141563994Y-119698864D01*
X141402344Y-119802883D01*
X141293898Y-119961598D01*
X141255746Y-120150000D01*
X141255746Y-120982992D01*
X141164780Y-120945220D01*
X140776921Y-120944882D01*
X140607136Y-121015036D01*
X140688098Y-120758617D01*
X140654450Y-120372220D01*
X140571317Y-120171521D01*
X140401014Y-120125833D01*
X139876847Y-120650000D01*
X139890990Y-120664143D01*
X139714143Y-120840990D01*
X139700000Y-120826847D01*
X139175833Y-121351014D01*
X139221521Y-121521317D01*
X139591383Y-121638098D01*
X139977780Y-121604450D01*
X140059408Y-121570638D01*
X139995220Y-121725220D01*
X139995172Y-121780050D01*
X139385995Y-121780050D01*
X138977972Y-121372028D01*
X138819127Y-121265891D01*
X138726561Y-121204040D01*
X138430000Y-121145050D01*
X136353530Y-121145050D01*
X136029950Y-120820904D01*
X136029950Y-120717919D01*
X135994835Y-120541383D01*
X138711902Y-120541383D01*
X138745550Y-120927780D01*
X138828683Y-121128479D01*
X138998986Y-121174167D01*
X139523153Y-120650000D01*
X138998986Y-120125833D01*
X138828683Y-120171521D01*
X138711902Y-120541383D01*
X135994835Y-120541383D01*
X135970960Y-120421358D01*
X135804024Y-120171521D01*
X135802972Y-120169946D01*
X135582012Y-119948986D01*
X139175833Y-119948986D01*
X139700000Y-120473153D01*
X140224167Y-119948986D01*
X140178479Y-119778683D01*
X139808617Y-119661902D01*
X139422220Y-119695550D01*
X139221521Y-119778683D01*
X139175833Y-119948986D01*
X135582012Y-119948986D01*
X135255615Y-119622589D01*
X147364838Y-119622589D01*
X147550933Y-120072972D01*
X147895216Y-120417856D01*
X148345273Y-120604737D01*
X148832589Y-120605162D01*
X149282972Y-120419067D01*
X149627856Y-120074784D01*
X149814737Y-119624727D01*
X149815162Y-119137411D01*
X149629067Y-118687028D01*
X149284784Y-118342144D01*
X148834727Y-118155263D01*
X148347411Y-118154838D01*
X147897028Y-118340933D01*
X147552144Y-118685216D01*
X147365263Y-119135273D01*
X147364838Y-119622589D01*
X135255615Y-119622589D01*
X134465053Y-118832028D01*
X134213642Y-118664040D01*
X133917081Y-118605050D01*
X130497232Y-118605050D01*
X130234784Y-118342144D01*
X129784727Y-118155263D01*
X129297411Y-118154838D01*
X128847028Y-118340933D01*
X128502144Y-118685216D01*
X128315263Y-119135273D01*
X128314838Y-119622589D01*
X125684738Y-119622589D01*
X125685162Y-119137411D01*
X125499067Y-118687028D01*
X125154784Y-118342144D01*
X124704727Y-118155263D01*
X124217411Y-118154838D01*
X123767028Y-118340933D01*
X123422144Y-118685216D01*
X123235263Y-119135273D01*
X123234838Y-119622589D01*
X123132013Y-119622589D01*
X123157529Y-119548501D01*
X123127811Y-119062093D01*
X122998846Y-118750743D01*
X122802697Y-118674150D01*
X122096847Y-119380000D01*
X121743153Y-119380000D01*
X121037303Y-118674150D01*
X120841154Y-118750743D01*
X120682471Y-119211499D01*
X119968953Y-119211499D01*
X120321148Y-118976170D01*
X120586684Y-118578768D01*
X120602888Y-118497303D01*
X121214150Y-118497303D01*
X121920000Y-119203153D01*
X122625850Y-118497303D01*
X122549257Y-118301154D01*
X122088501Y-118142471D01*
X121602093Y-118172189D01*
X121290743Y-118301154D01*
X121214150Y-118497303D01*
X120602888Y-118497303D01*
X120679928Y-118110000D01*
X120586684Y-117641232D01*
X120321148Y-117243830D01*
X120079835Y-117082589D01*
X125774838Y-117082589D01*
X125960933Y-117532972D01*
X126305216Y-117877856D01*
X126755273Y-118064737D01*
X127242589Y-118065162D01*
X127692972Y-117879067D01*
X127849614Y-117722697D01*
X131374150Y-117722697D01*
X131450743Y-117918846D01*
X131911499Y-118077529D01*
X132397907Y-118047811D01*
X132709257Y-117918846D01*
X132785850Y-117722697D01*
X132080000Y-117016847D01*
X131374150Y-117722697D01*
X127849614Y-117722697D01*
X128037856Y-117534784D01*
X128224737Y-117084727D01*
X128225097Y-116671499D01*
X130842471Y-116671499D01*
X130872189Y-117157907D01*
X131001154Y-117469257D01*
X131197303Y-117545850D01*
X131903153Y-116840000D01*
X132256847Y-116840000D01*
X132962697Y-117545850D01*
X133158846Y-117469257D01*
X133317529Y-117008501D01*
X133287811Y-116522093D01*
X133158846Y-116210743D01*
X132962697Y-116134150D01*
X132256847Y-116840000D01*
X131903153Y-116840000D01*
X131197303Y-116134150D01*
X131001154Y-116210743D01*
X130842471Y-116671499D01*
X128225097Y-116671499D01*
X128225162Y-116597411D01*
X128039067Y-116147028D01*
X127849673Y-115957303D01*
X131374150Y-115957303D01*
X132080000Y-116663153D01*
X132785850Y-115957303D01*
X132709257Y-115761154D01*
X132248501Y-115602471D01*
X131762093Y-115632189D01*
X131450743Y-115761154D01*
X131374150Y-115957303D01*
X127849673Y-115957303D01*
X127694784Y-115802144D01*
X127244727Y-115615263D01*
X126757411Y-115614838D01*
X126307028Y-115800933D01*
X125962144Y-116145216D01*
X125775263Y-116595273D01*
X125774838Y-117082589D01*
X120079835Y-117082589D01*
X119923746Y-116978294D01*
X119454978Y-116885050D01*
X119305022Y-116885050D01*
X118836254Y-116978294D01*
X118438852Y-117243830D01*
X118173316Y-117641232D01*
X118080072Y-118110000D01*
X116249950Y-118110000D01*
X116249950Y-105410000D01*
X118080072Y-105410000D01*
X118173316Y-105878768D01*
X118438852Y-106276170D01*
X118605050Y-106387220D01*
X118605050Y-106541370D01*
X118664040Y-106837931D01*
X118756670Y-106976561D01*
X118832028Y-107089342D01*
X119583371Y-107840685D01*
X118832028Y-108592028D01*
X118664040Y-108843439D01*
X118605050Y-109140000D01*
X118605050Y-109532768D01*
X118342144Y-109795216D01*
X118155263Y-110245273D01*
X118154838Y-110732589D01*
X118340933Y-111182972D01*
X118685216Y-111527856D01*
X119135273Y-111714737D01*
X119622589Y-111715162D01*
X120072972Y-111529067D01*
X120417856Y-111184784D01*
X120604737Y-110734727D01*
X120605162Y-110247411D01*
X120419067Y-109797028D01*
X120154950Y-109532450D01*
X120154950Y-109460994D01*
X120739363Y-108876581D01*
X120671052Y-109220000D01*
X120741460Y-109573963D01*
X120941964Y-109874038D01*
X121145050Y-110009736D01*
X121145050Y-110782780D01*
X120978852Y-110893830D01*
X120713316Y-111291232D01*
X120620072Y-111760000D01*
X120713316Y-112228768D01*
X120978852Y-112626170D01*
X121376254Y-112891706D01*
X121845022Y-112984950D01*
X121994978Y-112984950D01*
X122463746Y-112891706D01*
X122861148Y-112626170D01*
X123126684Y-112228768D01*
X123219928Y-111760000D01*
X123126684Y-111291232D01*
X122861148Y-110893830D01*
X122694950Y-110782780D01*
X122694950Y-110009736D01*
X122717079Y-109994950D01*
X123190000Y-109994950D01*
X123486561Y-109935960D01*
X123737972Y-109767972D01*
X124780995Y-108724950D01*
X125915731Y-108724950D01*
X125821460Y-108866037D01*
X125751052Y-109220000D01*
X125821460Y-109573963D01*
X126021964Y-109874038D01*
X126225050Y-110009736D01*
X126225050Y-110169005D01*
X125425919Y-110968137D01*
X125326170Y-110818852D01*
X124928768Y-110553316D01*
X124460000Y-110460072D01*
X123991232Y-110553316D01*
X123593830Y-110818852D01*
X123328294Y-111216254D01*
X123235050Y-111685022D01*
X123235050Y-111834978D01*
X123328294Y-112303746D01*
X123593830Y-112701148D01*
X123991232Y-112966684D01*
X124309542Y-113030000D01*
X123991232Y-113093316D01*
X123593830Y-113358852D01*
X123328294Y-113756254D01*
X123235050Y-114225022D01*
X123235050Y-114374978D01*
X123328294Y-114843746D01*
X123593830Y-115241148D01*
X123991232Y-115506684D01*
X124460000Y-115599928D01*
X124928768Y-115506684D01*
X125326170Y-115241148D01*
X125591706Y-114843746D01*
X125651610Y-114542589D01*
X130854838Y-114542589D01*
X131040933Y-114992972D01*
X131385216Y-115337856D01*
X131835273Y-115524737D01*
X132322589Y-115525162D01*
X132772972Y-115339067D01*
X133037550Y-115074950D01*
X134299006Y-115074950D01*
X135098136Y-115874081D01*
X134948852Y-115973830D01*
X134683316Y-116371232D01*
X134590072Y-116840000D01*
X134683316Y-117308768D01*
X134948852Y-117706170D01*
X135346254Y-117971706D01*
X135815022Y-118064950D01*
X135964978Y-118064950D01*
X136433746Y-117971706D01*
X136831148Y-117706170D01*
X137096684Y-117308768D01*
X137189928Y-116840000D01*
X139670072Y-116840000D01*
X139763316Y-117308768D01*
X140028852Y-117706170D01*
X140426254Y-117971706D01*
X140895022Y-118064950D01*
X141044978Y-118064950D01*
X141513746Y-117971706D01*
X141886413Y-117722697D01*
X142804150Y-117722697D01*
X142880743Y-117918846D01*
X143341499Y-118077529D01*
X143827907Y-118047811D01*
X144139257Y-117918846D01*
X144215850Y-117722697D01*
X143510000Y-117016847D01*
X142804150Y-117722697D01*
X141886413Y-117722697D01*
X141911148Y-117706170D01*
X142176684Y-117308768D01*
X142269928Y-116840000D01*
X142236411Y-116671499D01*
X142272471Y-116671499D01*
X142302189Y-117157907D01*
X142431154Y-117469257D01*
X142627303Y-117545850D01*
X143333153Y-116840000D01*
X143686847Y-116840000D01*
X144392697Y-117545850D01*
X144588846Y-117469257D01*
X144747529Y-117008501D01*
X144717811Y-116522093D01*
X144588846Y-116210743D01*
X144392697Y-116134150D01*
X143686847Y-116840000D01*
X143333153Y-116840000D01*
X142627303Y-116134150D01*
X142431154Y-116210743D01*
X142272471Y-116671499D01*
X142236411Y-116671499D01*
X142176684Y-116371232D01*
X141911148Y-115973830D01*
X141886414Y-115957303D01*
X142804150Y-115957303D01*
X143510000Y-116663153D01*
X144215850Y-115957303D01*
X144139257Y-115761154D01*
X143678501Y-115602471D01*
X143192093Y-115632189D01*
X142880743Y-115761154D01*
X142804150Y-115957303D01*
X141886414Y-115957303D01*
X141513746Y-115708294D01*
X141044978Y-115615050D01*
X140895022Y-115615050D01*
X140426254Y-115708294D01*
X140028852Y-115973830D01*
X139763316Y-116371232D01*
X139670072Y-116840000D01*
X137189928Y-116840000D01*
X137096684Y-116371232D01*
X136831148Y-115973830D01*
X136681863Y-115874081D01*
X137476878Y-115079067D01*
X137735216Y-115337856D01*
X138185273Y-115524737D01*
X138672589Y-115525162D01*
X139122972Y-115339067D01*
X139467856Y-114994784D01*
X139654737Y-114544727D01*
X139655162Y-114057411D01*
X139469067Y-113607028D01*
X139124784Y-113262144D01*
X138674727Y-113075263D01*
X138187411Y-113074838D01*
X137737028Y-113260933D01*
X137472450Y-113525050D01*
X137160000Y-113525050D01*
X136863439Y-113584040D01*
X136612027Y-113752028D01*
X135890000Y-114474055D01*
X135167972Y-113752028D01*
X135158891Y-113745960D01*
X134916561Y-113584040D01*
X134620000Y-113525050D01*
X133037232Y-113525050D01*
X132774784Y-113262144D01*
X132324727Y-113075263D01*
X131837411Y-113074838D01*
X131387028Y-113260933D01*
X131042144Y-113605216D01*
X130855263Y-114055273D01*
X130854838Y-114542589D01*
X125651610Y-114542589D01*
X125684950Y-114374978D01*
X125684950Y-114225022D01*
X125591706Y-113756254D01*
X125326170Y-113358852D01*
X124928768Y-113093316D01*
X124610458Y-113030000D01*
X124928768Y-112966684D01*
X125326170Y-112701148D01*
X125365225Y-112642697D01*
X131374150Y-112642697D01*
X131450743Y-112838846D01*
X131911499Y-112997529D01*
X132397907Y-112967811D01*
X132709257Y-112838846D01*
X132785850Y-112642697D01*
X132080000Y-111936847D01*
X131374150Y-112642697D01*
X125365225Y-112642697D01*
X125437220Y-112534950D01*
X125730000Y-112534950D01*
X126026561Y-112475960D01*
X126277972Y-112307972D01*
X126994445Y-111591499D01*
X130842471Y-111591499D01*
X130872189Y-112077907D01*
X131001154Y-112389257D01*
X131197303Y-112465850D01*
X131903153Y-111760000D01*
X132256847Y-111760000D01*
X132962697Y-112465850D01*
X133158846Y-112389257D01*
X133317529Y-111928501D01*
X133287811Y-111442093D01*
X133158846Y-111130743D01*
X132962697Y-111054150D01*
X132256847Y-111760000D01*
X131903153Y-111760000D01*
X131197303Y-111054150D01*
X131001154Y-111130743D01*
X130842471Y-111591499D01*
X126994445Y-111591499D01*
X127547972Y-111037973D01*
X127655328Y-110877303D01*
X131374150Y-110877303D01*
X132080000Y-111583153D01*
X132785850Y-110877303D01*
X132709257Y-110681154D01*
X132248501Y-110522471D01*
X131762093Y-110552189D01*
X131450743Y-110681154D01*
X131374150Y-110877303D01*
X127655328Y-110877303D01*
X127664285Y-110863898D01*
X127715960Y-110786561D01*
X127774950Y-110490000D01*
X127774950Y-110009736D01*
X127797079Y-109994950D01*
X128350000Y-109994950D01*
X128646561Y-109935960D01*
X128897972Y-109767972D01*
X129202157Y-109463787D01*
X130855050Y-109463787D01*
X130855050Y-109764473D01*
X130927357Y-109939037D01*
X131060962Y-110072643D01*
X131235526Y-110144950D01*
X131836213Y-110144950D01*
X131954950Y-110026213D01*
X131954950Y-109345050D01*
X132205050Y-109345050D01*
X132205050Y-110026213D01*
X132323787Y-110144950D01*
X132924474Y-110144950D01*
X133099038Y-110072643D01*
X133232643Y-109939037D01*
X133304950Y-109764473D01*
X133304950Y-109463787D01*
X133186213Y-109345050D01*
X132205050Y-109345050D01*
X131954950Y-109345050D01*
X130973787Y-109345050D01*
X130855050Y-109463787D01*
X129202157Y-109463787D01*
X129940995Y-108724950D01*
X130855050Y-108724950D01*
X130855050Y-108976213D01*
X130973787Y-109094950D01*
X131954950Y-109094950D01*
X131954950Y-109074950D01*
X132205050Y-109074950D01*
X132205050Y-109094950D01*
X133186213Y-109094950D01*
X133304950Y-108976213D01*
X133304950Y-108675527D01*
X133232643Y-108500963D01*
X133169260Y-108437580D01*
X133258540Y-108303963D01*
X133328948Y-107950000D01*
X133258540Y-107596037D01*
X133164269Y-107454950D01*
X134932768Y-107454950D01*
X135115050Y-107637550D01*
X135115050Y-108262768D01*
X134852144Y-108525216D01*
X134665263Y-108975273D01*
X134664838Y-109462589D01*
X134850933Y-109912972D01*
X135195216Y-110257856D01*
X135645273Y-110444737D01*
X136132589Y-110445162D01*
X136582972Y-110259067D01*
X136927856Y-109914784D01*
X137114737Y-109464727D01*
X137114738Y-109462589D01*
X137204838Y-109462589D01*
X137390933Y-109912972D01*
X137735216Y-110257856D01*
X138185273Y-110444737D01*
X138672589Y-110445162D01*
X139122972Y-110259067D01*
X139387550Y-109994950D01*
X140012768Y-109994950D01*
X140275216Y-110257856D01*
X140725273Y-110444737D01*
X141212589Y-110445162D01*
X141662972Y-110259067D01*
X141927550Y-109994950D01*
X142507901Y-109994950D01*
X142568852Y-110086170D01*
X142966254Y-110351706D01*
X143435022Y-110444950D01*
X143584978Y-110444950D01*
X143630042Y-110435986D01*
X144232027Y-111037972D01*
X144272801Y-111065216D01*
X144483439Y-111205960D01*
X144780000Y-111264950D01*
X146094869Y-111264950D01*
X146085746Y-111310000D01*
X146085746Y-112210000D01*
X146118864Y-112386006D01*
X146222883Y-112547656D01*
X146381598Y-112656102D01*
X146545050Y-112689202D01*
X146545050Y-112709005D01*
X146178893Y-113075162D01*
X145807411Y-113074838D01*
X145357028Y-113260933D01*
X145012144Y-113605216D01*
X144825263Y-114055273D01*
X144824838Y-114542589D01*
X145010933Y-114992972D01*
X145355216Y-115337856D01*
X145805273Y-115524737D01*
X146292589Y-115525162D01*
X146742972Y-115339067D01*
X146899614Y-115182697D01*
X147884150Y-115182697D01*
X147960743Y-115378846D01*
X148421499Y-115537529D01*
X148907907Y-115507811D01*
X149219257Y-115378846D01*
X149295850Y-115182697D01*
X148590000Y-114476847D01*
X147884150Y-115182697D01*
X146899614Y-115182697D01*
X147087856Y-114994784D01*
X147274737Y-114544727D01*
X147275063Y-114170881D01*
X147372446Y-114073498D01*
X147352471Y-114131499D01*
X147382189Y-114617907D01*
X147511154Y-114929257D01*
X147707303Y-115005850D01*
X148413153Y-114300000D01*
X148766847Y-114300000D01*
X149472697Y-115005850D01*
X149668846Y-114929257D01*
X149827529Y-114468501D01*
X149813263Y-114235000D01*
X160105746Y-114235000D01*
X160105746Y-115635000D01*
X160138864Y-115811006D01*
X160242883Y-115972656D01*
X160401598Y-116081102D01*
X160590000Y-116119254D01*
X161990000Y-116119254D01*
X162166006Y-116086136D01*
X162327656Y-115982117D01*
X162436102Y-115823402D01*
X162474254Y-115635000D01*
X162474254Y-114235000D01*
X162441136Y-114058994D01*
X162337117Y-113897344D01*
X162178402Y-113788898D01*
X161990000Y-113750746D01*
X160590000Y-113750746D01*
X160413994Y-113783864D01*
X160252344Y-113887883D01*
X160143898Y-114046598D01*
X160105746Y-114235000D01*
X149813263Y-114235000D01*
X149797811Y-113982093D01*
X149668846Y-113670743D01*
X149472697Y-113594150D01*
X148766847Y-114300000D01*
X148413153Y-114300000D01*
X148399011Y-114285858D01*
X148575858Y-114109011D01*
X148590000Y-114123153D01*
X149295850Y-113417303D01*
X149219257Y-113221154D01*
X148758501Y-113062471D01*
X148272093Y-113092189D01*
X148065563Y-113177736D01*
X148094950Y-113030000D01*
X148094950Y-112689559D01*
X148246006Y-112661136D01*
X148407656Y-112557117D01*
X148422802Y-112534950D01*
X150172768Y-112534950D01*
X150435216Y-112797856D01*
X150885273Y-112984737D01*
X151372589Y-112985162D01*
X151822972Y-112799067D01*
X152167856Y-112454784D01*
X152354737Y-112004727D01*
X152355141Y-111541086D01*
X152403915Y-111589860D01*
X152370072Y-111760000D01*
X152463316Y-112228768D01*
X152728852Y-112626170D01*
X153126254Y-112891706D01*
X153595022Y-112984950D01*
X153744978Y-112984950D01*
X154213746Y-112891706D01*
X154586413Y-112642697D01*
X155504150Y-112642697D01*
X155580743Y-112838846D01*
X156041499Y-112997529D01*
X156527907Y-112967811D01*
X156839257Y-112838846D01*
X156915850Y-112642697D01*
X156210000Y-111936847D01*
X155504150Y-112642697D01*
X154586413Y-112642697D01*
X154611148Y-112626170D01*
X154876684Y-112228768D01*
X154969928Y-111760000D01*
X154936411Y-111591499D01*
X154972471Y-111591499D01*
X155002189Y-112077907D01*
X155131154Y-112389257D01*
X155327303Y-112465850D01*
X156033153Y-111760000D01*
X155327303Y-111054150D01*
X155131154Y-111130743D01*
X154972471Y-111591499D01*
X154936411Y-111591499D01*
X154876684Y-111291232D01*
X154611148Y-110893830D01*
X154213746Y-110628294D01*
X153744978Y-110535050D01*
X153595022Y-110535050D01*
X153549958Y-110544014D01*
X152468533Y-109462589D01*
X154984838Y-109462589D01*
X155170933Y-109912972D01*
X155515216Y-110257856D01*
X155965273Y-110444737D01*
X156339119Y-110445063D01*
X156436502Y-110542446D01*
X156378501Y-110522471D01*
X155892093Y-110552189D01*
X155580743Y-110681154D01*
X155504150Y-110877303D01*
X156210000Y-111583153D01*
X156224143Y-111569011D01*
X156400990Y-111745858D01*
X156386847Y-111760000D01*
X157092697Y-112465850D01*
X157288846Y-112389257D01*
X157447529Y-111928501D01*
X157423125Y-111529070D01*
X157515746Y-111621691D01*
X157515746Y-112510000D01*
X157548864Y-112686006D01*
X157652883Y-112847656D01*
X157811598Y-112956102D01*
X158000000Y-112994254D01*
X159500000Y-112994254D01*
X159676006Y-112961136D01*
X159837656Y-112857117D01*
X159946102Y-112698402D01*
X159979202Y-112534950D01*
X160346844Y-112534950D01*
X160423830Y-112650168D01*
X160821232Y-112915704D01*
X161290000Y-113008948D01*
X161758768Y-112915704D01*
X162156170Y-112650168D01*
X162421706Y-112252766D01*
X162514950Y-111783998D01*
X162514950Y-111736002D01*
X162421706Y-111267234D01*
X162156170Y-110869832D01*
X161758768Y-110604296D01*
X161290000Y-110511052D01*
X160821232Y-110604296D01*
X160423830Y-110869832D01*
X160346844Y-110985050D01*
X159979559Y-110985050D01*
X159951136Y-110833994D01*
X159847117Y-110672344D01*
X159688402Y-110563898D01*
X159500000Y-110525746D01*
X158611691Y-110525746D01*
X157434838Y-109348894D01*
X157435162Y-108977411D01*
X157249067Y-108527028D01*
X156904784Y-108182144D01*
X156454727Y-107995263D01*
X155967411Y-107994838D01*
X155517028Y-108180933D01*
X155172144Y-108525216D01*
X154985263Y-108975273D01*
X154984838Y-109462589D01*
X152468533Y-109462589D01*
X152354838Y-109348894D01*
X152355162Y-108977411D01*
X152169067Y-108527028D01*
X151824784Y-108182144D01*
X151374727Y-107995263D01*
X150887411Y-107994838D01*
X150437028Y-108180933D01*
X150172450Y-108445050D01*
X148117079Y-108445050D01*
X147997961Y-108365458D01*
X147643998Y-108295050D01*
X146996002Y-108295050D01*
X146642039Y-108365458D01*
X146341964Y-108565962D01*
X146141460Y-108866037D01*
X146071052Y-109220000D01*
X146141460Y-109573963D01*
X146235731Y-109715050D01*
X145100995Y-109715050D01*
X144776085Y-109390140D01*
X144809928Y-109220000D01*
X144716684Y-108751232D01*
X144451148Y-108353830D01*
X144053746Y-108088294D01*
X143584978Y-107995050D01*
X143435022Y-107995050D01*
X142966254Y-108088294D01*
X142568852Y-108353830D01*
X142507901Y-108445050D01*
X141927232Y-108445050D01*
X141664784Y-108182144D01*
X141214727Y-107995263D01*
X140727411Y-107994838D01*
X140277028Y-108180933D01*
X140012450Y-108445050D01*
X139387232Y-108445050D01*
X139124784Y-108182144D01*
X138674727Y-107995263D01*
X138187411Y-107994838D01*
X137737028Y-108180933D01*
X137392144Y-108525216D01*
X137205263Y-108975273D01*
X137204838Y-109462589D01*
X137114738Y-109462589D01*
X137115162Y-108977411D01*
X136929067Y-108527028D01*
X136664950Y-108262450D01*
X136664950Y-107637232D01*
X136927856Y-107374784D01*
X137114737Y-106924727D01*
X137114738Y-106922589D01*
X137204838Y-106922589D01*
X137390933Y-107372972D01*
X137735216Y-107717856D01*
X138185273Y-107904737D01*
X138672589Y-107905162D01*
X139122972Y-107719067D01*
X139387550Y-107454950D01*
X140012768Y-107454950D01*
X140275216Y-107717856D01*
X140725273Y-107904737D01*
X141212589Y-107905162D01*
X141662972Y-107719067D01*
X141927550Y-107454950D01*
X142507901Y-107454950D01*
X142568852Y-107546170D01*
X142966254Y-107811706D01*
X143435022Y-107904950D01*
X143584978Y-107904950D01*
X144053746Y-107811706D01*
X144451148Y-107546170D01*
X144716684Y-107148768D01*
X144809928Y-106680000D01*
X144776085Y-106509860D01*
X145100995Y-106184950D01*
X146235731Y-106184950D01*
X146141460Y-106326037D01*
X146071052Y-106680000D01*
X146141460Y-107033963D01*
X146341964Y-107334038D01*
X146642039Y-107534542D01*
X146996002Y-107604950D01*
X147643998Y-107604950D01*
X147997961Y-107534542D01*
X148117079Y-107454950D01*
X150172768Y-107454950D01*
X150435216Y-107717856D01*
X150885273Y-107904737D01*
X151372589Y-107905162D01*
X151822972Y-107719067D01*
X152167856Y-107374784D01*
X152354737Y-106924727D01*
X152355063Y-106550881D01*
X153549958Y-105355986D01*
X153595022Y-105364950D01*
X153744978Y-105364950D01*
X154213746Y-105271706D01*
X154611148Y-105006170D01*
X154672099Y-104914950D01*
X155207901Y-104914950D01*
X155268852Y-105006170D01*
X155666254Y-105271706D01*
X156135022Y-105364950D01*
X156284978Y-105364950D01*
X156753746Y-105271706D01*
X157151148Y-105006170D01*
X157212099Y-104914950D01*
X157806844Y-104914950D01*
X157883830Y-105030168D01*
X158281232Y-105295704D01*
X158750000Y-105388948D01*
X159218768Y-105295704D01*
X159616170Y-105030168D01*
X159881706Y-104632766D01*
X159974950Y-104163998D01*
X159974950Y-104116002D01*
X159881706Y-103647234D01*
X159616170Y-103249832D01*
X159218768Y-102984296D01*
X158750000Y-102891052D01*
X158281232Y-102984296D01*
X157883830Y-103249832D01*
X157806844Y-103365050D01*
X157212099Y-103365050D01*
X157151148Y-103273830D01*
X156753746Y-103008294D01*
X156284978Y-102915050D01*
X156135022Y-102915050D01*
X155666254Y-103008294D01*
X155268852Y-103273830D01*
X155207901Y-103365050D01*
X154672099Y-103365050D01*
X154611148Y-103273830D01*
X154213746Y-103008294D01*
X153744978Y-102915050D01*
X153595022Y-102915050D01*
X153126254Y-103008294D01*
X152728852Y-103273830D01*
X152463316Y-103671232D01*
X152370072Y-104140000D01*
X152403915Y-104310140D01*
X152354759Y-104359296D01*
X152355162Y-103897411D01*
X152169067Y-103447028D01*
X151824784Y-103102144D01*
X151374727Y-102915263D01*
X150887411Y-102914838D01*
X150437028Y-103100933D01*
X150172450Y-103365050D01*
X148425293Y-103365050D01*
X148417117Y-103352344D01*
X148258402Y-103243898D01*
X148094950Y-103210798D01*
X148094950Y-102870000D01*
X148064001Y-102714408D01*
X148421499Y-102837529D01*
X148907907Y-102807811D01*
X149219257Y-102678846D01*
X149295850Y-102482697D01*
X148590000Y-101776847D01*
X148575858Y-101790990D01*
X148399011Y-101614143D01*
X148413153Y-101600000D01*
X148766847Y-101600000D01*
X149472697Y-102305850D01*
X149668846Y-102229257D01*
X149827529Y-101768501D01*
X149797811Y-101282093D01*
X149668846Y-100970743D01*
X149472697Y-100894150D01*
X148766847Y-101600000D01*
X148413153Y-101600000D01*
X147707303Y-100894150D01*
X147511154Y-100970743D01*
X147352471Y-101431499D01*
X147376875Y-101830930D01*
X147274838Y-101728893D01*
X147275162Y-101357411D01*
X147089067Y-100907028D01*
X146899673Y-100717303D01*
X147884150Y-100717303D01*
X148590000Y-101423153D01*
X149295850Y-100717303D01*
X149219257Y-100521154D01*
X148758501Y-100362471D01*
X148272093Y-100392189D01*
X147960743Y-100521154D01*
X147884150Y-100717303D01*
X146899673Y-100717303D01*
X146744784Y-100562144D01*
X146294727Y-100375263D01*
X145807411Y-100374838D01*
X145357028Y-100560933D01*
X145012144Y-100905216D01*
X144825263Y-101355273D01*
X144824838Y-101842589D01*
X145010933Y-102292972D01*
X145355216Y-102637856D01*
X145805273Y-102824737D01*
X146179119Y-102825063D01*
X146545050Y-103190995D01*
X146545050Y-103210441D01*
X146393994Y-103238864D01*
X146232344Y-103342883D01*
X146123898Y-103501598D01*
X146085746Y-103690000D01*
X146085746Y-104590000D01*
X146094223Y-104635050D01*
X144780000Y-104635050D01*
X144483439Y-104694040D01*
X144377164Y-104765051D01*
X144232027Y-104862028D01*
X143630042Y-105464014D01*
X143584978Y-105455050D01*
X143435022Y-105455050D01*
X142966254Y-105548294D01*
X142568852Y-105813830D01*
X142507901Y-105905050D01*
X141927232Y-105905050D01*
X141664784Y-105642144D01*
X141214727Y-105455263D01*
X140727411Y-105454838D01*
X140277028Y-105640933D01*
X140012450Y-105905050D01*
X139387232Y-105905050D01*
X139124784Y-105642144D01*
X138674727Y-105455263D01*
X138187411Y-105454838D01*
X137737028Y-105640933D01*
X137392144Y-105985216D01*
X137205263Y-106435273D01*
X137204838Y-106922589D01*
X137114738Y-106922589D01*
X137115162Y-106437411D01*
X136929067Y-105987028D01*
X136584784Y-105642144D01*
X136134727Y-105455263D01*
X135647411Y-105454838D01*
X135197028Y-105640933D01*
X134932450Y-105905050D01*
X132877079Y-105905050D01*
X132757961Y-105825458D01*
X132403998Y-105755050D01*
X131756002Y-105755050D01*
X131402039Y-105825458D01*
X131101964Y-106025962D01*
X130901460Y-106326037D01*
X130831052Y-106680000D01*
X130901460Y-107033963D01*
X130995731Y-107175050D01*
X129620000Y-107175050D01*
X129323439Y-107234040D01*
X129215735Y-107306006D01*
X129072027Y-107402028D01*
X128180638Y-108293418D01*
X128248948Y-107950000D01*
X128178540Y-107596037D01*
X128093432Y-107468664D01*
X128196102Y-107318402D01*
X128234254Y-107130000D01*
X128234254Y-106230000D01*
X128201136Y-106053994D01*
X128097117Y-105892344D01*
X127938402Y-105783898D01*
X127774950Y-105750798D01*
X127774950Y-105097232D01*
X128037856Y-104834784D01*
X128224737Y-104384727D01*
X128225162Y-103897411D01*
X128039067Y-103447028D01*
X127774950Y-103182450D01*
X127774950Y-102870000D01*
X127715960Y-102573439D01*
X127631966Y-102447734D01*
X127547972Y-102322027D01*
X126750967Y-101525022D01*
X130855050Y-101525022D01*
X130855050Y-101674978D01*
X130948294Y-102143746D01*
X131213830Y-102541148D01*
X131611232Y-102806684D01*
X132080000Y-102899928D01*
X132548768Y-102806684D01*
X132946170Y-102541148D01*
X133211706Y-102143746D01*
X133304950Y-101674978D01*
X133304950Y-101525022D01*
X133211706Y-101056254D01*
X132946170Y-100658852D01*
X132548768Y-100393316D01*
X132080000Y-100300072D01*
X131611232Y-100393316D01*
X131213830Y-100658852D01*
X130948294Y-101056254D01*
X130855050Y-101525022D01*
X126750967Y-101525022D01*
X126277972Y-101052028D01*
X126268528Y-101045718D01*
X126026561Y-100884040D01*
X125730000Y-100825050D01*
X125417232Y-100825050D01*
X125154784Y-100562144D01*
X124704727Y-100375263D01*
X124217411Y-100374838D01*
X123767028Y-100560933D01*
X123422144Y-100905216D01*
X123235263Y-101355273D01*
X123234838Y-101842589D01*
X123420933Y-102292972D01*
X123765216Y-102637856D01*
X124215273Y-102824737D01*
X124702589Y-102825162D01*
X125152972Y-102639067D01*
X125413274Y-102379218D01*
X126220933Y-103186878D01*
X125962144Y-103445216D01*
X125775263Y-103895273D01*
X125774838Y-104382589D01*
X125960933Y-104832972D01*
X126225050Y-105097550D01*
X126225050Y-105750441D01*
X126073994Y-105778864D01*
X125912344Y-105882883D01*
X125803898Y-106041598D01*
X125765746Y-106230000D01*
X125765746Y-107130000D01*
X125774223Y-107175050D01*
X124460000Y-107175050D01*
X124163439Y-107234040D01*
X124055735Y-107306006D01*
X123912027Y-107402028D01*
X123120502Y-108193554D01*
X123168948Y-107950000D01*
X123098540Y-107596037D01*
X123013432Y-107468664D01*
X123116102Y-107318402D01*
X123154254Y-107130000D01*
X123154254Y-106230000D01*
X123121136Y-106053994D01*
X123017117Y-105892344D01*
X122858402Y-105783898D01*
X122694950Y-105750798D01*
X122694950Y-105097232D01*
X122957856Y-104834784D01*
X123144737Y-104384727D01*
X123145162Y-103897411D01*
X122959067Y-103447028D01*
X122694950Y-103182450D01*
X122694950Y-102557232D01*
X122957856Y-102294784D01*
X123144737Y-101844727D01*
X123145162Y-101357411D01*
X122959067Y-100907028D01*
X122614784Y-100562144D01*
X122164727Y-100375263D01*
X121677411Y-100374838D01*
X121227028Y-100560933D01*
X120882144Y-100905216D01*
X120695263Y-101355273D01*
X120694838Y-101842589D01*
X120880933Y-102292972D01*
X121145050Y-102557550D01*
X121145050Y-103182768D01*
X120882144Y-103445216D01*
X120695263Y-103895273D01*
X120694838Y-104382589D01*
X120880933Y-104832972D01*
X121145050Y-105097550D01*
X121145050Y-105750441D01*
X120993994Y-105778864D01*
X120832344Y-105882883D01*
X120723898Y-106041598D01*
X120685746Y-106230000D01*
X120685746Y-106751171D01*
X120254966Y-106320392D01*
X120321148Y-106276170D01*
X120586684Y-105878768D01*
X120679928Y-105410000D01*
X120586684Y-104941232D01*
X120321148Y-104543830D01*
X119923746Y-104278294D01*
X119454978Y-104185050D01*
X119305022Y-104185050D01*
X118836254Y-104278294D01*
X118438852Y-104543830D01*
X118173316Y-104941232D01*
X118080072Y-105410000D01*
X116249950Y-105410000D01*
X116249950Y-98672697D01*
X118674150Y-98672697D01*
X118750743Y-98868846D01*
X119211499Y-99027529D01*
X119697907Y-98997811D01*
X120009257Y-98868846D01*
X120085850Y-98672697D01*
X119380000Y-97966847D01*
X118674150Y-98672697D01*
X116249950Y-98672697D01*
X116249950Y-97621499D01*
X118142471Y-97621499D01*
X118172189Y-98107907D01*
X118301154Y-98419257D01*
X118497303Y-98495850D01*
X119203153Y-97790000D01*
X119556847Y-97790000D01*
X120262697Y-98495850D01*
X120458846Y-98419257D01*
X120617529Y-97958501D01*
X120587811Y-97472093D01*
X120458846Y-97160743D01*
X120262697Y-97084150D01*
X119556847Y-97790000D01*
X119203153Y-97790000D01*
X118497303Y-97084150D01*
X118301154Y-97160743D01*
X118142471Y-97621499D01*
X116249950Y-97621499D01*
X116249950Y-96907303D01*
X118674150Y-96907303D01*
X119380000Y-97613153D01*
X120085850Y-96907303D01*
X120040942Y-96792295D01*
X123084812Y-96792295D01*
X123293694Y-97297829D01*
X123680136Y-97684946D01*
X124055046Y-97840622D01*
X123991232Y-97853316D01*
X123593830Y-98118852D01*
X123328294Y-98516254D01*
X123235050Y-98985022D01*
X123235050Y-99134978D01*
X123328294Y-99603746D01*
X123593830Y-100001148D01*
X123991232Y-100266684D01*
X124460000Y-100359928D01*
X124928768Y-100266684D01*
X125326170Y-100001148D01*
X125591706Y-99603746D01*
X125684950Y-99134978D01*
X125684950Y-98985022D01*
X125591706Y-98516254D01*
X125326170Y-98118852D01*
X124928768Y-97853316D01*
X124864549Y-97840542D01*
X125237829Y-97686306D01*
X125624946Y-97299864D01*
X125834711Y-96794694D01*
X125835188Y-96247705D01*
X125626306Y-95742171D01*
X125504349Y-95620000D01*
X130695746Y-95620000D01*
X130695746Y-97420000D01*
X130728864Y-97596006D01*
X130832883Y-97757656D01*
X130991598Y-97866102D01*
X131180000Y-97904254D01*
X131305050Y-97904254D01*
X131305050Y-98102768D01*
X131042144Y-98365216D01*
X130855263Y-98815273D01*
X130854838Y-99302589D01*
X131040933Y-99752972D01*
X131385216Y-100097856D01*
X131835273Y-100284737D01*
X132322589Y-100285162D01*
X132772972Y-100099067D01*
X133117856Y-99754784D01*
X133304737Y-99304727D01*
X133305162Y-98817411D01*
X133119067Y-98367028D01*
X132854950Y-98102450D01*
X132854950Y-97904254D01*
X132980000Y-97904254D01*
X133156006Y-97871136D01*
X133317656Y-97767117D01*
X133426102Y-97608402D01*
X133464254Y-97420000D01*
X133464254Y-97294950D01*
X134722504Y-97294950D01*
X134723694Y-97297829D01*
X135110136Y-97684946D01*
X135115050Y-97686986D01*
X135115050Y-98082780D01*
X134948852Y-98193830D01*
X134683316Y-98591232D01*
X134590072Y-99060000D01*
X134683316Y-99528768D01*
X134948852Y-99926170D01*
X135115050Y-100037220D01*
X135115050Y-100330000D01*
X135174040Y-100626561D01*
X135234672Y-100717303D01*
X135342028Y-100877972D01*
X136612027Y-102147972D01*
X136733679Y-102229257D01*
X136863439Y-102315960D01*
X137160000Y-102374950D01*
X137472768Y-102374950D01*
X137735216Y-102637856D01*
X138185273Y-102824737D01*
X138672589Y-102825162D01*
X139122972Y-102639067D01*
X139467856Y-102294784D01*
X139654737Y-101844727D01*
X139655162Y-101357411D01*
X139469067Y-100907028D01*
X139124784Y-100562144D01*
X138674727Y-100375263D01*
X138187411Y-100374838D01*
X137737028Y-100560933D01*
X137476726Y-100820781D01*
X136681863Y-100025919D01*
X136831148Y-99926170D01*
X137096684Y-99528768D01*
X137189928Y-99060000D01*
X139670072Y-99060000D01*
X139763316Y-99528768D01*
X140028852Y-99926170D01*
X140426254Y-100191706D01*
X140895022Y-100284950D01*
X141044978Y-100284950D01*
X141513746Y-100191706D01*
X141886413Y-99942697D01*
X142804150Y-99942697D01*
X142880743Y-100138846D01*
X143341499Y-100297529D01*
X143827907Y-100267811D01*
X144139257Y-100138846D01*
X144215850Y-99942697D01*
X143510000Y-99236847D01*
X142804150Y-99942697D01*
X141886413Y-99942697D01*
X141911148Y-99926170D01*
X142176684Y-99528768D01*
X142269928Y-99060000D01*
X142236411Y-98891499D01*
X142272471Y-98891499D01*
X142302189Y-99377907D01*
X142431154Y-99689257D01*
X142627303Y-99765850D01*
X143333153Y-99060000D01*
X143686847Y-99060000D01*
X144392697Y-99765850D01*
X144588846Y-99689257D01*
X144747529Y-99228501D01*
X144717811Y-98742093D01*
X144588846Y-98430743D01*
X144392697Y-98354150D01*
X143686847Y-99060000D01*
X143333153Y-99060000D01*
X142627303Y-98354150D01*
X142431154Y-98430743D01*
X142272471Y-98891499D01*
X142236411Y-98891499D01*
X142176684Y-98591232D01*
X141911148Y-98193830D01*
X141513746Y-97928294D01*
X141044978Y-97835050D01*
X140895022Y-97835050D01*
X140426254Y-97928294D01*
X140028852Y-98193830D01*
X139763316Y-98591232D01*
X139670072Y-99060000D01*
X137189928Y-99060000D01*
X137096684Y-98591232D01*
X136831148Y-98193830D01*
X136664950Y-98082780D01*
X136664950Y-97687496D01*
X136667829Y-97686306D01*
X137054946Y-97299864D01*
X137264711Y-96794694D01*
X137265188Y-96247705D01*
X137056306Y-95742171D01*
X136934349Y-95620000D01*
X142125746Y-95620000D01*
X142125746Y-97420000D01*
X142158864Y-97596006D01*
X142262883Y-97757656D01*
X142421598Y-97866102D01*
X142610000Y-97904254D01*
X143066397Y-97904254D01*
X142880743Y-97981154D01*
X142804150Y-98177303D01*
X143510000Y-98883153D01*
X144215850Y-98177303D01*
X144139257Y-97981154D01*
X143915968Y-97904254D01*
X144410000Y-97904254D01*
X144586006Y-97871136D01*
X144747656Y-97767117D01*
X144856102Y-97608402D01*
X144894254Y-97420000D01*
X144894254Y-96762589D01*
X147364838Y-96762589D01*
X147550933Y-97212972D01*
X147895216Y-97557856D01*
X148345273Y-97744737D01*
X148832589Y-97745162D01*
X149282972Y-97559067D01*
X149627856Y-97214784D01*
X149814737Y-96764727D01*
X149815162Y-96277411D01*
X149629067Y-95827028D01*
X149284784Y-95482144D01*
X148834727Y-95295263D01*
X148347411Y-95294838D01*
X147897028Y-95480933D01*
X147552144Y-95825216D01*
X147365263Y-96275273D01*
X147364838Y-96762589D01*
X144894254Y-96762589D01*
X144894254Y-95620000D01*
X144861136Y-95443994D01*
X144757117Y-95282344D01*
X144598402Y-95173898D01*
X144410000Y-95135746D01*
X142610000Y-95135746D01*
X142433994Y-95168864D01*
X142272344Y-95272883D01*
X142163898Y-95431598D01*
X142125746Y-95620000D01*
X136934349Y-95620000D01*
X136669864Y-95355054D01*
X136164694Y-95145289D01*
X135904905Y-95145062D01*
X136004543Y-95103893D01*
X136377583Y-94731504D01*
X136579719Y-94244705D01*
X136579950Y-93980000D01*
X144750072Y-93980000D01*
X144843316Y-94448768D01*
X145108852Y-94846170D01*
X145506254Y-95111706D01*
X145975022Y-95204950D01*
X146124978Y-95204950D01*
X146593746Y-95111706D01*
X146991148Y-94846170D01*
X147256684Y-94448768D01*
X147301673Y-94222589D01*
X148634838Y-94222589D01*
X148820933Y-94672972D01*
X149165216Y-95017856D01*
X149615273Y-95204737D01*
X149989119Y-95205063D01*
X150355050Y-95570995D01*
X150355050Y-98102768D01*
X150092144Y-98365216D01*
X149905263Y-98815273D01*
X149904838Y-99302589D01*
X150090933Y-99752972D01*
X150435216Y-100097856D01*
X150885273Y-100284737D01*
X151372589Y-100285162D01*
X151822972Y-100099067D01*
X152167856Y-99754784D01*
X152354737Y-99304727D01*
X152355162Y-98817411D01*
X152169067Y-98367028D01*
X151904950Y-98102450D01*
X151904950Y-97402697D01*
X152964150Y-97402697D01*
X153040743Y-97598846D01*
X153501499Y-97757529D01*
X153987907Y-97727811D01*
X154299257Y-97598846D01*
X154375850Y-97402697D01*
X153670000Y-96696847D01*
X152964150Y-97402697D01*
X151904950Y-97402697D01*
X151904950Y-96351499D01*
X152432471Y-96351499D01*
X152462189Y-96837907D01*
X152591154Y-97149257D01*
X152787303Y-97225850D01*
X153493153Y-96520000D01*
X153846847Y-96520000D01*
X154552697Y-97225850D01*
X154748846Y-97149257D01*
X154882013Y-96762589D01*
X154984838Y-96762589D01*
X155170933Y-97212972D01*
X155515216Y-97557856D01*
X155965273Y-97744737D01*
X156452589Y-97745162D01*
X156902972Y-97559067D01*
X157167550Y-97294950D01*
X157794006Y-97294950D01*
X159472028Y-98972973D01*
X159723440Y-99140961D01*
X160020000Y-99199950D01*
X160191470Y-99199950D01*
X160538496Y-99547583D01*
X160893789Y-99695113D01*
X160540457Y-99841107D01*
X160167417Y-100213496D01*
X159965281Y-100700295D01*
X159964821Y-101227393D01*
X160166107Y-101714543D01*
X160515050Y-102064096D01*
X160515050Y-102910441D01*
X160363994Y-102938864D01*
X160202344Y-103042883D01*
X160093898Y-103201598D01*
X160055746Y-103390000D01*
X160055746Y-104890000D01*
X160088864Y-105066006D01*
X160192883Y-105227656D01*
X160351598Y-105336102D01*
X160390147Y-105343908D01*
X159829006Y-105905050D01*
X157167232Y-105905050D01*
X156904784Y-105642144D01*
X156454727Y-105455263D01*
X155967411Y-105454838D01*
X155517028Y-105640933D01*
X155172144Y-105985216D01*
X154985263Y-106435273D01*
X154984838Y-106922589D01*
X155170933Y-107372972D01*
X155515216Y-107717856D01*
X155965273Y-107904737D01*
X156452589Y-107905162D01*
X156902972Y-107719067D01*
X157167550Y-107454950D01*
X160150000Y-107454950D01*
X160446561Y-107395960D01*
X160697972Y-107227972D01*
X161837972Y-106087973D01*
X161924835Y-105957973D01*
X162005960Y-105836561D01*
X162064950Y-105540000D01*
X162064950Y-105369559D01*
X162216006Y-105341136D01*
X162377656Y-105237117D01*
X162486102Y-105078402D01*
X162524254Y-104890000D01*
X162524254Y-103390000D01*
X162491136Y-103213994D01*
X162387117Y-103052344D01*
X162228402Y-102943898D01*
X162064950Y-102910798D01*
X162064950Y-102063530D01*
X162412583Y-101716504D01*
X162614719Y-101229705D01*
X162615179Y-100702607D01*
X162413893Y-100215457D01*
X162041504Y-99842417D01*
X161686211Y-99694887D01*
X162039543Y-99548893D01*
X162412583Y-99176504D01*
X162614719Y-98689705D01*
X162615179Y-98162607D01*
X162413893Y-97675457D01*
X162041504Y-97302417D01*
X161554705Y-97100281D01*
X161027607Y-97099821D01*
X160540457Y-97301107D01*
X160266015Y-97575070D01*
X158662972Y-95972028D01*
X158648280Y-95962211D01*
X158411561Y-95804040D01*
X158115000Y-95745050D01*
X157167232Y-95745050D01*
X156904784Y-95482144D01*
X156454727Y-95295263D01*
X155967411Y-95294838D01*
X155517028Y-95480933D01*
X155172144Y-95825216D01*
X154985263Y-96275273D01*
X154984838Y-96762589D01*
X154882013Y-96762589D01*
X154907529Y-96688501D01*
X154877811Y-96202093D01*
X154748846Y-95890743D01*
X154552697Y-95814150D01*
X153846847Y-96520000D01*
X153493153Y-96520000D01*
X152787303Y-95814150D01*
X152591154Y-95890743D01*
X152432471Y-96351499D01*
X151904950Y-96351499D01*
X151904950Y-95637303D01*
X152964150Y-95637303D01*
X153670000Y-96343153D01*
X154375850Y-95637303D01*
X154299257Y-95441154D01*
X153838501Y-95282471D01*
X153352093Y-95312189D01*
X153040743Y-95441154D01*
X152964150Y-95637303D01*
X151904950Y-95637303D01*
X151904950Y-95250000D01*
X151845960Y-94953439D01*
X151761966Y-94827734D01*
X151677972Y-94702027D01*
X151084838Y-94108893D01*
X151085015Y-93905022D01*
X156255050Y-93905022D01*
X156255050Y-94054978D01*
X156348294Y-94523746D01*
X156613830Y-94921148D01*
X157011232Y-95186684D01*
X157480000Y-95279928D01*
X157948768Y-95186684D01*
X158346170Y-94921148D01*
X158611706Y-94523746D01*
X158704950Y-94054978D01*
X158704950Y-93905022D01*
X158611706Y-93436254D01*
X158346170Y-93038852D01*
X157948768Y-92773316D01*
X157480000Y-92680072D01*
X157011232Y-92773316D01*
X156613830Y-93038852D01*
X156348294Y-93436254D01*
X156255050Y-93905022D01*
X151085015Y-93905022D01*
X151085162Y-93737411D01*
X150899067Y-93287028D01*
X150554784Y-92942144D01*
X150104727Y-92755263D01*
X149617411Y-92754838D01*
X149167028Y-92940933D01*
X148822144Y-93285216D01*
X148635263Y-93735273D01*
X148634838Y-94222589D01*
X147301673Y-94222589D01*
X147349928Y-93980000D01*
X147256684Y-93511232D01*
X146991148Y-93113830D01*
X146593746Y-92848294D01*
X146124978Y-92755050D01*
X145975022Y-92755050D01*
X145506254Y-92848294D01*
X145108852Y-93113830D01*
X144843316Y-93511232D01*
X144750072Y-93980000D01*
X136579950Y-93980000D01*
X136580179Y-93717607D01*
X136378893Y-93230457D01*
X136006504Y-92857417D01*
X135519705Y-92655281D01*
X134992607Y-92654821D01*
X134505457Y-92856107D01*
X134132417Y-93228496D01*
X133984887Y-93583789D01*
X133838893Y-93230457D01*
X133466504Y-92857417D01*
X132979705Y-92655281D01*
X132452607Y-92654821D01*
X131965457Y-92856107D01*
X131592417Y-93228496D01*
X131390281Y-93715295D01*
X131389821Y-94242393D01*
X131399386Y-94265541D01*
X131364040Y-94318439D01*
X131305050Y-94615000D01*
X131305050Y-95135746D01*
X131180000Y-95135746D01*
X131003994Y-95168864D01*
X130842344Y-95272883D01*
X130733898Y-95431598D01*
X130695746Y-95620000D01*
X125504349Y-95620000D01*
X125239864Y-95355054D01*
X124734694Y-95145289D01*
X124187705Y-95144812D01*
X123682171Y-95353694D01*
X123295054Y-95740136D01*
X123085289Y-96245306D01*
X123084812Y-96792295D01*
X120040942Y-96792295D01*
X120009257Y-96711154D01*
X119548501Y-96552471D01*
X119062093Y-96582189D01*
X118750743Y-96711154D01*
X118674150Y-96907303D01*
X116249950Y-96907303D01*
X116249950Y-96524950D01*
X118700000Y-96524950D01*
X118728203Y-96519441D01*
X118752998Y-96502998D01*
X120252998Y-95002998D01*
X120269045Y-94979160D01*
X120274950Y-94950000D01*
X120274950Y-93980000D01*
X120620072Y-93980000D01*
X120713316Y-94448768D01*
X120978852Y-94846170D01*
X121376254Y-95111706D01*
X121845022Y-95204950D01*
X121994978Y-95204950D01*
X122463746Y-95111706D01*
X122861148Y-94846170D01*
X123126684Y-94448768D01*
X123219928Y-93980000D01*
X123126684Y-93511232D01*
X122861148Y-93113830D01*
X122463746Y-92848294D01*
X121994978Y-92755050D01*
X121845022Y-92755050D01*
X121376254Y-92848294D01*
X120978852Y-93113830D01*
X120713316Y-93511232D01*
X120620072Y-93980000D01*
X120274950Y-93980000D01*
X120274950Y-92499950D01*
X159125050Y-92499950D01*
X159125050Y-94950000D01*
M02*
