G04 #@! TF.FileFunction,Legend,Top*
%FSLAX46Y46*%
G04 Gerber Fmt 4.6, Leading zero omitted, Abs format (unit mm)*
G04 Created by KiCad (PCBNEW 4.0.6) date Wed Dec 13 01:07:51 2017*
%MOMM*%
%LPD*%
G01*
G04 APERTURE LIST*
%ADD10C,0.100000*%
%ADD11C,0.150000*%
%ADD12C,0.120000*%
%ADD13O,1.900000X1.300000*%
%ADD14R,1.900000X1.300000*%
%ADD15R,1.800000X1.800000*%
%ADD16C,1.800000*%
%ADD17C,4.200000*%
%ADD18C,1.400000*%
%ADD19R,1.400000X1.400000*%
%ADD20C,1.900000*%
%ADD21O,2.000000X1.900000*%
%ADD22O,1.900000X2.000000*%
%ADD23R,1.900000X1.900000*%
%ADD24O,1.900000X1.900000*%
%ADD25C,2.100000*%
%ADD26R,2.200000X2.200000*%
%ADD27C,2.200000*%
G04 APERTURE END LIST*
D10*
X137541000Y-93980000D02*
X137033000Y-93980000D01*
X137744905Y-93980000D02*
G75*
G03X137744905Y-93980000I-457905J0D01*
G01*
X131140905Y-93980000D02*
G75*
G03X131140905Y-93980000I-457905J0D01*
G01*
X130429000Y-93980000D02*
X130937000Y-93980000D01*
X130683000Y-93726000D02*
X130683000Y-94234000D01*
X133172905Y-119888000D02*
G75*
G03X133172905Y-119888000I-457905J0D01*
G01*
X132461000Y-119888000D02*
X132969000Y-119888000D01*
X135712905Y-119888000D02*
G75*
G03X135712905Y-119888000I-457905J0D01*
G01*
X135255000Y-120142000D02*
X135255000Y-119634000D01*
X135001000Y-119888000D02*
X135509000Y-119888000D01*
X159258000Y-98679000D02*
X159258000Y-98171000D01*
X159718852Y-98428346D02*
G75*
G03X159718852Y-98428346I-460498J0D01*
G01*
X159715905Y-100965000D02*
G75*
G03X159715905Y-100965000I-457905J0D01*
G01*
X159258000Y-100711000D02*
X159258000Y-101219000D01*
X159004000Y-100965000D02*
X159512000Y-100965000D01*
D11*
X140866667Y-93527619D02*
X140866667Y-94527619D01*
X140628572Y-94527619D01*
X140485714Y-94480000D01*
X140390476Y-94384762D01*
X140342857Y-94289524D01*
X140295238Y-94099048D01*
X140295238Y-93956190D01*
X140342857Y-93765714D01*
X140390476Y-93670476D01*
X140485714Y-93575238D01*
X140628572Y-93527619D01*
X140866667Y-93527619D01*
X139866667Y-94527619D02*
X139866667Y-93718095D01*
X139819048Y-93622857D01*
X139771429Y-93575238D01*
X139676191Y-93527619D01*
X139485714Y-93527619D01*
X139390476Y-93575238D01*
X139342857Y-93622857D01*
X139295238Y-93718095D01*
X139295238Y-94527619D01*
X138961905Y-94527619D02*
X138390476Y-94527619D01*
X138676191Y-93527619D02*
X138676191Y-94527619D01*
X148732857Y-109462857D02*
X148675714Y-109491429D01*
X148561428Y-109491429D01*
X148504286Y-109462857D01*
X148475714Y-109434286D01*
X148447143Y-109377143D01*
X148447143Y-109205714D01*
X148475714Y-109148571D01*
X148504286Y-109120000D01*
X148561428Y-109091429D01*
X148675714Y-109091429D01*
X148732857Y-109120000D01*
X146192857Y-106922857D02*
X146135714Y-106951429D01*
X146021428Y-106951429D01*
X145964286Y-106922857D01*
X145935714Y-106894286D01*
X145907143Y-106837143D01*
X145907143Y-106665714D01*
X145935714Y-106608571D01*
X145964286Y-106580000D01*
X146021428Y-106551429D01*
X146135714Y-106551429D01*
X146192857Y-106580000D01*
X133492857Y-106922857D02*
X133435714Y-106951429D01*
X133321428Y-106951429D01*
X133264286Y-106922857D01*
X133235714Y-106894286D01*
X133207143Y-106837143D01*
X133207143Y-106665714D01*
X133235714Y-106608571D01*
X133264286Y-106580000D01*
X133321428Y-106551429D01*
X133435714Y-106551429D01*
X133492857Y-106580000D01*
X125872857Y-109462857D02*
X125815714Y-109491429D01*
X125701428Y-109491429D01*
X125644286Y-109462857D01*
X125615714Y-109434286D01*
X125587143Y-109377143D01*
X125587143Y-109205714D01*
X125615714Y-109148571D01*
X125644286Y-109120000D01*
X125701428Y-109091429D01*
X125815714Y-109091429D01*
X125872857Y-109120000D01*
X120792857Y-109462857D02*
X120735714Y-109491429D01*
X120621428Y-109491429D01*
X120564286Y-109462857D01*
X120535714Y-109434286D01*
X120507143Y-109377143D01*
X120507143Y-109205714D01*
X120535714Y-109148571D01*
X120564286Y-109120000D01*
X120621428Y-109091429D01*
X120735714Y-109091429D01*
X120792857Y-109120000D01*
X120521429Y-108221429D02*
X120521429Y-107621429D01*
X120521429Y-107850000D02*
X120578572Y-107821429D01*
X120692858Y-107821429D01*
X120750001Y-107850000D01*
X120778572Y-107878571D01*
X120807143Y-107935714D01*
X120807143Y-108107143D01*
X120778572Y-108164286D01*
X120750001Y-108192857D01*
X120692858Y-108221429D01*
X120578572Y-108221429D01*
X120521429Y-108192857D01*
X125601429Y-108221429D02*
X125601429Y-107621429D01*
X125601429Y-107850000D02*
X125658572Y-107821429D01*
X125772858Y-107821429D01*
X125830001Y-107850000D01*
X125858572Y-107878571D01*
X125887143Y-107935714D01*
X125887143Y-108107143D01*
X125858572Y-108164286D01*
X125830001Y-108192857D01*
X125772858Y-108221429D01*
X125658572Y-108221429D01*
X125601429Y-108192857D01*
X133221429Y-108221429D02*
X133221429Y-107621429D01*
X133221429Y-107850000D02*
X133278572Y-107821429D01*
X133392858Y-107821429D01*
X133450001Y-107850000D01*
X133478572Y-107878571D01*
X133507143Y-107935714D01*
X133507143Y-108107143D01*
X133478572Y-108164286D01*
X133450001Y-108192857D01*
X133392858Y-108221429D01*
X133278572Y-108221429D01*
X133221429Y-108192857D01*
X148461429Y-110761429D02*
X148461429Y-110161429D01*
X148461429Y-110390000D02*
X148518572Y-110361429D01*
X148632858Y-110361429D01*
X148690001Y-110390000D01*
X148718572Y-110418571D01*
X148747143Y-110475714D01*
X148747143Y-110647143D01*
X148718572Y-110704286D01*
X148690001Y-110732857D01*
X148632858Y-110761429D01*
X148518572Y-110761429D01*
X148461429Y-110732857D01*
X145921429Y-105681429D02*
X145921429Y-105081429D01*
X145921429Y-105310000D02*
X145978572Y-105281429D01*
X146092858Y-105281429D01*
X146150001Y-105310000D01*
X146178572Y-105338571D01*
X146207143Y-105395714D01*
X146207143Y-105567143D01*
X146178572Y-105624286D01*
X146150001Y-105652857D01*
X146092858Y-105681429D01*
X145978572Y-105681429D01*
X145921429Y-105652857D01*
X148704286Y-112002857D02*
X148647143Y-112031429D01*
X148532857Y-112031429D01*
X148475714Y-112002857D01*
X148447143Y-111945714D01*
X148447143Y-111717143D01*
X148475714Y-111660000D01*
X148532857Y-111631429D01*
X148647143Y-111631429D01*
X148704286Y-111660000D01*
X148732857Y-111717143D01*
X148732857Y-111774286D01*
X148447143Y-111831429D01*
X146164286Y-104382857D02*
X146107143Y-104411429D01*
X145992857Y-104411429D01*
X145935714Y-104382857D01*
X145907143Y-104325714D01*
X145907143Y-104097143D01*
X145935714Y-104040000D01*
X145992857Y-104011429D01*
X146107143Y-104011429D01*
X146164286Y-104040000D01*
X146192857Y-104097143D01*
X146192857Y-104154286D01*
X145907143Y-104211429D01*
X133464286Y-109462857D02*
X133407143Y-109491429D01*
X133292857Y-109491429D01*
X133235714Y-109462857D01*
X133207143Y-109405714D01*
X133207143Y-109177143D01*
X133235714Y-109120000D01*
X133292857Y-109091429D01*
X133407143Y-109091429D01*
X133464286Y-109120000D01*
X133492857Y-109177143D01*
X133492857Y-109234286D01*
X133207143Y-109291429D01*
X125844286Y-106922857D02*
X125787143Y-106951429D01*
X125672857Y-106951429D01*
X125615714Y-106922857D01*
X125587143Y-106865714D01*
X125587143Y-106637143D01*
X125615714Y-106580000D01*
X125672857Y-106551429D01*
X125787143Y-106551429D01*
X125844286Y-106580000D01*
X125872857Y-106637143D01*
X125872857Y-106694286D01*
X125587143Y-106751429D01*
X120764286Y-106922857D02*
X120707143Y-106951429D01*
X120592857Y-106951429D01*
X120535714Y-106922857D01*
X120507143Y-106865714D01*
X120507143Y-106637143D01*
X120535714Y-106580000D01*
X120592857Y-106551429D01*
X120707143Y-106551429D01*
X120764286Y-106580000D01*
X120792857Y-106637143D01*
X120792857Y-106694286D01*
X120507143Y-106751429D01*
X128778000Y-94615000D02*
X129794000Y-93091000D01*
X129794000Y-93091000D02*
X127762000Y-93091000D01*
X128778000Y-94107000D02*
X128778000Y-93599000D01*
X128778000Y-93345000D02*
X128778000Y-93345000D01*
X127762000Y-93091000D02*
X128778000Y-94615000D01*
X132601668Y-119061667D02*
X132601668Y-118361667D01*
X132868334Y-118361667D01*
X132935001Y-118395000D01*
X132968334Y-118428333D01*
X133001668Y-118495000D01*
X133001668Y-118595000D01*
X132968334Y-118661667D01*
X132935001Y-118695000D01*
X132868334Y-118728333D01*
X132601668Y-118728333D01*
X133401668Y-119061667D02*
X133335001Y-119028333D01*
X133301668Y-118995000D01*
X133268334Y-118928333D01*
X133268334Y-118728333D01*
X133301668Y-118661667D01*
X133335001Y-118628333D01*
X133401668Y-118595000D01*
X133501668Y-118595000D01*
X133568334Y-118628333D01*
X133601668Y-118661667D01*
X133635001Y-118728333D01*
X133635001Y-118928333D01*
X133601668Y-118995000D01*
X133568334Y-119028333D01*
X133501668Y-119061667D01*
X133401668Y-119061667D01*
X133868334Y-118595000D02*
X134001667Y-119061667D01*
X134135001Y-118728333D01*
X134268334Y-119061667D01*
X134401667Y-118595000D01*
X134935000Y-119028333D02*
X134868334Y-119061667D01*
X134735000Y-119061667D01*
X134668334Y-119028333D01*
X134635000Y-118961667D01*
X134635000Y-118695000D01*
X134668334Y-118628333D01*
X134735000Y-118595000D01*
X134868334Y-118595000D01*
X134935000Y-118628333D01*
X134968334Y-118695000D01*
X134968334Y-118761667D01*
X134635000Y-118828333D01*
X135268334Y-119061667D02*
X135268334Y-118595000D01*
X135268334Y-118728333D02*
X135301667Y-118661667D01*
X135335000Y-118628333D01*
X135401667Y-118595000D01*
X135468334Y-118595000D01*
X117405095Y-101511904D02*
X117405095Y-101130951D01*
X117024143Y-101092856D01*
X117062238Y-101130951D01*
X117100333Y-101207142D01*
X117100333Y-101397618D01*
X117062238Y-101473808D01*
X117024143Y-101511904D01*
X116947952Y-101549999D01*
X116757476Y-101549999D01*
X116681286Y-101511904D01*
X116643190Y-101473808D01*
X116605095Y-101397618D01*
X116605095Y-101207142D01*
X116643190Y-101130951D01*
X116681286Y-101092856D01*
X117405095Y-102388094D02*
X117405095Y-102845237D01*
X116605095Y-102616666D02*
X117405095Y-102616666D01*
X116605095Y-103111904D02*
X117138429Y-103111904D01*
X116986048Y-103111904D02*
X117062238Y-103149999D01*
X117100333Y-103188095D01*
X117138429Y-103264285D01*
X117138429Y-103340476D01*
X116605095Y-103949999D02*
X117024143Y-103949999D01*
X117100333Y-103911904D01*
X117138429Y-103835714D01*
X117138429Y-103683333D01*
X117100333Y-103607142D01*
X116643190Y-103949999D02*
X116605095Y-103873809D01*
X116605095Y-103683333D01*
X116643190Y-103607142D01*
X116719381Y-103569047D01*
X116795571Y-103569047D01*
X116871762Y-103607142D01*
X116909857Y-103683333D01*
X116909857Y-103873809D01*
X116947952Y-103949999D01*
X117138429Y-104330952D02*
X116605095Y-104330952D01*
X117062238Y-104330952D02*
X117100333Y-104369047D01*
X117138429Y-104445238D01*
X117138429Y-104559524D01*
X117100333Y-104635714D01*
X117024143Y-104673809D01*
X116605095Y-104673809D01*
X116643190Y-105016667D02*
X116605095Y-105092857D01*
X116605095Y-105245238D01*
X116643190Y-105321429D01*
X116719381Y-105359524D01*
X116757476Y-105359524D01*
X116833667Y-105321429D01*
X116871762Y-105245238D01*
X116871762Y-105130953D01*
X116909857Y-105054762D01*
X116986048Y-105016667D01*
X117024143Y-105016667D01*
X117100333Y-105054762D01*
X117138429Y-105130953D01*
X117138429Y-105245238D01*
X117100333Y-105321429D01*
X116605095Y-105702381D02*
X117138429Y-105702381D01*
X117405095Y-105702381D02*
X117367000Y-105664286D01*
X117328905Y-105702381D01*
X117367000Y-105740476D01*
X117405095Y-105702381D01*
X117328905Y-105702381D01*
X116643190Y-106045238D02*
X116605095Y-106121428D01*
X116605095Y-106273809D01*
X116643190Y-106350000D01*
X116719381Y-106388095D01*
X116757476Y-106388095D01*
X116833667Y-106350000D01*
X116871762Y-106273809D01*
X116871762Y-106159524D01*
X116909857Y-106083333D01*
X116986048Y-106045238D01*
X117024143Y-106045238D01*
X117100333Y-106083333D01*
X117138429Y-106159524D01*
X117138429Y-106273809D01*
X117100333Y-106350000D01*
X117138429Y-106616666D02*
X117138429Y-106921428D01*
X117405095Y-106730952D02*
X116719381Y-106730952D01*
X116643190Y-106769047D01*
X116605095Y-106845238D01*
X116605095Y-106921428D01*
X116605095Y-107302381D02*
X116643190Y-107226190D01*
X116681286Y-107188095D01*
X116757476Y-107150000D01*
X116986048Y-107150000D01*
X117062238Y-107188095D01*
X117100333Y-107226190D01*
X117138429Y-107302381D01*
X117138429Y-107416667D01*
X117100333Y-107492857D01*
X117062238Y-107530952D01*
X116986048Y-107569048D01*
X116757476Y-107569048D01*
X116681286Y-107530952D01*
X116643190Y-107492857D01*
X116605095Y-107416667D01*
X116605095Y-107302381D01*
X116605095Y-107911905D02*
X117138429Y-107911905D01*
X116986048Y-107911905D02*
X117062238Y-107950000D01*
X117100333Y-107988096D01*
X117138429Y-108064286D01*
X117138429Y-108140477D01*
X117024143Y-109016667D02*
X117024143Y-109283334D01*
X116605095Y-109397620D02*
X116605095Y-109016667D01*
X117405095Y-109016667D01*
X117405095Y-109397620D01*
X116643190Y-109702382D02*
X116605095Y-109816668D01*
X116605095Y-110007144D01*
X116643190Y-110083334D01*
X116681286Y-110121430D01*
X116757476Y-110159525D01*
X116833667Y-110159525D01*
X116909857Y-110121430D01*
X116947952Y-110083334D01*
X116986048Y-110007144D01*
X117024143Y-109854763D01*
X117062238Y-109778572D01*
X117100333Y-109740477D01*
X117176524Y-109702382D01*
X117252714Y-109702382D01*
X117328905Y-109740477D01*
X117367000Y-109778572D01*
X117405095Y-109854763D01*
X117405095Y-110045239D01*
X117367000Y-110159525D01*
X116605095Y-110959525D02*
X116986048Y-110692858D01*
X116605095Y-110502382D02*
X117405095Y-110502382D01*
X117405095Y-110807144D01*
X117367000Y-110883335D01*
X117328905Y-110921430D01*
X117252714Y-110959525D01*
X117138429Y-110959525D01*
X117062238Y-110921430D01*
X117024143Y-110883335D01*
X116986048Y-110807144D01*
X116986048Y-110502382D01*
X116605095Y-111911906D02*
X117405095Y-111911906D01*
X116833667Y-112178573D01*
X117405095Y-112445240D01*
X116605095Y-112445240D01*
X116643190Y-113130954D02*
X116605095Y-113054764D01*
X116605095Y-112902383D01*
X116643190Y-112826192D01*
X116719381Y-112788097D01*
X117024143Y-112788097D01*
X117100333Y-112826192D01*
X117138429Y-112902383D01*
X117138429Y-113054764D01*
X117100333Y-113130954D01*
X117024143Y-113169049D01*
X116947952Y-113169049D01*
X116871762Y-112788097D01*
X117138429Y-113397620D02*
X117138429Y-113702382D01*
X117405095Y-113511906D02*
X116719381Y-113511906D01*
X116643190Y-113550001D01*
X116605095Y-113626192D01*
X116605095Y-113702382D01*
X116643190Y-114273811D02*
X116605095Y-114197621D01*
X116605095Y-114045240D01*
X116643190Y-113969049D01*
X116719381Y-113930954D01*
X117024143Y-113930954D01*
X117100333Y-113969049D01*
X117138429Y-114045240D01*
X117138429Y-114197621D01*
X117100333Y-114273811D01*
X117024143Y-114311906D01*
X116947952Y-114311906D01*
X116871762Y-113930954D01*
X116605095Y-114654763D02*
X117138429Y-114654763D01*
X116986048Y-114654763D02*
X117062238Y-114692858D01*
X117100333Y-114730954D01*
X117138429Y-114807144D01*
X117138429Y-114883335D01*
X158812667Y-119173332D02*
X158112667Y-119173332D01*
X158112667Y-118906666D01*
X158146000Y-118839999D01*
X158179333Y-118806666D01*
X158246000Y-118773332D01*
X158346000Y-118773332D01*
X158412667Y-118806666D01*
X158446000Y-118839999D01*
X158479333Y-118906666D01*
X158479333Y-119173332D01*
X158812667Y-118373332D02*
X158779333Y-118439999D01*
X158746000Y-118473332D01*
X158679333Y-118506666D01*
X158479333Y-118506666D01*
X158412667Y-118473332D01*
X158379333Y-118439999D01*
X158346000Y-118373332D01*
X158346000Y-118273332D01*
X158379333Y-118206666D01*
X158412667Y-118173332D01*
X158479333Y-118139999D01*
X158679333Y-118139999D01*
X158746000Y-118173332D01*
X158779333Y-118206666D01*
X158812667Y-118273332D01*
X158812667Y-118373332D01*
X158346000Y-117906666D02*
X158812667Y-117773333D01*
X158479333Y-117639999D01*
X158812667Y-117506666D01*
X158346000Y-117373333D01*
X158779333Y-116840000D02*
X158812667Y-116906666D01*
X158812667Y-117040000D01*
X158779333Y-117106666D01*
X158712667Y-117140000D01*
X158446000Y-117140000D01*
X158379333Y-117106666D01*
X158346000Y-117040000D01*
X158346000Y-116906666D01*
X158379333Y-116840000D01*
X158446000Y-116806666D01*
X158512667Y-116806666D01*
X158579333Y-117140000D01*
X158812667Y-116506666D02*
X158346000Y-116506666D01*
X158479333Y-116506666D02*
X158412667Y-116473333D01*
X158379333Y-116440000D01*
X158346000Y-116373333D01*
X158346000Y-116306666D01*
X158112667Y-115406667D02*
X158112667Y-115273334D01*
X158146000Y-115206667D01*
X158212667Y-115140000D01*
X158346000Y-115106667D01*
X158579333Y-115106667D01*
X158712667Y-115140000D01*
X158779333Y-115206667D01*
X158812667Y-115273334D01*
X158812667Y-115406667D01*
X158779333Y-115473334D01*
X158712667Y-115540000D01*
X158579333Y-115573334D01*
X158346000Y-115573334D01*
X158212667Y-115540000D01*
X158146000Y-115473334D01*
X158112667Y-115406667D01*
X158346000Y-114806667D02*
X158812667Y-114806667D01*
X158412667Y-114806667D02*
X158379333Y-114773334D01*
X158346000Y-114706667D01*
X158346000Y-114606667D01*
X158379333Y-114540001D01*
X158446000Y-114506667D01*
X158812667Y-114506667D01*
X158431667Y-100944999D02*
X157731667Y-100944999D01*
X158231667Y-100711666D01*
X157731667Y-100478333D01*
X158431667Y-100478333D01*
X158398333Y-99878333D02*
X158431667Y-99944999D01*
X158431667Y-100078333D01*
X158398333Y-100144999D01*
X158331667Y-100178333D01*
X158065000Y-100178333D01*
X157998333Y-100144999D01*
X157965000Y-100078333D01*
X157965000Y-99944999D01*
X157998333Y-99878333D01*
X158065000Y-99844999D01*
X158131667Y-99844999D01*
X158198333Y-100178333D01*
X157965000Y-99644999D02*
X157965000Y-99378333D01*
X157731667Y-99544999D02*
X158331667Y-99544999D01*
X158398333Y-99511666D01*
X158431667Y-99444999D01*
X158431667Y-99378333D01*
X158398333Y-98878333D02*
X158431667Y-98944999D01*
X158431667Y-99078333D01*
X158398333Y-99144999D01*
X158331667Y-99178333D01*
X158065000Y-99178333D01*
X157998333Y-99144999D01*
X157965000Y-99078333D01*
X157965000Y-98944999D01*
X157998333Y-98878333D01*
X158065000Y-98844999D01*
X158131667Y-98844999D01*
X158198333Y-99178333D01*
X158431667Y-98544999D02*
X157965000Y-98544999D01*
X158098333Y-98544999D02*
X158031667Y-98511666D01*
X157998333Y-98478333D01*
X157965000Y-98411666D01*
X157965000Y-98344999D01*
X120602999Y-122535905D02*
X120602999Y-121735905D01*
X120831571Y-121735905D01*
X120888713Y-121774000D01*
X120917285Y-121812095D01*
X120945856Y-121888286D01*
X120945856Y-122002571D01*
X120917285Y-122078762D01*
X120888713Y-122116857D01*
X120831571Y-122154952D01*
X120602999Y-122154952D01*
X121288713Y-122535905D02*
X121231571Y-122497810D01*
X121202999Y-122459714D01*
X121174428Y-122383524D01*
X121174428Y-122154952D01*
X121202999Y-122078762D01*
X121231571Y-122040667D01*
X121288713Y-122002571D01*
X121374428Y-122002571D01*
X121431571Y-122040667D01*
X121460142Y-122078762D01*
X121488713Y-122154952D01*
X121488713Y-122383524D01*
X121460142Y-122459714D01*
X121431571Y-122497810D01*
X121374428Y-122535905D01*
X121288713Y-122535905D01*
X121688713Y-122002571D02*
X121802999Y-122535905D01*
X121917285Y-122154952D01*
X122031570Y-122535905D01*
X122145856Y-122002571D01*
X122602999Y-122497810D02*
X122545856Y-122535905D01*
X122431570Y-122535905D01*
X122374427Y-122497810D01*
X122345856Y-122421619D01*
X122345856Y-122116857D01*
X122374427Y-122040667D01*
X122431570Y-122002571D01*
X122545856Y-122002571D01*
X122602999Y-122040667D01*
X122631570Y-122116857D01*
X122631570Y-122193048D01*
X122345856Y-122269238D01*
X122888713Y-122535905D02*
X122888713Y-122002571D01*
X122888713Y-122154952D02*
X122917285Y-122078762D01*
X122945856Y-122040667D01*
X123002999Y-122002571D01*
X123060142Y-122002571D01*
X123717285Y-122231143D02*
X124174428Y-122231143D01*
X123945857Y-122535905D02*
X123945857Y-121926381D01*
X124717285Y-121735905D02*
X124602999Y-121735905D01*
X124545856Y-121774000D01*
X124517285Y-121812095D01*
X124460142Y-121926381D01*
X124431571Y-122078762D01*
X124431571Y-122383524D01*
X124460142Y-122459714D01*
X124488714Y-122497810D01*
X124545856Y-122535905D01*
X124660142Y-122535905D01*
X124717285Y-122497810D01*
X124745856Y-122459714D01*
X124774428Y-122383524D01*
X124774428Y-122193048D01*
X124745856Y-122116857D01*
X124717285Y-122078762D01*
X124660142Y-122040667D01*
X124545856Y-122040667D01*
X124488714Y-122078762D01*
X124460142Y-122116857D01*
X124431571Y-122193048D01*
X125403000Y-122002571D02*
X125631571Y-122002571D01*
X125488714Y-121735905D02*
X125488714Y-122421619D01*
X125517286Y-122497810D01*
X125574428Y-122535905D01*
X125631571Y-122535905D01*
X125917285Y-122535905D02*
X125860143Y-122497810D01*
X125831571Y-122459714D01*
X125803000Y-122383524D01*
X125803000Y-122154952D01*
X125831571Y-122078762D01*
X125860143Y-122040667D01*
X125917285Y-122002571D01*
X126003000Y-122002571D01*
X126060143Y-122040667D01*
X126088714Y-122078762D01*
X126117285Y-122154952D01*
X126117285Y-122383524D01*
X126088714Y-122459714D01*
X126060143Y-122497810D01*
X126003000Y-122535905D01*
X125917285Y-122535905D01*
X126831571Y-122231143D02*
X127288714Y-122231143D01*
X127060143Y-122535905D02*
X127060143Y-121926381D01*
X127888714Y-122535905D02*
X127545857Y-122535905D01*
X127717285Y-122535905D02*
X127717285Y-121735905D01*
X127660142Y-121850190D01*
X127603000Y-121926381D01*
X127545857Y-121964476D01*
X128117286Y-121812095D02*
X128145857Y-121774000D01*
X128203000Y-121735905D01*
X128345857Y-121735905D01*
X128403000Y-121774000D01*
X128431571Y-121812095D01*
X128460143Y-121888286D01*
X128460143Y-121964476D01*
X128431571Y-122078762D01*
X128088714Y-122535905D01*
X128460143Y-122535905D01*
X129088715Y-121735905D02*
X129288715Y-122535905D01*
X129488715Y-121735905D01*
X129688715Y-122535905D02*
X129688715Y-121735905D01*
X129831572Y-121735905D01*
X129917287Y-121774000D01*
X129974429Y-121850190D01*
X130003001Y-121926381D01*
X130031572Y-122078762D01*
X130031572Y-122193048D01*
X130003001Y-122345429D01*
X129974429Y-122421619D01*
X129917287Y-122497810D01*
X129831572Y-122535905D01*
X129688715Y-122535905D01*
X130631572Y-122459714D02*
X130603001Y-122497810D01*
X130517287Y-122535905D01*
X130460144Y-122535905D01*
X130374429Y-122497810D01*
X130317287Y-122421619D01*
X130288715Y-122345429D01*
X130260144Y-122193048D01*
X130260144Y-122078762D01*
X130288715Y-121926381D01*
X130317287Y-121850190D01*
X130374429Y-121774000D01*
X130460144Y-121735905D01*
X130517287Y-121735905D01*
X130603001Y-121774000D01*
X130631572Y-121812095D01*
D10*
X149073625Y-112243625D02*
G75*
G02X144840000Y-110490000I-1753625J1753625D01*
G01*
X149073625Y-108736375D02*
G75*
G03X144840000Y-110490000I-1753625J-1753625D01*
G01*
X149070000Y-112260000D02*
X149070000Y-108760000D01*
X145566375Y-103656375D02*
G75*
G02X149800000Y-105410000I1753625J-1753625D01*
G01*
X145566375Y-107163625D02*
G75*
G03X149800000Y-105410000I1753625J1753625D01*
G01*
X145570000Y-103640000D02*
X145570000Y-107140000D01*
X133833625Y-109703625D02*
G75*
G02X129600000Y-107950000I-1753625J1753625D01*
G01*
X133833625Y-106196375D02*
G75*
G03X129600000Y-107950000I-1753625J-1753625D01*
G01*
X133830000Y-109720000D02*
X133830000Y-106220000D01*
X125246375Y-106196375D02*
G75*
G02X129480000Y-107950000I1753625J-1753625D01*
G01*
X125246375Y-109703625D02*
G75*
G03X129480000Y-107950000I1753625J1753625D01*
G01*
X125250000Y-106180000D02*
X125250000Y-109680000D01*
X120166375Y-106196375D02*
G75*
G02X124400000Y-107950000I1753625J-1753625D01*
G01*
X120166375Y-109703625D02*
G75*
G03X124400000Y-107950000I1753625J1753625D01*
G01*
X120170000Y-106180000D02*
X120170000Y-109680000D01*
D11*
X162687000Y-116459000D02*
X162052000Y-116967000D01*
X162687000Y-115697000D02*
X162052000Y-116205000D01*
X162560000Y-114935000D02*
X162052000Y-114935000D01*
X160020000Y-114935000D02*
X160528000Y-114935000D01*
X160025569Y-114940569D02*
G75*
G03X160667700Y-117881400I1264431J-1264431D01*
G01*
X161937295Y-117880353D02*
G75*
G03X162560000Y-114935000I-647295J1675353D01*
G01*
X161290000Y-115697000D02*
X161290000Y-116713000D01*
X162687000Y-116459000D02*
X162306000Y-116459000D01*
X162560000Y-116840000D02*
X162687000Y-116459000D01*
X161163000Y-116205000D02*
X161417000Y-116205000D01*
X161036000Y-116332000D02*
X161544000Y-116332000D01*
X160909000Y-115951000D02*
X161671000Y-115951000D01*
X161671000Y-116459000D02*
X161290000Y-116459000D01*
X161290000Y-115951000D02*
X161671000Y-116459000D01*
X160909000Y-116459000D02*
X161290000Y-115951000D01*
X161290000Y-116459000D02*
X160909000Y-116459000D01*
X162687000Y-115697000D02*
X162306000Y-115697000D01*
X162560000Y-116078000D02*
X162687000Y-115697000D01*
D12*
X142770000Y-118800000D02*
X139170000Y-118800000D01*
X142808478Y-118811522D02*
G75*
G02X140970000Y-123250000I-1838478J-1838478D01*
G01*
X139131522Y-118811522D02*
G75*
G03X140970000Y-123250000I1838478J-1838478D01*
G01*
D10*
X155067000Y-117094000D02*
X155321000Y-116840000D01*
X155067000Y-117856000D02*
X155067000Y-117094000D01*
X155067000Y-114046000D02*
X155321000Y-114300000D01*
X155067000Y-113284000D02*
X155067000Y-114046000D01*
X157353000Y-117094000D02*
X157099000Y-116840000D01*
X157353000Y-117856000D02*
X157353000Y-117094000D01*
X157353000Y-114046000D02*
X157099000Y-114300000D01*
X157353000Y-113284000D02*
X157353000Y-114046000D01*
X156210000Y-118110000D02*
X156210000Y-118618000D01*
X156210000Y-112522000D02*
X156210000Y-113030000D01*
X155067000Y-117856000D02*
X155321000Y-118110000D01*
X157353000Y-117856000D02*
X157099000Y-118110000D01*
X155321000Y-113030000D02*
X155067000Y-113284000D01*
X157353000Y-113284000D02*
X157099000Y-113030000D01*
X157099000Y-114300000D02*
X157099000Y-116840000D01*
D12*
X157099000Y-113030000D02*
X155321000Y-113030000D01*
X155321000Y-114300000D02*
X155321000Y-116840000D01*
X155321000Y-118110000D02*
X157099000Y-118110000D01*
D10*
X118237000Y-103124000D02*
X118491000Y-102870000D01*
X118237000Y-103886000D02*
X118237000Y-103124000D01*
X118237000Y-100076000D02*
X118491000Y-100330000D01*
X118237000Y-99314000D02*
X118237000Y-100076000D01*
X120523000Y-103124000D02*
X120269000Y-102870000D01*
X120523000Y-103886000D02*
X120523000Y-103124000D01*
X120523000Y-100076000D02*
X120269000Y-100330000D01*
X120523000Y-99314000D02*
X120523000Y-100076000D01*
X119380000Y-104140000D02*
X119380000Y-104648000D01*
X119380000Y-98552000D02*
X119380000Y-99060000D01*
X118237000Y-103886000D02*
X118491000Y-104140000D01*
X120523000Y-103886000D02*
X120269000Y-104140000D01*
X118491000Y-99060000D02*
X118237000Y-99314000D01*
X120523000Y-99314000D02*
X120269000Y-99060000D01*
X120269000Y-100330000D02*
X120269000Y-102870000D01*
D12*
X120269000Y-99060000D02*
X118491000Y-99060000D01*
X118491000Y-100330000D02*
X118491000Y-102870000D01*
X118491000Y-104140000D02*
X120269000Y-104140000D01*
D10*
X118237000Y-115824000D02*
X118491000Y-115570000D01*
X118237000Y-116586000D02*
X118237000Y-115824000D01*
X118237000Y-112776000D02*
X118491000Y-113030000D01*
X118237000Y-112014000D02*
X118237000Y-112776000D01*
X120523000Y-115824000D02*
X120269000Y-115570000D01*
X120523000Y-116586000D02*
X120523000Y-115824000D01*
X120523000Y-112776000D02*
X120269000Y-113030000D01*
X120523000Y-112014000D02*
X120523000Y-112776000D01*
X119380000Y-116840000D02*
X119380000Y-117348000D01*
X119380000Y-111252000D02*
X119380000Y-111760000D01*
X118237000Y-116586000D02*
X118491000Y-116840000D01*
X120523000Y-116586000D02*
X120269000Y-116840000D01*
X118491000Y-111760000D02*
X118237000Y-112014000D01*
X120523000Y-112014000D02*
X120269000Y-111760000D01*
X120269000Y-113030000D02*
X120269000Y-115570000D01*
D12*
X120269000Y-111760000D02*
X118491000Y-111760000D01*
X118491000Y-113030000D02*
X118491000Y-115570000D01*
X118491000Y-116840000D02*
X120269000Y-116840000D01*
D10*
X123063000Y-114046000D02*
X122809000Y-114300000D01*
X123063000Y-113284000D02*
X123063000Y-114046000D01*
X123063000Y-117094000D02*
X122809000Y-116840000D01*
X123063000Y-117856000D02*
X123063000Y-117094000D01*
X120777000Y-114046000D02*
X121031000Y-114300000D01*
X120777000Y-113284000D02*
X120777000Y-114046000D01*
X120777000Y-117094000D02*
X121031000Y-116840000D01*
X120777000Y-117856000D02*
X120777000Y-117094000D01*
X121920000Y-113030000D02*
X121920000Y-112522000D01*
X121920000Y-118618000D02*
X121920000Y-118110000D01*
X123063000Y-113284000D02*
X122809000Y-113030000D01*
X120777000Y-113284000D02*
X121031000Y-113030000D01*
X122809000Y-118110000D02*
X123063000Y-117856000D01*
X120777000Y-117856000D02*
X121031000Y-118110000D01*
X121031000Y-116840000D02*
X121031000Y-114300000D01*
D12*
X121031000Y-118110000D02*
X122809000Y-118110000D01*
X122809000Y-116840000D02*
X122809000Y-114300000D01*
X122809000Y-113030000D02*
X121031000Y-113030000D01*
D10*
X123063000Y-96266000D02*
X122809000Y-96520000D01*
X123063000Y-95504000D02*
X123063000Y-96266000D01*
X123063000Y-99314000D02*
X122809000Y-99060000D01*
X123063000Y-100076000D02*
X123063000Y-99314000D01*
X120777000Y-96266000D02*
X121031000Y-96520000D01*
X120777000Y-95504000D02*
X120777000Y-96266000D01*
X120777000Y-99314000D02*
X121031000Y-99060000D01*
X120777000Y-100076000D02*
X120777000Y-99314000D01*
X121920000Y-95250000D02*
X121920000Y-94742000D01*
X121920000Y-100838000D02*
X121920000Y-100330000D01*
X123063000Y-95504000D02*
X122809000Y-95250000D01*
X120777000Y-95504000D02*
X121031000Y-95250000D01*
X122809000Y-100330000D02*
X123063000Y-100076000D01*
X120777000Y-100076000D02*
X121031000Y-100330000D01*
X121031000Y-99060000D02*
X121031000Y-96520000D01*
D12*
X121031000Y-100330000D02*
X122809000Y-100330000D01*
X122809000Y-99060000D02*
X122809000Y-96520000D01*
X122809000Y-95250000D02*
X121031000Y-95250000D01*
D10*
X126746000Y-110617000D02*
X127000000Y-110871000D01*
X125984000Y-110617000D02*
X126746000Y-110617000D01*
X129794000Y-110617000D02*
X129540000Y-110871000D01*
X130556000Y-110617000D02*
X129794000Y-110617000D01*
X126746000Y-112903000D02*
X127000000Y-112649000D01*
X125984000Y-112903000D02*
X126746000Y-112903000D01*
X129794000Y-112903000D02*
X129540000Y-112649000D01*
X130556000Y-112903000D02*
X129794000Y-112903000D01*
X125730000Y-111760000D02*
X125222000Y-111760000D01*
X131318000Y-111760000D02*
X130810000Y-111760000D01*
X125984000Y-110617000D02*
X125730000Y-110871000D01*
X125984000Y-112903000D02*
X125730000Y-112649000D01*
X130810000Y-110871000D02*
X130556000Y-110617000D01*
X130556000Y-112903000D02*
X130810000Y-112649000D01*
X129540000Y-112649000D02*
X127000000Y-112649000D01*
D12*
X130810000Y-112649000D02*
X130810000Y-110871000D01*
X129540000Y-110871000D02*
X127000000Y-110871000D01*
X125730000Y-110871000D02*
X125730000Y-112649000D01*
D10*
X129794000Y-102743000D02*
X129540000Y-102489000D01*
X130556000Y-102743000D02*
X129794000Y-102743000D01*
X126746000Y-102743000D02*
X127000000Y-102489000D01*
X125984000Y-102743000D02*
X126746000Y-102743000D01*
X129794000Y-100457000D02*
X129540000Y-100711000D01*
X130556000Y-100457000D02*
X129794000Y-100457000D01*
X126746000Y-100457000D02*
X127000000Y-100711000D01*
X125984000Y-100457000D02*
X126746000Y-100457000D01*
X130810000Y-101600000D02*
X131318000Y-101600000D01*
X125222000Y-101600000D02*
X125730000Y-101600000D01*
X130556000Y-102743000D02*
X130810000Y-102489000D01*
X130556000Y-100457000D02*
X130810000Y-100711000D01*
X125730000Y-102489000D02*
X125984000Y-102743000D01*
X125984000Y-100457000D02*
X125730000Y-100711000D01*
X127000000Y-100711000D02*
X129540000Y-100711000D01*
D12*
X125730000Y-100711000D02*
X125730000Y-102489000D01*
X127000000Y-102489000D02*
X129540000Y-102489000D01*
X130810000Y-102489000D02*
X130810000Y-100711000D01*
D10*
X137033000Y-101346000D02*
X136779000Y-101600000D01*
X137033000Y-100584000D02*
X137033000Y-101346000D01*
X137033000Y-104394000D02*
X136779000Y-104140000D01*
X137033000Y-105156000D02*
X137033000Y-104394000D01*
X134747000Y-101346000D02*
X135001000Y-101600000D01*
X134747000Y-100584000D02*
X134747000Y-101346000D01*
X134747000Y-104394000D02*
X135001000Y-104140000D01*
X134747000Y-105156000D02*
X134747000Y-104394000D01*
X135890000Y-100330000D02*
X135890000Y-99822000D01*
X135890000Y-105918000D02*
X135890000Y-105410000D01*
X137033000Y-100584000D02*
X136779000Y-100330000D01*
X134747000Y-100584000D02*
X135001000Y-100330000D01*
X136779000Y-105410000D02*
X137033000Y-105156000D01*
X134747000Y-105156000D02*
X135001000Y-105410000D01*
X135001000Y-104140000D02*
X135001000Y-101600000D01*
D12*
X135001000Y-105410000D02*
X136779000Y-105410000D01*
X136779000Y-104140000D02*
X136779000Y-101600000D01*
X136779000Y-100330000D02*
X135001000Y-100330000D01*
D10*
X126746000Y-97917000D02*
X127000000Y-98171000D01*
X125984000Y-97917000D02*
X126746000Y-97917000D01*
X129794000Y-97917000D02*
X129540000Y-98171000D01*
X130556000Y-97917000D02*
X129794000Y-97917000D01*
X126746000Y-100203000D02*
X127000000Y-99949000D01*
X125984000Y-100203000D02*
X126746000Y-100203000D01*
X129794000Y-100203000D02*
X129540000Y-99949000D01*
X130556000Y-100203000D02*
X129794000Y-100203000D01*
X125730000Y-99060000D02*
X125222000Y-99060000D01*
X131318000Y-99060000D02*
X130810000Y-99060000D01*
X125984000Y-97917000D02*
X125730000Y-98171000D01*
X125984000Y-100203000D02*
X125730000Y-99949000D01*
X130810000Y-98171000D02*
X130556000Y-97917000D01*
X130556000Y-100203000D02*
X130810000Y-99949000D01*
X129540000Y-99949000D02*
X127000000Y-99949000D01*
D12*
X130810000Y-99949000D02*
X130810000Y-98171000D01*
X129540000Y-98171000D02*
X127000000Y-98171000D01*
X125730000Y-98171000D02*
X125730000Y-99949000D01*
D10*
X134747000Y-114554000D02*
X135001000Y-114300000D01*
X134747000Y-115316000D02*
X134747000Y-114554000D01*
X134747000Y-111506000D02*
X135001000Y-111760000D01*
X134747000Y-110744000D02*
X134747000Y-111506000D01*
X137033000Y-114554000D02*
X136779000Y-114300000D01*
X137033000Y-115316000D02*
X137033000Y-114554000D01*
X137033000Y-111506000D02*
X136779000Y-111760000D01*
X137033000Y-110744000D02*
X137033000Y-111506000D01*
X135890000Y-115570000D02*
X135890000Y-116078000D01*
X135890000Y-109982000D02*
X135890000Y-110490000D01*
X134747000Y-115316000D02*
X135001000Y-115570000D01*
X137033000Y-115316000D02*
X136779000Y-115570000D01*
X135001000Y-110490000D02*
X134747000Y-110744000D01*
X137033000Y-110744000D02*
X136779000Y-110490000D01*
X136779000Y-111760000D02*
X136779000Y-114300000D01*
D12*
X136779000Y-110490000D02*
X135001000Y-110490000D01*
X135001000Y-111760000D02*
X135001000Y-114300000D01*
X135001000Y-115570000D02*
X136779000Y-115570000D01*
D10*
X126746000Y-113157000D02*
X127000000Y-113411000D01*
X125984000Y-113157000D02*
X126746000Y-113157000D01*
X129794000Y-113157000D02*
X129540000Y-113411000D01*
X130556000Y-113157000D02*
X129794000Y-113157000D01*
X126746000Y-115443000D02*
X127000000Y-115189000D01*
X125984000Y-115443000D02*
X126746000Y-115443000D01*
X129794000Y-115443000D02*
X129540000Y-115189000D01*
X130556000Y-115443000D02*
X129794000Y-115443000D01*
X125730000Y-114300000D02*
X125222000Y-114300000D01*
X131318000Y-114300000D02*
X130810000Y-114300000D01*
X125984000Y-113157000D02*
X125730000Y-113411000D01*
X125984000Y-115443000D02*
X125730000Y-115189000D01*
X130810000Y-113411000D02*
X130556000Y-113157000D01*
X130556000Y-115443000D02*
X130810000Y-115189000D01*
X129540000Y-115189000D02*
X127000000Y-115189000D01*
D12*
X130810000Y-115189000D02*
X130810000Y-113411000D01*
X129540000Y-113411000D02*
X127000000Y-113411000D01*
X125730000Y-113411000D02*
X125730000Y-115189000D01*
D10*
X142113000Y-101346000D02*
X141859000Y-101600000D01*
X142113000Y-100584000D02*
X142113000Y-101346000D01*
X142113000Y-104394000D02*
X141859000Y-104140000D01*
X142113000Y-105156000D02*
X142113000Y-104394000D01*
X139827000Y-101346000D02*
X140081000Y-101600000D01*
X139827000Y-100584000D02*
X139827000Y-101346000D01*
X139827000Y-104394000D02*
X140081000Y-104140000D01*
X139827000Y-105156000D02*
X139827000Y-104394000D01*
X140970000Y-100330000D02*
X140970000Y-99822000D01*
X140970000Y-105918000D02*
X140970000Y-105410000D01*
X142113000Y-100584000D02*
X141859000Y-100330000D01*
X139827000Y-100584000D02*
X140081000Y-100330000D01*
X141859000Y-105410000D02*
X142113000Y-105156000D01*
X139827000Y-105156000D02*
X140081000Y-105410000D01*
X140081000Y-104140000D02*
X140081000Y-101600000D01*
D12*
X140081000Y-105410000D02*
X141859000Y-105410000D01*
X141859000Y-104140000D02*
X141859000Y-101600000D01*
X141859000Y-100330000D02*
X140081000Y-100330000D01*
D10*
X142367000Y-104394000D02*
X142621000Y-104140000D01*
X142367000Y-105156000D02*
X142367000Y-104394000D01*
X142367000Y-101346000D02*
X142621000Y-101600000D01*
X142367000Y-100584000D02*
X142367000Y-101346000D01*
X144653000Y-104394000D02*
X144399000Y-104140000D01*
X144653000Y-105156000D02*
X144653000Y-104394000D01*
X144653000Y-101346000D02*
X144399000Y-101600000D01*
X144653000Y-100584000D02*
X144653000Y-101346000D01*
X143510000Y-105410000D02*
X143510000Y-105918000D01*
X143510000Y-99822000D02*
X143510000Y-100330000D01*
X142367000Y-105156000D02*
X142621000Y-105410000D01*
X144653000Y-105156000D02*
X144399000Y-105410000D01*
X142621000Y-100330000D02*
X142367000Y-100584000D01*
X144653000Y-100584000D02*
X144399000Y-100330000D01*
X144399000Y-101600000D02*
X144399000Y-104140000D01*
D12*
X144399000Y-100330000D02*
X142621000Y-100330000D01*
X142621000Y-101600000D02*
X142621000Y-104140000D01*
X142621000Y-105410000D02*
X144399000Y-105410000D01*
D10*
X147193000Y-96266000D02*
X146939000Y-96520000D01*
X147193000Y-95504000D02*
X147193000Y-96266000D01*
X147193000Y-99314000D02*
X146939000Y-99060000D01*
X147193000Y-100076000D02*
X147193000Y-99314000D01*
X144907000Y-96266000D02*
X145161000Y-96520000D01*
X144907000Y-95504000D02*
X144907000Y-96266000D01*
X144907000Y-99314000D02*
X145161000Y-99060000D01*
X144907000Y-100076000D02*
X144907000Y-99314000D01*
X146050000Y-95250000D02*
X146050000Y-94742000D01*
X146050000Y-100838000D02*
X146050000Y-100330000D01*
X147193000Y-95504000D02*
X146939000Y-95250000D01*
X144907000Y-95504000D02*
X145161000Y-95250000D01*
X146939000Y-100330000D02*
X147193000Y-100076000D01*
X144907000Y-100076000D02*
X145161000Y-100330000D01*
X145161000Y-99060000D02*
X145161000Y-96520000D01*
D12*
X145161000Y-100330000D02*
X146939000Y-100330000D01*
X146939000Y-99060000D02*
X146939000Y-96520000D01*
X146939000Y-95250000D02*
X145161000Y-95250000D01*
D10*
X155194000Y-95123000D02*
X154940000Y-94869000D01*
X155956000Y-95123000D02*
X155194000Y-95123000D01*
X152146000Y-95123000D02*
X152400000Y-94869000D01*
X151384000Y-95123000D02*
X152146000Y-95123000D01*
X155194000Y-92837000D02*
X154940000Y-93091000D01*
X155956000Y-92837000D02*
X155194000Y-92837000D01*
X152146000Y-92837000D02*
X152400000Y-93091000D01*
X151384000Y-92837000D02*
X152146000Y-92837000D01*
X156210000Y-93980000D02*
X156718000Y-93980000D01*
X150622000Y-93980000D02*
X151130000Y-93980000D01*
X155956000Y-95123000D02*
X156210000Y-94869000D01*
X155956000Y-92837000D02*
X156210000Y-93091000D01*
X151130000Y-94869000D02*
X151384000Y-95123000D01*
X151384000Y-92837000D02*
X151130000Y-93091000D01*
X152400000Y-93091000D02*
X154940000Y-93091000D01*
D12*
X151130000Y-93091000D02*
X151130000Y-94869000D01*
X152400000Y-94869000D02*
X154940000Y-94869000D01*
X156210000Y-94869000D02*
X156210000Y-93091000D01*
D10*
X152527000Y-101854000D02*
X152781000Y-101600000D01*
X152527000Y-102616000D02*
X152527000Y-101854000D01*
X152527000Y-98806000D02*
X152781000Y-99060000D01*
X152527000Y-98044000D02*
X152527000Y-98806000D01*
X154813000Y-101854000D02*
X154559000Y-101600000D01*
X154813000Y-102616000D02*
X154813000Y-101854000D01*
X154813000Y-98806000D02*
X154559000Y-99060000D01*
X154813000Y-98044000D02*
X154813000Y-98806000D01*
X153670000Y-102870000D02*
X153670000Y-103378000D01*
X153670000Y-97282000D02*
X153670000Y-97790000D01*
X152527000Y-102616000D02*
X152781000Y-102870000D01*
X154813000Y-102616000D02*
X154559000Y-102870000D01*
X152781000Y-97790000D02*
X152527000Y-98044000D01*
X154813000Y-98044000D02*
X154559000Y-97790000D01*
X154559000Y-99060000D02*
X154559000Y-101600000D01*
D12*
X154559000Y-97790000D02*
X152781000Y-97790000D01*
X152781000Y-99060000D02*
X152781000Y-101600000D01*
X152781000Y-102870000D02*
X154559000Y-102870000D01*
D10*
X154813000Y-114046000D02*
X154559000Y-114300000D01*
X154813000Y-113284000D02*
X154813000Y-114046000D01*
X154813000Y-117094000D02*
X154559000Y-116840000D01*
X154813000Y-117856000D02*
X154813000Y-117094000D01*
X152527000Y-114046000D02*
X152781000Y-114300000D01*
X152527000Y-113284000D02*
X152527000Y-114046000D01*
X152527000Y-117094000D02*
X152781000Y-116840000D01*
X152527000Y-117856000D02*
X152527000Y-117094000D01*
X153670000Y-113030000D02*
X153670000Y-112522000D01*
X153670000Y-118618000D02*
X153670000Y-118110000D01*
X154813000Y-113284000D02*
X154559000Y-113030000D01*
X152527000Y-113284000D02*
X152781000Y-113030000D01*
X154559000Y-118110000D02*
X154813000Y-117856000D01*
X152527000Y-117856000D02*
X152781000Y-118110000D01*
X152781000Y-116840000D02*
X152781000Y-114300000D01*
D12*
X152781000Y-118110000D02*
X154559000Y-118110000D01*
X154559000Y-116840000D02*
X154559000Y-114300000D01*
X154559000Y-113030000D02*
X152781000Y-113030000D01*
D10*
X144907000Y-119634000D02*
X145161000Y-119380000D01*
X144907000Y-120396000D02*
X144907000Y-119634000D01*
X144907000Y-116586000D02*
X145161000Y-116840000D01*
X144907000Y-115824000D02*
X144907000Y-116586000D01*
X147193000Y-119634000D02*
X146939000Y-119380000D01*
X147193000Y-120396000D02*
X147193000Y-119634000D01*
X147193000Y-116586000D02*
X146939000Y-116840000D01*
X147193000Y-115824000D02*
X147193000Y-116586000D01*
X146050000Y-120650000D02*
X146050000Y-121158000D01*
X146050000Y-115062000D02*
X146050000Y-115570000D01*
X144907000Y-120396000D02*
X145161000Y-120650000D01*
X147193000Y-120396000D02*
X146939000Y-120650000D01*
X145161000Y-115570000D02*
X144907000Y-115824000D01*
X147193000Y-115824000D02*
X146939000Y-115570000D01*
X146939000Y-116840000D02*
X146939000Y-119380000D01*
D12*
X146939000Y-115570000D02*
X145161000Y-115570000D01*
X145161000Y-116840000D02*
X145161000Y-119380000D01*
X145161000Y-120650000D02*
X146939000Y-120650000D01*
D10*
X155194000Y-123063000D02*
X154940000Y-122809000D01*
X155956000Y-123063000D02*
X155194000Y-123063000D01*
X152146000Y-123063000D02*
X152400000Y-122809000D01*
X151384000Y-123063000D02*
X152146000Y-123063000D01*
X155194000Y-120777000D02*
X154940000Y-121031000D01*
X155956000Y-120777000D02*
X155194000Y-120777000D01*
X152146000Y-120777000D02*
X152400000Y-121031000D01*
X151384000Y-120777000D02*
X152146000Y-120777000D01*
X156210000Y-121920000D02*
X156718000Y-121920000D01*
X150622000Y-121920000D02*
X151130000Y-121920000D01*
X155956000Y-123063000D02*
X156210000Y-122809000D01*
X155956000Y-120777000D02*
X156210000Y-121031000D01*
X151130000Y-122809000D02*
X151384000Y-123063000D01*
X151384000Y-120777000D02*
X151130000Y-121031000D01*
X152400000Y-121031000D02*
X154940000Y-121031000D01*
D12*
X151130000Y-121031000D02*
X151130000Y-122809000D01*
X152400000Y-122809000D02*
X154940000Y-122809000D01*
X156210000Y-122809000D02*
X156210000Y-121031000D01*
D10*
X144653000Y-111506000D02*
X144399000Y-111760000D01*
X144653000Y-110744000D02*
X144653000Y-111506000D01*
X144653000Y-114554000D02*
X144399000Y-114300000D01*
X144653000Y-115316000D02*
X144653000Y-114554000D01*
X142367000Y-111506000D02*
X142621000Y-111760000D01*
X142367000Y-110744000D02*
X142367000Y-111506000D01*
X142367000Y-114554000D02*
X142621000Y-114300000D01*
X142367000Y-115316000D02*
X142367000Y-114554000D01*
X143510000Y-110490000D02*
X143510000Y-109982000D01*
X143510000Y-116078000D02*
X143510000Y-115570000D01*
X144653000Y-110744000D02*
X144399000Y-110490000D01*
X142367000Y-110744000D02*
X142621000Y-110490000D01*
X144399000Y-115570000D02*
X144653000Y-115316000D01*
X142367000Y-115316000D02*
X142621000Y-115570000D01*
X142621000Y-114300000D02*
X142621000Y-111760000D01*
D12*
X142621000Y-115570000D02*
X144399000Y-115570000D01*
X144399000Y-114300000D02*
X144399000Y-111760000D01*
X144399000Y-110490000D02*
X142621000Y-110490000D01*
D10*
X139827000Y-114554000D02*
X140081000Y-114300000D01*
X139827000Y-115316000D02*
X139827000Y-114554000D01*
X139827000Y-111506000D02*
X140081000Y-111760000D01*
X139827000Y-110744000D02*
X139827000Y-111506000D01*
X142113000Y-114554000D02*
X141859000Y-114300000D01*
X142113000Y-115316000D02*
X142113000Y-114554000D01*
X142113000Y-111506000D02*
X141859000Y-111760000D01*
X142113000Y-110744000D02*
X142113000Y-111506000D01*
X140970000Y-115570000D02*
X140970000Y-116078000D01*
X140970000Y-109982000D02*
X140970000Y-110490000D01*
X139827000Y-115316000D02*
X140081000Y-115570000D01*
X142113000Y-115316000D02*
X141859000Y-115570000D01*
X140081000Y-110490000D02*
X139827000Y-110744000D01*
X142113000Y-110744000D02*
X141859000Y-110490000D01*
X141859000Y-111760000D02*
X141859000Y-114300000D01*
D12*
X141859000Y-110490000D02*
X140081000Y-110490000D01*
X140081000Y-111760000D02*
X140081000Y-114300000D01*
X140081000Y-115570000D02*
X141859000Y-115570000D01*
D10*
X155067000Y-101854000D02*
X155321000Y-101600000D01*
X155067000Y-102616000D02*
X155067000Y-101854000D01*
X155067000Y-98806000D02*
X155321000Y-99060000D01*
X155067000Y-98044000D02*
X155067000Y-98806000D01*
X157353000Y-101854000D02*
X157099000Y-101600000D01*
X157353000Y-102616000D02*
X157353000Y-101854000D01*
X157353000Y-98806000D02*
X157099000Y-99060000D01*
X157353000Y-98044000D02*
X157353000Y-98806000D01*
X156210000Y-102870000D02*
X156210000Y-103378000D01*
X156210000Y-97282000D02*
X156210000Y-97790000D01*
X155067000Y-102616000D02*
X155321000Y-102870000D01*
X157353000Y-102616000D02*
X157099000Y-102870000D01*
X155321000Y-97790000D02*
X155067000Y-98044000D01*
X157353000Y-98044000D02*
X157099000Y-97790000D01*
X157099000Y-99060000D02*
X157099000Y-101600000D01*
D12*
X157099000Y-97790000D02*
X155321000Y-97790000D01*
X155321000Y-99060000D02*
X155321000Y-101600000D01*
X155321000Y-102870000D02*
X157099000Y-102870000D01*
D10*
X125476000Y-120015000D02*
X125285500Y-119761000D01*
X125730000Y-120205500D02*
X125476000Y-120015000D01*
X126174500Y-120332500D02*
X125730000Y-120205500D01*
X126682500Y-120396000D02*
X126174500Y-120332500D01*
X128587500Y-120015000D02*
X128778000Y-119761000D01*
X128333500Y-120205500D02*
X128587500Y-120015000D01*
X127889000Y-120332500D02*
X128333500Y-120205500D01*
X127381000Y-120396000D02*
X127889000Y-120332500D01*
X127381000Y-120396000D02*
X126682500Y-120396000D01*
X126704172Y-118382198D02*
X126196172Y-118445698D01*
X126196172Y-118445698D02*
X125751672Y-118572698D01*
X125751672Y-118572698D02*
X125497672Y-118763198D01*
X125497672Y-118763198D02*
X125307172Y-119017198D01*
X126704172Y-118382198D02*
X127402672Y-118382198D01*
X128609172Y-118763198D02*
X128799672Y-119017198D01*
X127402672Y-118382198D02*
X127910672Y-118445698D01*
X127910672Y-118445698D02*
X128355172Y-118572698D01*
X128355172Y-118572698D02*
X128609172Y-118763198D01*
X125984000Y-103505000D02*
X126174500Y-103759000D01*
X125730000Y-103314500D02*
X125984000Y-103505000D01*
X125285500Y-103187500D02*
X125730000Y-103314500D01*
X124777500Y-103124000D02*
X125285500Y-103187500D01*
X122872500Y-103505000D02*
X122682000Y-103759000D01*
X123126500Y-103314500D02*
X122872500Y-103505000D01*
X123571000Y-103187500D02*
X123126500Y-103314500D01*
X124079000Y-103124000D02*
X123571000Y-103187500D01*
X124079000Y-103124000D02*
X124777500Y-103124000D01*
X124755828Y-105137802D02*
X125263828Y-105074302D01*
X125263828Y-105074302D02*
X125708328Y-104947302D01*
X125708328Y-104947302D02*
X125962328Y-104756802D01*
X125962328Y-104756802D02*
X126152828Y-104502802D01*
X124755828Y-105137802D02*
X124057328Y-105137802D01*
X122850828Y-104756802D02*
X122660328Y-104502802D01*
X124057328Y-105137802D02*
X123549328Y-105074302D01*
X123549328Y-105074302D02*
X123104828Y-104947302D01*
X123104828Y-104947302D02*
X122850828Y-104756802D01*
X139065000Y-105664000D02*
X138811000Y-105854500D01*
X139255500Y-105410000D02*
X139065000Y-105664000D01*
X139382500Y-104965500D02*
X139255500Y-105410000D01*
X139446000Y-104457500D02*
X139382500Y-104965500D01*
X139065000Y-102552500D02*
X138811000Y-102362000D01*
X139255500Y-102806500D02*
X139065000Y-102552500D01*
X139382500Y-103251000D02*
X139255500Y-102806500D01*
X139446000Y-103759000D02*
X139382500Y-103251000D01*
X139446000Y-103759000D02*
X139446000Y-104457500D01*
X137432198Y-104435828D02*
X137495698Y-104943828D01*
X137495698Y-104943828D02*
X137622698Y-105388328D01*
X137622698Y-105388328D02*
X137813198Y-105642328D01*
X137813198Y-105642328D02*
X138067198Y-105832828D01*
X137432198Y-104435828D02*
X137432198Y-103737328D01*
X137813198Y-102530828D02*
X138067198Y-102340328D01*
X137432198Y-103737328D02*
X137495698Y-103229328D01*
X137495698Y-103229328D02*
X137622698Y-102784828D01*
X137622698Y-102784828D02*
X137813198Y-102530828D01*
X150495000Y-100076000D02*
X150749000Y-99885500D01*
X150304500Y-100330000D02*
X150495000Y-100076000D01*
X150177500Y-100774500D02*
X150304500Y-100330000D01*
X150114000Y-101282500D02*
X150177500Y-100774500D01*
X150495000Y-103187500D02*
X150749000Y-103378000D01*
X150304500Y-102933500D02*
X150495000Y-103187500D01*
X150177500Y-102489000D02*
X150304500Y-102933500D01*
X150114000Y-101981000D02*
X150177500Y-102489000D01*
X150114000Y-101981000D02*
X150114000Y-101282500D01*
X152127802Y-101304172D02*
X152064302Y-100796172D01*
X152064302Y-100796172D02*
X151937302Y-100351672D01*
X151937302Y-100351672D02*
X151746802Y-100097672D01*
X151746802Y-100097672D02*
X151492802Y-99907172D01*
X152127802Y-101304172D02*
X152127802Y-102002672D01*
X151746802Y-103209172D02*
X151492802Y-103399672D01*
X152127802Y-102002672D02*
X152064302Y-102510672D01*
X152064302Y-102510672D02*
X151937302Y-102955172D01*
X151937302Y-102955172D02*
X151746802Y-103209172D01*
X152146000Y-107315000D02*
X151955500Y-107061000D01*
X152400000Y-107505500D02*
X152146000Y-107315000D01*
X152844500Y-107632500D02*
X152400000Y-107505500D01*
X153352500Y-107696000D02*
X152844500Y-107632500D01*
X155257500Y-107315000D02*
X155448000Y-107061000D01*
X155003500Y-107505500D02*
X155257500Y-107315000D01*
X154559000Y-107632500D02*
X155003500Y-107505500D01*
X154051000Y-107696000D02*
X154559000Y-107632500D01*
X154051000Y-107696000D02*
X153352500Y-107696000D01*
X153374172Y-105682198D02*
X152866172Y-105745698D01*
X152866172Y-105745698D02*
X152421672Y-105872698D01*
X152421672Y-105872698D02*
X152167672Y-106063198D01*
X152167672Y-106063198D02*
X151977172Y-106317198D01*
X153374172Y-105682198D02*
X154072672Y-105682198D01*
X155279172Y-106063198D02*
X155469672Y-106317198D01*
X154072672Y-105682198D02*
X154580672Y-105745698D01*
X154580672Y-105745698D02*
X155025172Y-105872698D01*
X155025172Y-105872698D02*
X155279172Y-106063198D01*
X151765000Y-115824000D02*
X151511000Y-116014500D01*
X151955500Y-115570000D02*
X151765000Y-115824000D01*
X152082500Y-115125500D02*
X151955500Y-115570000D01*
X152146000Y-114617500D02*
X152082500Y-115125500D01*
X151765000Y-112712500D02*
X151511000Y-112522000D01*
X151955500Y-112966500D02*
X151765000Y-112712500D01*
X152082500Y-113411000D02*
X151955500Y-112966500D01*
X152146000Y-113919000D02*
X152082500Y-113411000D01*
X152146000Y-113919000D02*
X152146000Y-114617500D01*
X150132198Y-114595828D02*
X150195698Y-115103828D01*
X150195698Y-115103828D02*
X150322698Y-115548328D01*
X150322698Y-115548328D02*
X150513198Y-115802328D01*
X150513198Y-115802328D02*
X150767198Y-115992828D01*
X150132198Y-114595828D02*
X150132198Y-113897328D01*
X150513198Y-112690828D02*
X150767198Y-112500328D01*
X150132198Y-113897328D02*
X150195698Y-113389328D01*
X150195698Y-113389328D02*
X150322698Y-112944828D01*
X150322698Y-112944828D02*
X150513198Y-112690828D01*
X152146000Y-109855000D02*
X151955500Y-109601000D01*
X152400000Y-110045500D02*
X152146000Y-109855000D01*
X152844500Y-110172500D02*
X152400000Y-110045500D01*
X153352500Y-110236000D02*
X152844500Y-110172500D01*
X155257500Y-109855000D02*
X155448000Y-109601000D01*
X155003500Y-110045500D02*
X155257500Y-109855000D01*
X154559000Y-110172500D02*
X155003500Y-110045500D01*
X154051000Y-110236000D02*
X154559000Y-110172500D01*
X154051000Y-110236000D02*
X153352500Y-110236000D01*
X153374172Y-108222198D02*
X152866172Y-108285698D01*
X152866172Y-108285698D02*
X152421672Y-108412698D01*
X152421672Y-108412698D02*
X152167672Y-108603198D01*
X152167672Y-108603198D02*
X151977172Y-108857198D01*
X153374172Y-108222198D02*
X154072672Y-108222198D01*
X155279172Y-108603198D02*
X155469672Y-108857198D01*
X154072672Y-108222198D02*
X154580672Y-108285698D01*
X154580672Y-108285698D02*
X155025172Y-108412698D01*
X155025172Y-108412698D02*
X155279172Y-108603198D01*
X139065000Y-113284000D02*
X138811000Y-113474500D01*
X139255500Y-113030000D02*
X139065000Y-113284000D01*
X139382500Y-112585500D02*
X139255500Y-113030000D01*
X139446000Y-112077500D02*
X139382500Y-112585500D01*
X139065000Y-110172500D02*
X138811000Y-109982000D01*
X139255500Y-110426500D02*
X139065000Y-110172500D01*
X139382500Y-110871000D02*
X139255500Y-110426500D01*
X139446000Y-111379000D02*
X139382500Y-110871000D01*
X139446000Y-111379000D02*
X139446000Y-112077500D01*
X137432198Y-112055828D02*
X137495698Y-112563828D01*
X137495698Y-112563828D02*
X137622698Y-113008328D01*
X137622698Y-113008328D02*
X137813198Y-113262328D01*
X137813198Y-113262328D02*
X138067198Y-113452828D01*
X137432198Y-112055828D02*
X137432198Y-111357328D01*
X137813198Y-110150828D02*
X138067198Y-109960328D01*
X137432198Y-111357328D02*
X137495698Y-110849328D01*
X137495698Y-110849328D02*
X137622698Y-110404828D01*
X137622698Y-110404828D02*
X137813198Y-110150828D01*
X128016000Y-117475000D02*
X127825500Y-117221000D01*
X128270000Y-117665500D02*
X128016000Y-117475000D01*
X128714500Y-117792500D02*
X128270000Y-117665500D01*
X129222500Y-117856000D02*
X128714500Y-117792500D01*
X131127500Y-117475000D02*
X131318000Y-117221000D01*
X130873500Y-117665500D02*
X131127500Y-117475000D01*
X130429000Y-117792500D02*
X130873500Y-117665500D01*
X129921000Y-117856000D02*
X130429000Y-117792500D01*
X129921000Y-117856000D02*
X129222500Y-117856000D01*
X129244172Y-115842198D02*
X128736172Y-115905698D01*
X128736172Y-115905698D02*
X128291672Y-116032698D01*
X128291672Y-116032698D02*
X128037672Y-116223198D01*
X128037672Y-116223198D02*
X127847172Y-116477198D01*
X129244172Y-115842198D02*
X129942672Y-115842198D01*
X131149172Y-116223198D02*
X131339672Y-116477198D01*
X129942672Y-115842198D02*
X130450672Y-115905698D01*
X130450672Y-115905698D02*
X130895172Y-116032698D01*
X130895172Y-116032698D02*
X131149172Y-116223198D01*
X162052000Y-105918000D02*
X160528000Y-105918000D01*
X160528000Y-105918000D02*
X160528000Y-109982000D01*
X160528000Y-109982000D02*
X162052000Y-109982000D01*
X162052000Y-109982000D02*
X162052000Y-105918000D01*
X161290000Y-104894000D02*
X161290000Y-105918000D01*
X161290000Y-110998000D02*
X161290000Y-110010000D01*
X162052000Y-106426000D02*
X160528000Y-106426000D01*
X157988000Y-109982000D02*
X159512000Y-109982000D01*
X159512000Y-109982000D02*
X159512000Y-105918000D01*
X159512000Y-105918000D02*
X157988000Y-105918000D01*
X157988000Y-105918000D02*
X157988000Y-109982000D01*
X158750000Y-111006000D02*
X158750000Y-109982000D01*
X158750000Y-104902000D02*
X158750000Y-105890000D01*
X157988000Y-109474000D02*
X159512000Y-109474000D01*
X147955000Y-97536000D02*
X148209000Y-97345500D01*
X147764500Y-97790000D02*
X147955000Y-97536000D01*
X147637500Y-98234500D02*
X147764500Y-97790000D01*
X147574000Y-98742500D02*
X147637500Y-98234500D01*
X147955000Y-100647500D02*
X148209000Y-100838000D01*
X147764500Y-100393500D02*
X147955000Y-100647500D01*
X147637500Y-99949000D02*
X147764500Y-100393500D01*
X147574000Y-99441000D02*
X147637500Y-99949000D01*
X147574000Y-99441000D02*
X147574000Y-98742500D01*
X149587802Y-98764172D02*
X149524302Y-98256172D01*
X149524302Y-98256172D02*
X149397302Y-97811672D01*
X149397302Y-97811672D02*
X149206802Y-97557672D01*
X149206802Y-97557672D02*
X148952802Y-97367172D01*
X149587802Y-98764172D02*
X149587802Y-99462672D01*
X149206802Y-100669172D02*
X148952802Y-100859672D01*
X149587802Y-99462672D02*
X149524302Y-99970672D01*
X149524302Y-99970672D02*
X149397302Y-100415172D01*
X149397302Y-100415172D02*
X149206802Y-100669172D01*
X149225000Y-118364000D02*
X148971000Y-118554500D01*
X149415500Y-118110000D02*
X149225000Y-118364000D01*
X149542500Y-117665500D02*
X149415500Y-118110000D01*
X149606000Y-117157500D02*
X149542500Y-117665500D01*
X149225000Y-115252500D02*
X148971000Y-115062000D01*
X149415500Y-115506500D02*
X149225000Y-115252500D01*
X149542500Y-115951000D02*
X149415500Y-115506500D01*
X149606000Y-116459000D02*
X149542500Y-115951000D01*
X149606000Y-116459000D02*
X149606000Y-117157500D01*
X147592198Y-117135828D02*
X147655698Y-117643828D01*
X147655698Y-117643828D02*
X147782698Y-118088328D01*
X147782698Y-118088328D02*
X147973198Y-118342328D01*
X147973198Y-118342328D02*
X148227198Y-118532828D01*
X147592198Y-117135828D02*
X147592198Y-116437328D01*
X147973198Y-115230828D02*
X148227198Y-115040328D01*
X147592198Y-116437328D02*
X147655698Y-115929328D01*
X147655698Y-115929328D02*
X147782698Y-115484828D01*
X147782698Y-115484828D02*
X147973198Y-115230828D01*
X135890000Y-92710000D02*
X136525000Y-93345000D01*
X132080000Y-92710000D02*
X135890000Y-92710000D01*
X131445000Y-93345000D02*
X132080000Y-92710000D01*
X131445000Y-94615000D02*
X131445000Y-93345000D01*
X132080000Y-95250000D02*
X131445000Y-94615000D01*
X135890000Y-95250000D02*
X132080000Y-95250000D01*
X136525000Y-94615000D02*
X135890000Y-95250000D01*
X136525000Y-93345000D02*
X136525000Y-94615000D01*
X162560000Y-101600000D02*
X161925000Y-102235000D01*
X162560000Y-97790000D02*
X162560000Y-101600000D01*
X161925000Y-97155000D02*
X162560000Y-97790000D01*
X160655000Y-97155000D02*
X161925000Y-97155000D01*
X160020000Y-97790000D02*
X160655000Y-97155000D01*
X160020000Y-101600000D02*
X160020000Y-97790000D01*
X160655000Y-102235000D02*
X160020000Y-101600000D01*
X161925000Y-102235000D02*
X160655000Y-102235000D01*
X132080000Y-123190000D02*
X131445000Y-122555000D01*
X135890000Y-123190000D02*
X132080000Y-123190000D01*
X136525000Y-122555000D02*
X135890000Y-123190000D01*
X136525000Y-121285000D02*
X136525000Y-122555000D01*
X135890000Y-120650000D02*
X136525000Y-121285000D01*
X132080000Y-120650000D02*
X135890000Y-120650000D01*
X131445000Y-121285000D02*
X132080000Y-120650000D01*
X131445000Y-122555000D02*
X131445000Y-121285000D01*
X142748000Y-96520000D02*
X142240000Y-96520000D01*
X137160000Y-96520000D02*
X136652000Y-96520000D01*
X142240000Y-97663000D02*
X137160000Y-97663000D01*
X142240000Y-95377000D02*
X137160000Y-95377000D01*
X141732000Y-97663000D02*
X141732000Y-95377000D01*
X137160000Y-97663000D02*
X137160000Y-95377000D01*
X142240000Y-97663000D02*
X142240000Y-95377000D01*
X131318000Y-96520000D02*
X130810000Y-96520000D01*
X125730000Y-96520000D02*
X125222000Y-96520000D01*
X130810000Y-97663000D02*
X125730000Y-97663000D01*
X130810000Y-95377000D02*
X125730000Y-95377000D01*
X130302000Y-97663000D02*
X130302000Y-95377000D01*
X125730000Y-97663000D02*
X125730000Y-95377000D01*
X130810000Y-97663000D02*
X130810000Y-95377000D01*
D11*
X146052333Y-110556667D02*
X146019000Y-110623333D01*
X145952333Y-110690000D01*
X145852333Y-110790000D01*
X145819000Y-110856667D01*
X145819000Y-110923333D01*
X145985667Y-110890000D02*
X145952333Y-110956667D01*
X145885667Y-111023333D01*
X145752333Y-111056667D01*
X145519000Y-111056667D01*
X145385667Y-111023333D01*
X145319000Y-110956667D01*
X145285667Y-110890000D01*
X145285667Y-110756667D01*
X145319000Y-110690000D01*
X145385667Y-110623333D01*
X145519000Y-110590000D01*
X145752333Y-110590000D01*
X145885667Y-110623333D01*
X145952333Y-110690000D01*
X145985667Y-110756667D01*
X145985667Y-110890000D01*
X145285667Y-109956667D02*
X145285667Y-110290000D01*
X145619000Y-110323334D01*
X145585667Y-110290000D01*
X145552333Y-110223334D01*
X145552333Y-110056667D01*
X145585667Y-109990000D01*
X145619000Y-109956667D01*
X145685667Y-109923334D01*
X145852333Y-109923334D01*
X145919000Y-109956667D01*
X145952333Y-109990000D01*
X145985667Y-110056667D01*
X145985667Y-110223334D01*
X145952333Y-110290000D01*
X145919000Y-110323334D01*
X149354333Y-105476667D02*
X149321000Y-105543333D01*
X149254333Y-105610000D01*
X149154333Y-105710000D01*
X149121000Y-105776667D01*
X149121000Y-105843333D01*
X149287667Y-105810000D02*
X149254333Y-105876667D01*
X149187667Y-105943333D01*
X149054333Y-105976667D01*
X148821000Y-105976667D01*
X148687667Y-105943333D01*
X148621000Y-105876667D01*
X148587667Y-105810000D01*
X148587667Y-105676667D01*
X148621000Y-105610000D01*
X148687667Y-105543333D01*
X148821000Y-105510000D01*
X149054333Y-105510000D01*
X149187667Y-105543333D01*
X149254333Y-105610000D01*
X149287667Y-105676667D01*
X149287667Y-105810000D01*
X148821000Y-104910000D02*
X149287667Y-104910000D01*
X148554333Y-105076667D02*
X149054333Y-105243334D01*
X149054333Y-104810000D01*
X130812333Y-108016667D02*
X130779000Y-108083333D01*
X130712333Y-108150000D01*
X130612333Y-108250000D01*
X130579000Y-108316667D01*
X130579000Y-108383333D01*
X130745667Y-108350000D02*
X130712333Y-108416667D01*
X130645667Y-108483333D01*
X130512333Y-108516667D01*
X130279000Y-108516667D01*
X130145667Y-108483333D01*
X130079000Y-108416667D01*
X130045667Y-108350000D01*
X130045667Y-108216667D01*
X130079000Y-108150000D01*
X130145667Y-108083333D01*
X130279000Y-108050000D01*
X130512333Y-108050000D01*
X130645667Y-108083333D01*
X130712333Y-108150000D01*
X130745667Y-108216667D01*
X130745667Y-108350000D01*
X130045667Y-107816667D02*
X130045667Y-107383334D01*
X130312333Y-107616667D01*
X130312333Y-107516667D01*
X130345667Y-107450000D01*
X130379000Y-107416667D01*
X130445667Y-107383334D01*
X130612333Y-107383334D01*
X130679000Y-107416667D01*
X130712333Y-107450000D01*
X130745667Y-107516667D01*
X130745667Y-107716667D01*
X130712333Y-107783334D01*
X130679000Y-107816667D01*
X129034333Y-108016667D02*
X129001000Y-108083333D01*
X128934333Y-108150000D01*
X128834333Y-108250000D01*
X128801000Y-108316667D01*
X128801000Y-108383333D01*
X128967667Y-108350000D02*
X128934333Y-108416667D01*
X128867667Y-108483333D01*
X128734333Y-108516667D01*
X128501000Y-108516667D01*
X128367667Y-108483333D01*
X128301000Y-108416667D01*
X128267667Y-108350000D01*
X128267667Y-108216667D01*
X128301000Y-108150000D01*
X128367667Y-108083333D01*
X128501000Y-108050000D01*
X128734333Y-108050000D01*
X128867667Y-108083333D01*
X128934333Y-108150000D01*
X128967667Y-108216667D01*
X128967667Y-108350000D01*
X128334333Y-107783334D02*
X128301000Y-107750000D01*
X128267667Y-107683334D01*
X128267667Y-107516667D01*
X128301000Y-107450000D01*
X128334333Y-107416667D01*
X128401000Y-107383334D01*
X128467667Y-107383334D01*
X128567667Y-107416667D01*
X128967667Y-107816667D01*
X128967667Y-107383334D01*
X123954333Y-108016667D02*
X123921000Y-108083333D01*
X123854333Y-108150000D01*
X123754333Y-108250000D01*
X123721000Y-108316667D01*
X123721000Y-108383333D01*
X123887667Y-108350000D02*
X123854333Y-108416667D01*
X123787667Y-108483333D01*
X123654333Y-108516667D01*
X123421000Y-108516667D01*
X123287667Y-108483333D01*
X123221000Y-108416667D01*
X123187667Y-108350000D01*
X123187667Y-108216667D01*
X123221000Y-108150000D01*
X123287667Y-108083333D01*
X123421000Y-108050000D01*
X123654333Y-108050000D01*
X123787667Y-108083333D01*
X123854333Y-108150000D01*
X123887667Y-108216667D01*
X123887667Y-108350000D01*
X123887667Y-107383334D02*
X123887667Y-107783334D01*
X123887667Y-107583334D02*
X123187667Y-107583334D01*
X123287667Y-107650000D01*
X123354333Y-107716667D01*
X123387667Y-107783334D01*
X140436667Y-119123667D02*
X140436667Y-119690333D01*
X140470000Y-119757000D01*
X140503333Y-119790333D01*
X140570000Y-119823667D01*
X140703333Y-119823667D01*
X140770000Y-119790333D01*
X140803333Y-119757000D01*
X140836667Y-119690333D01*
X140836667Y-119123667D01*
X141536666Y-119823667D02*
X141136666Y-119823667D01*
X141336666Y-119823667D02*
X141336666Y-119123667D01*
X141270000Y-119223667D01*
X141203333Y-119290333D01*
X141136666Y-119323667D01*
X156526667Y-115686666D02*
X156193333Y-115920000D01*
X156526667Y-116086666D02*
X155826667Y-116086666D01*
X155826667Y-115820000D01*
X155860000Y-115753333D01*
X155893333Y-115720000D01*
X155960000Y-115686666D01*
X156060000Y-115686666D01*
X156126667Y-115720000D01*
X156160000Y-115753333D01*
X156193333Y-115820000D01*
X156193333Y-116086666D01*
X156526667Y-115020000D02*
X156526667Y-115420000D01*
X156526667Y-115220000D02*
X155826667Y-115220000D01*
X155926667Y-115286666D01*
X155993333Y-115353333D01*
X156026667Y-115420000D01*
X119696667Y-101716666D02*
X119363333Y-101950000D01*
X119696667Y-102116666D02*
X118996667Y-102116666D01*
X118996667Y-101850000D01*
X119030000Y-101783333D01*
X119063333Y-101750000D01*
X119130000Y-101716666D01*
X119230000Y-101716666D01*
X119296667Y-101750000D01*
X119330000Y-101783333D01*
X119363333Y-101850000D01*
X119363333Y-102116666D01*
X119063333Y-101450000D02*
X119030000Y-101416666D01*
X118996667Y-101350000D01*
X118996667Y-101183333D01*
X119030000Y-101116666D01*
X119063333Y-101083333D01*
X119130000Y-101050000D01*
X119196667Y-101050000D01*
X119296667Y-101083333D01*
X119696667Y-101483333D01*
X119696667Y-101050000D01*
X119696667Y-113781666D02*
X119363333Y-114015000D01*
X119696667Y-114181666D02*
X118996667Y-114181666D01*
X118996667Y-113915000D01*
X119030000Y-113848333D01*
X119063333Y-113815000D01*
X119130000Y-113781666D01*
X119230000Y-113781666D01*
X119296667Y-113815000D01*
X119330000Y-113848333D01*
X119363333Y-113915000D01*
X119363333Y-114181666D01*
X118996667Y-113548333D02*
X118996667Y-113115000D01*
X119263333Y-113348333D01*
X119263333Y-113248333D01*
X119296667Y-113181666D01*
X119330000Y-113148333D01*
X119396667Y-113115000D01*
X119563333Y-113115000D01*
X119630000Y-113148333D01*
X119663333Y-113181666D01*
X119696667Y-113248333D01*
X119696667Y-113448333D01*
X119663333Y-113515000D01*
X119630000Y-113548333D01*
X122236667Y-115686666D02*
X121903333Y-115920000D01*
X122236667Y-116086666D02*
X121536667Y-116086666D01*
X121536667Y-115820000D01*
X121570000Y-115753333D01*
X121603333Y-115720000D01*
X121670000Y-115686666D01*
X121770000Y-115686666D01*
X121836667Y-115720000D01*
X121870000Y-115753333D01*
X121903333Y-115820000D01*
X121903333Y-116086666D01*
X121770000Y-115086666D02*
X122236667Y-115086666D01*
X121503333Y-115253333D02*
X122003333Y-115420000D01*
X122003333Y-114986666D01*
X122236667Y-97906666D02*
X121903333Y-98140000D01*
X122236667Y-98306666D02*
X121536667Y-98306666D01*
X121536667Y-98040000D01*
X121570000Y-97973333D01*
X121603333Y-97940000D01*
X121670000Y-97906666D01*
X121770000Y-97906666D01*
X121836667Y-97940000D01*
X121870000Y-97973333D01*
X121903333Y-98040000D01*
X121903333Y-98306666D01*
X121536667Y-97273333D02*
X121536667Y-97606666D01*
X121870000Y-97640000D01*
X121836667Y-97606666D01*
X121803333Y-97540000D01*
X121803333Y-97373333D01*
X121836667Y-97306666D01*
X121870000Y-97273333D01*
X121936667Y-97240000D01*
X122103333Y-97240000D01*
X122170000Y-97273333D01*
X122203333Y-97306666D01*
X122236667Y-97373333D01*
X122236667Y-97540000D01*
X122203333Y-97606666D01*
X122170000Y-97640000D01*
X128153334Y-112076667D02*
X127920000Y-111743333D01*
X127753334Y-112076667D02*
X127753334Y-111376667D01*
X128020000Y-111376667D01*
X128086667Y-111410000D01*
X128120000Y-111443333D01*
X128153334Y-111510000D01*
X128153334Y-111610000D01*
X128120000Y-111676667D01*
X128086667Y-111710000D01*
X128020000Y-111743333D01*
X127753334Y-111743333D01*
X128753334Y-111376667D02*
X128620000Y-111376667D01*
X128553334Y-111410000D01*
X128520000Y-111443333D01*
X128453334Y-111543333D01*
X128420000Y-111676667D01*
X128420000Y-111943333D01*
X128453334Y-112010000D01*
X128486667Y-112043333D01*
X128553334Y-112076667D01*
X128686667Y-112076667D01*
X128753334Y-112043333D01*
X128786667Y-112010000D01*
X128820000Y-111943333D01*
X128820000Y-111776667D01*
X128786667Y-111710000D01*
X128753334Y-111676667D01*
X128686667Y-111643333D01*
X128553334Y-111643333D01*
X128486667Y-111676667D01*
X128453334Y-111710000D01*
X128420000Y-111776667D01*
X128153334Y-101916667D02*
X127920000Y-101583333D01*
X127753334Y-101916667D02*
X127753334Y-101216667D01*
X128020000Y-101216667D01*
X128086667Y-101250000D01*
X128120000Y-101283333D01*
X128153334Y-101350000D01*
X128153334Y-101450000D01*
X128120000Y-101516667D01*
X128086667Y-101550000D01*
X128020000Y-101583333D01*
X127753334Y-101583333D01*
X128386667Y-101216667D02*
X128853334Y-101216667D01*
X128553334Y-101916667D01*
X136206667Y-102986666D02*
X135873333Y-103220000D01*
X136206667Y-103386666D02*
X135506667Y-103386666D01*
X135506667Y-103120000D01*
X135540000Y-103053333D01*
X135573333Y-103020000D01*
X135640000Y-102986666D01*
X135740000Y-102986666D01*
X135806667Y-103020000D01*
X135840000Y-103053333D01*
X135873333Y-103120000D01*
X135873333Y-103386666D01*
X135806667Y-102586666D02*
X135773333Y-102653333D01*
X135740000Y-102686666D01*
X135673333Y-102720000D01*
X135640000Y-102720000D01*
X135573333Y-102686666D01*
X135540000Y-102653333D01*
X135506667Y-102586666D01*
X135506667Y-102453333D01*
X135540000Y-102386666D01*
X135573333Y-102353333D01*
X135640000Y-102320000D01*
X135673333Y-102320000D01*
X135740000Y-102353333D01*
X135773333Y-102386666D01*
X135806667Y-102453333D01*
X135806667Y-102586666D01*
X135840000Y-102653333D01*
X135873333Y-102686666D01*
X135940000Y-102720000D01*
X136073333Y-102720000D01*
X136140000Y-102686666D01*
X136173333Y-102653333D01*
X136206667Y-102586666D01*
X136206667Y-102453333D01*
X136173333Y-102386666D01*
X136140000Y-102353333D01*
X136073333Y-102320000D01*
X135940000Y-102320000D01*
X135873333Y-102353333D01*
X135840000Y-102386666D01*
X135806667Y-102453333D01*
X127820000Y-99376667D02*
X127586666Y-99043333D01*
X127420000Y-99376667D02*
X127420000Y-98676667D01*
X127686666Y-98676667D01*
X127753333Y-98710000D01*
X127786666Y-98743333D01*
X127820000Y-98810000D01*
X127820000Y-98910000D01*
X127786666Y-98976667D01*
X127753333Y-99010000D01*
X127686666Y-99043333D01*
X127420000Y-99043333D01*
X128486666Y-99376667D02*
X128086666Y-99376667D01*
X128286666Y-99376667D02*
X128286666Y-98676667D01*
X128220000Y-98776667D01*
X128153333Y-98843333D01*
X128086666Y-98876667D01*
X128920000Y-98676667D02*
X128986667Y-98676667D01*
X129053333Y-98710000D01*
X129086667Y-98743333D01*
X129120000Y-98810000D01*
X129153333Y-98943333D01*
X129153333Y-99110000D01*
X129120000Y-99243333D01*
X129086667Y-99310000D01*
X129053333Y-99343333D01*
X128986667Y-99376667D01*
X128920000Y-99376667D01*
X128853333Y-99343333D01*
X128820000Y-99310000D01*
X128786667Y-99243333D01*
X128753333Y-99110000D01*
X128753333Y-98943333D01*
X128786667Y-98810000D01*
X128820000Y-98743333D01*
X128853333Y-98710000D01*
X128920000Y-98676667D01*
X136206667Y-113480000D02*
X135873333Y-113713334D01*
X136206667Y-113880000D02*
X135506667Y-113880000D01*
X135506667Y-113613334D01*
X135540000Y-113546667D01*
X135573333Y-113513334D01*
X135640000Y-113480000D01*
X135740000Y-113480000D01*
X135806667Y-113513334D01*
X135840000Y-113546667D01*
X135873333Y-113613334D01*
X135873333Y-113880000D01*
X136206667Y-112813334D02*
X136206667Y-113213334D01*
X136206667Y-113013334D02*
X135506667Y-113013334D01*
X135606667Y-113080000D01*
X135673333Y-113146667D01*
X135706667Y-113213334D01*
X136206667Y-112146667D02*
X136206667Y-112546667D01*
X136206667Y-112346667D02*
X135506667Y-112346667D01*
X135606667Y-112413333D01*
X135673333Y-112480000D01*
X135706667Y-112546667D01*
X127820000Y-114616667D02*
X127586666Y-114283333D01*
X127420000Y-114616667D02*
X127420000Y-113916667D01*
X127686666Y-113916667D01*
X127753333Y-113950000D01*
X127786666Y-113983333D01*
X127820000Y-114050000D01*
X127820000Y-114150000D01*
X127786666Y-114216667D01*
X127753333Y-114250000D01*
X127686666Y-114283333D01*
X127420000Y-114283333D01*
X128486666Y-114616667D02*
X128086666Y-114616667D01*
X128286666Y-114616667D02*
X128286666Y-113916667D01*
X128220000Y-114016667D01*
X128153333Y-114083333D01*
X128086666Y-114116667D01*
X128753333Y-113983333D02*
X128786667Y-113950000D01*
X128853333Y-113916667D01*
X129020000Y-113916667D01*
X129086667Y-113950000D01*
X129120000Y-113983333D01*
X129153333Y-114050000D01*
X129153333Y-114116667D01*
X129120000Y-114216667D01*
X128720000Y-114616667D01*
X129153333Y-114616667D01*
X141286667Y-103320000D02*
X140953333Y-103553334D01*
X141286667Y-103720000D02*
X140586667Y-103720000D01*
X140586667Y-103453334D01*
X140620000Y-103386667D01*
X140653333Y-103353334D01*
X140720000Y-103320000D01*
X140820000Y-103320000D01*
X140886667Y-103353334D01*
X140920000Y-103386667D01*
X140953333Y-103453334D01*
X140953333Y-103720000D01*
X141286667Y-102653334D02*
X141286667Y-103053334D01*
X141286667Y-102853334D02*
X140586667Y-102853334D01*
X140686667Y-102920000D01*
X140753333Y-102986667D01*
X140786667Y-103053334D01*
X140586667Y-102420000D02*
X140586667Y-101986667D01*
X140853333Y-102220000D01*
X140853333Y-102120000D01*
X140886667Y-102053333D01*
X140920000Y-102020000D01*
X140986667Y-101986667D01*
X141153333Y-101986667D01*
X141220000Y-102020000D01*
X141253333Y-102053333D01*
X141286667Y-102120000D01*
X141286667Y-102320000D01*
X141253333Y-102386667D01*
X141220000Y-102420000D01*
X143826667Y-103320000D02*
X143493333Y-103553334D01*
X143826667Y-103720000D02*
X143126667Y-103720000D01*
X143126667Y-103453334D01*
X143160000Y-103386667D01*
X143193333Y-103353334D01*
X143260000Y-103320000D01*
X143360000Y-103320000D01*
X143426667Y-103353334D01*
X143460000Y-103386667D01*
X143493333Y-103453334D01*
X143493333Y-103720000D01*
X143826667Y-102653334D02*
X143826667Y-103053334D01*
X143826667Y-102853334D02*
X143126667Y-102853334D01*
X143226667Y-102920000D01*
X143293333Y-102986667D01*
X143326667Y-103053334D01*
X143360000Y-102053333D02*
X143826667Y-102053333D01*
X143093333Y-102220000D02*
X143593333Y-102386667D01*
X143593333Y-101953333D01*
X146366667Y-98240000D02*
X146033333Y-98473334D01*
X146366667Y-98640000D02*
X145666667Y-98640000D01*
X145666667Y-98373334D01*
X145700000Y-98306667D01*
X145733333Y-98273334D01*
X145800000Y-98240000D01*
X145900000Y-98240000D01*
X145966667Y-98273334D01*
X146000000Y-98306667D01*
X146033333Y-98373334D01*
X146033333Y-98640000D01*
X146366667Y-97573334D02*
X146366667Y-97973334D01*
X146366667Y-97773334D02*
X145666667Y-97773334D01*
X145766667Y-97840000D01*
X145833333Y-97906667D01*
X145866667Y-97973334D01*
X145666667Y-96940000D02*
X145666667Y-97273333D01*
X146000000Y-97306667D01*
X145966667Y-97273333D01*
X145933333Y-97206667D01*
X145933333Y-97040000D01*
X145966667Y-96973333D01*
X146000000Y-96940000D01*
X146066667Y-96906667D01*
X146233333Y-96906667D01*
X146300000Y-96940000D01*
X146333333Y-96973333D01*
X146366667Y-97040000D01*
X146366667Y-97206667D01*
X146333333Y-97273333D01*
X146300000Y-97306667D01*
X153220000Y-94296667D02*
X152986666Y-93963333D01*
X152820000Y-94296667D02*
X152820000Y-93596667D01*
X153086666Y-93596667D01*
X153153333Y-93630000D01*
X153186666Y-93663333D01*
X153220000Y-93730000D01*
X153220000Y-93830000D01*
X153186666Y-93896667D01*
X153153333Y-93930000D01*
X153086666Y-93963333D01*
X152820000Y-93963333D01*
X153886666Y-94296667D02*
X153486666Y-94296667D01*
X153686666Y-94296667D02*
X153686666Y-93596667D01*
X153620000Y-93696667D01*
X153553333Y-93763333D01*
X153486666Y-93796667D01*
X154486667Y-93596667D02*
X154353333Y-93596667D01*
X154286667Y-93630000D01*
X154253333Y-93663333D01*
X154186667Y-93763333D01*
X154153333Y-93896667D01*
X154153333Y-94163333D01*
X154186667Y-94230000D01*
X154220000Y-94263333D01*
X154286667Y-94296667D01*
X154420000Y-94296667D01*
X154486667Y-94263333D01*
X154520000Y-94230000D01*
X154553333Y-94163333D01*
X154553333Y-93996667D01*
X154520000Y-93930000D01*
X154486667Y-93896667D01*
X154420000Y-93863333D01*
X154286667Y-93863333D01*
X154220000Y-93896667D01*
X154186667Y-93930000D01*
X154153333Y-93996667D01*
X153986667Y-100780000D02*
X153653333Y-101013334D01*
X153986667Y-101180000D02*
X153286667Y-101180000D01*
X153286667Y-100913334D01*
X153320000Y-100846667D01*
X153353333Y-100813334D01*
X153420000Y-100780000D01*
X153520000Y-100780000D01*
X153586667Y-100813334D01*
X153620000Y-100846667D01*
X153653333Y-100913334D01*
X153653333Y-101180000D01*
X153986667Y-100113334D02*
X153986667Y-100513334D01*
X153986667Y-100313334D02*
X153286667Y-100313334D01*
X153386667Y-100380000D01*
X153453333Y-100446667D01*
X153486667Y-100513334D01*
X153286667Y-99880000D02*
X153286667Y-99413333D01*
X153986667Y-99713333D01*
X153986667Y-116020000D02*
X153653333Y-116253334D01*
X153986667Y-116420000D02*
X153286667Y-116420000D01*
X153286667Y-116153334D01*
X153320000Y-116086667D01*
X153353333Y-116053334D01*
X153420000Y-116020000D01*
X153520000Y-116020000D01*
X153586667Y-116053334D01*
X153620000Y-116086667D01*
X153653333Y-116153334D01*
X153653333Y-116420000D01*
X153986667Y-115353334D02*
X153986667Y-115753334D01*
X153986667Y-115553334D02*
X153286667Y-115553334D01*
X153386667Y-115620000D01*
X153453333Y-115686667D01*
X153486667Y-115753334D01*
X153586667Y-114953333D02*
X153553333Y-115020000D01*
X153520000Y-115053333D01*
X153453333Y-115086667D01*
X153420000Y-115086667D01*
X153353333Y-115053333D01*
X153320000Y-115020000D01*
X153286667Y-114953333D01*
X153286667Y-114820000D01*
X153320000Y-114753333D01*
X153353333Y-114720000D01*
X153420000Y-114686667D01*
X153453333Y-114686667D01*
X153520000Y-114720000D01*
X153553333Y-114753333D01*
X153586667Y-114820000D01*
X153586667Y-114953333D01*
X153620000Y-115020000D01*
X153653333Y-115053333D01*
X153720000Y-115086667D01*
X153853333Y-115086667D01*
X153920000Y-115053333D01*
X153953333Y-115020000D01*
X153986667Y-114953333D01*
X153986667Y-114820000D01*
X153953333Y-114753333D01*
X153920000Y-114720000D01*
X153853333Y-114686667D01*
X153720000Y-114686667D01*
X153653333Y-114720000D01*
X153620000Y-114753333D01*
X153586667Y-114820000D01*
X146366667Y-118560000D02*
X146033333Y-118793334D01*
X146366667Y-118960000D02*
X145666667Y-118960000D01*
X145666667Y-118693334D01*
X145700000Y-118626667D01*
X145733333Y-118593334D01*
X145800000Y-118560000D01*
X145900000Y-118560000D01*
X145966667Y-118593334D01*
X146000000Y-118626667D01*
X146033333Y-118693334D01*
X146033333Y-118960000D01*
X146366667Y-117893334D02*
X146366667Y-118293334D01*
X146366667Y-118093334D02*
X145666667Y-118093334D01*
X145766667Y-118160000D01*
X145833333Y-118226667D01*
X145866667Y-118293334D01*
X146366667Y-117560000D02*
X146366667Y-117426667D01*
X146333333Y-117360000D01*
X146300000Y-117326667D01*
X146200000Y-117260000D01*
X146066667Y-117226667D01*
X145800000Y-117226667D01*
X145733333Y-117260000D01*
X145700000Y-117293333D01*
X145666667Y-117360000D01*
X145666667Y-117493333D01*
X145700000Y-117560000D01*
X145733333Y-117593333D01*
X145800000Y-117626667D01*
X145966667Y-117626667D01*
X146033333Y-117593333D01*
X146066667Y-117560000D01*
X146100000Y-117493333D01*
X146100000Y-117360000D01*
X146066667Y-117293333D01*
X146033333Y-117260000D01*
X145966667Y-117226667D01*
X153220000Y-122236667D02*
X152986666Y-121903333D01*
X152820000Y-122236667D02*
X152820000Y-121536667D01*
X153086666Y-121536667D01*
X153153333Y-121570000D01*
X153186666Y-121603333D01*
X153220000Y-121670000D01*
X153220000Y-121770000D01*
X153186666Y-121836667D01*
X153153333Y-121870000D01*
X153086666Y-121903333D01*
X152820000Y-121903333D01*
X153486666Y-121603333D02*
X153520000Y-121570000D01*
X153586666Y-121536667D01*
X153753333Y-121536667D01*
X153820000Y-121570000D01*
X153853333Y-121603333D01*
X153886666Y-121670000D01*
X153886666Y-121736667D01*
X153853333Y-121836667D01*
X153453333Y-122236667D01*
X153886666Y-122236667D01*
X154320000Y-121536667D02*
X154386667Y-121536667D01*
X154453333Y-121570000D01*
X154486667Y-121603333D01*
X154520000Y-121670000D01*
X154553333Y-121803333D01*
X154553333Y-121970000D01*
X154520000Y-122103333D01*
X154486667Y-122170000D01*
X154453333Y-122203333D01*
X154386667Y-122236667D01*
X154320000Y-122236667D01*
X154253333Y-122203333D01*
X154220000Y-122170000D01*
X154186667Y-122103333D01*
X154153333Y-121970000D01*
X154153333Y-121803333D01*
X154186667Y-121670000D01*
X154220000Y-121603333D01*
X154253333Y-121570000D01*
X154320000Y-121536667D01*
X143816667Y-113400000D02*
X143483333Y-113633334D01*
X143816667Y-113800000D02*
X143116667Y-113800000D01*
X143116667Y-113533334D01*
X143150000Y-113466667D01*
X143183333Y-113433334D01*
X143250000Y-113400000D01*
X143350000Y-113400000D01*
X143416667Y-113433334D01*
X143450000Y-113466667D01*
X143483333Y-113533334D01*
X143483333Y-113800000D01*
X143183333Y-113133334D02*
X143150000Y-113100000D01*
X143116667Y-113033334D01*
X143116667Y-112866667D01*
X143150000Y-112800000D01*
X143183333Y-112766667D01*
X143250000Y-112733334D01*
X143316667Y-112733334D01*
X143416667Y-112766667D01*
X143816667Y-113166667D01*
X143816667Y-112733334D01*
X143816667Y-112066667D02*
X143816667Y-112466667D01*
X143816667Y-112266667D02*
X143116667Y-112266667D01*
X143216667Y-112333333D01*
X143283333Y-112400000D01*
X143316667Y-112466667D01*
X141266667Y-113400000D02*
X140933333Y-113633334D01*
X141266667Y-113800000D02*
X140566667Y-113800000D01*
X140566667Y-113533334D01*
X140600000Y-113466667D01*
X140633333Y-113433334D01*
X140700000Y-113400000D01*
X140800000Y-113400000D01*
X140866667Y-113433334D01*
X140900000Y-113466667D01*
X140933333Y-113533334D01*
X140933333Y-113800000D01*
X140633333Y-113133334D02*
X140600000Y-113100000D01*
X140566667Y-113033334D01*
X140566667Y-112866667D01*
X140600000Y-112800000D01*
X140633333Y-112766667D01*
X140700000Y-112733334D01*
X140766667Y-112733334D01*
X140866667Y-112766667D01*
X141266667Y-113166667D01*
X141266667Y-112733334D01*
X140633333Y-112466667D02*
X140600000Y-112433333D01*
X140566667Y-112366667D01*
X140566667Y-112200000D01*
X140600000Y-112133333D01*
X140633333Y-112100000D01*
X140700000Y-112066667D01*
X140766667Y-112066667D01*
X140866667Y-112100000D01*
X141266667Y-112500000D01*
X141266667Y-112066667D01*
X156526667Y-100780000D02*
X156193333Y-101013334D01*
X156526667Y-101180000D02*
X155826667Y-101180000D01*
X155826667Y-100913334D01*
X155860000Y-100846667D01*
X155893333Y-100813334D01*
X155960000Y-100780000D01*
X156060000Y-100780000D01*
X156126667Y-100813334D01*
X156160000Y-100846667D01*
X156193333Y-100913334D01*
X156193333Y-101180000D01*
X155893333Y-100513334D02*
X155860000Y-100480000D01*
X155826667Y-100413334D01*
X155826667Y-100246667D01*
X155860000Y-100180000D01*
X155893333Y-100146667D01*
X155960000Y-100113334D01*
X156026667Y-100113334D01*
X156126667Y-100146667D01*
X156526667Y-100546667D01*
X156526667Y-100113334D01*
X156060000Y-99513333D02*
X156526667Y-99513333D01*
X155793333Y-99680000D02*
X156293333Y-99846667D01*
X156293333Y-99413333D01*
X126883334Y-119630000D02*
X126850000Y-119663333D01*
X126750000Y-119696667D01*
X126683334Y-119696667D01*
X126583334Y-119663333D01*
X126516667Y-119596667D01*
X126483334Y-119530000D01*
X126450000Y-119396667D01*
X126450000Y-119296667D01*
X126483334Y-119163333D01*
X126516667Y-119096667D01*
X126583334Y-119030000D01*
X126683334Y-118996667D01*
X126750000Y-118996667D01*
X126850000Y-119030000D01*
X126883334Y-119063333D01*
X127550000Y-119696667D02*
X127150000Y-119696667D01*
X127350000Y-119696667D02*
X127350000Y-118996667D01*
X127283334Y-119096667D01*
X127216667Y-119163333D01*
X127150000Y-119196667D01*
X124343334Y-104390000D02*
X124310000Y-104423333D01*
X124210000Y-104456667D01*
X124143334Y-104456667D01*
X124043334Y-104423333D01*
X123976667Y-104356667D01*
X123943334Y-104290000D01*
X123910000Y-104156667D01*
X123910000Y-104056667D01*
X123943334Y-103923333D01*
X123976667Y-103856667D01*
X124043334Y-103790000D01*
X124143334Y-103756667D01*
X124210000Y-103756667D01*
X124310000Y-103790000D01*
X124343334Y-103823333D01*
X124610000Y-103823333D02*
X124643334Y-103790000D01*
X124710000Y-103756667D01*
X124876667Y-103756667D01*
X124943334Y-103790000D01*
X124976667Y-103823333D01*
X125010000Y-103890000D01*
X125010000Y-103956667D01*
X124976667Y-104056667D01*
X124576667Y-104456667D01*
X125010000Y-104456667D01*
X138680000Y-104176666D02*
X138713333Y-104210000D01*
X138746667Y-104310000D01*
X138746667Y-104376666D01*
X138713333Y-104476666D01*
X138646667Y-104543333D01*
X138580000Y-104576666D01*
X138446667Y-104610000D01*
X138346667Y-104610000D01*
X138213333Y-104576666D01*
X138146667Y-104543333D01*
X138080000Y-104476666D01*
X138046667Y-104376666D01*
X138046667Y-104310000D01*
X138080000Y-104210000D01*
X138113333Y-104176666D01*
X138046667Y-103943333D02*
X138046667Y-103510000D01*
X138313333Y-103743333D01*
X138313333Y-103643333D01*
X138346667Y-103576666D01*
X138380000Y-103543333D01*
X138446667Y-103510000D01*
X138613333Y-103510000D01*
X138680000Y-103543333D01*
X138713333Y-103576666D01*
X138746667Y-103643333D01*
X138746667Y-103843333D01*
X138713333Y-103910000D01*
X138680000Y-103943333D01*
X151380000Y-101716666D02*
X151413333Y-101750000D01*
X151446667Y-101850000D01*
X151446667Y-101916666D01*
X151413333Y-102016666D01*
X151346667Y-102083333D01*
X151280000Y-102116666D01*
X151146667Y-102150000D01*
X151046667Y-102150000D01*
X150913333Y-102116666D01*
X150846667Y-102083333D01*
X150780000Y-102016666D01*
X150746667Y-101916666D01*
X150746667Y-101850000D01*
X150780000Y-101750000D01*
X150813333Y-101716666D01*
X150980000Y-101116666D02*
X151446667Y-101116666D01*
X150713333Y-101283333D02*
X151213333Y-101450000D01*
X151213333Y-101016666D01*
X153553334Y-106930000D02*
X153520000Y-106963333D01*
X153420000Y-106996667D01*
X153353334Y-106996667D01*
X153253334Y-106963333D01*
X153186667Y-106896667D01*
X153153334Y-106830000D01*
X153120000Y-106696667D01*
X153120000Y-106596667D01*
X153153334Y-106463333D01*
X153186667Y-106396667D01*
X153253334Y-106330000D01*
X153353334Y-106296667D01*
X153420000Y-106296667D01*
X153520000Y-106330000D01*
X153553334Y-106363333D01*
X154186667Y-106296667D02*
X153853334Y-106296667D01*
X153820000Y-106630000D01*
X153853334Y-106596667D01*
X153920000Y-106563333D01*
X154086667Y-106563333D01*
X154153334Y-106596667D01*
X154186667Y-106630000D01*
X154220000Y-106696667D01*
X154220000Y-106863333D01*
X154186667Y-106930000D01*
X154153334Y-106963333D01*
X154086667Y-106996667D01*
X153920000Y-106996667D01*
X153853334Y-106963333D01*
X153820000Y-106930000D01*
X151380000Y-114416666D02*
X151413333Y-114450000D01*
X151446667Y-114550000D01*
X151446667Y-114616666D01*
X151413333Y-114716666D01*
X151346667Y-114783333D01*
X151280000Y-114816666D01*
X151146667Y-114850000D01*
X151046667Y-114850000D01*
X150913333Y-114816666D01*
X150846667Y-114783333D01*
X150780000Y-114716666D01*
X150746667Y-114616666D01*
X150746667Y-114550000D01*
X150780000Y-114450000D01*
X150813333Y-114416666D01*
X150746667Y-113816666D02*
X150746667Y-113950000D01*
X150780000Y-114016666D01*
X150813333Y-114050000D01*
X150913333Y-114116666D01*
X151046667Y-114150000D01*
X151313333Y-114150000D01*
X151380000Y-114116666D01*
X151413333Y-114083333D01*
X151446667Y-114016666D01*
X151446667Y-113883333D01*
X151413333Y-113816666D01*
X151380000Y-113783333D01*
X151313333Y-113750000D01*
X151146667Y-113750000D01*
X151080000Y-113783333D01*
X151046667Y-113816666D01*
X151013333Y-113883333D01*
X151013333Y-114016666D01*
X151046667Y-114083333D01*
X151080000Y-114116666D01*
X151146667Y-114150000D01*
X153553334Y-109470000D02*
X153520000Y-109503333D01*
X153420000Y-109536667D01*
X153353334Y-109536667D01*
X153253334Y-109503333D01*
X153186667Y-109436667D01*
X153153334Y-109370000D01*
X153120000Y-109236667D01*
X153120000Y-109136667D01*
X153153334Y-109003333D01*
X153186667Y-108936667D01*
X153253334Y-108870000D01*
X153353334Y-108836667D01*
X153420000Y-108836667D01*
X153520000Y-108870000D01*
X153553334Y-108903333D01*
X153786667Y-108836667D02*
X154253334Y-108836667D01*
X153953334Y-109536667D01*
X138680000Y-111876666D02*
X138713333Y-111910000D01*
X138746667Y-112010000D01*
X138746667Y-112076666D01*
X138713333Y-112176666D01*
X138646667Y-112243333D01*
X138580000Y-112276666D01*
X138446667Y-112310000D01*
X138346667Y-112310000D01*
X138213333Y-112276666D01*
X138146667Y-112243333D01*
X138080000Y-112176666D01*
X138046667Y-112076666D01*
X138046667Y-112010000D01*
X138080000Y-111910000D01*
X138113333Y-111876666D01*
X138346667Y-111476666D02*
X138313333Y-111543333D01*
X138280000Y-111576666D01*
X138213333Y-111610000D01*
X138180000Y-111610000D01*
X138113333Y-111576666D01*
X138080000Y-111543333D01*
X138046667Y-111476666D01*
X138046667Y-111343333D01*
X138080000Y-111276666D01*
X138113333Y-111243333D01*
X138180000Y-111210000D01*
X138213333Y-111210000D01*
X138280000Y-111243333D01*
X138313333Y-111276666D01*
X138346667Y-111343333D01*
X138346667Y-111476666D01*
X138380000Y-111543333D01*
X138413333Y-111576666D01*
X138480000Y-111610000D01*
X138613333Y-111610000D01*
X138680000Y-111576666D01*
X138713333Y-111543333D01*
X138746667Y-111476666D01*
X138746667Y-111343333D01*
X138713333Y-111276666D01*
X138680000Y-111243333D01*
X138613333Y-111210000D01*
X138480000Y-111210000D01*
X138413333Y-111243333D01*
X138380000Y-111276666D01*
X138346667Y-111343333D01*
X129423334Y-117090000D02*
X129390000Y-117123333D01*
X129290000Y-117156667D01*
X129223334Y-117156667D01*
X129123334Y-117123333D01*
X129056667Y-117056667D01*
X129023334Y-116990000D01*
X128990000Y-116856667D01*
X128990000Y-116756667D01*
X129023334Y-116623333D01*
X129056667Y-116556667D01*
X129123334Y-116490000D01*
X129223334Y-116456667D01*
X129290000Y-116456667D01*
X129390000Y-116490000D01*
X129423334Y-116523333D01*
X129756667Y-117156667D02*
X129890000Y-117156667D01*
X129956667Y-117123333D01*
X129990000Y-117090000D01*
X130056667Y-116990000D01*
X130090000Y-116856667D01*
X130090000Y-116590000D01*
X130056667Y-116523333D01*
X130023334Y-116490000D01*
X129956667Y-116456667D01*
X129823334Y-116456667D01*
X129756667Y-116490000D01*
X129723334Y-116523333D01*
X129690000Y-116590000D01*
X129690000Y-116756667D01*
X129723334Y-116823333D01*
X129756667Y-116856667D01*
X129823334Y-116890000D01*
X129956667Y-116890000D01*
X130023334Y-116856667D01*
X130056667Y-116823333D01*
X130090000Y-116756667D01*
X161606667Y-108466666D02*
X160906667Y-108466666D01*
X160906667Y-108300000D01*
X160940000Y-108200000D01*
X161006667Y-108133333D01*
X161073333Y-108100000D01*
X161206667Y-108066666D01*
X161306667Y-108066666D01*
X161440000Y-108100000D01*
X161506667Y-108133333D01*
X161573333Y-108200000D01*
X161606667Y-108300000D01*
X161606667Y-108466666D01*
X160906667Y-107833333D02*
X160906667Y-107400000D01*
X161173333Y-107633333D01*
X161173333Y-107533333D01*
X161206667Y-107466666D01*
X161240000Y-107433333D01*
X161306667Y-107400000D01*
X161473333Y-107400000D01*
X161540000Y-107433333D01*
X161573333Y-107466666D01*
X161606667Y-107533333D01*
X161606667Y-107733333D01*
X161573333Y-107800000D01*
X161540000Y-107833333D01*
X159066667Y-108466666D02*
X158366667Y-108466666D01*
X158366667Y-108300000D01*
X158400000Y-108200000D01*
X158466667Y-108133333D01*
X158533333Y-108100000D01*
X158666667Y-108066666D01*
X158766667Y-108066666D01*
X158900000Y-108100000D01*
X158966667Y-108133333D01*
X159033333Y-108200000D01*
X159066667Y-108300000D01*
X159066667Y-108466666D01*
X158600000Y-107466666D02*
X159066667Y-107466666D01*
X158333333Y-107633333D02*
X158833333Y-107800000D01*
X158833333Y-107366666D01*
X148840000Y-99510000D02*
X148873333Y-99543334D01*
X148906667Y-99643334D01*
X148906667Y-99710000D01*
X148873333Y-99810000D01*
X148806667Y-99876667D01*
X148740000Y-99910000D01*
X148606667Y-99943334D01*
X148506667Y-99943334D01*
X148373333Y-99910000D01*
X148306667Y-99876667D01*
X148240000Y-99810000D01*
X148206667Y-99710000D01*
X148206667Y-99643334D01*
X148240000Y-99543334D01*
X148273333Y-99510000D01*
X148906667Y-98843334D02*
X148906667Y-99243334D01*
X148906667Y-99043334D02*
X148206667Y-99043334D01*
X148306667Y-99110000D01*
X148373333Y-99176667D01*
X148406667Y-99243334D01*
X148206667Y-98410000D02*
X148206667Y-98343333D01*
X148240000Y-98276667D01*
X148273333Y-98243333D01*
X148340000Y-98210000D01*
X148473333Y-98176667D01*
X148640000Y-98176667D01*
X148773333Y-98210000D01*
X148840000Y-98243333D01*
X148873333Y-98276667D01*
X148906667Y-98343333D01*
X148906667Y-98410000D01*
X148873333Y-98476667D01*
X148840000Y-98510000D01*
X148773333Y-98543333D01*
X148640000Y-98576667D01*
X148473333Y-98576667D01*
X148340000Y-98543333D01*
X148273333Y-98510000D01*
X148240000Y-98476667D01*
X148206667Y-98410000D01*
X148840000Y-117290000D02*
X148873333Y-117323334D01*
X148906667Y-117423334D01*
X148906667Y-117490000D01*
X148873333Y-117590000D01*
X148806667Y-117656667D01*
X148740000Y-117690000D01*
X148606667Y-117723334D01*
X148506667Y-117723334D01*
X148373333Y-117690000D01*
X148306667Y-117656667D01*
X148240000Y-117590000D01*
X148206667Y-117490000D01*
X148206667Y-117423334D01*
X148240000Y-117323334D01*
X148273333Y-117290000D01*
X148906667Y-116623334D02*
X148906667Y-117023334D01*
X148906667Y-116823334D02*
X148206667Y-116823334D01*
X148306667Y-116890000D01*
X148373333Y-116956667D01*
X148406667Y-117023334D01*
X148906667Y-115956667D02*
X148906667Y-116356667D01*
X148906667Y-116156667D02*
X148206667Y-116156667D01*
X148306667Y-116223333D01*
X148373333Y-116290000D01*
X148406667Y-116356667D01*
X139183334Y-96836667D02*
X139183334Y-96136667D01*
X139350000Y-96136667D01*
X139450000Y-96170000D01*
X139516667Y-96236667D01*
X139550000Y-96303333D01*
X139583334Y-96436667D01*
X139583334Y-96536667D01*
X139550000Y-96670000D01*
X139516667Y-96736667D01*
X139450000Y-96803333D01*
X139350000Y-96836667D01*
X139183334Y-96836667D01*
X139850000Y-96203333D02*
X139883334Y-96170000D01*
X139950000Y-96136667D01*
X140116667Y-96136667D01*
X140183334Y-96170000D01*
X140216667Y-96203333D01*
X140250000Y-96270000D01*
X140250000Y-96336667D01*
X140216667Y-96436667D01*
X139816667Y-96836667D01*
X140250000Y-96836667D01*
X127753334Y-96836667D02*
X127753334Y-96136667D01*
X127920000Y-96136667D01*
X128020000Y-96170000D01*
X128086667Y-96236667D01*
X128120000Y-96303333D01*
X128153334Y-96436667D01*
X128153334Y-96536667D01*
X128120000Y-96670000D01*
X128086667Y-96736667D01*
X128020000Y-96803333D01*
X127920000Y-96836667D01*
X127753334Y-96836667D01*
X128820000Y-96836667D02*
X128420000Y-96836667D01*
X128620000Y-96836667D02*
X128620000Y-96136667D01*
X128553334Y-96236667D01*
X128486667Y-96303333D01*
X128420000Y-96336667D01*
%LPC*%
D13*
X147320000Y-110490000D03*
X147320000Y-109220000D03*
D14*
X147320000Y-111760000D03*
D13*
X147320000Y-105410000D03*
X147320000Y-106680000D03*
D14*
X147320000Y-104140000D03*
D13*
X132080000Y-107950000D03*
X132080000Y-106680000D03*
D14*
X132080000Y-109220000D03*
D13*
X127000000Y-107950000D03*
X127000000Y-109220000D03*
D14*
X127000000Y-106680000D03*
D13*
X121920000Y-107950000D03*
X121920000Y-109220000D03*
D14*
X121920000Y-106680000D03*
D15*
X161290000Y-114935000D03*
D16*
X161290000Y-117475000D03*
D17*
X117700000Y-121950000D03*
X117700000Y-93950000D03*
X161700000Y-93950000D03*
X161700000Y-121950000D03*
D18*
X140970000Y-121920000D03*
X139700000Y-120650000D03*
D19*
X142240000Y-120650000D03*
D20*
X156210000Y-111760000D03*
D21*
X156210000Y-119380000D03*
D20*
X119380000Y-97790000D03*
D21*
X119380000Y-105410000D03*
D20*
X119380000Y-110490000D03*
D21*
X119380000Y-118110000D03*
D20*
X121920000Y-119380000D03*
D21*
X121920000Y-111760000D03*
D20*
X121920000Y-101600000D03*
D21*
X121920000Y-93980000D03*
D20*
X132080000Y-111760000D03*
D22*
X124460000Y-111760000D03*
D20*
X124460000Y-101600000D03*
D22*
X132080000Y-101600000D03*
D20*
X135890000Y-106680000D03*
D21*
X135890000Y-99060000D03*
D20*
X132080000Y-99060000D03*
D22*
X124460000Y-99060000D03*
D20*
X135890000Y-109220000D03*
D21*
X135890000Y-116840000D03*
D20*
X132080000Y-114300000D03*
D22*
X124460000Y-114300000D03*
D20*
X140970000Y-106680000D03*
D21*
X140970000Y-99060000D03*
D20*
X143510000Y-99060000D03*
D21*
X143510000Y-106680000D03*
D20*
X146050000Y-101600000D03*
D21*
X146050000Y-93980000D03*
D20*
X149860000Y-93980000D03*
D22*
X157480000Y-93980000D03*
D20*
X153670000Y-96520000D03*
D21*
X153670000Y-104140000D03*
D20*
X153670000Y-119380000D03*
D21*
X153670000Y-111760000D03*
D20*
X146050000Y-114300000D03*
D21*
X146050000Y-121920000D03*
D20*
X149860000Y-121920000D03*
D22*
X157480000Y-121920000D03*
D20*
X143510000Y-116840000D03*
D21*
X143510000Y-109220000D03*
D20*
X140970000Y-109220000D03*
D21*
X140970000Y-116840000D03*
D20*
X156210000Y-96520000D03*
D21*
X156210000Y-104140000D03*
D20*
X129540000Y-119380000D03*
X124460000Y-119380000D03*
X121920000Y-104140000D03*
X127000000Y-104140000D03*
X138430000Y-101600000D03*
X138430000Y-106680000D03*
X151130000Y-104140000D03*
X151130000Y-99060000D03*
X156210000Y-106680000D03*
X151130000Y-106680000D03*
X151130000Y-111760000D03*
X151130000Y-116840000D03*
X156210000Y-109220000D03*
X151130000Y-109220000D03*
X138430000Y-109220000D03*
X138430000Y-114300000D03*
X132080000Y-116840000D03*
X127000000Y-116840000D03*
D23*
X161290000Y-104140000D03*
D24*
X161290000Y-111760000D03*
D23*
X158750000Y-111760000D03*
D24*
X158750000Y-104140000D03*
D20*
X148590000Y-101600000D03*
X148590000Y-96520000D03*
X148590000Y-114300000D03*
X148590000Y-119380000D03*
D25*
X135255000Y-93980000D03*
X132715000Y-93980000D03*
X161290000Y-100965000D03*
X161290000Y-98425000D03*
X132715000Y-121920000D03*
X135255000Y-121920000D03*
D26*
X143510000Y-96520000D03*
D27*
X135890000Y-96520000D03*
D26*
X132080000Y-96520000D03*
D27*
X124460000Y-96520000D03*
M02*
