G04 #@! TF.FileFunction,Legend,Bot*
%FSLAX46Y46*%
G04 Gerber Fmt 4.6, Leading zero omitted, Abs format (unit mm)*
G04 Created by KiCad (PCBNEW 4.0.6) date Wed Dec 13 01:07:51 2017*
%MOMM*%
%LPD*%
G01*
G04 APERTURE LIST*
%ADD10C,0.100000*%
%ADD11C,0.150000*%
%ADD12C,0.200000*%
%ADD13O,1.900000X1.300000*%
%ADD14R,1.900000X1.300000*%
%ADD15R,1.800000X1.800000*%
%ADD16C,1.800000*%
%ADD17C,4.200000*%
%ADD18C,1.400000*%
%ADD19R,1.400000X1.400000*%
%ADD20C,1.900000*%
%ADD21O,2.000000X1.900000*%
%ADD22O,1.900000X2.000000*%
%ADD23R,1.900000X1.900000*%
%ADD24O,1.900000X1.900000*%
%ADD25C,2.100000*%
%ADD26R,2.200000X2.200000*%
%ADD27C,2.200000*%
G04 APERTURE END LIST*
D10*
X137744905Y-93980000D02*
G75*
G03X137744905Y-93980000I-457905J0D01*
G01*
X137541000Y-93980000D02*
X137033000Y-93980000D01*
X131140905Y-93980000D02*
G75*
G03X131140905Y-93980000I-457905J0D01*
G01*
X130683000Y-93726000D02*
X130683000Y-94234000D01*
X130429000Y-93980000D02*
X130937000Y-93980000D01*
X132461000Y-119888000D02*
X132969000Y-119888000D01*
X133172905Y-119888000D02*
G75*
G03X133172905Y-119888000I-457905J0D01*
G01*
X135255000Y-120142000D02*
X135255000Y-119634000D01*
X135001000Y-119888000D02*
X135509000Y-119888000D01*
X135712905Y-119888000D02*
G75*
G03X135712905Y-119888000I-457905J0D01*
G01*
X159004000Y-100965000D02*
X159512000Y-100965000D01*
X159258000Y-100711000D02*
X159258000Y-101219000D01*
X159715905Y-100965000D02*
G75*
G03X159715905Y-100965000I-457905J0D01*
G01*
X159718852Y-98428346D02*
G75*
G03X159718852Y-98428346I-460498J0D01*
G01*
X159258000Y-98679000D02*
X159258000Y-98171000D01*
D11*
X140866667Y-94432381D02*
X140866667Y-93432381D01*
X140628572Y-93432381D01*
X140485714Y-93480000D01*
X140390476Y-93575238D01*
X140342857Y-93670476D01*
X140295238Y-93860952D01*
X140295238Y-94003810D01*
X140342857Y-94194286D01*
X140390476Y-94289524D01*
X140485714Y-94384762D01*
X140628572Y-94432381D01*
X140866667Y-94432381D01*
X139866667Y-93432381D02*
X139866667Y-94241905D01*
X139819048Y-94337143D01*
X139771429Y-94384762D01*
X139676191Y-94432381D01*
X139485714Y-94432381D01*
X139390476Y-94384762D01*
X139342857Y-94337143D01*
X139295238Y-94241905D01*
X139295238Y-93432381D01*
X138961905Y-93432381D02*
X138390476Y-93432381D01*
X138676191Y-94432381D02*
X138676191Y-93432381D01*
X142642857Y-111033429D02*
X142442857Y-111633429D01*
X142242857Y-111033429D01*
X141814285Y-111604857D02*
X141871428Y-111633429D01*
X141985714Y-111633429D01*
X142042857Y-111604857D01*
X142071428Y-111547714D01*
X142071428Y-111319143D01*
X142042857Y-111262000D01*
X141985714Y-111233429D01*
X141871428Y-111233429D01*
X141814285Y-111262000D01*
X141785714Y-111319143D01*
X141785714Y-111376286D01*
X142071428Y-111433429D01*
X141528571Y-111633429D02*
X141528571Y-111233429D01*
X141528571Y-111347714D02*
X141499999Y-111290571D01*
X141471428Y-111262000D01*
X141414285Y-111233429D01*
X141357142Y-111233429D01*
X141185713Y-111604857D02*
X141128570Y-111633429D01*
X141014285Y-111633429D01*
X140957142Y-111604857D01*
X140928570Y-111547714D01*
X140928570Y-111519143D01*
X140957142Y-111462000D01*
X141014285Y-111433429D01*
X141099999Y-111433429D01*
X141157142Y-111404857D01*
X141185713Y-111347714D01*
X141185713Y-111319143D01*
X141157142Y-111262000D01*
X141099999Y-111233429D01*
X141014285Y-111233429D01*
X140957142Y-111262000D01*
X140671428Y-111633429D02*
X140671428Y-111233429D01*
X140671428Y-111033429D02*
X140699999Y-111062000D01*
X140671428Y-111090571D01*
X140642856Y-111062000D01*
X140671428Y-111033429D01*
X140671428Y-111090571D01*
X140300000Y-111633429D02*
X140357142Y-111604857D01*
X140385714Y-111576286D01*
X140414285Y-111519143D01*
X140414285Y-111347714D01*
X140385714Y-111290571D01*
X140357142Y-111262000D01*
X140300000Y-111233429D01*
X140214285Y-111233429D01*
X140157142Y-111262000D01*
X140128571Y-111290571D01*
X140100000Y-111347714D01*
X140100000Y-111519143D01*
X140128571Y-111576286D01*
X140157142Y-111604857D01*
X140214285Y-111633429D01*
X140300000Y-111633429D01*
X139842857Y-111233429D02*
X139842857Y-111633429D01*
X139842857Y-111290571D02*
X139814285Y-111262000D01*
X139757143Y-111233429D01*
X139671428Y-111233429D01*
X139614285Y-111262000D01*
X139585714Y-111319143D01*
X139585714Y-111633429D01*
X139300000Y-111576286D02*
X139271428Y-111604857D01*
X139300000Y-111633429D01*
X139328571Y-111604857D01*
X139300000Y-111576286D01*
X139300000Y-111633429D01*
X139300000Y-111262000D02*
X139271428Y-111290571D01*
X139300000Y-111319143D01*
X139328571Y-111290571D01*
X139300000Y-111262000D01*
X139300000Y-111319143D01*
X138242857Y-111633429D02*
X138585714Y-111633429D01*
X138414286Y-111633429D02*
X138414286Y-111033429D01*
X138471429Y-111119143D01*
X138528571Y-111176286D01*
X138585714Y-111204857D01*
X137985714Y-111576286D02*
X137957142Y-111604857D01*
X137985714Y-111633429D01*
X138014285Y-111604857D01*
X137985714Y-111576286D01*
X137985714Y-111633429D01*
X137585714Y-111033429D02*
X137528571Y-111033429D01*
X137471428Y-111062000D01*
X137442857Y-111090571D01*
X137414286Y-111147714D01*
X137385714Y-111262000D01*
X137385714Y-111404857D01*
X137414286Y-111519143D01*
X137442857Y-111576286D01*
X137471428Y-111604857D01*
X137528571Y-111633429D01*
X137585714Y-111633429D01*
X137642857Y-111604857D01*
X137671428Y-111576286D01*
X137700000Y-111519143D01*
X137728571Y-111404857D01*
X137728571Y-111262000D01*
X137700000Y-111147714D01*
X137671428Y-111090571D01*
X137642857Y-111062000D01*
X137585714Y-111033429D01*
X136814285Y-111633429D02*
X137157142Y-111633429D01*
X136985714Y-111633429D02*
X136985714Y-111033429D01*
X137042857Y-111119143D01*
X137099999Y-111176286D01*
X137157142Y-111204857D01*
X143957144Y-112683429D02*
X143957144Y-112083429D01*
X143814287Y-112083429D01*
X143728572Y-112112000D01*
X143671430Y-112169143D01*
X143642858Y-112226286D01*
X143614287Y-112340571D01*
X143614287Y-112426286D01*
X143642858Y-112540571D01*
X143671430Y-112597714D01*
X143728572Y-112654857D01*
X143814287Y-112683429D01*
X143957144Y-112683429D01*
X143100001Y-112683429D02*
X143100001Y-112369143D01*
X143128572Y-112312000D01*
X143185715Y-112283429D01*
X143300001Y-112283429D01*
X143357144Y-112312000D01*
X143100001Y-112654857D02*
X143157144Y-112683429D01*
X143300001Y-112683429D01*
X143357144Y-112654857D01*
X143385715Y-112597714D01*
X143385715Y-112540571D01*
X143357144Y-112483429D01*
X143300001Y-112454857D01*
X143157144Y-112454857D01*
X143100001Y-112426286D01*
X142900001Y-112283429D02*
X142671430Y-112283429D01*
X142814287Y-112083429D02*
X142814287Y-112597714D01*
X142785715Y-112654857D01*
X142728573Y-112683429D01*
X142671430Y-112683429D01*
X142242858Y-112654857D02*
X142300001Y-112683429D01*
X142414287Y-112683429D01*
X142471430Y-112654857D01*
X142500001Y-112597714D01*
X142500001Y-112369143D01*
X142471430Y-112312000D01*
X142414287Y-112283429D01*
X142300001Y-112283429D01*
X142242858Y-112312000D01*
X142214287Y-112369143D01*
X142214287Y-112426286D01*
X142500001Y-112483429D01*
X141957144Y-112626286D02*
X141928572Y-112654857D01*
X141957144Y-112683429D01*
X141985715Y-112654857D01*
X141957144Y-112626286D01*
X141957144Y-112683429D01*
X141957144Y-112312000D02*
X141928572Y-112340571D01*
X141957144Y-112369143D01*
X141985715Y-112340571D01*
X141957144Y-112312000D01*
X141957144Y-112369143D01*
X141242858Y-112140571D02*
X141214287Y-112112000D01*
X141157144Y-112083429D01*
X141014287Y-112083429D01*
X140957144Y-112112000D01*
X140928573Y-112140571D01*
X140900001Y-112197714D01*
X140900001Y-112254857D01*
X140928573Y-112340571D01*
X141271430Y-112683429D01*
X140900001Y-112683429D01*
X140528572Y-112083429D02*
X140471429Y-112083429D01*
X140414286Y-112112000D01*
X140385715Y-112140571D01*
X140357144Y-112197714D01*
X140328572Y-112312000D01*
X140328572Y-112454857D01*
X140357144Y-112569143D01*
X140385715Y-112626286D01*
X140414286Y-112654857D01*
X140471429Y-112683429D01*
X140528572Y-112683429D01*
X140585715Y-112654857D01*
X140614286Y-112626286D01*
X140642858Y-112569143D01*
X140671429Y-112454857D01*
X140671429Y-112312000D01*
X140642858Y-112197714D01*
X140614286Y-112140571D01*
X140585715Y-112112000D01*
X140528572Y-112083429D01*
X139757143Y-112683429D02*
X140100000Y-112683429D01*
X139928572Y-112683429D02*
X139928572Y-112083429D01*
X139985715Y-112169143D01*
X140042857Y-112226286D01*
X140100000Y-112254857D01*
X139557143Y-112083429D02*
X139157143Y-112083429D01*
X139414286Y-112683429D01*
X138928571Y-112454857D02*
X138471428Y-112454857D01*
X137871428Y-112683429D02*
X138214285Y-112683429D01*
X138042857Y-112683429D02*
X138042857Y-112083429D01*
X138100000Y-112169143D01*
X138157142Y-112226286D01*
X138214285Y-112254857D01*
X137642856Y-112140571D02*
X137614285Y-112112000D01*
X137557142Y-112083429D01*
X137414285Y-112083429D01*
X137357142Y-112112000D01*
X137328571Y-112140571D01*
X137299999Y-112197714D01*
X137299999Y-112254857D01*
X137328571Y-112340571D01*
X137671428Y-112683429D01*
X137299999Y-112683429D01*
X137042856Y-112454857D02*
X136585713Y-112454857D01*
X135985713Y-112683429D02*
X136328570Y-112683429D01*
X136157142Y-112683429D02*
X136157142Y-112083429D01*
X136214285Y-112169143D01*
X136271427Y-112226286D01*
X136328570Y-112254857D01*
X135785713Y-112083429D02*
X135414284Y-112083429D01*
X135614284Y-112312000D01*
X135528570Y-112312000D01*
X135471427Y-112340571D01*
X135442856Y-112369143D01*
X135414284Y-112426286D01*
X135414284Y-112569143D01*
X135442856Y-112626286D01*
X135471427Y-112654857D01*
X135528570Y-112683429D01*
X135699998Y-112683429D01*
X135757141Y-112654857D01*
X135785713Y-112626286D01*
X158775143Y-114266429D02*
X158775143Y-113666429D01*
X158632286Y-113666429D01*
X158546571Y-113695000D01*
X158489429Y-113752143D01*
X158460857Y-113809286D01*
X158432286Y-113923571D01*
X158432286Y-114009286D01*
X158460857Y-114123571D01*
X158489429Y-114180714D01*
X158546571Y-114237857D01*
X158632286Y-114266429D01*
X158775143Y-114266429D01*
X158175143Y-114266429D02*
X158175143Y-113866429D01*
X158175143Y-113666429D02*
X158203714Y-113695000D01*
X158175143Y-113723571D01*
X158146571Y-113695000D01*
X158175143Y-113666429D01*
X158175143Y-113723571D01*
X157918000Y-114237857D02*
X157860857Y-114266429D01*
X157746572Y-114266429D01*
X157689429Y-114237857D01*
X157660857Y-114180714D01*
X157660857Y-114152143D01*
X157689429Y-114095000D01*
X157746572Y-114066429D01*
X157832286Y-114066429D01*
X157889429Y-114037857D01*
X157918000Y-113980714D01*
X157918000Y-113952143D01*
X157889429Y-113895000D01*
X157832286Y-113866429D01*
X157746572Y-113866429D01*
X157689429Y-113895000D01*
X157146572Y-114237857D02*
X157203715Y-114266429D01*
X157318001Y-114266429D01*
X157375143Y-114237857D01*
X157403715Y-114209286D01*
X157432286Y-114152143D01*
X157432286Y-113980714D01*
X157403715Y-113923571D01*
X157375143Y-113895000D01*
X157318001Y-113866429D01*
X157203715Y-113866429D01*
X157146572Y-113895000D01*
X156889429Y-114266429D02*
X156889429Y-113666429D01*
X156632286Y-114266429D02*
X156632286Y-113952143D01*
X156660857Y-113895000D01*
X156718000Y-113866429D01*
X156803715Y-113866429D01*
X156860857Y-113895000D01*
X156889429Y-113923571D01*
X156089429Y-114266429D02*
X156089429Y-113952143D01*
X156118000Y-113895000D01*
X156175143Y-113866429D01*
X156289429Y-113866429D01*
X156346572Y-113895000D01*
X156089429Y-114237857D02*
X156146572Y-114266429D01*
X156289429Y-114266429D01*
X156346572Y-114237857D01*
X156375143Y-114180714D01*
X156375143Y-114123571D01*
X156346572Y-114066429D01*
X156289429Y-114037857D01*
X156146572Y-114037857D01*
X156089429Y-114009286D01*
X155803715Y-114266429D02*
X155803715Y-113866429D01*
X155803715Y-113980714D02*
X155775143Y-113923571D01*
X155746572Y-113895000D01*
X155689429Y-113866429D01*
X155632286Y-113866429D01*
X155175143Y-113866429D02*
X155175143Y-114352143D01*
X155203714Y-114409286D01*
X155232286Y-114437857D01*
X155289429Y-114466429D01*
X155375143Y-114466429D01*
X155432286Y-114437857D01*
X155175143Y-114237857D02*
X155232286Y-114266429D01*
X155346572Y-114266429D01*
X155403714Y-114237857D01*
X155432286Y-114209286D01*
X155460857Y-114152143D01*
X155460857Y-113980714D01*
X155432286Y-113923571D01*
X155403714Y-113895000D01*
X155346572Y-113866429D01*
X155232286Y-113866429D01*
X155175143Y-113895000D01*
X154660857Y-114237857D02*
X154718000Y-114266429D01*
X154832286Y-114266429D01*
X154889429Y-114237857D01*
X154918000Y-114180714D01*
X154918000Y-113952143D01*
X154889429Y-113895000D01*
X154832286Y-113866429D01*
X154718000Y-113866429D01*
X154660857Y-113895000D01*
X154632286Y-113952143D01*
X154632286Y-114009286D01*
X154918000Y-114066429D01*
X158660857Y-115287857D02*
X158718000Y-115316429D01*
X158832286Y-115316429D01*
X158889428Y-115287857D01*
X158918000Y-115259286D01*
X158946571Y-115202143D01*
X158946571Y-115030714D01*
X158918000Y-114973571D01*
X158889428Y-114945000D01*
X158832286Y-114916429D01*
X158718000Y-114916429D01*
X158660857Y-114945000D01*
X158146571Y-115316429D02*
X158146571Y-115002143D01*
X158175142Y-114945000D01*
X158232285Y-114916429D01*
X158346571Y-114916429D01*
X158403714Y-114945000D01*
X158146571Y-115287857D02*
X158203714Y-115316429D01*
X158346571Y-115316429D01*
X158403714Y-115287857D01*
X158432285Y-115230714D01*
X158432285Y-115173571D01*
X158403714Y-115116429D01*
X158346571Y-115087857D01*
X158203714Y-115087857D01*
X158146571Y-115059286D01*
X157860857Y-114916429D02*
X157860857Y-115516429D01*
X157860857Y-114945000D02*
X157803714Y-114916429D01*
X157689428Y-114916429D01*
X157632285Y-114945000D01*
X157603714Y-114973571D01*
X157575143Y-115030714D01*
X157575143Y-115202143D01*
X157603714Y-115259286D01*
X157632285Y-115287857D01*
X157689428Y-115316429D01*
X157803714Y-115316429D01*
X157860857Y-115287857D01*
X157060857Y-115316429D02*
X157060857Y-115002143D01*
X157089428Y-114945000D01*
X157146571Y-114916429D01*
X157260857Y-114916429D01*
X157318000Y-114945000D01*
X157060857Y-115287857D02*
X157118000Y-115316429D01*
X157260857Y-115316429D01*
X157318000Y-115287857D01*
X157346571Y-115230714D01*
X157346571Y-115173571D01*
X157318000Y-115116429D01*
X157260857Y-115087857D01*
X157118000Y-115087857D01*
X157060857Y-115059286D01*
X156518000Y-115287857D02*
X156575143Y-115316429D01*
X156689429Y-115316429D01*
X156746571Y-115287857D01*
X156775143Y-115259286D01*
X156803714Y-115202143D01*
X156803714Y-115030714D01*
X156775143Y-114973571D01*
X156746571Y-114945000D01*
X156689429Y-114916429D01*
X156575143Y-114916429D01*
X156518000Y-114945000D01*
X156260857Y-115316429D02*
X156260857Y-114916429D01*
X156260857Y-114716429D02*
X156289428Y-114745000D01*
X156260857Y-114773571D01*
X156232285Y-114745000D01*
X156260857Y-114716429D01*
X156260857Y-114773571D01*
X156060857Y-114916429D02*
X155832286Y-114916429D01*
X155975143Y-114716429D02*
X155975143Y-115230714D01*
X155946571Y-115287857D01*
X155889429Y-115316429D01*
X155832286Y-115316429D01*
X155546572Y-115316429D02*
X155603714Y-115287857D01*
X155632286Y-115259286D01*
X155660857Y-115202143D01*
X155660857Y-115030714D01*
X155632286Y-114973571D01*
X155603714Y-114945000D01*
X155546572Y-114916429D01*
X155460857Y-114916429D01*
X155403714Y-114945000D01*
X155375143Y-114973571D01*
X155346572Y-115030714D01*
X155346572Y-115202143D01*
X155375143Y-115259286D01*
X155403714Y-115287857D01*
X155460857Y-115316429D01*
X155546572Y-115316429D01*
X155089429Y-115316429D02*
X155089429Y-114916429D01*
X155089429Y-115030714D02*
X155060857Y-114973571D01*
X155032286Y-114945000D01*
X154975143Y-114916429D01*
X154918000Y-114916429D01*
X154746571Y-115287857D02*
X154689428Y-115316429D01*
X154575143Y-115316429D01*
X154518000Y-115287857D01*
X154489428Y-115230714D01*
X154489428Y-115202143D01*
X154518000Y-115145000D01*
X154575143Y-115116429D01*
X154660857Y-115116429D01*
X154718000Y-115087857D01*
X154746571Y-115030714D01*
X154746571Y-115002143D01*
X154718000Y-114945000D01*
X154660857Y-114916429D01*
X154575143Y-114916429D01*
X154518000Y-114945000D01*
X157989429Y-116366429D02*
X157989429Y-115766429D01*
X157989429Y-115995000D02*
X157932286Y-115966429D01*
X157818000Y-115966429D01*
X157760857Y-115995000D01*
X157732286Y-116023571D01*
X157703715Y-116080714D01*
X157703715Y-116252143D01*
X157732286Y-116309286D01*
X157760857Y-116337857D01*
X157818000Y-116366429D01*
X157932286Y-116366429D01*
X157989429Y-116337857D01*
X157218000Y-116337857D02*
X157275143Y-116366429D01*
X157389429Y-116366429D01*
X157446572Y-116337857D01*
X157475143Y-116280714D01*
X157475143Y-116052143D01*
X157446572Y-115995000D01*
X157389429Y-115966429D01*
X157275143Y-115966429D01*
X157218000Y-115995000D01*
X157189429Y-116052143D01*
X157189429Y-116109286D01*
X157475143Y-116166429D01*
X157018000Y-115966429D02*
X156789429Y-115966429D01*
X156932286Y-116366429D02*
X156932286Y-115852143D01*
X156903714Y-115795000D01*
X156846572Y-115766429D01*
X156789429Y-115766429D01*
X156503715Y-116366429D02*
X156560857Y-116337857D01*
X156589429Y-116309286D01*
X156618000Y-116252143D01*
X156618000Y-116080714D01*
X156589429Y-116023571D01*
X156560857Y-115995000D01*
X156503715Y-115966429D01*
X156418000Y-115966429D01*
X156360857Y-115995000D01*
X156332286Y-116023571D01*
X156303715Y-116080714D01*
X156303715Y-116252143D01*
X156332286Y-116309286D01*
X156360857Y-116337857D01*
X156418000Y-116366429D01*
X156503715Y-116366429D01*
X156046572Y-116366429D02*
X156046572Y-115966429D01*
X156046572Y-116080714D02*
X156018000Y-116023571D01*
X155989429Y-115995000D01*
X155932286Y-115966429D01*
X155875143Y-115966429D01*
X155446571Y-116337857D02*
X155503714Y-116366429D01*
X155618000Y-116366429D01*
X155675143Y-116337857D01*
X155703714Y-116280714D01*
X155703714Y-116052143D01*
X155675143Y-115995000D01*
X155618000Y-115966429D01*
X155503714Y-115966429D01*
X155446571Y-115995000D01*
X155418000Y-116052143D01*
X155418000Y-116109286D01*
X155703714Y-116166429D01*
X158760857Y-117387857D02*
X158818000Y-117416429D01*
X158932286Y-117416429D01*
X158989428Y-117387857D01*
X159018000Y-117359286D01*
X159046571Y-117302143D01*
X159046571Y-117130714D01*
X159018000Y-117073571D01*
X158989428Y-117045000D01*
X158932286Y-117016429D01*
X158818000Y-117016429D01*
X158760857Y-117045000D01*
X158418000Y-117416429D02*
X158475142Y-117387857D01*
X158503714Y-117359286D01*
X158532285Y-117302143D01*
X158532285Y-117130714D01*
X158503714Y-117073571D01*
X158475142Y-117045000D01*
X158418000Y-117016429D01*
X158332285Y-117016429D01*
X158275142Y-117045000D01*
X158246571Y-117073571D01*
X158218000Y-117130714D01*
X158218000Y-117302143D01*
X158246571Y-117359286D01*
X158275142Y-117387857D01*
X158332285Y-117416429D01*
X158418000Y-117416429D01*
X157960857Y-117016429D02*
X157960857Y-117416429D01*
X157960857Y-117073571D02*
X157932285Y-117045000D01*
X157875143Y-117016429D01*
X157789428Y-117016429D01*
X157732285Y-117045000D01*
X157703714Y-117102143D01*
X157703714Y-117416429D01*
X157418000Y-117016429D02*
X157418000Y-117416429D01*
X157418000Y-117073571D02*
X157389428Y-117045000D01*
X157332286Y-117016429D01*
X157246571Y-117016429D01*
X157189428Y-117045000D01*
X157160857Y-117102143D01*
X157160857Y-117416429D01*
X156646571Y-117387857D02*
X156703714Y-117416429D01*
X156818000Y-117416429D01*
X156875143Y-117387857D01*
X156903714Y-117330714D01*
X156903714Y-117102143D01*
X156875143Y-117045000D01*
X156818000Y-117016429D01*
X156703714Y-117016429D01*
X156646571Y-117045000D01*
X156618000Y-117102143D01*
X156618000Y-117159286D01*
X156903714Y-117216429D01*
X156103714Y-117387857D02*
X156160857Y-117416429D01*
X156275143Y-117416429D01*
X156332285Y-117387857D01*
X156360857Y-117359286D01*
X156389428Y-117302143D01*
X156389428Y-117130714D01*
X156360857Y-117073571D01*
X156332285Y-117045000D01*
X156275143Y-117016429D01*
X156160857Y-117016429D01*
X156103714Y-117045000D01*
X155932285Y-117016429D02*
X155703714Y-117016429D01*
X155846571Y-116816429D02*
X155846571Y-117330714D01*
X155817999Y-117387857D01*
X155760857Y-117416429D01*
X155703714Y-117416429D01*
X155503714Y-117416429D02*
X155503714Y-117016429D01*
X155503714Y-116816429D02*
X155532285Y-116845000D01*
X155503714Y-116873571D01*
X155475142Y-116845000D01*
X155503714Y-116816429D01*
X155503714Y-116873571D01*
X155218000Y-117016429D02*
X155218000Y-117416429D01*
X155218000Y-117073571D02*
X155189428Y-117045000D01*
X155132286Y-117016429D01*
X155046571Y-117016429D01*
X154989428Y-117045000D01*
X154960857Y-117102143D01*
X154960857Y-117416429D01*
X154418000Y-117016429D02*
X154418000Y-117502143D01*
X154446571Y-117559286D01*
X154475143Y-117587857D01*
X154532286Y-117616429D01*
X154618000Y-117616429D01*
X154675143Y-117587857D01*
X154418000Y-117387857D02*
X154475143Y-117416429D01*
X154589429Y-117416429D01*
X154646571Y-117387857D01*
X154675143Y-117359286D01*
X154703714Y-117302143D01*
X154703714Y-117130714D01*
X154675143Y-117073571D01*
X154646571Y-117045000D01*
X154589429Y-117016429D01*
X154475143Y-117016429D01*
X154418000Y-117045000D01*
X152654000Y-113538000D02*
X153670000Y-115062000D01*
X153670000Y-115062000D02*
X151638000Y-115062000D01*
X152654000Y-114808000D02*
X152654000Y-114808000D01*
X152654000Y-114046000D02*
X152654000Y-114554000D01*
X151638000Y-115062000D02*
X152654000Y-113538000D01*
X158431667Y-98318001D02*
X157731667Y-98318001D01*
X158231667Y-98551334D01*
X157731667Y-98784667D01*
X158431667Y-98784667D01*
X158398333Y-99384667D02*
X158431667Y-99318001D01*
X158431667Y-99184667D01*
X158398333Y-99118001D01*
X158331667Y-99084667D01*
X158065000Y-99084667D01*
X157998333Y-99118001D01*
X157965000Y-99184667D01*
X157965000Y-99318001D01*
X157998333Y-99384667D01*
X158065000Y-99418001D01*
X158131667Y-99418001D01*
X158198333Y-99084667D01*
X157965000Y-99618001D02*
X157965000Y-99884667D01*
X157731667Y-99718001D02*
X158331667Y-99718001D01*
X158398333Y-99751334D01*
X158431667Y-99818001D01*
X158431667Y-99884667D01*
X158398333Y-100384667D02*
X158431667Y-100318001D01*
X158431667Y-100184667D01*
X158398333Y-100118001D01*
X158331667Y-100084667D01*
X158065000Y-100084667D01*
X157998333Y-100118001D01*
X157965000Y-100184667D01*
X157965000Y-100318001D01*
X157998333Y-100384667D01*
X158065000Y-100418001D01*
X158131667Y-100418001D01*
X158198333Y-100084667D01*
X158431667Y-100718001D02*
X157965000Y-100718001D01*
X158098333Y-100718001D02*
X158031667Y-100751334D01*
X157998333Y-100784667D01*
X157965000Y-100851334D01*
X157965000Y-100918001D01*
X135368332Y-119061667D02*
X135368332Y-118361667D01*
X135101666Y-118361667D01*
X135034999Y-118395000D01*
X135001666Y-118428333D01*
X134968332Y-118495000D01*
X134968332Y-118595000D01*
X135001666Y-118661667D01*
X135034999Y-118695000D01*
X135101666Y-118728333D01*
X135368332Y-118728333D01*
X134568332Y-119061667D02*
X134634999Y-119028333D01*
X134668332Y-118995000D01*
X134701666Y-118928333D01*
X134701666Y-118728333D01*
X134668332Y-118661667D01*
X134634999Y-118628333D01*
X134568332Y-118595000D01*
X134468332Y-118595000D01*
X134401666Y-118628333D01*
X134368332Y-118661667D01*
X134334999Y-118728333D01*
X134334999Y-118928333D01*
X134368332Y-118995000D01*
X134401666Y-119028333D01*
X134468332Y-119061667D01*
X134568332Y-119061667D01*
X134101666Y-118595000D02*
X133968333Y-119061667D01*
X133834999Y-118728333D01*
X133701666Y-119061667D01*
X133568333Y-118595000D01*
X133035000Y-119028333D02*
X133101666Y-119061667D01*
X133235000Y-119061667D01*
X133301666Y-119028333D01*
X133335000Y-118961667D01*
X133335000Y-118695000D01*
X133301666Y-118628333D01*
X133235000Y-118595000D01*
X133101666Y-118595000D01*
X133035000Y-118628333D01*
X133001666Y-118695000D01*
X133001666Y-118761667D01*
X133335000Y-118828333D01*
X132701666Y-119061667D02*
X132701666Y-118595000D01*
X132701666Y-118728333D02*
X132668333Y-118661667D01*
X132635000Y-118628333D01*
X132568333Y-118595000D01*
X132501666Y-118595000D01*
D12*
X138430000Y-121920000D02*
X138811000Y-121920000D01*
X139192000Y-121920000D02*
X139573000Y-121920000D01*
D11*
X161764428Y-106917429D02*
X161764428Y-106317429D01*
X161621571Y-106317429D01*
X161535856Y-106346000D01*
X161478714Y-106403143D01*
X161450142Y-106460286D01*
X161421571Y-106574571D01*
X161421571Y-106660286D01*
X161450142Y-106774571D01*
X161478714Y-106831714D01*
X161535856Y-106888857D01*
X161621571Y-106917429D01*
X161764428Y-106917429D01*
X160935856Y-106888857D02*
X160992999Y-106917429D01*
X161107285Y-106917429D01*
X161164428Y-106888857D01*
X161192999Y-106831714D01*
X161192999Y-106603143D01*
X161164428Y-106546000D01*
X161107285Y-106517429D01*
X160992999Y-106517429D01*
X160935856Y-106546000D01*
X160907285Y-106603143D01*
X160907285Y-106660286D01*
X161192999Y-106717429D01*
X160678713Y-106888857D02*
X160621570Y-106917429D01*
X160507285Y-106917429D01*
X160450142Y-106888857D01*
X160421570Y-106831714D01*
X160421570Y-106803143D01*
X160450142Y-106746000D01*
X160507285Y-106717429D01*
X160592999Y-106717429D01*
X160650142Y-106688857D01*
X160678713Y-106631714D01*
X160678713Y-106603143D01*
X160650142Y-106546000D01*
X160592999Y-106517429D01*
X160507285Y-106517429D01*
X160450142Y-106546000D01*
X160164428Y-106917429D02*
X160164428Y-106517429D01*
X160164428Y-106317429D02*
X160192999Y-106346000D01*
X160164428Y-106374571D01*
X160135856Y-106346000D01*
X160164428Y-106317429D01*
X160164428Y-106374571D01*
X159621571Y-106517429D02*
X159621571Y-107003143D01*
X159650142Y-107060286D01*
X159678714Y-107088857D01*
X159735857Y-107117429D01*
X159821571Y-107117429D01*
X159878714Y-107088857D01*
X159621571Y-106888857D02*
X159678714Y-106917429D01*
X159793000Y-106917429D01*
X159850142Y-106888857D01*
X159878714Y-106860286D01*
X159907285Y-106803143D01*
X159907285Y-106631714D01*
X159878714Y-106574571D01*
X159850142Y-106546000D01*
X159793000Y-106517429D01*
X159678714Y-106517429D01*
X159621571Y-106546000D01*
X159335857Y-106517429D02*
X159335857Y-106917429D01*
X159335857Y-106574571D02*
X159307285Y-106546000D01*
X159250143Y-106517429D01*
X159164428Y-106517429D01*
X159107285Y-106546000D01*
X159078714Y-106603143D01*
X159078714Y-106917429D01*
X158564428Y-106888857D02*
X158621571Y-106917429D01*
X158735857Y-106917429D01*
X158793000Y-106888857D01*
X158821571Y-106831714D01*
X158821571Y-106603143D01*
X158793000Y-106546000D01*
X158735857Y-106517429D01*
X158621571Y-106517429D01*
X158564428Y-106546000D01*
X158535857Y-106603143D01*
X158535857Y-106660286D01*
X158821571Y-106717429D01*
X158021571Y-106917429D02*
X158021571Y-106317429D01*
X158021571Y-106888857D02*
X158078714Y-106917429D01*
X158193000Y-106917429D01*
X158250142Y-106888857D01*
X158278714Y-106860286D01*
X158307285Y-106803143D01*
X158307285Y-106631714D01*
X158278714Y-106574571D01*
X158250142Y-106546000D01*
X158193000Y-106517429D01*
X158078714Y-106517429D01*
X158021571Y-106546000D01*
X160707285Y-107567429D02*
X160592999Y-107967429D01*
X160478713Y-107681714D01*
X160364428Y-107967429D01*
X160250142Y-107567429D01*
X160021571Y-107967429D02*
X160021571Y-107567429D01*
X160021571Y-107367429D02*
X160050142Y-107396000D01*
X160021571Y-107424571D01*
X159992999Y-107396000D01*
X160021571Y-107367429D01*
X160021571Y-107424571D01*
X159821571Y-107567429D02*
X159593000Y-107567429D01*
X159735857Y-107367429D02*
X159735857Y-107881714D01*
X159707285Y-107938857D01*
X159650143Y-107967429D01*
X159593000Y-107967429D01*
X159393000Y-107967429D02*
X159393000Y-107367429D01*
X159135857Y-107967429D02*
X159135857Y-107653143D01*
X159164428Y-107596000D01*
X159221571Y-107567429D01*
X159307286Y-107567429D01*
X159364428Y-107596000D01*
X159393000Y-107624571D01*
X161050143Y-109017429D02*
X161050143Y-108417429D01*
X160707286Y-109017429D02*
X160964429Y-108674571D01*
X160707286Y-108417429D02*
X161050143Y-108760286D01*
X160450143Y-109017429D02*
X160450143Y-108617429D01*
X160450143Y-108417429D02*
X160478714Y-108446000D01*
X160450143Y-108474571D01*
X160421571Y-108446000D01*
X160450143Y-108417429D01*
X160450143Y-108474571D01*
X159821572Y-108960286D02*
X159850143Y-108988857D01*
X159935857Y-109017429D01*
X159993000Y-109017429D01*
X160078715Y-108988857D01*
X160135857Y-108931714D01*
X160164429Y-108874571D01*
X160193000Y-108760286D01*
X160193000Y-108674571D01*
X160164429Y-108560286D01*
X160135857Y-108503143D01*
X160078715Y-108446000D01*
X159993000Y-108417429D01*
X159935857Y-108417429D01*
X159850143Y-108446000D01*
X159821572Y-108474571D01*
X159593000Y-108846000D02*
X159307286Y-108846000D01*
X159650143Y-109017429D02*
X159450143Y-108417429D01*
X159250143Y-109017429D01*
X159050143Y-109017429D02*
X159050143Y-108417429D01*
X158907286Y-108417429D01*
X158821571Y-108446000D01*
X158764429Y-108503143D01*
X158735857Y-108560286D01*
X158707286Y-108674571D01*
X158707286Y-108760286D01*
X158735857Y-108874571D01*
X158764429Y-108931714D01*
X158821571Y-108988857D01*
X158907286Y-109017429D01*
X159050143Y-109017429D01*
D12*
X143129000Y-119761000D02*
X142875000Y-120015000D01*
X138938000Y-119888000D02*
X139192000Y-120142000D01*
X139954000Y-121920000D02*
X140335000Y-121920000D01*
D11*
X144805333Y-119030000D02*
X144871999Y-118996667D01*
X144971999Y-118996667D01*
X145071999Y-119030000D01*
X145138666Y-119096667D01*
X145171999Y-119163333D01*
X145205333Y-119296667D01*
X145205333Y-119396667D01*
X145171999Y-119530000D01*
X145138666Y-119596667D01*
X145071999Y-119663333D01*
X144971999Y-119696667D01*
X144905333Y-119696667D01*
X144805333Y-119663333D01*
X144771999Y-119630000D01*
X144771999Y-119396667D01*
X144905333Y-119396667D01*
X144471999Y-119696667D02*
X144471999Y-118996667D01*
X144071999Y-119696667D01*
X144071999Y-118996667D01*
X143738666Y-119696667D02*
X143738666Y-118996667D01*
X143572000Y-118996667D01*
X143472000Y-119030000D01*
X143405333Y-119096667D01*
X143372000Y-119163333D01*
X143338666Y-119296667D01*
X143338666Y-119396667D01*
X143372000Y-119530000D01*
X143405333Y-119596667D01*
X143472000Y-119663333D01*
X143572000Y-119696667D01*
X143738666Y-119696667D01*
X138621999Y-118996667D02*
X138488666Y-118996667D01*
X138421999Y-119030000D01*
X138355332Y-119096667D01*
X138321999Y-119230000D01*
X138321999Y-119463333D01*
X138355332Y-119596667D01*
X138421999Y-119663333D01*
X138488666Y-119696667D01*
X138621999Y-119696667D01*
X138688666Y-119663333D01*
X138755332Y-119596667D01*
X138788666Y-119463333D01*
X138788666Y-119230000D01*
X138755332Y-119096667D01*
X138688666Y-119030000D01*
X138621999Y-118996667D01*
X138021999Y-118996667D02*
X138021999Y-119563333D01*
X137988666Y-119630000D01*
X137955333Y-119663333D01*
X137888666Y-119696667D01*
X137755333Y-119696667D01*
X137688666Y-119663333D01*
X137655333Y-119630000D01*
X137621999Y-119563333D01*
X137621999Y-118996667D01*
X137388666Y-118996667D02*
X136988666Y-118996667D01*
X137188666Y-119696667D02*
X137188666Y-118996667D01*
X138161666Y-122236667D02*
X138161666Y-121536667D01*
X137828333Y-122236667D02*
X137828333Y-121536667D01*
X137428333Y-122236667D01*
X137428333Y-121536667D01*
X130301429Y-122205714D02*
X130330000Y-122243810D01*
X130415714Y-122281905D01*
X130472857Y-122281905D01*
X130558572Y-122243810D01*
X130615714Y-122167619D01*
X130644286Y-122091429D01*
X130672857Y-121939048D01*
X130672857Y-121824762D01*
X130644286Y-121672381D01*
X130615714Y-121596190D01*
X130558572Y-121520000D01*
X130472857Y-121481905D01*
X130415714Y-121481905D01*
X130330000Y-121520000D01*
X130301429Y-121558095D01*
X129701429Y-122205714D02*
X129730000Y-122243810D01*
X129815714Y-122281905D01*
X129872857Y-122281905D01*
X129958572Y-122243810D01*
X130015714Y-122167619D01*
X130044286Y-122091429D01*
X130072857Y-121939048D01*
X130072857Y-121824762D01*
X130044286Y-121672381D01*
X130015714Y-121596190D01*
X129958572Y-121520000D01*
X129872857Y-121481905D01*
X129815714Y-121481905D01*
X129730000Y-121520000D01*
X129701429Y-121558095D01*
X128787143Y-121862857D02*
X128701429Y-121900952D01*
X128672857Y-121939048D01*
X128644286Y-122015238D01*
X128644286Y-122129524D01*
X128672857Y-122205714D01*
X128701429Y-122243810D01*
X128758571Y-122281905D01*
X128987143Y-122281905D01*
X128987143Y-121481905D01*
X128787143Y-121481905D01*
X128730000Y-121520000D01*
X128701429Y-121558095D01*
X128672857Y-121634286D01*
X128672857Y-121710476D01*
X128701429Y-121786667D01*
X128730000Y-121824762D01*
X128787143Y-121862857D01*
X128987143Y-121862857D01*
X128272857Y-121900952D02*
X128272857Y-122281905D01*
X128472857Y-121481905D02*
X128272857Y-121900952D01*
X128072857Y-121481905D01*
X127872857Y-121977143D02*
X127415714Y-121977143D01*
X127130000Y-122281905D02*
X127130000Y-121481905D01*
X126787143Y-122281905D01*
X126787143Y-121481905D01*
X126158572Y-122205714D02*
X126187143Y-122243810D01*
X126272857Y-122281905D01*
X126330000Y-122281905D01*
X126415715Y-122243810D01*
X126472857Y-122167619D01*
X126501429Y-122091429D01*
X126530000Y-121939048D01*
X126530000Y-121824762D01*
X126501429Y-121672381D01*
X126472857Y-121596190D01*
X126415715Y-121520000D01*
X126330000Y-121481905D01*
X126272857Y-121481905D01*
X126187143Y-121520000D01*
X126158572Y-121558095D01*
X125901429Y-121977143D02*
X125444286Y-121977143D01*
X125187143Y-122243810D02*
X125101429Y-122281905D01*
X124958572Y-122281905D01*
X124901429Y-122243810D01*
X124872858Y-122205714D01*
X124844286Y-122129524D01*
X124844286Y-122053333D01*
X124872858Y-121977143D01*
X124901429Y-121939048D01*
X124958572Y-121900952D01*
X125072858Y-121862857D01*
X125130000Y-121824762D01*
X125158572Y-121786667D01*
X125187143Y-121710476D01*
X125187143Y-121634286D01*
X125158572Y-121558095D01*
X125130000Y-121520000D01*
X125072858Y-121481905D01*
X124930000Y-121481905D01*
X124844286Y-121520000D01*
X124615714Y-122053333D02*
X124330000Y-122053333D01*
X124672857Y-122281905D02*
X124472857Y-121481905D01*
X124272857Y-122281905D01*
X123672857Y-121481905D02*
X123301428Y-121481905D01*
X123501428Y-121786667D01*
X123415714Y-121786667D01*
X123358571Y-121824762D01*
X123330000Y-121862857D01*
X123301428Y-121939048D01*
X123301428Y-122129524D01*
X123330000Y-122205714D01*
X123358571Y-122243810D01*
X123415714Y-122281905D01*
X123587142Y-122281905D01*
X123644285Y-122243810D01*
X123672857Y-122205714D01*
X123044285Y-122205714D02*
X123015713Y-122243810D01*
X123044285Y-122281905D01*
X123072856Y-122243810D01*
X123044285Y-122205714D01*
X123044285Y-122281905D01*
X122644285Y-121481905D02*
X122587142Y-121481905D01*
X122529999Y-121520000D01*
X122501428Y-121558095D01*
X122472857Y-121634286D01*
X122444285Y-121786667D01*
X122444285Y-121977143D01*
X122472857Y-122129524D01*
X122501428Y-122205714D01*
X122529999Y-122243810D01*
X122587142Y-122281905D01*
X122644285Y-122281905D01*
X122701428Y-122243810D01*
X122729999Y-122205714D01*
X122758571Y-122129524D01*
X122787142Y-121977143D01*
X122787142Y-121786667D01*
X122758571Y-121634286D01*
X122729999Y-121558095D01*
X122701428Y-121520000D01*
X122644285Y-121481905D01*
X121729999Y-121481905D02*
X121729999Y-122129524D01*
X121701427Y-122205714D01*
X121672856Y-122243810D01*
X121615713Y-122281905D01*
X121501427Y-122281905D01*
X121444285Y-122243810D01*
X121415713Y-122205714D01*
X121387142Y-122129524D01*
X121387142Y-121481905D01*
X121129999Y-122243810D02*
X121044285Y-122281905D01*
X120901428Y-122281905D01*
X120844285Y-122243810D01*
X120815714Y-122205714D01*
X120787142Y-122129524D01*
X120787142Y-122053333D01*
X120815714Y-121977143D01*
X120844285Y-121939048D01*
X120901428Y-121900952D01*
X121015714Y-121862857D01*
X121072856Y-121824762D01*
X121101428Y-121786667D01*
X121129999Y-121710476D01*
X121129999Y-121634286D01*
X121101428Y-121558095D01*
X121072856Y-121520000D01*
X121015714Y-121481905D01*
X120872856Y-121481905D01*
X120787142Y-121520000D01*
D10*
X116810667Y-118990003D02*
X116777333Y-119035717D01*
X116777333Y-119127146D01*
X116810667Y-119172860D01*
X116877333Y-119195717D01*
X117144000Y-119195717D01*
X117210667Y-119172860D01*
X117244000Y-119127146D01*
X117244000Y-119035717D01*
X117210667Y-118990003D01*
X117144000Y-118967146D01*
X117077333Y-118967146D01*
X117010667Y-119195717D01*
X116810667Y-118578574D02*
X116777333Y-118624288D01*
X116777333Y-118715717D01*
X116810667Y-118761431D01*
X116877333Y-118784288D01*
X117144000Y-118784288D01*
X117210667Y-118761431D01*
X117244000Y-118715717D01*
X117244000Y-118624288D01*
X117210667Y-118578574D01*
X117144000Y-118555717D01*
X117077333Y-118555717D01*
X117010667Y-118784288D01*
X117244000Y-118395717D02*
X116777333Y-118281431D01*
X117244000Y-118167145D01*
X116777333Y-117984288D02*
X117477333Y-117984288D01*
X117210667Y-117984288D02*
X117244000Y-117938574D01*
X117244000Y-117847145D01*
X117210667Y-117801431D01*
X117177333Y-117778574D01*
X117110667Y-117755717D01*
X116910667Y-117755717D01*
X116844000Y-117778574D01*
X116810667Y-117801431D01*
X116777333Y-117847145D01*
X116777333Y-117938574D01*
X116810667Y-117984288D01*
X116777333Y-117481431D02*
X116810667Y-117527145D01*
X116877333Y-117550002D01*
X117477333Y-117550002D01*
X116777333Y-117230002D02*
X116810667Y-117275716D01*
X116844000Y-117298573D01*
X116910667Y-117321430D01*
X117110667Y-117321430D01*
X117177333Y-117298573D01*
X117210667Y-117275716D01*
X117244000Y-117230002D01*
X117244000Y-117161430D01*
X117210667Y-117115716D01*
X117177333Y-117092859D01*
X117110667Y-117070002D01*
X116910667Y-117070002D01*
X116844000Y-117092859D01*
X116810667Y-117115716D01*
X116777333Y-117161430D01*
X116777333Y-117230002D01*
X117244000Y-116658573D02*
X116677333Y-116658573D01*
X116610667Y-116681430D01*
X116577333Y-116704287D01*
X116544000Y-116750002D01*
X116544000Y-116818573D01*
X116577333Y-116864287D01*
X116810667Y-116658573D02*
X116777333Y-116704287D01*
X116777333Y-116795716D01*
X116810667Y-116841430D01*
X116844000Y-116864287D01*
X116910667Y-116887144D01*
X117110667Y-116887144D01*
X117177333Y-116864287D01*
X117210667Y-116841430D01*
X117244000Y-116795716D01*
X117244000Y-116704287D01*
X117210667Y-116658573D01*
X116844000Y-116430001D02*
X116810667Y-116407144D01*
X116777333Y-116430001D01*
X116810667Y-116452858D01*
X116844000Y-116430001D01*
X116777333Y-116430001D01*
X116810667Y-115995716D02*
X116777333Y-116041430D01*
X116777333Y-116132859D01*
X116810667Y-116178573D01*
X116844000Y-116201430D01*
X116910667Y-116224287D01*
X117110667Y-116224287D01*
X117177333Y-116201430D01*
X117210667Y-116178573D01*
X117244000Y-116132859D01*
X117244000Y-116041430D01*
X117210667Y-115995716D01*
X116777333Y-115721430D02*
X116810667Y-115767144D01*
X116844000Y-115790001D01*
X116910667Y-115812858D01*
X117110667Y-115812858D01*
X117177333Y-115790001D01*
X117210667Y-115767144D01*
X117244000Y-115721430D01*
X117244000Y-115652858D01*
X117210667Y-115607144D01*
X117177333Y-115584287D01*
X117110667Y-115561430D01*
X116910667Y-115561430D01*
X116844000Y-115584287D01*
X116810667Y-115607144D01*
X116777333Y-115652858D01*
X116777333Y-115721430D01*
X116777333Y-115355715D02*
X117244000Y-115355715D01*
X117177333Y-115355715D02*
X117210667Y-115332858D01*
X117244000Y-115287144D01*
X117244000Y-115218572D01*
X117210667Y-115172858D01*
X117144000Y-115150001D01*
X116777333Y-115150001D01*
X117144000Y-115150001D02*
X117210667Y-115127144D01*
X117244000Y-115081430D01*
X117244000Y-115012858D01*
X117210667Y-114967144D01*
X117144000Y-114944287D01*
X116777333Y-114944287D01*
X117510667Y-114372858D02*
X116610667Y-114784287D01*
X117244000Y-114281430D02*
X117244000Y-114098573D01*
X116777333Y-114212858D02*
X117377333Y-114212858D01*
X117444000Y-114190001D01*
X117477333Y-114144287D01*
X117477333Y-114098573D01*
X116777333Y-113870001D02*
X116810667Y-113915715D01*
X116844000Y-113938572D01*
X116910667Y-113961429D01*
X117110667Y-113961429D01*
X117177333Y-113938572D01*
X117210667Y-113915715D01*
X117244000Y-113870001D01*
X117244000Y-113801429D01*
X117210667Y-113755715D01*
X117177333Y-113732858D01*
X117110667Y-113710001D01*
X116910667Y-113710001D01*
X116844000Y-113732858D01*
X116810667Y-113755715D01*
X116777333Y-113801429D01*
X116777333Y-113870001D01*
X116777333Y-113504286D02*
X117244000Y-113504286D01*
X117110667Y-113504286D02*
X117177333Y-113481429D01*
X117210667Y-113458572D01*
X117244000Y-113412858D01*
X117244000Y-113367143D01*
X117244000Y-113001429D02*
X116777333Y-113001429D01*
X117244000Y-113207143D02*
X116877333Y-113207143D01*
X116810667Y-113184286D01*
X116777333Y-113138572D01*
X116777333Y-113070000D01*
X116810667Y-113024286D01*
X116844000Y-113001429D01*
X116777333Y-112772857D02*
X117244000Y-112772857D01*
X117177333Y-112772857D02*
X117210667Y-112750000D01*
X117244000Y-112704286D01*
X117244000Y-112635714D01*
X117210667Y-112590000D01*
X117144000Y-112567143D01*
X116777333Y-112567143D01*
X117144000Y-112567143D02*
X117210667Y-112544286D01*
X117244000Y-112498572D01*
X117244000Y-112430000D01*
X117210667Y-112384286D01*
X117144000Y-112361429D01*
X116777333Y-112361429D01*
X117510667Y-111790000D02*
X116610667Y-112201429D01*
X117244000Y-111630000D02*
X116544000Y-111630000D01*
X117210667Y-111630000D02*
X117244000Y-111584286D01*
X117244000Y-111492857D01*
X117210667Y-111447143D01*
X117177333Y-111424286D01*
X117110667Y-111401429D01*
X116910667Y-111401429D01*
X116844000Y-111424286D01*
X116810667Y-111447143D01*
X116777333Y-111492857D01*
X116777333Y-111584286D01*
X116810667Y-111630000D01*
X116777333Y-111195714D02*
X117244000Y-111195714D01*
X117110667Y-111195714D02*
X117177333Y-111172857D01*
X117210667Y-111150000D01*
X117244000Y-111104286D01*
X117244000Y-111058571D01*
X116777333Y-110830000D02*
X116810667Y-110875714D01*
X116844000Y-110898571D01*
X116910667Y-110921428D01*
X117110667Y-110921428D01*
X117177333Y-110898571D01*
X117210667Y-110875714D01*
X117244000Y-110830000D01*
X117244000Y-110761428D01*
X117210667Y-110715714D01*
X117177333Y-110692857D01*
X117110667Y-110670000D01*
X116910667Y-110670000D01*
X116844000Y-110692857D01*
X116810667Y-110715714D01*
X116777333Y-110761428D01*
X116777333Y-110830000D01*
X117244000Y-110464285D02*
X116644000Y-110464285D01*
X116577333Y-110487142D01*
X116544000Y-110532857D01*
X116544000Y-110555714D01*
X117477333Y-110464285D02*
X117444000Y-110487142D01*
X117410667Y-110464285D01*
X117444000Y-110441428D01*
X117477333Y-110464285D01*
X117410667Y-110464285D01*
X116810667Y-110052857D02*
X116777333Y-110098571D01*
X116777333Y-110190000D01*
X116810667Y-110235714D01*
X116877333Y-110258571D01*
X117144000Y-110258571D01*
X117210667Y-110235714D01*
X117244000Y-110190000D01*
X117244000Y-110098571D01*
X117210667Y-110052857D01*
X117144000Y-110030000D01*
X117077333Y-110030000D01*
X117010667Y-110258571D01*
X116810667Y-109618571D02*
X116777333Y-109664285D01*
X116777333Y-109755714D01*
X116810667Y-109801428D01*
X116844000Y-109824285D01*
X116910667Y-109847142D01*
X117110667Y-109847142D01*
X117177333Y-109824285D01*
X117210667Y-109801428D01*
X117244000Y-109755714D01*
X117244000Y-109664285D01*
X117210667Y-109618571D01*
X117244000Y-109481428D02*
X117244000Y-109298571D01*
X117477333Y-109412856D02*
X116877333Y-109412856D01*
X116810667Y-109389999D01*
X116777333Y-109344285D01*
X116777333Y-109298571D01*
X116810667Y-109161427D02*
X116777333Y-109115713D01*
X116777333Y-109024285D01*
X116810667Y-108978570D01*
X116877333Y-108955713D01*
X116910667Y-108955713D01*
X116977333Y-108978570D01*
X117010667Y-109024285D01*
X117010667Y-109092856D01*
X117044000Y-109138570D01*
X117110667Y-109161427D01*
X117144000Y-109161427D01*
X117210667Y-109138570D01*
X117244000Y-109092856D01*
X117244000Y-109024285D01*
X117210667Y-108978570D01*
X117510667Y-108407142D02*
X116610667Y-108818571D01*
X117477333Y-108018571D02*
X117477333Y-108247142D01*
X117144000Y-108269999D01*
X117177333Y-108247142D01*
X117210667Y-108201428D01*
X117210667Y-108087142D01*
X117177333Y-108041428D01*
X117144000Y-108018571D01*
X117077333Y-107995714D01*
X116910667Y-107995714D01*
X116844000Y-108018571D01*
X116810667Y-108041428D01*
X116777333Y-108087142D01*
X116777333Y-108201428D01*
X116810667Y-108247142D01*
X116844000Y-108269999D01*
X117044000Y-107789999D02*
X117044000Y-107424285D01*
X117244000Y-107264285D02*
X117244000Y-107081428D01*
X117477333Y-107195713D02*
X116877333Y-107195713D01*
X116810667Y-107172856D01*
X116777333Y-107127142D01*
X116777333Y-107081428D01*
X116777333Y-106921427D02*
X117244000Y-106921427D01*
X117110667Y-106921427D02*
X117177333Y-106898570D01*
X117210667Y-106875713D01*
X117244000Y-106829999D01*
X117244000Y-106784284D01*
X116777333Y-106418570D02*
X117144000Y-106418570D01*
X117210667Y-106441427D01*
X117244000Y-106487141D01*
X117244000Y-106578570D01*
X117210667Y-106624284D01*
X116810667Y-106418570D02*
X116777333Y-106464284D01*
X116777333Y-106578570D01*
X116810667Y-106624284D01*
X116877333Y-106647141D01*
X116944000Y-106647141D01*
X117010667Y-106624284D01*
X117044000Y-106578570D01*
X117044000Y-106464284D01*
X117077333Y-106418570D01*
X117244000Y-106189998D02*
X116777333Y-106189998D01*
X117177333Y-106189998D02*
X117210667Y-106167141D01*
X117244000Y-106121427D01*
X117244000Y-106052855D01*
X117210667Y-106007141D01*
X117144000Y-105984284D01*
X116777333Y-105984284D01*
X116810667Y-105778569D02*
X116777333Y-105732855D01*
X116777333Y-105641427D01*
X116810667Y-105595712D01*
X116877333Y-105572855D01*
X116910667Y-105572855D01*
X116977333Y-105595712D01*
X117010667Y-105641427D01*
X117010667Y-105709998D01*
X117044000Y-105755712D01*
X117110667Y-105778569D01*
X117144000Y-105778569D01*
X117210667Y-105755712D01*
X117244000Y-105709998D01*
X117244000Y-105641427D01*
X117210667Y-105595712D01*
X116777333Y-105367141D02*
X117244000Y-105367141D01*
X117477333Y-105367141D02*
X117444000Y-105389998D01*
X117410667Y-105367141D01*
X117444000Y-105344284D01*
X117477333Y-105367141D01*
X117410667Y-105367141D01*
X116810667Y-105161427D02*
X116777333Y-105115713D01*
X116777333Y-105024285D01*
X116810667Y-104978570D01*
X116877333Y-104955713D01*
X116910667Y-104955713D01*
X116977333Y-104978570D01*
X117010667Y-105024285D01*
X117010667Y-105092856D01*
X117044000Y-105138570D01*
X117110667Y-105161427D01*
X117144000Y-105161427D01*
X117210667Y-105138570D01*
X117244000Y-105092856D01*
X117244000Y-105024285D01*
X117210667Y-104978570D01*
X117244000Y-104818571D02*
X117244000Y-104635714D01*
X117477333Y-104749999D02*
X116877333Y-104749999D01*
X116810667Y-104727142D01*
X116777333Y-104681428D01*
X116777333Y-104635714D01*
X116777333Y-104407142D02*
X116810667Y-104452856D01*
X116844000Y-104475713D01*
X116910667Y-104498570D01*
X117110667Y-104498570D01*
X117177333Y-104475713D01*
X117210667Y-104452856D01*
X117244000Y-104407142D01*
X117244000Y-104338570D01*
X117210667Y-104292856D01*
X117177333Y-104269999D01*
X117110667Y-104247142D01*
X116910667Y-104247142D01*
X116844000Y-104269999D01*
X116810667Y-104292856D01*
X116777333Y-104338570D01*
X116777333Y-104407142D01*
X116777333Y-104041427D02*
X117244000Y-104041427D01*
X117110667Y-104041427D02*
X117177333Y-104018570D01*
X117210667Y-103995713D01*
X117244000Y-103949999D01*
X117244000Y-103904284D01*
X117044000Y-103744284D02*
X117044000Y-103378570D01*
X116810667Y-102967141D02*
X116777333Y-103012855D01*
X116777333Y-103104284D01*
X116810667Y-103149998D01*
X116877333Y-103172855D01*
X117144000Y-103172855D01*
X117210667Y-103149998D01*
X117244000Y-103104284D01*
X117244000Y-103012855D01*
X117210667Y-102967141D01*
X117144000Y-102944284D01*
X117077333Y-102944284D01*
X117010667Y-103172855D01*
X116810667Y-102761426D02*
X116777333Y-102715712D01*
X116777333Y-102624284D01*
X116810667Y-102578569D01*
X116877333Y-102555712D01*
X116910667Y-102555712D01*
X116977333Y-102578569D01*
X117010667Y-102624284D01*
X117010667Y-102692855D01*
X117044000Y-102738569D01*
X117110667Y-102761426D01*
X117144000Y-102761426D01*
X117210667Y-102738569D01*
X117244000Y-102692855D01*
X117244000Y-102624284D01*
X117210667Y-102578569D01*
X116777333Y-102349998D02*
X117244000Y-102349998D01*
X117110667Y-102349998D02*
X117177333Y-102327141D01*
X117210667Y-102304284D01*
X117244000Y-102258570D01*
X117244000Y-102212855D01*
X117044000Y-102052855D02*
X117044000Y-101687141D01*
X116777333Y-101458569D02*
X117244000Y-101458569D01*
X117177333Y-101458569D02*
X117210667Y-101435712D01*
X117244000Y-101389998D01*
X117244000Y-101321426D01*
X117210667Y-101275712D01*
X117144000Y-101252855D01*
X116777333Y-101252855D01*
X117144000Y-101252855D02*
X117210667Y-101229998D01*
X117244000Y-101184284D01*
X117244000Y-101115712D01*
X117210667Y-101069998D01*
X117144000Y-101047141D01*
X116777333Y-101047141D01*
X116810667Y-100635712D02*
X116777333Y-100681426D01*
X116777333Y-100772855D01*
X116810667Y-100818569D01*
X116877333Y-100841426D01*
X117144000Y-100841426D01*
X117210667Y-100818569D01*
X117244000Y-100772855D01*
X117244000Y-100681426D01*
X117210667Y-100635712D01*
X117144000Y-100612855D01*
X117077333Y-100612855D01*
X117010667Y-100841426D01*
X117244000Y-100475712D02*
X117244000Y-100292855D01*
X117477333Y-100407140D02*
X116877333Y-100407140D01*
X116810667Y-100384283D01*
X116777333Y-100338569D01*
X116777333Y-100292855D01*
X116810667Y-99949997D02*
X116777333Y-99995711D01*
X116777333Y-100087140D01*
X116810667Y-100132854D01*
X116877333Y-100155711D01*
X117144000Y-100155711D01*
X117210667Y-100132854D01*
X117244000Y-100087140D01*
X117244000Y-99995711D01*
X117210667Y-99949997D01*
X117144000Y-99927140D01*
X117077333Y-99927140D01*
X117010667Y-100155711D01*
X116777333Y-99721425D02*
X117244000Y-99721425D01*
X117110667Y-99721425D02*
X117177333Y-99698568D01*
X117210667Y-99675711D01*
X117244000Y-99629997D01*
X117244000Y-99584282D01*
X117044000Y-99424282D02*
X117044000Y-99058568D01*
X116777333Y-98624282D02*
X117477333Y-98624282D01*
X116810667Y-98624282D02*
X116777333Y-98669996D01*
X116777333Y-98761425D01*
X116810667Y-98807139D01*
X116844000Y-98829996D01*
X116910667Y-98852853D01*
X117110667Y-98852853D01*
X117177333Y-98829996D01*
X117210667Y-98807139D01*
X117244000Y-98761425D01*
X117244000Y-98669996D01*
X117210667Y-98624282D01*
X116810667Y-98212853D02*
X116777333Y-98258567D01*
X116777333Y-98349996D01*
X116810667Y-98395710D01*
X116877333Y-98418567D01*
X117144000Y-98418567D01*
X117210667Y-98395710D01*
X117244000Y-98349996D01*
X117244000Y-98258567D01*
X117210667Y-98212853D01*
X117144000Y-98189996D01*
X117077333Y-98189996D01*
X117010667Y-98418567D01*
X116810667Y-98007138D02*
X116777333Y-97961424D01*
X116777333Y-97869996D01*
X116810667Y-97824281D01*
X116877333Y-97801424D01*
X116910667Y-97801424D01*
X116977333Y-97824281D01*
X117010667Y-97869996D01*
X117010667Y-97938567D01*
X117044000Y-97984281D01*
X117110667Y-98007138D01*
X117144000Y-98007138D01*
X117210667Y-97984281D01*
X117244000Y-97938567D01*
X117244000Y-97869996D01*
X117210667Y-97824281D01*
X116777333Y-97595710D02*
X117244000Y-97595710D01*
X117477333Y-97595710D02*
X117444000Y-97618567D01*
X117410667Y-97595710D01*
X117444000Y-97572853D01*
X117477333Y-97595710D01*
X117410667Y-97595710D01*
X117244000Y-97161425D02*
X116677333Y-97161425D01*
X116610667Y-97184282D01*
X116577333Y-97207139D01*
X116544000Y-97252854D01*
X116544000Y-97321425D01*
X116577333Y-97367139D01*
X116810667Y-97161425D02*
X116777333Y-97207139D01*
X116777333Y-97298568D01*
X116810667Y-97344282D01*
X116844000Y-97367139D01*
X116910667Y-97389996D01*
X117110667Y-97389996D01*
X117177333Y-97367139D01*
X117210667Y-97344282D01*
X117244000Y-97298568D01*
X117244000Y-97207139D01*
X117210667Y-97161425D01*
X117244000Y-96932853D02*
X116777333Y-96932853D01*
X117177333Y-96932853D02*
X117210667Y-96909996D01*
X117244000Y-96864282D01*
X117244000Y-96795710D01*
X117210667Y-96749996D01*
X117144000Y-96727139D01*
X116777333Y-96727139D01*
D11*
X143517143Y-103829286D02*
X143545714Y-103857857D01*
X143631428Y-103886429D01*
X143688571Y-103886429D01*
X143774286Y-103857857D01*
X143831428Y-103800714D01*
X143860000Y-103743571D01*
X143888571Y-103629286D01*
X143888571Y-103543571D01*
X143860000Y-103429286D01*
X143831428Y-103372143D01*
X143774286Y-103315000D01*
X143688571Y-103286429D01*
X143631428Y-103286429D01*
X143545714Y-103315000D01*
X143517143Y-103343571D01*
X143260000Y-103886429D02*
X143260000Y-103486429D01*
X143260000Y-103286429D02*
X143288571Y-103315000D01*
X143260000Y-103343571D01*
X143231428Y-103315000D01*
X143260000Y-103286429D01*
X143260000Y-103343571D01*
X142974286Y-103886429D02*
X142974286Y-103486429D01*
X142974286Y-103600714D02*
X142945714Y-103543571D01*
X142917143Y-103515000D01*
X142860000Y-103486429D01*
X142802857Y-103486429D01*
X142345714Y-103857857D02*
X142402857Y-103886429D01*
X142517143Y-103886429D01*
X142574285Y-103857857D01*
X142602857Y-103829286D01*
X142631428Y-103772143D01*
X142631428Y-103600714D01*
X142602857Y-103543571D01*
X142574285Y-103515000D01*
X142517143Y-103486429D01*
X142402857Y-103486429D01*
X142345714Y-103515000D01*
X141831428Y-103486429D02*
X141831428Y-103886429D01*
X142088571Y-103486429D02*
X142088571Y-103800714D01*
X142059999Y-103857857D01*
X142002857Y-103886429D01*
X141917142Y-103886429D01*
X141859999Y-103857857D01*
X141831428Y-103829286D01*
X141545714Y-103886429D02*
X141545714Y-103486429D01*
X141545714Y-103286429D02*
X141574285Y-103315000D01*
X141545714Y-103343571D01*
X141517142Y-103315000D01*
X141545714Y-103286429D01*
X141545714Y-103343571D01*
X141345714Y-103486429D02*
X141117143Y-103486429D01*
X141260000Y-103286429D02*
X141260000Y-103800714D01*
X141231428Y-103857857D01*
X141174286Y-103886429D01*
X141117143Y-103886429D01*
X140460000Y-103886429D02*
X140460000Y-103286429D01*
X140317143Y-103286429D01*
X140231428Y-103315000D01*
X140174286Y-103372143D01*
X140145714Y-103429286D01*
X140117143Y-103543571D01*
X140117143Y-103629286D01*
X140145714Y-103743571D01*
X140174286Y-103800714D01*
X140231428Y-103857857D01*
X140317143Y-103886429D01*
X140460000Y-103886429D01*
X139631428Y-103857857D02*
X139688571Y-103886429D01*
X139802857Y-103886429D01*
X139860000Y-103857857D01*
X139888571Y-103800714D01*
X139888571Y-103572143D01*
X139860000Y-103515000D01*
X139802857Y-103486429D01*
X139688571Y-103486429D01*
X139631428Y-103515000D01*
X139602857Y-103572143D01*
X139602857Y-103629286D01*
X139888571Y-103686429D01*
X139374285Y-103857857D02*
X139317142Y-103886429D01*
X139202857Y-103886429D01*
X139145714Y-103857857D01*
X139117142Y-103800714D01*
X139117142Y-103772143D01*
X139145714Y-103715000D01*
X139202857Y-103686429D01*
X139288571Y-103686429D01*
X139345714Y-103657857D01*
X139374285Y-103600714D01*
X139374285Y-103572143D01*
X139345714Y-103515000D01*
X139288571Y-103486429D01*
X139202857Y-103486429D01*
X139145714Y-103515000D01*
X138860000Y-103886429D02*
X138860000Y-103486429D01*
X138860000Y-103286429D02*
X138888571Y-103315000D01*
X138860000Y-103343571D01*
X138831428Y-103315000D01*
X138860000Y-103286429D01*
X138860000Y-103343571D01*
X138317143Y-103486429D02*
X138317143Y-103972143D01*
X138345714Y-104029286D01*
X138374286Y-104057857D01*
X138431429Y-104086429D01*
X138517143Y-104086429D01*
X138574286Y-104057857D01*
X138317143Y-103857857D02*
X138374286Y-103886429D01*
X138488572Y-103886429D01*
X138545714Y-103857857D01*
X138574286Y-103829286D01*
X138602857Y-103772143D01*
X138602857Y-103600714D01*
X138574286Y-103543571D01*
X138545714Y-103515000D01*
X138488572Y-103486429D01*
X138374286Y-103486429D01*
X138317143Y-103515000D01*
X138031429Y-103486429D02*
X138031429Y-103886429D01*
X138031429Y-103543571D02*
X138002857Y-103515000D01*
X137945715Y-103486429D01*
X137860000Y-103486429D01*
X137802857Y-103515000D01*
X137774286Y-103572143D01*
X137774286Y-103886429D01*
X137031429Y-103886429D02*
X137031429Y-103286429D01*
X137031429Y-103515000D02*
X136974286Y-103486429D01*
X136860000Y-103486429D01*
X136802857Y-103515000D01*
X136774286Y-103543571D01*
X136745715Y-103600714D01*
X136745715Y-103772143D01*
X136774286Y-103829286D01*
X136802857Y-103857857D01*
X136860000Y-103886429D01*
X136974286Y-103886429D01*
X137031429Y-103857857D01*
X136545715Y-103486429D02*
X136402858Y-103886429D01*
X136260000Y-103486429D02*
X136402858Y-103886429D01*
X136460000Y-104029286D01*
X136488572Y-104057857D01*
X136545715Y-104086429D01*
X135402857Y-103286429D02*
X135402857Y-103715000D01*
X135431429Y-103800714D01*
X135488572Y-103857857D01*
X135574286Y-103886429D01*
X135631429Y-103886429D01*
X134860000Y-103886429D02*
X134860000Y-103572143D01*
X134888571Y-103515000D01*
X134945714Y-103486429D01*
X135060000Y-103486429D01*
X135117143Y-103515000D01*
X134860000Y-103857857D02*
X134917143Y-103886429D01*
X135060000Y-103886429D01*
X135117143Y-103857857D01*
X135145714Y-103800714D01*
X135145714Y-103743571D01*
X135117143Y-103686429D01*
X135060000Y-103657857D01*
X134917143Y-103657857D01*
X134860000Y-103629286D01*
X134631429Y-103486429D02*
X134488572Y-103886429D01*
X134345714Y-103486429D02*
X134488572Y-103886429D01*
X134545714Y-104029286D01*
X134574286Y-104057857D01*
X134631429Y-104086429D01*
X133660000Y-103886429D02*
X133660000Y-103286429D01*
X133517143Y-103286429D01*
X133431428Y-103315000D01*
X133374286Y-103372143D01*
X133345714Y-103429286D01*
X133317143Y-103543571D01*
X133317143Y-103629286D01*
X133345714Y-103743571D01*
X133374286Y-103800714D01*
X133431428Y-103857857D01*
X133517143Y-103886429D01*
X133660000Y-103886429D01*
X133060000Y-103886429D02*
X133060000Y-103486429D01*
X133060000Y-103286429D02*
X133088571Y-103315000D01*
X133060000Y-103343571D01*
X133031428Y-103315000D01*
X133060000Y-103286429D01*
X133060000Y-103343571D01*
X132517143Y-103886429D02*
X132517143Y-103286429D01*
X132517143Y-103857857D02*
X132574286Y-103886429D01*
X132688572Y-103886429D01*
X132745714Y-103857857D01*
X132774286Y-103829286D01*
X132802857Y-103772143D01*
X132802857Y-103600714D01*
X132774286Y-103543571D01*
X132745714Y-103515000D01*
X132688572Y-103486429D01*
X132574286Y-103486429D01*
X132517143Y-103515000D01*
X131974286Y-103886429D02*
X131974286Y-103286429D01*
X131974286Y-103857857D02*
X132031429Y-103886429D01*
X132145715Y-103886429D01*
X132202857Y-103857857D01*
X132231429Y-103829286D01*
X132260000Y-103772143D01*
X132260000Y-103600714D01*
X132231429Y-103543571D01*
X132202857Y-103515000D01*
X132145715Y-103486429D01*
X132031429Y-103486429D01*
X131974286Y-103515000D01*
X131745715Y-103486429D02*
X131602858Y-103886429D01*
X131460000Y-103486429D02*
X131602858Y-103886429D01*
X131660000Y-104029286D01*
X131688572Y-104057857D01*
X131745715Y-104086429D01*
X130574286Y-103572143D02*
X130488572Y-103600714D01*
X130460000Y-103629286D01*
X130431429Y-103686429D01*
X130431429Y-103772143D01*
X130460000Y-103829286D01*
X130488572Y-103857857D01*
X130545714Y-103886429D01*
X130774286Y-103886429D01*
X130774286Y-103286429D01*
X130574286Y-103286429D01*
X130517143Y-103315000D01*
X130488572Y-103343571D01*
X130460000Y-103400714D01*
X130460000Y-103457857D01*
X130488572Y-103515000D01*
X130517143Y-103543571D01*
X130574286Y-103572143D01*
X130774286Y-103572143D01*
X144117142Y-104622143D02*
X144031428Y-104650714D01*
X144002856Y-104679286D01*
X143974285Y-104736429D01*
X143974285Y-104822143D01*
X144002856Y-104879286D01*
X144031428Y-104907857D01*
X144088570Y-104936429D01*
X144317142Y-104936429D01*
X144317142Y-104336429D01*
X144117142Y-104336429D01*
X144059999Y-104365000D01*
X144031428Y-104393571D01*
X144002856Y-104450714D01*
X144002856Y-104507857D01*
X144031428Y-104565000D01*
X144059999Y-104593571D01*
X144117142Y-104622143D01*
X144317142Y-104622143D01*
X143631428Y-104936429D02*
X143688570Y-104907857D01*
X143717142Y-104879286D01*
X143745713Y-104822143D01*
X143745713Y-104650714D01*
X143717142Y-104593571D01*
X143688570Y-104565000D01*
X143631428Y-104536429D01*
X143545713Y-104536429D01*
X143488570Y-104565000D01*
X143459999Y-104593571D01*
X143431428Y-104650714D01*
X143431428Y-104822143D01*
X143459999Y-104879286D01*
X143488570Y-104907857D01*
X143545713Y-104936429D01*
X143631428Y-104936429D01*
X142917142Y-104936429D02*
X142917142Y-104622143D01*
X142945713Y-104565000D01*
X143002856Y-104536429D01*
X143117142Y-104536429D01*
X143174285Y-104565000D01*
X142917142Y-104907857D02*
X142974285Y-104936429D01*
X143117142Y-104936429D01*
X143174285Y-104907857D01*
X143202856Y-104850714D01*
X143202856Y-104793571D01*
X143174285Y-104736429D01*
X143117142Y-104707857D01*
X142974285Y-104707857D01*
X142917142Y-104679286D01*
X142631428Y-104936429D02*
X142631428Y-104536429D01*
X142631428Y-104650714D02*
X142602856Y-104593571D01*
X142574285Y-104565000D01*
X142517142Y-104536429D01*
X142459999Y-104536429D01*
X142002856Y-104936429D02*
X142002856Y-104336429D01*
X142002856Y-104907857D02*
X142059999Y-104936429D01*
X142174285Y-104936429D01*
X142231427Y-104907857D01*
X142259999Y-104879286D01*
X142288570Y-104822143D01*
X142288570Y-104650714D01*
X142259999Y-104593571D01*
X142231427Y-104565000D01*
X142174285Y-104536429D01*
X142059999Y-104536429D01*
X142002856Y-104565000D01*
X140974285Y-104936429D02*
X141259999Y-104936429D01*
X141259999Y-104336429D01*
X140517142Y-104936429D02*
X140517142Y-104622143D01*
X140545713Y-104565000D01*
X140602856Y-104536429D01*
X140717142Y-104536429D01*
X140774285Y-104565000D01*
X140517142Y-104907857D02*
X140574285Y-104936429D01*
X140717142Y-104936429D01*
X140774285Y-104907857D01*
X140802856Y-104850714D01*
X140802856Y-104793571D01*
X140774285Y-104736429D01*
X140717142Y-104707857D01*
X140574285Y-104707857D01*
X140517142Y-104679286D01*
X140288571Y-104536429D02*
X140145714Y-104936429D01*
X140002856Y-104536429D02*
X140145714Y-104936429D01*
X140202856Y-105079286D01*
X140231428Y-105107857D01*
X140288571Y-105136429D01*
X139688571Y-104936429D02*
X139745713Y-104907857D01*
X139774285Y-104879286D01*
X139802856Y-104822143D01*
X139802856Y-104650714D01*
X139774285Y-104593571D01*
X139745713Y-104565000D01*
X139688571Y-104536429D01*
X139602856Y-104536429D01*
X139545713Y-104565000D01*
X139517142Y-104593571D01*
X139488571Y-104650714D01*
X139488571Y-104822143D01*
X139517142Y-104879286D01*
X139545713Y-104907857D01*
X139602856Y-104936429D01*
X139688571Y-104936429D01*
X138974285Y-104536429D02*
X138974285Y-104936429D01*
X139231428Y-104536429D02*
X139231428Y-104850714D01*
X139202856Y-104907857D01*
X139145714Y-104936429D01*
X139059999Y-104936429D01*
X139002856Y-104907857D01*
X138974285Y-104879286D01*
X138774285Y-104536429D02*
X138545714Y-104536429D01*
X138688571Y-104336429D02*
X138688571Y-104850714D01*
X138659999Y-104907857D01*
X138602857Y-104936429D01*
X138545714Y-104936429D01*
X137888571Y-104936429D02*
X137888571Y-104336429D01*
X137888571Y-104565000D02*
X137831428Y-104536429D01*
X137717142Y-104536429D01*
X137659999Y-104565000D01*
X137631428Y-104593571D01*
X137602857Y-104650714D01*
X137602857Y-104822143D01*
X137631428Y-104879286D01*
X137659999Y-104907857D01*
X137717142Y-104936429D01*
X137831428Y-104936429D01*
X137888571Y-104907857D01*
X137402857Y-104536429D02*
X137260000Y-104936429D01*
X137117142Y-104536429D02*
X137260000Y-104936429D01*
X137317142Y-105079286D01*
X137345714Y-105107857D01*
X137402857Y-105136429D01*
X136431428Y-104622143D02*
X136231428Y-104622143D01*
X136145714Y-104936429D02*
X136431428Y-104936429D01*
X136431428Y-104336429D01*
X136145714Y-104336429D01*
X135888571Y-104536429D02*
X135888571Y-104936429D01*
X135888571Y-104593571D02*
X135859999Y-104565000D01*
X135802857Y-104536429D01*
X135717142Y-104536429D01*
X135659999Y-104565000D01*
X135631428Y-104622143D01*
X135631428Y-104936429D01*
X135431428Y-104536429D02*
X135202857Y-104536429D01*
X135345714Y-104336429D02*
X135345714Y-104850714D01*
X135317142Y-104907857D01*
X135260000Y-104936429D01*
X135202857Y-104936429D01*
X135002857Y-104936429D02*
X135002857Y-104536429D01*
X135002857Y-104650714D02*
X134974285Y-104593571D01*
X134945714Y-104565000D01*
X134888571Y-104536429D01*
X134831428Y-104536429D01*
X134545714Y-104936429D02*
X134602856Y-104907857D01*
X134631428Y-104879286D01*
X134659999Y-104822143D01*
X134659999Y-104650714D01*
X134631428Y-104593571D01*
X134602856Y-104565000D01*
X134545714Y-104536429D01*
X134459999Y-104536429D01*
X134402856Y-104565000D01*
X134374285Y-104593571D01*
X134345714Y-104650714D01*
X134345714Y-104822143D01*
X134374285Y-104879286D01*
X134402856Y-104907857D01*
X134459999Y-104936429D01*
X134545714Y-104936429D01*
X134088571Y-104536429D02*
X134088571Y-105136429D01*
X134088571Y-104565000D02*
X134031428Y-104536429D01*
X133917142Y-104536429D01*
X133859999Y-104565000D01*
X133831428Y-104593571D01*
X133802857Y-104650714D01*
X133802857Y-104822143D01*
X133831428Y-104879286D01*
X133859999Y-104907857D01*
X133917142Y-104936429D01*
X134031428Y-104936429D01*
X134088571Y-104907857D01*
X133602857Y-104536429D02*
X133460000Y-104936429D01*
X133317142Y-104536429D02*
X133460000Y-104936429D01*
X133517142Y-105079286D01*
X133545714Y-105107857D01*
X133602857Y-105136429D01*
X132688571Y-104336429D02*
X132545714Y-104936429D01*
X132431428Y-104507857D01*
X132317142Y-104936429D01*
X132174285Y-104336429D01*
X131945714Y-104936429D02*
X131945714Y-104536429D01*
X131945714Y-104336429D02*
X131974285Y-104365000D01*
X131945714Y-104393571D01*
X131917142Y-104365000D01*
X131945714Y-104336429D01*
X131945714Y-104393571D01*
X131717143Y-104536429D02*
X131402857Y-104536429D01*
X131717143Y-104936429D01*
X131402857Y-104936429D01*
X130917143Y-104936429D02*
X130917143Y-104622143D01*
X130945714Y-104565000D01*
X131002857Y-104536429D01*
X131117143Y-104536429D01*
X131174286Y-104565000D01*
X130917143Y-104907857D02*
X130974286Y-104936429D01*
X131117143Y-104936429D01*
X131174286Y-104907857D01*
X131202857Y-104850714D01*
X131202857Y-104793571D01*
X131174286Y-104736429D01*
X131117143Y-104707857D01*
X130974286Y-104707857D01*
X130917143Y-104679286D01*
X130631429Y-104936429D02*
X130631429Y-104536429D01*
X130631429Y-104650714D02*
X130602857Y-104593571D01*
X130574286Y-104565000D01*
X130517143Y-104536429D01*
X130460000Y-104536429D01*
X130002857Y-104936429D02*
X130002857Y-104336429D01*
X130002857Y-104907857D02*
X130060000Y-104936429D01*
X130174286Y-104936429D01*
X130231428Y-104907857D01*
X130260000Y-104879286D01*
X130288571Y-104822143D01*
X130288571Y-104650714D01*
X130260000Y-104593571D01*
X130231428Y-104565000D01*
X130174286Y-104536429D01*
X130060000Y-104536429D01*
X130002857Y-104565000D01*
D10*
X136525000Y-94615000D02*
X136525000Y-93345000D01*
X136525000Y-93345000D02*
X135890000Y-92710000D01*
X135890000Y-95250000D02*
X136525000Y-94615000D01*
X132080000Y-95250000D02*
X135890000Y-95250000D01*
X135890000Y-92710000D02*
X132080000Y-92710000D01*
X131445000Y-94615000D02*
X132080000Y-95250000D01*
X132080000Y-92710000D02*
X131445000Y-93345000D01*
X131445000Y-93345000D02*
X131445000Y-94615000D01*
X160655000Y-102235000D02*
X161925000Y-102235000D01*
X161925000Y-102235000D02*
X162560000Y-101600000D01*
X160020000Y-101600000D02*
X160655000Y-102235000D01*
X160020000Y-97790000D02*
X160020000Y-101600000D01*
X162560000Y-101600000D02*
X162560000Y-97790000D01*
X160655000Y-97155000D02*
X160020000Y-97790000D01*
X162560000Y-97790000D02*
X161925000Y-97155000D01*
X161925000Y-97155000D02*
X160655000Y-97155000D01*
X131445000Y-121285000D02*
X131445000Y-122555000D01*
X131445000Y-122555000D02*
X132080000Y-123190000D01*
X132080000Y-120650000D02*
X131445000Y-121285000D01*
X135890000Y-120650000D02*
X132080000Y-120650000D01*
X132080000Y-123190000D02*
X135890000Y-123190000D01*
X136525000Y-121285000D02*
X135890000Y-120650000D01*
X135890000Y-123190000D02*
X136525000Y-122555000D01*
X136525000Y-122555000D02*
X136525000Y-121285000D01*
%LPC*%
D13*
X147320000Y-110490000D03*
X147320000Y-109220000D03*
D14*
X147320000Y-111760000D03*
D13*
X147320000Y-105410000D03*
X147320000Y-106680000D03*
D14*
X147320000Y-104140000D03*
D13*
X132080000Y-107950000D03*
X132080000Y-106680000D03*
D14*
X132080000Y-109220000D03*
D13*
X127000000Y-107950000D03*
X127000000Y-109220000D03*
D14*
X127000000Y-106680000D03*
D13*
X121920000Y-107950000D03*
X121920000Y-109220000D03*
D14*
X121920000Y-106680000D03*
D15*
X161290000Y-114935000D03*
D16*
X161290000Y-117475000D03*
D17*
X117700000Y-121950000D03*
X117700000Y-93950000D03*
X161700000Y-93950000D03*
X161700000Y-121950000D03*
D18*
X140970000Y-121920000D03*
X139700000Y-120650000D03*
D19*
X142240000Y-120650000D03*
D20*
X156210000Y-111760000D03*
D21*
X156210000Y-119380000D03*
D20*
X119380000Y-97790000D03*
D21*
X119380000Y-105410000D03*
D20*
X119380000Y-110490000D03*
D21*
X119380000Y-118110000D03*
D20*
X121920000Y-119380000D03*
D21*
X121920000Y-111760000D03*
D20*
X121920000Y-101600000D03*
D21*
X121920000Y-93980000D03*
D20*
X132080000Y-111760000D03*
D22*
X124460000Y-111760000D03*
D20*
X124460000Y-101600000D03*
D22*
X132080000Y-101600000D03*
D20*
X135890000Y-106680000D03*
D21*
X135890000Y-99060000D03*
D20*
X132080000Y-99060000D03*
D22*
X124460000Y-99060000D03*
D20*
X135890000Y-109220000D03*
D21*
X135890000Y-116840000D03*
D20*
X132080000Y-114300000D03*
D22*
X124460000Y-114300000D03*
D20*
X140970000Y-106680000D03*
D21*
X140970000Y-99060000D03*
D20*
X143510000Y-99060000D03*
D21*
X143510000Y-106680000D03*
D20*
X146050000Y-101600000D03*
D21*
X146050000Y-93980000D03*
D20*
X149860000Y-93980000D03*
D22*
X157480000Y-93980000D03*
D20*
X153670000Y-96520000D03*
D21*
X153670000Y-104140000D03*
D20*
X153670000Y-119380000D03*
D21*
X153670000Y-111760000D03*
D20*
X146050000Y-114300000D03*
D21*
X146050000Y-121920000D03*
D20*
X149860000Y-121920000D03*
D22*
X157480000Y-121920000D03*
D20*
X143510000Y-116840000D03*
D21*
X143510000Y-109220000D03*
D20*
X140970000Y-109220000D03*
D21*
X140970000Y-116840000D03*
D20*
X156210000Y-96520000D03*
D21*
X156210000Y-104140000D03*
D20*
X129540000Y-119380000D03*
X124460000Y-119380000D03*
X121920000Y-104140000D03*
X127000000Y-104140000D03*
X138430000Y-101600000D03*
X138430000Y-106680000D03*
X151130000Y-104140000D03*
X151130000Y-99060000D03*
X156210000Y-106680000D03*
X151130000Y-106680000D03*
X151130000Y-111760000D03*
X151130000Y-116840000D03*
X156210000Y-109220000D03*
X151130000Y-109220000D03*
X138430000Y-109220000D03*
X138430000Y-114300000D03*
X132080000Y-116840000D03*
X127000000Y-116840000D03*
D23*
X161290000Y-104140000D03*
D24*
X161290000Y-111760000D03*
D23*
X158750000Y-111760000D03*
D24*
X158750000Y-104140000D03*
D20*
X148590000Y-101600000D03*
X148590000Y-96520000D03*
X148590000Y-114300000D03*
X148590000Y-119380000D03*
D25*
X135255000Y-93980000D03*
X132715000Y-93980000D03*
X161290000Y-100965000D03*
X161290000Y-98425000D03*
X132715000Y-121920000D03*
X135255000Y-121920000D03*
D26*
X143510000Y-96520000D03*
D27*
X135890000Y-96520000D03*
D26*
X132080000Y-96520000D03*
D27*
X124460000Y-96520000D03*
M02*
