G04 #@! TF.FileFunction,Copper,L2,Bot,Signal*
%FSLAX46Y46*%
G04 Gerber Fmt 4.6, Leading zero omitted, Abs format (unit mm)*
G04 Created by KiCad (PCBNEW 4.0.6) date Wed Dec 13 01:07:51 2017*
%MOMM*%
%LPD*%
G01*
G04 APERTURE LIST*
%ADD10C,0.100000*%
%ADD11C,0.200000*%
%ADD12C,0.125000*%
%ADD13O,1.500000X0.900000*%
%ADD14R,1.500000X0.900000*%
%ADD15R,1.400000X1.400000*%
%ADD16C,1.400000*%
%ADD17C,3.800000*%
%ADD18C,1.000000*%
%ADD19R,1.000000X1.000000*%
%ADD20C,1.500000*%
%ADD21O,1.600000X1.500000*%
%ADD22O,1.500000X1.600000*%
%ADD23R,1.500000X1.500000*%
%ADD24O,1.500000X1.500000*%
%ADD25C,1.700000*%
%ADD26R,1.800000X1.800000*%
%ADD27C,1.800000*%
%ADD28C,0.149900*%
G04 APERTURE END LIST*
D10*
D11*
X153727143Y-108735714D02*
X153727143Y-108402380D01*
X153308095Y-108259523D02*
X153308095Y-108735714D01*
X154108095Y-108735714D01*
X154108095Y-108259523D01*
X154108095Y-107926190D02*
X153308095Y-107688095D01*
X153879524Y-107497618D01*
X153308095Y-107307142D01*
X154108095Y-107069047D01*
D12*
X128416667Y-100747617D02*
X128450000Y-100795237D01*
X128450000Y-100890475D01*
X128416667Y-100938094D01*
X128350000Y-100985713D01*
X128283333Y-101009522D01*
X128150000Y-101009522D01*
X128083333Y-100985713D01*
X128016667Y-100938094D01*
X127983333Y-100890475D01*
X127983333Y-100795237D01*
X128016667Y-100747617D01*
X128683333Y-100842856D02*
X128650000Y-100961903D01*
X128550000Y-101080951D01*
X128383333Y-101152379D01*
X128216667Y-101176189D01*
X128050000Y-101152379D01*
X127883333Y-101080951D01*
X127783333Y-100961903D01*
X127750000Y-100842856D01*
X127783333Y-100723808D01*
X127883333Y-100604760D01*
X128050000Y-100533332D01*
X128216667Y-100509522D01*
X128383333Y-100533332D01*
X128550000Y-100604760D01*
X128650000Y-100723808D01*
X128683333Y-100842856D01*
X128516667Y-100319046D02*
X128550000Y-100295236D01*
X128583333Y-100247617D01*
X128583333Y-100128570D01*
X128550000Y-100080951D01*
X128516667Y-100057141D01*
X128450000Y-100033332D01*
X128383333Y-100033332D01*
X128283333Y-100057141D01*
X127883333Y-100342855D01*
X127883333Y-100033332D01*
X128583333Y-99723808D02*
X128583333Y-99676189D01*
X128550000Y-99628570D01*
X128516667Y-99604761D01*
X128450000Y-99580951D01*
X128316667Y-99557142D01*
X128150000Y-99557142D01*
X128016667Y-99580951D01*
X127950000Y-99604761D01*
X127916667Y-99628570D01*
X127883333Y-99676189D01*
X127883333Y-99723808D01*
X127916667Y-99771427D01*
X127950000Y-99795237D01*
X128016667Y-99819046D01*
X128150000Y-99842856D01*
X128316667Y-99842856D01*
X128450000Y-99819046D01*
X128516667Y-99795237D01*
X128550000Y-99771427D01*
X128583333Y-99723808D01*
X127883333Y-99080952D02*
X127883333Y-99366666D01*
X127883333Y-99223809D02*
X128583333Y-99223809D01*
X128483333Y-99271428D01*
X128416667Y-99319047D01*
X128383333Y-99366666D01*
X128583333Y-98914285D02*
X128583333Y-98580952D01*
X127883333Y-98795238D01*
X128550000Y-97747620D02*
X128583333Y-97795239D01*
X128583333Y-97866667D01*
X128550000Y-97938096D01*
X128483333Y-97985715D01*
X128416667Y-98009524D01*
X128283333Y-98033334D01*
X128183333Y-98033334D01*
X128050000Y-98009524D01*
X127983333Y-97985715D01*
X127916667Y-97938096D01*
X127883333Y-97866667D01*
X127883333Y-97819048D01*
X127916667Y-97747620D01*
X127950000Y-97723810D01*
X128183333Y-97723810D01*
X128183333Y-97819048D01*
X127883333Y-97509524D02*
X128350000Y-97509524D01*
X128216667Y-97509524D02*
X128283333Y-97485715D01*
X128316667Y-97461905D01*
X128350000Y-97414286D01*
X128350000Y-97366667D01*
X127916667Y-97009524D02*
X127883333Y-97057143D01*
X127883333Y-97152381D01*
X127916667Y-97200000D01*
X127983333Y-97223810D01*
X128250000Y-97223810D01*
X128316667Y-97200000D01*
X128350000Y-97152381D01*
X128350000Y-97057143D01*
X128316667Y-97009524D01*
X128250000Y-96985715D01*
X128183333Y-96985715D01*
X128116667Y-97223810D01*
X128350000Y-96557144D02*
X127783333Y-96557144D01*
X127716667Y-96580953D01*
X127683333Y-96604763D01*
X127650000Y-96652382D01*
X127650000Y-96723810D01*
X127683333Y-96771429D01*
X127916667Y-96557144D02*
X127883333Y-96604763D01*
X127883333Y-96700001D01*
X127916667Y-96747620D01*
X127950000Y-96771429D01*
X128016667Y-96795239D01*
X128216667Y-96795239D01*
X128283333Y-96771429D01*
X128316667Y-96747620D01*
X128350000Y-96700001D01*
X128350000Y-96604763D01*
X128316667Y-96557144D01*
X128550000Y-95676192D02*
X128583333Y-95723811D01*
X128583333Y-95795239D01*
X128550000Y-95866668D01*
X128483333Y-95914287D01*
X128416667Y-95938096D01*
X128283333Y-95961906D01*
X128183333Y-95961906D01*
X128050000Y-95938096D01*
X127983333Y-95914287D01*
X127916667Y-95866668D01*
X127883333Y-95795239D01*
X127883333Y-95747620D01*
X127916667Y-95676192D01*
X127950000Y-95652382D01*
X128183333Y-95652382D01*
X128183333Y-95747620D01*
X127916667Y-95247620D02*
X127883333Y-95295239D01*
X127883333Y-95390477D01*
X127916667Y-95438096D01*
X127983333Y-95461906D01*
X128250000Y-95461906D01*
X128316667Y-95438096D01*
X128350000Y-95390477D01*
X128350000Y-95295239D01*
X128316667Y-95247620D01*
X128250000Y-95223811D01*
X128183333Y-95223811D01*
X128116667Y-95461906D01*
X127883333Y-95009525D02*
X128350000Y-95009525D01*
X128216667Y-95009525D02*
X128283333Y-94985716D01*
X128316667Y-94961906D01*
X128350000Y-94914287D01*
X128350000Y-94866668D01*
X127883333Y-94700001D02*
X128583333Y-94700001D01*
X128316667Y-94700001D02*
X128350000Y-94652382D01*
X128350000Y-94557144D01*
X128316667Y-94509525D01*
X128283333Y-94485716D01*
X128216667Y-94461906D01*
X128016667Y-94461906D01*
X127950000Y-94485716D01*
X127916667Y-94509525D01*
X127883333Y-94557144D01*
X127883333Y-94652382D01*
X127916667Y-94700001D01*
X127916667Y-94057144D02*
X127883333Y-94104763D01*
X127883333Y-94200001D01*
X127916667Y-94247620D01*
X127983333Y-94271430D01*
X128250000Y-94271430D01*
X128316667Y-94247620D01*
X128350000Y-94200001D01*
X128350000Y-94104763D01*
X128316667Y-94057144D01*
X128250000Y-94033335D01*
X128183333Y-94033335D01*
X128116667Y-94271430D01*
X127883333Y-93819049D02*
X128350000Y-93819049D01*
X128216667Y-93819049D02*
X128283333Y-93795240D01*
X128316667Y-93771430D01*
X128350000Y-93723811D01*
X128350000Y-93676192D01*
D13*
X147320000Y-110490000D03*
X147320000Y-109220000D03*
D14*
X147320000Y-111760000D03*
D13*
X147320000Y-105410000D03*
X147320000Y-106680000D03*
D14*
X147320000Y-104140000D03*
D13*
X132080000Y-107950000D03*
X132080000Y-106680000D03*
D14*
X132080000Y-109220000D03*
D13*
X127000000Y-107950000D03*
X127000000Y-109220000D03*
D14*
X127000000Y-106680000D03*
D13*
X121920000Y-107950000D03*
X121920000Y-109220000D03*
D14*
X121920000Y-106680000D03*
D15*
X161290000Y-114935000D03*
D16*
X161290000Y-117475000D03*
D17*
X117700000Y-121950000D03*
X117700000Y-93950000D03*
X161700000Y-93950000D03*
X161700000Y-121950000D03*
D18*
X140970000Y-121920000D03*
X139700000Y-120650000D03*
D19*
X142240000Y-120650000D03*
D20*
X156210000Y-111760000D03*
D21*
X156210000Y-119380000D03*
D20*
X119380000Y-97790000D03*
D21*
X119380000Y-105410000D03*
D20*
X119380000Y-110490000D03*
D21*
X119380000Y-118110000D03*
D20*
X121920000Y-119380000D03*
D21*
X121920000Y-111760000D03*
D20*
X121920000Y-101600000D03*
D21*
X121920000Y-93980000D03*
D20*
X132080000Y-111760000D03*
D22*
X124460000Y-111760000D03*
D20*
X124460000Y-101600000D03*
D22*
X132080000Y-101600000D03*
D20*
X135890000Y-106680000D03*
D21*
X135890000Y-99060000D03*
D20*
X132080000Y-99060000D03*
D22*
X124460000Y-99060000D03*
D20*
X135890000Y-109220000D03*
D21*
X135890000Y-116840000D03*
D20*
X132080000Y-114300000D03*
D22*
X124460000Y-114300000D03*
D20*
X140970000Y-106680000D03*
D21*
X140970000Y-99060000D03*
D20*
X143510000Y-99060000D03*
D21*
X143510000Y-106680000D03*
D20*
X146050000Y-101600000D03*
D21*
X146050000Y-93980000D03*
D20*
X149860000Y-93980000D03*
D22*
X157480000Y-93980000D03*
D20*
X153670000Y-96520000D03*
D21*
X153670000Y-104140000D03*
D20*
X153670000Y-119380000D03*
D21*
X153670000Y-111760000D03*
D20*
X146050000Y-114300000D03*
D21*
X146050000Y-121920000D03*
D20*
X149860000Y-121920000D03*
D22*
X157480000Y-121920000D03*
D20*
X143510000Y-116840000D03*
D21*
X143510000Y-109220000D03*
D20*
X140970000Y-109220000D03*
D21*
X140970000Y-116840000D03*
D20*
X156210000Y-96520000D03*
D21*
X156210000Y-104140000D03*
D20*
X129540000Y-119380000D03*
X124460000Y-119380000D03*
X121920000Y-104140000D03*
X127000000Y-104140000D03*
X138430000Y-101600000D03*
X138430000Y-106680000D03*
X151130000Y-104140000D03*
X151130000Y-99060000D03*
X156210000Y-106680000D03*
X151130000Y-106680000D03*
X151130000Y-111760000D03*
X151130000Y-116840000D03*
X156210000Y-109220000D03*
X151130000Y-109220000D03*
X138430000Y-109220000D03*
X138430000Y-114300000D03*
X132080000Y-116840000D03*
X127000000Y-116840000D03*
D23*
X161290000Y-104140000D03*
D24*
X161290000Y-111760000D03*
D23*
X158750000Y-111760000D03*
D24*
X158750000Y-104140000D03*
D20*
X148590000Y-101600000D03*
X148590000Y-96520000D03*
X148590000Y-114300000D03*
X148590000Y-119380000D03*
D25*
X135255000Y-93980000D03*
X132715000Y-93980000D03*
X161290000Y-100965000D03*
X161290000Y-98425000D03*
X132715000Y-121920000D03*
X135255000Y-121920000D03*
D26*
X143510000Y-96520000D03*
D27*
X135890000Y-96520000D03*
D26*
X132080000Y-96520000D03*
D27*
X124460000Y-96520000D03*
D28*
G36*
X159125050Y-94950000D02*
X159130559Y-94978203D01*
X159147002Y-95002998D01*
X160647002Y-96502998D01*
X160670840Y-96519045D01*
X160700000Y-96524950D01*
X163150050Y-96524950D01*
X163150050Y-119375050D01*
X160700000Y-119375050D01*
X160671797Y-119380559D01*
X160647002Y-119397002D01*
X159147002Y-120897002D01*
X159130955Y-120920840D01*
X159125050Y-120950000D01*
X159125050Y-123400050D01*
X120274950Y-123400050D01*
X120274950Y-122875201D01*
X131936647Y-122875201D01*
X132025534Y-123081717D01*
X132522586Y-123257133D01*
X133048932Y-123228984D01*
X133404466Y-123081717D01*
X133493353Y-122875201D01*
X132715000Y-122096847D01*
X131936647Y-122875201D01*
X120274950Y-122875201D01*
X120274950Y-121727586D01*
X131377867Y-121727586D01*
X131406016Y-122253932D01*
X131553283Y-122609466D01*
X131759799Y-122698353D01*
X132538153Y-121920000D01*
X132891847Y-121920000D01*
X133670201Y-122698353D01*
X133876717Y-122609466D01*
X133982469Y-122309811D01*
X134131107Y-122669543D01*
X134503496Y-123042583D01*
X134990295Y-123244719D01*
X135517393Y-123245179D01*
X136004543Y-123043893D01*
X136377583Y-122671504D01*
X136579719Y-122184705D01*
X136580179Y-121657607D01*
X136378893Y-121170457D01*
X136052087Y-120843079D01*
X138724882Y-120843079D01*
X138872996Y-121201543D01*
X139147014Y-121476040D01*
X139505220Y-121624780D01*
X139893079Y-121625118D01*
X140066548Y-121553442D01*
X139995220Y-121725220D01*
X139994882Y-122113079D01*
X140142996Y-122471543D01*
X140417014Y-122746040D01*
X140775220Y-122894780D01*
X141163079Y-122895118D01*
X141521543Y-122747004D01*
X141796040Y-122472986D01*
X141895219Y-122234134D01*
X144816015Y-122234134D01*
X144967980Y-122577040D01*
X145297976Y-122921963D01*
X145734849Y-123114346D01*
X145924950Y-123022383D01*
X145924950Y-122045050D01*
X146175050Y-122045050D01*
X146175050Y-123022383D01*
X146365151Y-123114346D01*
X146802024Y-122921963D01*
X147132020Y-122577040D01*
X147283985Y-122234134D01*
X147251875Y-122162589D01*
X148634838Y-122162589D01*
X148820933Y-122612972D01*
X149165216Y-122957856D01*
X149615273Y-123144737D01*
X150102589Y-123145162D01*
X150552972Y-122959067D01*
X150897856Y-122614784D01*
X151055494Y-122235151D01*
X156285654Y-122235151D01*
X156478037Y-122672024D01*
X156822960Y-123002020D01*
X157165866Y-123153985D01*
X157354950Y-123069122D01*
X157354950Y-122045050D01*
X157605050Y-122045050D01*
X157605050Y-123069122D01*
X157794134Y-123153985D01*
X158137040Y-123002020D01*
X158481963Y-122672024D01*
X158674346Y-122235151D01*
X158582383Y-122045050D01*
X157605050Y-122045050D01*
X157354950Y-122045050D01*
X156377617Y-122045050D01*
X156285654Y-122235151D01*
X151055494Y-122235151D01*
X151084737Y-122164727D01*
X151085162Y-121677411D01*
X151055180Y-121604849D01*
X156285654Y-121604849D01*
X156377617Y-121794950D01*
X157354950Y-121794950D01*
X157354950Y-120770878D01*
X157605050Y-120770878D01*
X157605050Y-121794950D01*
X158582383Y-121794950D01*
X158674346Y-121604849D01*
X158481963Y-121167976D01*
X158137040Y-120837980D01*
X157794134Y-120686015D01*
X157605050Y-120770878D01*
X157354950Y-120770878D01*
X157165866Y-120686015D01*
X156822960Y-120837980D01*
X156478037Y-121167976D01*
X156285654Y-121604849D01*
X151055180Y-121604849D01*
X150899067Y-121227028D01*
X150554784Y-120882144D01*
X150104727Y-120695263D01*
X149617411Y-120694838D01*
X149167028Y-120880933D01*
X148822144Y-121225216D01*
X148635263Y-121675273D01*
X148634838Y-122162589D01*
X147251875Y-122162589D01*
X147199122Y-122045050D01*
X146175050Y-122045050D01*
X145924950Y-122045050D01*
X144900878Y-122045050D01*
X144816015Y-122234134D01*
X141895219Y-122234134D01*
X141944780Y-122114780D01*
X141945118Y-121726921D01*
X141902985Y-121624950D01*
X141996213Y-121624950D01*
X142114950Y-121506213D01*
X142114950Y-120775050D01*
X142365050Y-120775050D01*
X142365050Y-121506213D01*
X142483787Y-121624950D01*
X142834474Y-121624950D01*
X142880546Y-121605866D01*
X144816015Y-121605866D01*
X144900878Y-121794950D01*
X145924950Y-121794950D01*
X145924950Y-120817617D01*
X146175050Y-120817617D01*
X146175050Y-121794950D01*
X147199122Y-121794950D01*
X147283985Y-121605866D01*
X147132020Y-121262960D01*
X146802024Y-120918037D01*
X146365151Y-120725654D01*
X146175050Y-120817617D01*
X145924950Y-120817617D01*
X145734849Y-120725654D01*
X145297976Y-120918037D01*
X144967980Y-121262960D01*
X144816015Y-121605866D01*
X142880546Y-121605866D01*
X143009038Y-121552643D01*
X143142643Y-121419037D01*
X143214950Y-121244473D01*
X143214950Y-120893787D01*
X143096213Y-120775050D01*
X142365050Y-120775050D01*
X142114950Y-120775050D01*
X141383787Y-120775050D01*
X141265050Y-120893787D01*
X141265050Y-120986856D01*
X141164780Y-120945220D01*
X140776921Y-120944882D01*
X140603452Y-121016558D01*
X140674780Y-120844780D01*
X140675118Y-120456921D01*
X140527004Y-120098457D01*
X140484149Y-120055527D01*
X141265050Y-120055527D01*
X141265050Y-120406213D01*
X141383787Y-120524950D01*
X142114950Y-120524950D01*
X142114950Y-119793787D01*
X142365050Y-119793787D01*
X142365050Y-120524950D01*
X143096213Y-120524950D01*
X143214950Y-120406213D01*
X143214950Y-120262697D01*
X147884150Y-120262697D01*
X147960743Y-120458846D01*
X148421499Y-120617529D01*
X148907907Y-120587811D01*
X149219257Y-120458846D01*
X149295850Y-120262697D01*
X148590000Y-119556847D01*
X147884150Y-120262697D01*
X143214950Y-120262697D01*
X143214950Y-120055527D01*
X143142643Y-119880963D01*
X143009038Y-119747357D01*
X142834474Y-119675050D01*
X142483787Y-119675050D01*
X142365050Y-119793787D01*
X142114950Y-119793787D01*
X141996213Y-119675050D01*
X141645526Y-119675050D01*
X141470962Y-119747357D01*
X141337357Y-119880963D01*
X141265050Y-120055527D01*
X140484149Y-120055527D01*
X140252986Y-119823960D01*
X139894780Y-119675220D01*
X139506921Y-119674882D01*
X139148457Y-119822996D01*
X138873960Y-120097014D01*
X138725220Y-120455220D01*
X138724882Y-120843079D01*
X136052087Y-120843079D01*
X136006504Y-120797417D01*
X135519705Y-120595281D01*
X134992607Y-120594821D01*
X134505457Y-120796107D01*
X134132417Y-121168496D01*
X133991545Y-121507754D01*
X133876717Y-121230534D01*
X133670201Y-121141647D01*
X132891847Y-121920000D01*
X132538153Y-121920000D01*
X131759799Y-121141647D01*
X131553283Y-121230534D01*
X131377867Y-121727586D01*
X120274950Y-121727586D01*
X120274950Y-120964799D01*
X131936647Y-120964799D01*
X132715000Y-121743153D01*
X133493353Y-120964799D01*
X133404466Y-120758283D01*
X132907414Y-120582867D01*
X132381068Y-120611016D01*
X132025534Y-120758283D01*
X131936647Y-120964799D01*
X120274950Y-120964799D01*
X120274950Y-120950000D01*
X120269441Y-120921797D01*
X120252998Y-120897002D01*
X118978585Y-119622589D01*
X120694838Y-119622589D01*
X120880933Y-120072972D01*
X121225216Y-120417856D01*
X121675273Y-120604737D01*
X122162589Y-120605162D01*
X122612972Y-120419067D01*
X122769614Y-120262697D01*
X123754150Y-120262697D01*
X123830743Y-120458846D01*
X124291499Y-120617529D01*
X124777907Y-120587811D01*
X125089257Y-120458846D01*
X125165850Y-120262697D01*
X124460000Y-119556847D01*
X123754150Y-120262697D01*
X122769614Y-120262697D01*
X122957856Y-120074784D01*
X123144737Y-119624727D01*
X123145097Y-119211499D01*
X123222471Y-119211499D01*
X123252189Y-119697907D01*
X123381154Y-120009257D01*
X123577303Y-120085850D01*
X124283153Y-119380000D01*
X124636847Y-119380000D01*
X125342697Y-120085850D01*
X125538846Y-120009257D01*
X125672013Y-119622589D01*
X128314838Y-119622589D01*
X128500933Y-120072972D01*
X128845216Y-120417856D01*
X129295273Y-120604737D01*
X129782589Y-120605162D01*
X130232972Y-120419067D01*
X130577856Y-120074784D01*
X130764737Y-119624727D01*
X130765097Y-119211499D01*
X147352471Y-119211499D01*
X147382189Y-119697907D01*
X147511154Y-120009257D01*
X147707303Y-120085850D01*
X148413153Y-119380000D01*
X148766847Y-119380000D01*
X149472697Y-120085850D01*
X149668846Y-120009257D01*
X149802013Y-119622589D01*
X152444838Y-119622589D01*
X152630933Y-120072972D01*
X152975216Y-120417856D01*
X153425273Y-120604737D01*
X153912589Y-120605162D01*
X154362972Y-120419067D01*
X154707856Y-120074784D01*
X154894737Y-119624727D01*
X154894950Y-119380000D01*
X154910072Y-119380000D01*
X155003316Y-119848768D01*
X155268852Y-120246170D01*
X155666254Y-120511706D01*
X156135022Y-120604950D01*
X156284978Y-120604950D01*
X156753746Y-120511706D01*
X157151148Y-120246170D01*
X157416684Y-119848768D01*
X157509928Y-119380000D01*
X157416684Y-118911232D01*
X157151148Y-118513830D01*
X156753746Y-118248294D01*
X156284978Y-118155050D01*
X156135022Y-118155050D01*
X155666254Y-118248294D01*
X155268852Y-118513830D01*
X155003316Y-118911232D01*
X154910072Y-119380000D01*
X154894950Y-119380000D01*
X154895162Y-119137411D01*
X154709067Y-118687028D01*
X154364784Y-118342144D01*
X153914727Y-118155263D01*
X153427411Y-118154838D01*
X152977028Y-118340933D01*
X152632144Y-118685216D01*
X152445263Y-119135273D01*
X152444838Y-119622589D01*
X149802013Y-119622589D01*
X149827529Y-119548501D01*
X149797811Y-119062093D01*
X149668846Y-118750743D01*
X149472697Y-118674150D01*
X148766847Y-119380000D01*
X148413153Y-119380000D01*
X147707303Y-118674150D01*
X147511154Y-118750743D01*
X147352471Y-119211499D01*
X130765097Y-119211499D01*
X130765162Y-119137411D01*
X130579067Y-118687028D01*
X130389673Y-118497303D01*
X147884150Y-118497303D01*
X148590000Y-119203153D01*
X149295850Y-118497303D01*
X149219257Y-118301154D01*
X148758501Y-118142471D01*
X148272093Y-118172189D01*
X147960743Y-118301154D01*
X147884150Y-118497303D01*
X130389673Y-118497303D01*
X130234784Y-118342144D01*
X129784727Y-118155263D01*
X129297411Y-118154838D01*
X128847028Y-118340933D01*
X128502144Y-118685216D01*
X128315263Y-119135273D01*
X128314838Y-119622589D01*
X125672013Y-119622589D01*
X125697529Y-119548501D01*
X125667811Y-119062093D01*
X125538846Y-118750743D01*
X125342697Y-118674150D01*
X124636847Y-119380000D01*
X124283153Y-119380000D01*
X123577303Y-118674150D01*
X123381154Y-118750743D01*
X123222471Y-119211499D01*
X123145097Y-119211499D01*
X123145162Y-119137411D01*
X122959067Y-118687028D01*
X122769673Y-118497303D01*
X123754150Y-118497303D01*
X124460000Y-119203153D01*
X125165850Y-118497303D01*
X125089257Y-118301154D01*
X124628501Y-118142471D01*
X124142093Y-118172189D01*
X123830743Y-118301154D01*
X123754150Y-118497303D01*
X122769673Y-118497303D01*
X122614784Y-118342144D01*
X122164727Y-118155263D01*
X121677411Y-118154838D01*
X121227028Y-118340933D01*
X120882144Y-118685216D01*
X120695263Y-119135273D01*
X120694838Y-119622589D01*
X118978585Y-119622589D01*
X118752998Y-119397002D01*
X118729160Y-119380955D01*
X118700000Y-119375050D01*
X116249950Y-119375050D01*
X116249950Y-118424134D01*
X118146015Y-118424134D01*
X118297980Y-118767040D01*
X118627976Y-119111963D01*
X119064849Y-119304346D01*
X119254950Y-119212383D01*
X119254950Y-118235050D01*
X119505050Y-118235050D01*
X119505050Y-119212383D01*
X119695151Y-119304346D01*
X120132024Y-119111963D01*
X120462020Y-118767040D01*
X120613985Y-118424134D01*
X120529122Y-118235050D01*
X119505050Y-118235050D01*
X119254950Y-118235050D01*
X118230878Y-118235050D01*
X118146015Y-118424134D01*
X116249950Y-118424134D01*
X116249950Y-117795866D01*
X118146015Y-117795866D01*
X118230878Y-117984950D01*
X119254950Y-117984950D01*
X119254950Y-117007617D01*
X119505050Y-117007617D01*
X119505050Y-117984950D01*
X120529122Y-117984950D01*
X120613985Y-117795866D01*
X120581559Y-117722697D01*
X126294150Y-117722697D01*
X126370743Y-117918846D01*
X126831499Y-118077529D01*
X127317907Y-118047811D01*
X127629257Y-117918846D01*
X127705850Y-117722697D01*
X127000000Y-117016847D01*
X126294150Y-117722697D01*
X120581559Y-117722697D01*
X120462020Y-117452960D01*
X120132024Y-117108037D01*
X119695151Y-116915654D01*
X119505050Y-117007617D01*
X119254950Y-117007617D01*
X119064849Y-116915654D01*
X118627976Y-117108037D01*
X118297980Y-117452960D01*
X118146015Y-117795866D01*
X116249950Y-117795866D01*
X116249950Y-116671499D01*
X125762471Y-116671499D01*
X125792189Y-117157907D01*
X125921154Y-117469257D01*
X126117303Y-117545850D01*
X126823153Y-116840000D01*
X127176847Y-116840000D01*
X127882697Y-117545850D01*
X128078846Y-117469257D01*
X128212013Y-117082589D01*
X130854838Y-117082589D01*
X131040933Y-117532972D01*
X131385216Y-117877856D01*
X131835273Y-118064737D01*
X132322589Y-118065162D01*
X132772972Y-117879067D01*
X133117856Y-117534784D01*
X133304737Y-117084727D01*
X133304950Y-116840000D01*
X134590072Y-116840000D01*
X134683316Y-117308768D01*
X134948852Y-117706170D01*
X135346254Y-117971706D01*
X135815022Y-118064950D01*
X135964978Y-118064950D01*
X136433746Y-117971706D01*
X136831148Y-117706170D01*
X137096684Y-117308768D01*
X137127442Y-117154134D01*
X139736015Y-117154134D01*
X139887980Y-117497040D01*
X140217976Y-117841963D01*
X140654849Y-118034346D01*
X140844950Y-117942383D01*
X140844950Y-116965050D01*
X141095050Y-116965050D01*
X141095050Y-117942383D01*
X141285151Y-118034346D01*
X141722024Y-117841963D01*
X142052020Y-117497040D01*
X142203985Y-117154134D01*
X142171875Y-117082589D01*
X142284838Y-117082589D01*
X142470933Y-117532972D01*
X142815216Y-117877856D01*
X143265273Y-118064737D01*
X143752589Y-118065162D01*
X144202972Y-117879067D01*
X144547856Y-117534784D01*
X144734737Y-117084727D01*
X144734738Y-117082589D01*
X149904838Y-117082589D01*
X150090933Y-117532972D01*
X150435216Y-117877856D01*
X150885273Y-118064737D01*
X151372589Y-118065162D01*
X151822972Y-117879067D01*
X151994651Y-117707687D01*
X160114846Y-117707687D01*
X160293345Y-118139686D01*
X160623575Y-118470494D01*
X161055263Y-118649746D01*
X161522687Y-118650154D01*
X161954686Y-118471655D01*
X162285494Y-118141425D01*
X162464746Y-117709737D01*
X162465154Y-117242313D01*
X162286655Y-116810314D01*
X161956425Y-116479506D01*
X161524737Y-116300254D01*
X161057313Y-116299846D01*
X160625314Y-116478345D01*
X160294506Y-116808575D01*
X160115254Y-117240263D01*
X160114846Y-117707687D01*
X151994651Y-117707687D01*
X152167856Y-117534784D01*
X152354737Y-117084727D01*
X152355162Y-116597411D01*
X152169067Y-116147028D01*
X151824784Y-115802144D01*
X151374727Y-115615263D01*
X150887411Y-115614838D01*
X150437028Y-115800933D01*
X150092144Y-116145216D01*
X149905263Y-116595273D01*
X149904838Y-117082589D01*
X144734738Y-117082589D01*
X144735162Y-116597411D01*
X144549067Y-116147028D01*
X144204784Y-115802144D01*
X143754727Y-115615263D01*
X143267411Y-115614838D01*
X142817028Y-115800933D01*
X142472144Y-116145216D01*
X142285263Y-116595273D01*
X142284838Y-117082589D01*
X142171875Y-117082589D01*
X142119122Y-116965050D01*
X141095050Y-116965050D01*
X140844950Y-116965050D01*
X139820878Y-116965050D01*
X139736015Y-117154134D01*
X137127442Y-117154134D01*
X137189928Y-116840000D01*
X137127443Y-116525866D01*
X139736015Y-116525866D01*
X139820878Y-116714950D01*
X140844950Y-116714950D01*
X140844950Y-115737617D01*
X141095050Y-115737617D01*
X141095050Y-116714950D01*
X142119122Y-116714950D01*
X142203985Y-116525866D01*
X142052020Y-116182960D01*
X141722024Y-115838037D01*
X141285151Y-115645654D01*
X141095050Y-115737617D01*
X140844950Y-115737617D01*
X140654849Y-115645654D01*
X140217976Y-115838037D01*
X139887980Y-116182960D01*
X139736015Y-116525866D01*
X137127443Y-116525866D01*
X137096684Y-116371232D01*
X136831148Y-115973830D01*
X136433746Y-115708294D01*
X135964978Y-115615050D01*
X135815022Y-115615050D01*
X135346254Y-115708294D01*
X134948852Y-115973830D01*
X134683316Y-116371232D01*
X134590072Y-116840000D01*
X133304950Y-116840000D01*
X133305162Y-116597411D01*
X133119067Y-116147028D01*
X132774784Y-115802144D01*
X132324727Y-115615263D01*
X131837411Y-115614838D01*
X131387028Y-115800933D01*
X131042144Y-116145216D01*
X130855263Y-116595273D01*
X130854838Y-117082589D01*
X128212013Y-117082589D01*
X128237529Y-117008501D01*
X128207811Y-116522093D01*
X128078846Y-116210743D01*
X127882697Y-116134150D01*
X127176847Y-116840000D01*
X126823153Y-116840000D01*
X126117303Y-116134150D01*
X125921154Y-116210743D01*
X125762471Y-116671499D01*
X116249950Y-116671499D01*
X116249950Y-115957303D01*
X126294150Y-115957303D01*
X127000000Y-116663153D01*
X127705850Y-115957303D01*
X127629257Y-115761154D01*
X127168501Y-115602471D01*
X126682093Y-115632189D01*
X126370743Y-115761154D01*
X126294150Y-115957303D01*
X116249950Y-115957303D01*
X116249950Y-114615151D01*
X123265654Y-114615151D01*
X123458037Y-115052024D01*
X123802960Y-115382020D01*
X124145866Y-115533985D01*
X124334950Y-115449122D01*
X124334950Y-114425050D01*
X124585050Y-114425050D01*
X124585050Y-115449122D01*
X124774134Y-115533985D01*
X125117040Y-115382020D01*
X125461963Y-115052024D01*
X125654346Y-114615151D01*
X125619244Y-114542589D01*
X130854838Y-114542589D01*
X131040933Y-114992972D01*
X131385216Y-115337856D01*
X131835273Y-115524737D01*
X132322589Y-115525162D01*
X132772972Y-115339067D01*
X133117856Y-114994784D01*
X133304737Y-114544727D01*
X133304738Y-114542589D01*
X137204838Y-114542589D01*
X137390933Y-114992972D01*
X137735216Y-115337856D01*
X138185273Y-115524737D01*
X138672589Y-115525162D01*
X139122972Y-115339067D01*
X139467856Y-114994784D01*
X139654737Y-114544727D01*
X139654738Y-114542589D01*
X144824838Y-114542589D01*
X145010933Y-114992972D01*
X145355216Y-115337856D01*
X145805273Y-115524737D01*
X146292589Y-115525162D01*
X146742972Y-115339067D01*
X147087856Y-114994784D01*
X147274737Y-114544727D01*
X147274738Y-114542589D01*
X147364838Y-114542589D01*
X147550933Y-114992972D01*
X147895216Y-115337856D01*
X148345273Y-115524737D01*
X148832589Y-115525162D01*
X149282972Y-115339067D01*
X149443531Y-115178787D01*
X160115050Y-115178787D01*
X160115050Y-115729474D01*
X160187357Y-115904038D01*
X160320963Y-116037643D01*
X160495527Y-116109950D01*
X161046213Y-116109950D01*
X161164950Y-115991213D01*
X161164950Y-115060050D01*
X161415050Y-115060050D01*
X161415050Y-115991213D01*
X161533787Y-116109950D01*
X162084473Y-116109950D01*
X162259037Y-116037643D01*
X162392643Y-115904038D01*
X162464950Y-115729474D01*
X162464950Y-115178787D01*
X162346213Y-115060050D01*
X161415050Y-115060050D01*
X161164950Y-115060050D01*
X160233787Y-115060050D01*
X160115050Y-115178787D01*
X149443531Y-115178787D01*
X149627856Y-114994784D01*
X149814737Y-114544727D01*
X149815089Y-114140526D01*
X160115050Y-114140526D01*
X160115050Y-114691213D01*
X160233787Y-114809950D01*
X161164950Y-114809950D01*
X161164950Y-113878787D01*
X161415050Y-113878787D01*
X161415050Y-114809950D01*
X162346213Y-114809950D01*
X162464950Y-114691213D01*
X162464950Y-114140526D01*
X162392643Y-113965962D01*
X162259037Y-113832357D01*
X162084473Y-113760050D01*
X161533787Y-113760050D01*
X161415050Y-113878787D01*
X161164950Y-113878787D01*
X161046213Y-113760050D01*
X160495527Y-113760050D01*
X160320963Y-113832357D01*
X160187357Y-113965962D01*
X160115050Y-114140526D01*
X149815089Y-114140526D01*
X149815162Y-114057411D01*
X149629067Y-113607028D01*
X149284784Y-113262144D01*
X148834727Y-113075263D01*
X148347411Y-113074838D01*
X147897028Y-113260933D01*
X147552144Y-113605216D01*
X147365263Y-114055273D01*
X147364838Y-114542589D01*
X147274738Y-114542589D01*
X147275162Y-114057411D01*
X147089067Y-113607028D01*
X146744784Y-113262144D01*
X146294727Y-113075263D01*
X145807411Y-113074838D01*
X145357028Y-113260933D01*
X145012144Y-113605216D01*
X144825263Y-114055273D01*
X144824838Y-114542589D01*
X139654738Y-114542589D01*
X139655162Y-114057411D01*
X139469067Y-113607028D01*
X139124784Y-113262144D01*
X138674727Y-113075263D01*
X138187411Y-113074838D01*
X137737028Y-113260933D01*
X137392144Y-113605216D01*
X137205263Y-114055273D01*
X137204838Y-114542589D01*
X133304738Y-114542589D01*
X133305162Y-114057411D01*
X133119067Y-113607028D01*
X132774784Y-113262144D01*
X132324727Y-113075263D01*
X131837411Y-113074838D01*
X131387028Y-113260933D01*
X131042144Y-113605216D01*
X130855263Y-114055273D01*
X130854838Y-114542589D01*
X125619244Y-114542589D01*
X125562383Y-114425050D01*
X124585050Y-114425050D01*
X124334950Y-114425050D01*
X123357617Y-114425050D01*
X123265654Y-114615151D01*
X116249950Y-114615151D01*
X116249950Y-111760000D01*
X120620072Y-111760000D01*
X120713316Y-112228768D01*
X120978852Y-112626170D01*
X121376254Y-112891706D01*
X121845022Y-112984950D01*
X121994978Y-112984950D01*
X122463746Y-112891706D01*
X122861148Y-112626170D01*
X123126684Y-112228768D01*
X123219928Y-111760000D01*
X123205014Y-111685022D01*
X123235050Y-111685022D01*
X123235050Y-111834978D01*
X123328294Y-112303746D01*
X123593830Y-112701148D01*
X123991232Y-112966684D01*
X124334948Y-113035054D01*
X124334948Y-113150877D01*
X124145866Y-113066015D01*
X123802960Y-113217980D01*
X123458037Y-113547976D01*
X123265654Y-113984849D01*
X123357617Y-114174950D01*
X124334950Y-114174950D01*
X124334950Y-114154950D01*
X124585050Y-114154950D01*
X124585050Y-114174950D01*
X125562383Y-114174950D01*
X125654346Y-113984849D01*
X125461963Y-113547976D01*
X125117040Y-113217980D01*
X124774134Y-113066015D01*
X124585052Y-113150877D01*
X124585052Y-113035054D01*
X124928768Y-112966684D01*
X125326170Y-112701148D01*
X125591706Y-112303746D01*
X125651610Y-112002589D01*
X130854838Y-112002589D01*
X131040933Y-112452972D01*
X131385216Y-112797856D01*
X131835273Y-112984737D01*
X132322589Y-112985162D01*
X132772972Y-112799067D01*
X133117856Y-112454784D01*
X133304737Y-112004727D01*
X133305162Y-111517411D01*
X133119067Y-111067028D01*
X132774784Y-110722144D01*
X132324727Y-110535263D01*
X131837411Y-110534838D01*
X131387028Y-110720933D01*
X131042144Y-111065216D01*
X130855263Y-111515273D01*
X130854838Y-112002589D01*
X125651610Y-112002589D01*
X125684950Y-111834978D01*
X125684950Y-111685022D01*
X125591706Y-111216254D01*
X125326170Y-110818852D01*
X124928768Y-110553316D01*
X124460000Y-110460072D01*
X123991232Y-110553316D01*
X123593830Y-110818852D01*
X123328294Y-111216254D01*
X123235050Y-111685022D01*
X123205014Y-111685022D01*
X123126684Y-111291232D01*
X122861148Y-110893830D01*
X122463746Y-110628294D01*
X121994978Y-110535050D01*
X121845022Y-110535050D01*
X121376254Y-110628294D01*
X120978852Y-110893830D01*
X120713316Y-111291232D01*
X120620072Y-111760000D01*
X116249950Y-111760000D01*
X116249950Y-110732589D01*
X118154838Y-110732589D01*
X118340933Y-111182972D01*
X118685216Y-111527856D01*
X119135273Y-111714737D01*
X119622589Y-111715162D01*
X120072972Y-111529067D01*
X120417856Y-111184784D01*
X120604737Y-110734727D01*
X120605162Y-110247411D01*
X120419067Y-109797028D01*
X120074784Y-109452144D01*
X119624727Y-109265263D01*
X119137411Y-109264838D01*
X118687028Y-109450933D01*
X118342144Y-109795216D01*
X118155263Y-110245273D01*
X118154838Y-110732589D01*
X116249950Y-110732589D01*
X116249950Y-107950000D01*
X120671052Y-107950000D01*
X120741460Y-108303963D01*
X120929243Y-108585000D01*
X120741460Y-108866037D01*
X120671052Y-109220000D01*
X120741460Y-109573963D01*
X120941964Y-109874038D01*
X121242039Y-110074542D01*
X121596002Y-110144950D01*
X122243998Y-110144950D01*
X122597961Y-110074542D01*
X122898036Y-109874038D01*
X123098540Y-109573963D01*
X123168948Y-109220000D01*
X123098540Y-108866037D01*
X122910757Y-108585000D01*
X123098540Y-108303963D01*
X123168948Y-107950000D01*
X125751052Y-107950000D01*
X125821460Y-108303963D01*
X126009243Y-108585000D01*
X125821460Y-108866037D01*
X125751052Y-109220000D01*
X125821460Y-109573963D01*
X126021964Y-109874038D01*
X126322039Y-110074542D01*
X126676002Y-110144950D01*
X127323998Y-110144950D01*
X127677961Y-110074542D01*
X127978036Y-109874038D01*
X128178540Y-109573963D01*
X128248948Y-109220000D01*
X128178540Y-108866037D01*
X127990757Y-108585000D01*
X128178540Y-108303963D01*
X128248948Y-107950000D01*
X128178540Y-107596037D01*
X128093432Y-107468664D01*
X128196102Y-107318402D01*
X128234254Y-107130000D01*
X128234254Y-106680000D01*
X130831052Y-106680000D01*
X130901460Y-107033963D01*
X131089243Y-107315000D01*
X130901460Y-107596037D01*
X130831052Y-107950000D01*
X130901460Y-108303963D01*
X130986568Y-108431336D01*
X130883898Y-108581598D01*
X130845746Y-108770000D01*
X130845746Y-109670000D01*
X130878864Y-109846006D01*
X130982883Y-110007656D01*
X131141598Y-110116102D01*
X131330000Y-110154254D01*
X132830000Y-110154254D01*
X133006006Y-110121136D01*
X133167656Y-110017117D01*
X133276102Y-109858402D01*
X133314254Y-109670000D01*
X133314254Y-109462589D01*
X134664838Y-109462589D01*
X134850933Y-109912972D01*
X135195216Y-110257856D01*
X135645273Y-110444737D01*
X136132589Y-110445162D01*
X136582972Y-110259067D01*
X136927856Y-109914784D01*
X137114737Y-109464727D01*
X137114738Y-109462589D01*
X137204838Y-109462589D01*
X137390933Y-109912972D01*
X137735216Y-110257856D01*
X138185273Y-110444737D01*
X138672589Y-110445162D01*
X139122972Y-110259067D01*
X139467856Y-109914784D01*
X139654737Y-109464727D01*
X139654738Y-109462589D01*
X139744838Y-109462589D01*
X139930933Y-109912972D01*
X140275216Y-110257856D01*
X140725273Y-110444737D01*
X141212589Y-110445162D01*
X141662972Y-110259067D01*
X142007856Y-109914784D01*
X142194737Y-109464727D01*
X142194950Y-109220000D01*
X142210072Y-109220000D01*
X142303316Y-109688768D01*
X142568852Y-110086170D01*
X142966254Y-110351706D01*
X143435022Y-110444950D01*
X143584978Y-110444950D01*
X144053746Y-110351706D01*
X144451148Y-110086170D01*
X144716684Y-109688768D01*
X144809928Y-109220000D01*
X146071052Y-109220000D01*
X146141460Y-109573963D01*
X146329243Y-109855000D01*
X146141460Y-110136037D01*
X146071052Y-110490000D01*
X146141460Y-110843963D01*
X146226568Y-110971336D01*
X146123898Y-111121598D01*
X146085746Y-111310000D01*
X146085746Y-112210000D01*
X146118864Y-112386006D01*
X146222883Y-112547656D01*
X146381598Y-112656102D01*
X146570000Y-112694254D01*
X148070000Y-112694254D01*
X148246006Y-112661136D01*
X148407656Y-112557117D01*
X148516102Y-112398402D01*
X148554254Y-112210000D01*
X148554254Y-112002589D01*
X149904838Y-112002589D01*
X150090933Y-112452972D01*
X150435216Y-112797856D01*
X150885273Y-112984737D01*
X151372589Y-112985162D01*
X151822972Y-112799067D01*
X152167856Y-112454784D01*
X152354737Y-112004727D01*
X152354950Y-111760000D01*
X152370072Y-111760000D01*
X152463316Y-112228768D01*
X152728852Y-112626170D01*
X153126254Y-112891706D01*
X153595022Y-112984950D01*
X153744978Y-112984950D01*
X154213746Y-112891706D01*
X154611148Y-112626170D01*
X154876684Y-112228768D01*
X154921673Y-112002589D01*
X154984838Y-112002589D01*
X155170933Y-112452972D01*
X155515216Y-112797856D01*
X155965273Y-112984737D01*
X156452589Y-112985162D01*
X156902972Y-112799067D01*
X157247856Y-112454784D01*
X157434737Y-112004727D01*
X157435162Y-111517411D01*
X157249067Y-111067028D01*
X157192139Y-111010000D01*
X157515746Y-111010000D01*
X157515746Y-112510000D01*
X157548864Y-112686006D01*
X157652883Y-112847656D01*
X157811598Y-112956102D01*
X158000000Y-112994254D01*
X159500000Y-112994254D01*
X159676006Y-112961136D01*
X159837656Y-112857117D01*
X159946102Y-112698402D01*
X159984254Y-112510000D01*
X159984254Y-111736002D01*
X160065050Y-111736002D01*
X160065050Y-111783998D01*
X160158294Y-112252766D01*
X160423830Y-112650168D01*
X160821232Y-112915704D01*
X161290000Y-113008948D01*
X161758768Y-112915704D01*
X162156170Y-112650168D01*
X162421706Y-112252766D01*
X162514950Y-111783998D01*
X162514950Y-111736002D01*
X162421706Y-111267234D01*
X162156170Y-110869832D01*
X161758768Y-110604296D01*
X161290000Y-110511052D01*
X160821232Y-110604296D01*
X160423830Y-110869832D01*
X160158294Y-111267234D01*
X160065050Y-111736002D01*
X159984254Y-111736002D01*
X159984254Y-111010000D01*
X159951136Y-110833994D01*
X159847117Y-110672344D01*
X159688402Y-110563898D01*
X159500000Y-110525746D01*
X158000000Y-110525746D01*
X157823994Y-110558864D01*
X157662344Y-110662883D01*
X157553898Y-110821598D01*
X157515746Y-111010000D01*
X157192139Y-111010000D01*
X156904784Y-110722144D01*
X156454727Y-110535263D01*
X155967411Y-110534838D01*
X155517028Y-110720933D01*
X155172144Y-111065216D01*
X154985263Y-111515273D01*
X154984838Y-112002589D01*
X154921673Y-112002589D01*
X154969928Y-111760000D01*
X154876684Y-111291232D01*
X154611148Y-110893830D01*
X154213746Y-110628294D01*
X153744978Y-110535050D01*
X153595022Y-110535050D01*
X153126254Y-110628294D01*
X152728852Y-110893830D01*
X152463316Y-111291232D01*
X152370072Y-111760000D01*
X152354950Y-111760000D01*
X152355162Y-111517411D01*
X152169067Y-111067028D01*
X151824784Y-110722144D01*
X151374727Y-110535263D01*
X150887411Y-110534838D01*
X150437028Y-110720933D01*
X150092144Y-111065216D01*
X149905263Y-111515273D01*
X149904838Y-112002589D01*
X148554254Y-112002589D01*
X148554254Y-111310000D01*
X148521136Y-111133994D01*
X148417117Y-110972344D01*
X148414125Y-110970299D01*
X148498540Y-110843963D01*
X148568948Y-110490000D01*
X148498540Y-110136037D01*
X148310757Y-109855000D01*
X148498540Y-109573963D01*
X148520693Y-109462589D01*
X149904838Y-109462589D01*
X150090933Y-109912972D01*
X150435216Y-110257856D01*
X150885273Y-110444737D01*
X151372589Y-110445162D01*
X151822972Y-110259067D01*
X152167856Y-109914784D01*
X152354737Y-109464727D01*
X152354738Y-109462589D01*
X154984838Y-109462589D01*
X155170933Y-109912972D01*
X155515216Y-110257856D01*
X155965273Y-110444737D01*
X156452589Y-110445162D01*
X156902972Y-110259067D01*
X157247856Y-109914784D01*
X157434737Y-109464727D01*
X157435162Y-108977411D01*
X157249067Y-108527028D01*
X156904784Y-108182144D01*
X156454727Y-107995263D01*
X155967411Y-107994838D01*
X155517028Y-108180933D01*
X155172144Y-108525216D01*
X154985263Y-108975273D01*
X154984838Y-109462589D01*
X152354738Y-109462589D01*
X152355162Y-108977411D01*
X152169067Y-108527028D01*
X151824784Y-108182144D01*
X151374727Y-107995263D01*
X150887411Y-107994838D01*
X150437028Y-108180933D01*
X150092144Y-108525216D01*
X149905263Y-108975273D01*
X149904838Y-109462589D01*
X148520693Y-109462589D01*
X148568948Y-109220000D01*
X148498540Y-108866037D01*
X148298036Y-108565962D01*
X147997961Y-108365458D01*
X147643998Y-108295050D01*
X146996002Y-108295050D01*
X146642039Y-108365458D01*
X146341964Y-108565962D01*
X146141460Y-108866037D01*
X146071052Y-109220000D01*
X144809928Y-109220000D01*
X144716684Y-108751232D01*
X144451148Y-108353830D01*
X144053746Y-108088294D01*
X143584978Y-107995050D01*
X143435022Y-107995050D01*
X142966254Y-108088294D01*
X142568852Y-108353830D01*
X142303316Y-108751232D01*
X142210072Y-109220000D01*
X142194950Y-109220000D01*
X142195162Y-108977411D01*
X142009067Y-108527028D01*
X141664784Y-108182144D01*
X141214727Y-107995263D01*
X140727411Y-107994838D01*
X140277028Y-108180933D01*
X139932144Y-108525216D01*
X139745263Y-108975273D01*
X139744838Y-109462589D01*
X139654738Y-109462589D01*
X139655162Y-108977411D01*
X139469067Y-108527028D01*
X139124784Y-108182144D01*
X138674727Y-107995263D01*
X138187411Y-107994838D01*
X137737028Y-108180933D01*
X137392144Y-108525216D01*
X137205263Y-108975273D01*
X137204838Y-109462589D01*
X137114738Y-109462589D01*
X137115162Y-108977411D01*
X136929067Y-108527028D01*
X136584784Y-108182144D01*
X136134727Y-107995263D01*
X135647411Y-107994838D01*
X135197028Y-108180933D01*
X134852144Y-108525216D01*
X134665263Y-108975273D01*
X134664838Y-109462589D01*
X133314254Y-109462589D01*
X133314254Y-108770000D01*
X133281136Y-108593994D01*
X133177117Y-108432344D01*
X133174125Y-108430299D01*
X133258540Y-108303963D01*
X133328948Y-107950000D01*
X133258540Y-107596037D01*
X133070757Y-107315000D01*
X133258540Y-107033963D01*
X133280693Y-106922589D01*
X134664838Y-106922589D01*
X134850933Y-107372972D01*
X135195216Y-107717856D01*
X135645273Y-107904737D01*
X136132589Y-107905162D01*
X136582972Y-107719067D01*
X136927856Y-107374784D01*
X137114737Y-106924727D01*
X137114738Y-106922589D01*
X137204838Y-106922589D01*
X137390933Y-107372972D01*
X137735216Y-107717856D01*
X138185273Y-107904737D01*
X138672589Y-107905162D01*
X139122972Y-107719067D01*
X139467856Y-107374784D01*
X139654737Y-106924727D01*
X139654738Y-106922589D01*
X139744838Y-106922589D01*
X139930933Y-107372972D01*
X140275216Y-107717856D01*
X140725273Y-107904737D01*
X141212589Y-107905162D01*
X141662972Y-107719067D01*
X142007856Y-107374784D01*
X142194737Y-106924727D01*
X142194950Y-106680000D01*
X142210072Y-106680000D01*
X142303316Y-107148768D01*
X142568852Y-107546170D01*
X142966254Y-107811706D01*
X143435022Y-107904950D01*
X143584978Y-107904950D01*
X144053746Y-107811706D01*
X144451148Y-107546170D01*
X144716684Y-107148768D01*
X144809928Y-106680000D01*
X144716684Y-106211232D01*
X144451148Y-105813830D01*
X144053746Y-105548294D01*
X143584978Y-105455050D01*
X143435022Y-105455050D01*
X142966254Y-105548294D01*
X142568852Y-105813830D01*
X142303316Y-106211232D01*
X142210072Y-106680000D01*
X142194950Y-106680000D01*
X142195162Y-106437411D01*
X142009067Y-105987028D01*
X141664784Y-105642144D01*
X141214727Y-105455263D01*
X140727411Y-105454838D01*
X140277028Y-105640933D01*
X139932144Y-105985216D01*
X139745263Y-106435273D01*
X139744838Y-106922589D01*
X139654738Y-106922589D01*
X139655162Y-106437411D01*
X139469067Y-105987028D01*
X139124784Y-105642144D01*
X138674727Y-105455263D01*
X138187411Y-105454838D01*
X137737028Y-105640933D01*
X137392144Y-105985216D01*
X137205263Y-106435273D01*
X137204838Y-106922589D01*
X137114738Y-106922589D01*
X137115162Y-106437411D01*
X136929067Y-105987028D01*
X136584784Y-105642144D01*
X136134727Y-105455263D01*
X135647411Y-105454838D01*
X135197028Y-105640933D01*
X134852144Y-105985216D01*
X134665263Y-106435273D01*
X134664838Y-106922589D01*
X133280693Y-106922589D01*
X133328948Y-106680000D01*
X133258540Y-106326037D01*
X133058036Y-106025962D01*
X132757961Y-105825458D01*
X132403998Y-105755050D01*
X131756002Y-105755050D01*
X131402039Y-105825458D01*
X131101964Y-106025962D01*
X130901460Y-106326037D01*
X130831052Y-106680000D01*
X128234254Y-106680000D01*
X128234254Y-106230000D01*
X128201136Y-106053994D01*
X128097117Y-105892344D01*
X127938402Y-105783898D01*
X127750000Y-105745746D01*
X126250000Y-105745746D01*
X126073994Y-105778864D01*
X125912344Y-105882883D01*
X125803898Y-106041598D01*
X125765746Y-106230000D01*
X125765746Y-107130000D01*
X125798864Y-107306006D01*
X125902883Y-107467656D01*
X125905875Y-107469701D01*
X125821460Y-107596037D01*
X125751052Y-107950000D01*
X123168948Y-107950000D01*
X123098540Y-107596037D01*
X123013432Y-107468664D01*
X123116102Y-107318402D01*
X123154254Y-107130000D01*
X123154254Y-106230000D01*
X123121136Y-106053994D01*
X123017117Y-105892344D01*
X122858402Y-105783898D01*
X122670000Y-105745746D01*
X121170000Y-105745746D01*
X120993994Y-105778864D01*
X120832344Y-105882883D01*
X120723898Y-106041598D01*
X120685746Y-106230000D01*
X120685746Y-107130000D01*
X120718864Y-107306006D01*
X120822883Y-107467656D01*
X120825875Y-107469701D01*
X120741460Y-107596037D01*
X120671052Y-107950000D01*
X116249950Y-107950000D01*
X116249950Y-105410000D01*
X118080072Y-105410000D01*
X118173316Y-105878768D01*
X118438852Y-106276170D01*
X118836254Y-106541706D01*
X119305022Y-106634950D01*
X119454978Y-106634950D01*
X119923746Y-106541706D01*
X120321148Y-106276170D01*
X120586684Y-105878768D01*
X120679928Y-105410000D01*
X146071052Y-105410000D01*
X146141460Y-105763963D01*
X146329243Y-106045000D01*
X146141460Y-106326037D01*
X146071052Y-106680000D01*
X146141460Y-107033963D01*
X146341964Y-107334038D01*
X146642039Y-107534542D01*
X146996002Y-107604950D01*
X147643998Y-107604950D01*
X147997961Y-107534542D01*
X148298036Y-107334038D01*
X148498540Y-107033963D01*
X148520693Y-106922589D01*
X149904838Y-106922589D01*
X150090933Y-107372972D01*
X150435216Y-107717856D01*
X150885273Y-107904737D01*
X151372589Y-107905162D01*
X151822972Y-107719067D01*
X152167856Y-107374784D01*
X152354737Y-106924727D01*
X152355149Y-106451241D01*
X152455050Y-106451241D01*
X152455050Y-109448760D01*
X154804950Y-109448760D01*
X154804950Y-106922589D01*
X154984838Y-106922589D01*
X155170933Y-107372972D01*
X155515216Y-107717856D01*
X155965273Y-107904737D01*
X156452589Y-107905162D01*
X156902972Y-107719067D01*
X157247856Y-107374784D01*
X157434737Y-106924727D01*
X157435162Y-106437411D01*
X157249067Y-105987028D01*
X156904784Y-105642144D01*
X156454727Y-105455263D01*
X155967411Y-105454838D01*
X155517028Y-105640933D01*
X155172144Y-105985216D01*
X154985263Y-106435273D01*
X154984838Y-106922589D01*
X154804950Y-106922589D01*
X154804950Y-106451241D01*
X152455050Y-106451241D01*
X152355149Y-106451241D01*
X152355162Y-106437411D01*
X152169067Y-105987028D01*
X151824784Y-105642144D01*
X151374727Y-105455263D01*
X150887411Y-105454838D01*
X150437028Y-105640933D01*
X150092144Y-105985216D01*
X149905263Y-106435273D01*
X149904838Y-106922589D01*
X148520693Y-106922589D01*
X148568948Y-106680000D01*
X148498540Y-106326037D01*
X148310757Y-106045000D01*
X148498540Y-105763963D01*
X148568948Y-105410000D01*
X148498540Y-105056037D01*
X148413432Y-104928664D01*
X148516102Y-104778402D01*
X148554254Y-104590000D01*
X148554254Y-104382589D01*
X149904838Y-104382589D01*
X150090933Y-104832972D01*
X150435216Y-105177856D01*
X150885273Y-105364737D01*
X151372589Y-105365162D01*
X151822972Y-105179067D01*
X152167856Y-104834784D01*
X152354737Y-104384727D01*
X152354950Y-104140000D01*
X152370072Y-104140000D01*
X152463316Y-104608768D01*
X152728852Y-105006170D01*
X153126254Y-105271706D01*
X153595022Y-105364950D01*
X153744978Y-105364950D01*
X154213746Y-105271706D01*
X154611148Y-105006170D01*
X154876684Y-104608768D01*
X154940000Y-104290458D01*
X155003316Y-104608768D01*
X155268852Y-105006170D01*
X155666254Y-105271706D01*
X156135022Y-105364950D01*
X156284978Y-105364950D01*
X156753746Y-105271706D01*
X157151148Y-105006170D01*
X157416684Y-104608768D01*
X157509928Y-104140000D01*
X157505155Y-104116002D01*
X157525050Y-104116002D01*
X157525050Y-104163998D01*
X157618294Y-104632766D01*
X157883830Y-105030168D01*
X158281232Y-105295704D01*
X158750000Y-105388948D01*
X159218768Y-105295704D01*
X159616170Y-105030168D01*
X159881706Y-104632766D01*
X159974950Y-104163998D01*
X159974950Y-104116002D01*
X159881706Y-103647234D01*
X159709828Y-103390000D01*
X160055746Y-103390000D01*
X160055746Y-104890000D01*
X160088864Y-105066006D01*
X160192883Y-105227656D01*
X160351598Y-105336102D01*
X160540000Y-105374254D01*
X162040000Y-105374254D01*
X162216006Y-105341136D01*
X162377656Y-105237117D01*
X162486102Y-105078402D01*
X162524254Y-104890000D01*
X162524254Y-103390000D01*
X162491136Y-103213994D01*
X162387117Y-103052344D01*
X162228402Y-102943898D01*
X162040000Y-102905746D01*
X160540000Y-102905746D01*
X160363994Y-102938864D01*
X160202344Y-103042883D01*
X160093898Y-103201598D01*
X160055746Y-103390000D01*
X159709828Y-103390000D01*
X159616170Y-103249832D01*
X159218768Y-102984296D01*
X158750000Y-102891052D01*
X158281232Y-102984296D01*
X157883830Y-103249832D01*
X157618294Y-103647234D01*
X157525050Y-104116002D01*
X157505155Y-104116002D01*
X157416684Y-103671232D01*
X157151148Y-103273830D01*
X156753746Y-103008294D01*
X156284978Y-102915050D01*
X156135022Y-102915050D01*
X155666254Y-103008294D01*
X155268852Y-103273830D01*
X155003316Y-103671232D01*
X154940000Y-103989542D01*
X154876684Y-103671232D01*
X154611148Y-103273830D01*
X154213746Y-103008294D01*
X153744978Y-102915050D01*
X153595022Y-102915050D01*
X153126254Y-103008294D01*
X152728852Y-103273830D01*
X152463316Y-103671232D01*
X152370072Y-104140000D01*
X152354950Y-104140000D01*
X152355162Y-103897411D01*
X152169067Y-103447028D01*
X151824784Y-103102144D01*
X151374727Y-102915263D01*
X150887411Y-102914838D01*
X150437028Y-103100933D01*
X150092144Y-103445216D01*
X149905263Y-103895273D01*
X149904838Y-104382589D01*
X148554254Y-104382589D01*
X148554254Y-103690000D01*
X148521136Y-103513994D01*
X148417117Y-103352344D01*
X148258402Y-103243898D01*
X148070000Y-103205746D01*
X146570000Y-103205746D01*
X146393994Y-103238864D01*
X146232344Y-103342883D01*
X146123898Y-103501598D01*
X146085746Y-103690000D01*
X146085746Y-104590000D01*
X146118864Y-104766006D01*
X146222883Y-104927656D01*
X146225875Y-104929701D01*
X146141460Y-105056037D01*
X146071052Y-105410000D01*
X120679928Y-105410000D01*
X120586684Y-104941232D01*
X120321148Y-104543830D01*
X120079835Y-104382589D01*
X120694838Y-104382589D01*
X120880933Y-104832972D01*
X121225216Y-105177856D01*
X121675273Y-105364737D01*
X122162589Y-105365162D01*
X122612972Y-105179067D01*
X122957856Y-104834784D01*
X123144737Y-104384727D01*
X123144738Y-104382589D01*
X125774838Y-104382589D01*
X125960933Y-104832972D01*
X126305216Y-105177856D01*
X126755273Y-105364737D01*
X127242589Y-105365162D01*
X127692972Y-105179067D01*
X128037856Y-104834784D01*
X128224737Y-104384727D01*
X128225162Y-103897411D01*
X128039067Y-103447028D01*
X127694784Y-103102144D01*
X127244727Y-102915263D01*
X126757411Y-102914838D01*
X126307028Y-103100933D01*
X125962144Y-103445216D01*
X125775263Y-103895273D01*
X125774838Y-104382589D01*
X123144738Y-104382589D01*
X123145162Y-103897411D01*
X122959067Y-103447028D01*
X122614784Y-103102144D01*
X122164727Y-102915263D01*
X121677411Y-102914838D01*
X121227028Y-103100933D01*
X120882144Y-103445216D01*
X120695263Y-103895273D01*
X120694838Y-104382589D01*
X120079835Y-104382589D01*
X119923746Y-104278294D01*
X119454978Y-104185050D01*
X119305022Y-104185050D01*
X118836254Y-104278294D01*
X118438852Y-104543830D01*
X118173316Y-104941232D01*
X118080072Y-105410000D01*
X116249950Y-105410000D01*
X116249950Y-101842589D01*
X120694838Y-101842589D01*
X120880933Y-102292972D01*
X121225216Y-102637856D01*
X121675273Y-102824737D01*
X122162589Y-102825162D01*
X122612972Y-102639067D01*
X122957856Y-102294784D01*
X123144737Y-101844727D01*
X123144738Y-101842589D01*
X123234838Y-101842589D01*
X123420933Y-102292972D01*
X123765216Y-102637856D01*
X124215273Y-102824737D01*
X124702589Y-102825162D01*
X125152972Y-102639067D01*
X125497856Y-102294784D01*
X125655494Y-101915151D01*
X130885654Y-101915151D01*
X131078037Y-102352024D01*
X131422960Y-102682020D01*
X131765866Y-102833985D01*
X131954950Y-102749122D01*
X131954950Y-101725050D01*
X132205050Y-101725050D01*
X132205050Y-102749122D01*
X132394134Y-102833985D01*
X132737040Y-102682020D01*
X133081963Y-102352024D01*
X133274346Y-101915151D01*
X133239244Y-101842589D01*
X137204838Y-101842589D01*
X137390933Y-102292972D01*
X137735216Y-102637856D01*
X138185273Y-102824737D01*
X138672589Y-102825162D01*
X139122972Y-102639067D01*
X139467856Y-102294784D01*
X139654737Y-101844727D01*
X139654738Y-101842589D01*
X144824838Y-101842589D01*
X145010933Y-102292972D01*
X145355216Y-102637856D01*
X145805273Y-102824737D01*
X146292589Y-102825162D01*
X146742972Y-102639067D01*
X147087856Y-102294784D01*
X147274737Y-101844727D01*
X147274738Y-101842589D01*
X147364838Y-101842589D01*
X147550933Y-102292972D01*
X147895216Y-102637856D01*
X148345273Y-102824737D01*
X148832589Y-102825162D01*
X149282972Y-102639067D01*
X149627856Y-102294784D01*
X149814737Y-101844727D01*
X149815162Y-101357411D01*
X149629067Y-100907028D01*
X149284784Y-100562144D01*
X148834727Y-100375263D01*
X148347411Y-100374838D01*
X147897028Y-100560933D01*
X147552144Y-100905216D01*
X147365263Y-101355273D01*
X147364838Y-101842589D01*
X147274738Y-101842589D01*
X147275162Y-101357411D01*
X147089067Y-100907028D01*
X146744784Y-100562144D01*
X146294727Y-100375263D01*
X145807411Y-100374838D01*
X145357028Y-100560933D01*
X145012144Y-100905216D01*
X144825263Y-101355273D01*
X144824838Y-101842589D01*
X139654738Y-101842589D01*
X139655162Y-101357411D01*
X139469067Y-100907028D01*
X139124784Y-100562144D01*
X138674727Y-100375263D01*
X138187411Y-100374838D01*
X137737028Y-100560933D01*
X137392144Y-100905216D01*
X137205263Y-101355273D01*
X137204838Y-101842589D01*
X133239244Y-101842589D01*
X133182383Y-101725050D01*
X132205050Y-101725050D01*
X131954950Y-101725050D01*
X130977617Y-101725050D01*
X130885654Y-101915151D01*
X125655494Y-101915151D01*
X125684737Y-101844727D01*
X125685162Y-101357411D01*
X125499067Y-100907028D01*
X125154784Y-100562144D01*
X124704727Y-100375263D01*
X124217411Y-100374838D01*
X123767028Y-100560933D01*
X123422144Y-100905216D01*
X123235263Y-101355273D01*
X123234838Y-101842589D01*
X123144738Y-101842589D01*
X123145162Y-101357411D01*
X122959067Y-100907028D01*
X122614784Y-100562144D01*
X122164727Y-100375263D01*
X121677411Y-100374838D01*
X121227028Y-100560933D01*
X120882144Y-100905216D01*
X120695263Y-101355273D01*
X120694838Y-101842589D01*
X116249950Y-101842589D01*
X116249950Y-99375151D01*
X123265654Y-99375151D01*
X123458037Y-99812024D01*
X123802960Y-100142020D01*
X124145866Y-100293985D01*
X124334950Y-100209122D01*
X124334950Y-99185050D01*
X124585050Y-99185050D01*
X124585050Y-100209122D01*
X124774134Y-100293985D01*
X125117040Y-100142020D01*
X125461963Y-99812024D01*
X125654346Y-99375151D01*
X125562383Y-99185050D01*
X124585050Y-99185050D01*
X124334950Y-99185050D01*
X123357617Y-99185050D01*
X123265654Y-99375151D01*
X116249950Y-99375151D01*
X116249950Y-98032589D01*
X118154838Y-98032589D01*
X118340933Y-98482972D01*
X118685216Y-98827856D01*
X119135273Y-99014737D01*
X119622589Y-99015162D01*
X120072972Y-98829067D01*
X120157337Y-98744849D01*
X123265654Y-98744849D01*
X123357617Y-98934950D01*
X124334950Y-98934950D01*
X124334950Y-98914950D01*
X124585050Y-98914950D01*
X124585050Y-98934950D01*
X125562383Y-98934950D01*
X125654346Y-98744849D01*
X125461963Y-98307976D01*
X125117040Y-97977980D01*
X124850003Y-97859638D01*
X125179556Y-97723132D01*
X125274581Y-97511429D01*
X124460000Y-96696847D01*
X123645419Y-97511429D01*
X123740444Y-97723132D01*
X124093685Y-97849140D01*
X123802960Y-97977980D01*
X123458037Y-98307976D01*
X123265654Y-98744849D01*
X120157337Y-98744849D01*
X120417856Y-98484784D01*
X120604737Y-98034727D01*
X120605162Y-97547411D01*
X120419067Y-97097028D01*
X120074784Y-96752144D01*
X119624727Y-96565263D01*
X119137411Y-96564838D01*
X118687028Y-96750933D01*
X118342144Y-97095216D01*
X118155263Y-97545273D01*
X118154838Y-98032589D01*
X116249950Y-98032589D01*
X116249950Y-96524950D01*
X118700000Y-96524950D01*
X118728203Y-96519441D01*
X118752998Y-96502998D01*
X118940360Y-96315636D01*
X123073089Y-96315636D01*
X123100454Y-96861940D01*
X123256868Y-97239556D01*
X123468571Y-97334581D01*
X124283153Y-96520000D01*
X124636847Y-96520000D01*
X125451429Y-97334581D01*
X125663132Y-97239556D01*
X125846911Y-96724364D01*
X125819546Y-96178060D01*
X125663132Y-95800444D01*
X125451429Y-95705419D01*
X124636847Y-96520000D01*
X124283153Y-96520000D01*
X123468571Y-95705419D01*
X123256868Y-95800444D01*
X123073089Y-96315636D01*
X118940360Y-96315636D01*
X119727425Y-95528571D01*
X123645419Y-95528571D01*
X124460000Y-96343153D01*
X125274581Y-95528571D01*
X125179556Y-95316868D01*
X124664364Y-95133089D01*
X124118060Y-95160454D01*
X123740444Y-95316868D01*
X123645419Y-95528571D01*
X119727425Y-95528571D01*
X120252998Y-95002998D01*
X120269045Y-94979160D01*
X120274950Y-94950000D01*
X120274950Y-94294134D01*
X120686015Y-94294134D01*
X120837980Y-94637040D01*
X121167976Y-94981963D01*
X121604849Y-95174346D01*
X121794950Y-95082383D01*
X121794950Y-94105050D01*
X122045050Y-94105050D01*
X122045050Y-95082383D01*
X122235151Y-95174346D01*
X122672024Y-94981963D01*
X123002020Y-94637040D01*
X123153985Y-94294134D01*
X123069122Y-94105050D01*
X122045050Y-94105050D01*
X121794950Y-94105050D01*
X120770878Y-94105050D01*
X120686015Y-94294134D01*
X120274950Y-94294134D01*
X120274950Y-93665866D01*
X120686015Y-93665866D01*
X120770878Y-93854950D01*
X121794950Y-93854950D01*
X121794950Y-92877617D01*
X122045050Y-92877617D01*
X122045050Y-93854950D01*
X123069122Y-93854950D01*
X123153985Y-93665866D01*
X123002020Y-93322960D01*
X122840012Y-93153623D01*
X127102550Y-93153623D01*
X127102550Y-101746377D01*
X129227450Y-101746377D01*
X129227450Y-101284849D01*
X130885654Y-101284849D01*
X130977617Y-101474950D01*
X131954950Y-101474950D01*
X131954950Y-100450878D01*
X132205050Y-100450878D01*
X132205050Y-101474950D01*
X133182383Y-101474950D01*
X133274346Y-101284849D01*
X133081963Y-100847976D01*
X132737040Y-100517980D01*
X132394134Y-100366015D01*
X132205050Y-100450878D01*
X131954950Y-100450878D01*
X131765866Y-100366015D01*
X131422960Y-100517980D01*
X131078037Y-100847976D01*
X130885654Y-101284849D01*
X129227450Y-101284849D01*
X129227450Y-95620000D01*
X130695746Y-95620000D01*
X130695746Y-97420000D01*
X130728864Y-97596006D01*
X130832883Y-97757656D01*
X130991598Y-97866102D01*
X131180000Y-97904254D01*
X131669412Y-97904254D01*
X131387028Y-98020933D01*
X131042144Y-98365216D01*
X130855263Y-98815273D01*
X130854838Y-99302589D01*
X131040933Y-99752972D01*
X131385216Y-100097856D01*
X131835273Y-100284737D01*
X132322589Y-100285162D01*
X132772972Y-100099067D01*
X133117856Y-99754784D01*
X133304737Y-99304727D01*
X133305162Y-98817411D01*
X133119067Y-98367028D01*
X132774784Y-98022144D01*
X132490875Y-97904254D01*
X132980000Y-97904254D01*
X133156006Y-97871136D01*
X133317656Y-97767117D01*
X133426102Y-97608402D01*
X133464254Y-97420000D01*
X133464254Y-95620000D01*
X133431136Y-95443994D01*
X133327117Y-95282344D01*
X133216153Y-95206525D01*
X133464543Y-95103893D01*
X133633529Y-94935201D01*
X134476647Y-94935201D01*
X134565534Y-95141717D01*
X135062586Y-95317133D01*
X135221183Y-95308651D01*
X135112171Y-95353694D01*
X134725054Y-95740136D01*
X134515289Y-96245306D01*
X134514812Y-96792295D01*
X134723694Y-97297829D01*
X135110136Y-97684946D01*
X135582847Y-97881233D01*
X135346254Y-97928294D01*
X134948852Y-98193830D01*
X134683316Y-98591232D01*
X134590072Y-99060000D01*
X134683316Y-99528768D01*
X134948852Y-99926170D01*
X135346254Y-100191706D01*
X135815022Y-100284950D01*
X135964978Y-100284950D01*
X136433746Y-100191706D01*
X136831148Y-99926170D01*
X137096684Y-99528768D01*
X137127442Y-99374134D01*
X139736015Y-99374134D01*
X139887980Y-99717040D01*
X140217976Y-100061963D01*
X140654849Y-100254346D01*
X140844950Y-100162383D01*
X140844950Y-99185050D01*
X141095050Y-99185050D01*
X141095050Y-100162383D01*
X141285151Y-100254346D01*
X141722024Y-100061963D01*
X142052020Y-99717040D01*
X142203985Y-99374134D01*
X142119122Y-99185050D01*
X141095050Y-99185050D01*
X140844950Y-99185050D01*
X139820878Y-99185050D01*
X139736015Y-99374134D01*
X137127442Y-99374134D01*
X137189928Y-99060000D01*
X137127443Y-98745866D01*
X139736015Y-98745866D01*
X139820878Y-98934950D01*
X140844950Y-98934950D01*
X140844950Y-97957617D01*
X141095050Y-97957617D01*
X141095050Y-98934950D01*
X142119122Y-98934950D01*
X142203985Y-98745866D01*
X142052020Y-98402960D01*
X141722024Y-98058037D01*
X141285151Y-97865654D01*
X141095050Y-97957617D01*
X140844950Y-97957617D01*
X140654849Y-97865654D01*
X140217976Y-98058037D01*
X139887980Y-98402960D01*
X139736015Y-98745866D01*
X137127443Y-98745866D01*
X137096684Y-98591232D01*
X136831148Y-98193830D01*
X136433746Y-97928294D01*
X136196422Y-97881087D01*
X136667829Y-97686306D01*
X137054946Y-97299864D01*
X137264711Y-96794694D01*
X137264737Y-96763787D01*
X142135050Y-96763787D01*
X142135050Y-97514474D01*
X142207357Y-97689038D01*
X142340963Y-97822643D01*
X142515527Y-97894950D01*
X143121929Y-97894950D01*
X142817028Y-98020933D01*
X142472144Y-98365216D01*
X142285263Y-98815273D01*
X142284838Y-99302589D01*
X142470933Y-99752972D01*
X142815216Y-100097856D01*
X143265273Y-100284737D01*
X143752589Y-100285162D01*
X144202972Y-100099067D01*
X144547856Y-99754784D01*
X144734737Y-99304727D01*
X144734738Y-99302589D01*
X149904838Y-99302589D01*
X150090933Y-99752972D01*
X150435216Y-100097856D01*
X150885273Y-100284737D01*
X151372589Y-100285162D01*
X151822972Y-100099067D01*
X152167856Y-99754784D01*
X152354737Y-99304727D01*
X152355162Y-98817411D01*
X152301440Y-98687393D01*
X159964821Y-98687393D01*
X160166107Y-99174543D01*
X160538496Y-99547583D01*
X160893789Y-99695113D01*
X160540457Y-99841107D01*
X160167417Y-100213496D01*
X159965281Y-100700295D01*
X159964821Y-101227393D01*
X160166107Y-101714543D01*
X160538496Y-102087583D01*
X161025295Y-102289719D01*
X161552393Y-102290179D01*
X162039543Y-102088893D01*
X162412583Y-101716504D01*
X162614719Y-101229705D01*
X162615179Y-100702607D01*
X162413893Y-100215457D01*
X162041504Y-99842417D01*
X161686211Y-99694887D01*
X162039543Y-99548893D01*
X162412583Y-99176504D01*
X162614719Y-98689705D01*
X162615179Y-98162607D01*
X162413893Y-97675457D01*
X162041504Y-97302417D01*
X161554705Y-97100281D01*
X161027607Y-97099821D01*
X160540457Y-97301107D01*
X160167417Y-97673496D01*
X159965281Y-98160295D01*
X159964821Y-98687393D01*
X152301440Y-98687393D01*
X152169067Y-98367028D01*
X151824784Y-98022144D01*
X151374727Y-97835263D01*
X150887411Y-97834838D01*
X150437028Y-98020933D01*
X150092144Y-98365216D01*
X149905263Y-98815273D01*
X149904838Y-99302589D01*
X144734738Y-99302589D01*
X144735162Y-98817411D01*
X144549067Y-98367028D01*
X144204784Y-98022144D01*
X143898468Y-97894950D01*
X144504473Y-97894950D01*
X144679037Y-97822643D01*
X144812643Y-97689038D01*
X144884950Y-97514474D01*
X144884950Y-97402697D01*
X147884150Y-97402697D01*
X147960743Y-97598846D01*
X148421499Y-97757529D01*
X148907907Y-97727811D01*
X149219257Y-97598846D01*
X149295850Y-97402697D01*
X148590000Y-96696847D01*
X147884150Y-97402697D01*
X144884950Y-97402697D01*
X144884950Y-96763787D01*
X144766213Y-96645050D01*
X143635050Y-96645050D01*
X143635050Y-96665050D01*
X143384950Y-96665050D01*
X143384950Y-96645050D01*
X142253787Y-96645050D01*
X142135050Y-96763787D01*
X137264737Y-96763787D01*
X137265188Y-96247705D01*
X137056306Y-95742171D01*
X136840039Y-95525526D01*
X142135050Y-95525526D01*
X142135050Y-96276213D01*
X142253787Y-96394950D01*
X143384950Y-96394950D01*
X143384950Y-95263787D01*
X143635050Y-95263787D01*
X143635050Y-96394950D01*
X144766213Y-96394950D01*
X144809664Y-96351499D01*
X147352471Y-96351499D01*
X147382189Y-96837907D01*
X147511154Y-97149257D01*
X147707303Y-97225850D01*
X148413153Y-96520000D01*
X148766847Y-96520000D01*
X149472697Y-97225850D01*
X149668846Y-97149257D01*
X149802013Y-96762589D01*
X152444838Y-96762589D01*
X152630933Y-97212972D01*
X152975216Y-97557856D01*
X153425273Y-97744737D01*
X153912589Y-97745162D01*
X154362972Y-97559067D01*
X154707856Y-97214784D01*
X154894737Y-96764727D01*
X154894738Y-96762589D01*
X154984838Y-96762589D01*
X155170933Y-97212972D01*
X155515216Y-97557856D01*
X155965273Y-97744737D01*
X156452589Y-97745162D01*
X156902972Y-97559067D01*
X157247856Y-97214784D01*
X157434737Y-96764727D01*
X157435162Y-96277411D01*
X157249067Y-95827028D01*
X156904784Y-95482144D01*
X156454727Y-95295263D01*
X155967411Y-95294838D01*
X155517028Y-95480933D01*
X155172144Y-95825216D01*
X154985263Y-96275273D01*
X154984838Y-96762589D01*
X154894738Y-96762589D01*
X154895162Y-96277411D01*
X154709067Y-95827028D01*
X154364784Y-95482144D01*
X153914727Y-95295263D01*
X153427411Y-95294838D01*
X152977028Y-95480933D01*
X152632144Y-95825216D01*
X152445263Y-96275273D01*
X152444838Y-96762589D01*
X149802013Y-96762589D01*
X149827529Y-96688501D01*
X149797811Y-96202093D01*
X149668846Y-95890743D01*
X149472697Y-95814150D01*
X148766847Y-96520000D01*
X148413153Y-96520000D01*
X147707303Y-95814150D01*
X147511154Y-95890743D01*
X147352471Y-96351499D01*
X144809664Y-96351499D01*
X144884950Y-96276213D01*
X144884950Y-95637303D01*
X147884150Y-95637303D01*
X148590000Y-96343153D01*
X149295850Y-95637303D01*
X149219257Y-95441154D01*
X148758501Y-95282471D01*
X148272093Y-95312189D01*
X147960743Y-95441154D01*
X147884150Y-95637303D01*
X144884950Y-95637303D01*
X144884950Y-95525526D01*
X144812643Y-95350962D01*
X144679037Y-95217357D01*
X144504473Y-95145050D01*
X143753787Y-95145050D01*
X143635050Y-95263787D01*
X143384950Y-95263787D01*
X143266213Y-95145050D01*
X142515527Y-95145050D01*
X142340963Y-95217357D01*
X142207357Y-95350962D01*
X142135050Y-95525526D01*
X136840039Y-95525526D01*
X136669864Y-95355054D01*
X136164694Y-95145289D01*
X135936323Y-95145090D01*
X135944466Y-95141717D01*
X136033353Y-94935201D01*
X135255000Y-94156847D01*
X134476647Y-94935201D01*
X133633529Y-94935201D01*
X133837583Y-94731504D01*
X133978455Y-94392246D01*
X134093283Y-94669466D01*
X134299799Y-94758353D01*
X135078153Y-93980000D01*
X135431847Y-93980000D01*
X136210201Y-94758353D01*
X136416717Y-94669466D01*
X136549176Y-94294134D01*
X144816015Y-94294134D01*
X144967980Y-94637040D01*
X145297976Y-94981963D01*
X145734849Y-95174346D01*
X145924950Y-95082383D01*
X145924950Y-94105050D01*
X146175050Y-94105050D01*
X146175050Y-95082383D01*
X146365151Y-95174346D01*
X146802024Y-94981963D01*
X147132020Y-94637040D01*
X147283985Y-94294134D01*
X147251875Y-94222589D01*
X148634838Y-94222589D01*
X148820933Y-94672972D01*
X149165216Y-95017856D01*
X149615273Y-95204737D01*
X150102589Y-95205162D01*
X150552972Y-95019067D01*
X150897856Y-94674784D01*
X151055494Y-94295151D01*
X156285654Y-94295151D01*
X156478037Y-94732024D01*
X156822960Y-95062020D01*
X157165866Y-95213985D01*
X157354950Y-95129122D01*
X157354950Y-94105050D01*
X157605050Y-94105050D01*
X157605050Y-95129122D01*
X157794134Y-95213985D01*
X158137040Y-95062020D01*
X158481963Y-94732024D01*
X158674346Y-94295151D01*
X158582383Y-94105050D01*
X157605050Y-94105050D01*
X157354950Y-94105050D01*
X156377617Y-94105050D01*
X156285654Y-94295151D01*
X151055494Y-94295151D01*
X151084737Y-94224727D01*
X151085162Y-93737411D01*
X151055180Y-93664849D01*
X156285654Y-93664849D01*
X156377617Y-93854950D01*
X157354950Y-93854950D01*
X157354950Y-92830878D01*
X157605050Y-92830878D01*
X157605050Y-93854950D01*
X158582383Y-93854950D01*
X158674346Y-93664849D01*
X158481963Y-93227976D01*
X158137040Y-92897980D01*
X157794134Y-92746015D01*
X157605050Y-92830878D01*
X157354950Y-92830878D01*
X157165866Y-92746015D01*
X156822960Y-92897980D01*
X156478037Y-93227976D01*
X156285654Y-93664849D01*
X151055180Y-93664849D01*
X150899067Y-93287028D01*
X150554784Y-92942144D01*
X150104727Y-92755263D01*
X149617411Y-92754838D01*
X149167028Y-92940933D01*
X148822144Y-93285216D01*
X148635263Y-93735273D01*
X148634838Y-94222589D01*
X147251875Y-94222589D01*
X147199122Y-94105050D01*
X146175050Y-94105050D01*
X145924950Y-94105050D01*
X144900878Y-94105050D01*
X144816015Y-94294134D01*
X136549176Y-94294134D01*
X136592133Y-94172414D01*
X136565043Y-93665866D01*
X144816015Y-93665866D01*
X144900878Y-93854950D01*
X145924950Y-93854950D01*
X145924950Y-92877617D01*
X146175050Y-92877617D01*
X146175050Y-93854950D01*
X147199122Y-93854950D01*
X147283985Y-93665866D01*
X147132020Y-93322960D01*
X146802024Y-92978037D01*
X146365151Y-92785654D01*
X146175050Y-92877617D01*
X145924950Y-92877617D01*
X145734849Y-92785654D01*
X145297976Y-92978037D01*
X144967980Y-93322960D01*
X144816015Y-93665866D01*
X136565043Y-93665866D01*
X136563984Y-93646068D01*
X136416717Y-93290534D01*
X136210201Y-93201647D01*
X135431847Y-93980000D01*
X135078153Y-93980000D01*
X134299799Y-93201647D01*
X134093283Y-93290534D01*
X133987531Y-93590189D01*
X133838893Y-93230457D01*
X133633594Y-93024799D01*
X134476647Y-93024799D01*
X135255000Y-93803153D01*
X136033353Y-93024799D01*
X135944466Y-92818283D01*
X135447414Y-92642867D01*
X134921068Y-92671016D01*
X134565534Y-92818283D01*
X134476647Y-93024799D01*
X133633594Y-93024799D01*
X133466504Y-92857417D01*
X132979705Y-92655281D01*
X132452607Y-92654821D01*
X131965457Y-92856107D01*
X131592417Y-93228496D01*
X131390281Y-93715295D01*
X131389821Y-94242393D01*
X131591107Y-94729543D01*
X131963496Y-95102583D01*
X132043362Y-95135746D01*
X131180000Y-95135746D01*
X131003994Y-95168864D01*
X130842344Y-95272883D01*
X130733898Y-95431598D01*
X130695746Y-95620000D01*
X129227450Y-95620000D01*
X129227450Y-93153623D01*
X127102550Y-93153623D01*
X122840012Y-93153623D01*
X122672024Y-92978037D01*
X122235151Y-92785654D01*
X122045050Y-92877617D01*
X121794950Y-92877617D01*
X121604849Y-92785654D01*
X121167976Y-92978037D01*
X120837980Y-93322960D01*
X120686015Y-93665866D01*
X120274950Y-93665866D01*
X120274950Y-92499950D01*
X159125050Y-92499950D01*
X159125050Y-94950000D01*
X159125050Y-94950000D01*
G37*
X159125050Y-94950000D02*
X159130559Y-94978203D01*
X159147002Y-95002998D01*
X160647002Y-96502998D01*
X160670840Y-96519045D01*
X160700000Y-96524950D01*
X163150050Y-96524950D01*
X163150050Y-119375050D01*
X160700000Y-119375050D01*
X160671797Y-119380559D01*
X160647002Y-119397002D01*
X159147002Y-120897002D01*
X159130955Y-120920840D01*
X159125050Y-120950000D01*
X159125050Y-123400050D01*
X120274950Y-123400050D01*
X120274950Y-122875201D01*
X131936647Y-122875201D01*
X132025534Y-123081717D01*
X132522586Y-123257133D01*
X133048932Y-123228984D01*
X133404466Y-123081717D01*
X133493353Y-122875201D01*
X132715000Y-122096847D01*
X131936647Y-122875201D01*
X120274950Y-122875201D01*
X120274950Y-121727586D01*
X131377867Y-121727586D01*
X131406016Y-122253932D01*
X131553283Y-122609466D01*
X131759799Y-122698353D01*
X132538153Y-121920000D01*
X132891847Y-121920000D01*
X133670201Y-122698353D01*
X133876717Y-122609466D01*
X133982469Y-122309811D01*
X134131107Y-122669543D01*
X134503496Y-123042583D01*
X134990295Y-123244719D01*
X135517393Y-123245179D01*
X136004543Y-123043893D01*
X136377583Y-122671504D01*
X136579719Y-122184705D01*
X136580179Y-121657607D01*
X136378893Y-121170457D01*
X136052087Y-120843079D01*
X138724882Y-120843079D01*
X138872996Y-121201543D01*
X139147014Y-121476040D01*
X139505220Y-121624780D01*
X139893079Y-121625118D01*
X140066548Y-121553442D01*
X139995220Y-121725220D01*
X139994882Y-122113079D01*
X140142996Y-122471543D01*
X140417014Y-122746040D01*
X140775220Y-122894780D01*
X141163079Y-122895118D01*
X141521543Y-122747004D01*
X141796040Y-122472986D01*
X141895219Y-122234134D01*
X144816015Y-122234134D01*
X144967980Y-122577040D01*
X145297976Y-122921963D01*
X145734849Y-123114346D01*
X145924950Y-123022383D01*
X145924950Y-122045050D01*
X146175050Y-122045050D01*
X146175050Y-123022383D01*
X146365151Y-123114346D01*
X146802024Y-122921963D01*
X147132020Y-122577040D01*
X147283985Y-122234134D01*
X147251875Y-122162589D01*
X148634838Y-122162589D01*
X148820933Y-122612972D01*
X149165216Y-122957856D01*
X149615273Y-123144737D01*
X150102589Y-123145162D01*
X150552972Y-122959067D01*
X150897856Y-122614784D01*
X151055494Y-122235151D01*
X156285654Y-122235151D01*
X156478037Y-122672024D01*
X156822960Y-123002020D01*
X157165866Y-123153985D01*
X157354950Y-123069122D01*
X157354950Y-122045050D01*
X157605050Y-122045050D01*
X157605050Y-123069122D01*
X157794134Y-123153985D01*
X158137040Y-123002020D01*
X158481963Y-122672024D01*
X158674346Y-122235151D01*
X158582383Y-122045050D01*
X157605050Y-122045050D01*
X157354950Y-122045050D01*
X156377617Y-122045050D01*
X156285654Y-122235151D01*
X151055494Y-122235151D01*
X151084737Y-122164727D01*
X151085162Y-121677411D01*
X151055180Y-121604849D01*
X156285654Y-121604849D01*
X156377617Y-121794950D01*
X157354950Y-121794950D01*
X157354950Y-120770878D01*
X157605050Y-120770878D01*
X157605050Y-121794950D01*
X158582383Y-121794950D01*
X158674346Y-121604849D01*
X158481963Y-121167976D01*
X158137040Y-120837980D01*
X157794134Y-120686015D01*
X157605050Y-120770878D01*
X157354950Y-120770878D01*
X157165866Y-120686015D01*
X156822960Y-120837980D01*
X156478037Y-121167976D01*
X156285654Y-121604849D01*
X151055180Y-121604849D01*
X150899067Y-121227028D01*
X150554784Y-120882144D01*
X150104727Y-120695263D01*
X149617411Y-120694838D01*
X149167028Y-120880933D01*
X148822144Y-121225216D01*
X148635263Y-121675273D01*
X148634838Y-122162589D01*
X147251875Y-122162589D01*
X147199122Y-122045050D01*
X146175050Y-122045050D01*
X145924950Y-122045050D01*
X144900878Y-122045050D01*
X144816015Y-122234134D01*
X141895219Y-122234134D01*
X141944780Y-122114780D01*
X141945118Y-121726921D01*
X141902985Y-121624950D01*
X141996213Y-121624950D01*
X142114950Y-121506213D01*
X142114950Y-120775050D01*
X142365050Y-120775050D01*
X142365050Y-121506213D01*
X142483787Y-121624950D01*
X142834474Y-121624950D01*
X142880546Y-121605866D01*
X144816015Y-121605866D01*
X144900878Y-121794950D01*
X145924950Y-121794950D01*
X145924950Y-120817617D01*
X146175050Y-120817617D01*
X146175050Y-121794950D01*
X147199122Y-121794950D01*
X147283985Y-121605866D01*
X147132020Y-121262960D01*
X146802024Y-120918037D01*
X146365151Y-120725654D01*
X146175050Y-120817617D01*
X145924950Y-120817617D01*
X145734849Y-120725654D01*
X145297976Y-120918037D01*
X144967980Y-121262960D01*
X144816015Y-121605866D01*
X142880546Y-121605866D01*
X143009038Y-121552643D01*
X143142643Y-121419037D01*
X143214950Y-121244473D01*
X143214950Y-120893787D01*
X143096213Y-120775050D01*
X142365050Y-120775050D01*
X142114950Y-120775050D01*
X141383787Y-120775050D01*
X141265050Y-120893787D01*
X141265050Y-120986856D01*
X141164780Y-120945220D01*
X140776921Y-120944882D01*
X140603452Y-121016558D01*
X140674780Y-120844780D01*
X140675118Y-120456921D01*
X140527004Y-120098457D01*
X140484149Y-120055527D01*
X141265050Y-120055527D01*
X141265050Y-120406213D01*
X141383787Y-120524950D01*
X142114950Y-120524950D01*
X142114950Y-119793787D01*
X142365050Y-119793787D01*
X142365050Y-120524950D01*
X143096213Y-120524950D01*
X143214950Y-120406213D01*
X143214950Y-120262697D01*
X147884150Y-120262697D01*
X147960743Y-120458846D01*
X148421499Y-120617529D01*
X148907907Y-120587811D01*
X149219257Y-120458846D01*
X149295850Y-120262697D01*
X148590000Y-119556847D01*
X147884150Y-120262697D01*
X143214950Y-120262697D01*
X143214950Y-120055527D01*
X143142643Y-119880963D01*
X143009038Y-119747357D01*
X142834474Y-119675050D01*
X142483787Y-119675050D01*
X142365050Y-119793787D01*
X142114950Y-119793787D01*
X141996213Y-119675050D01*
X141645526Y-119675050D01*
X141470962Y-119747357D01*
X141337357Y-119880963D01*
X141265050Y-120055527D01*
X140484149Y-120055527D01*
X140252986Y-119823960D01*
X139894780Y-119675220D01*
X139506921Y-119674882D01*
X139148457Y-119822996D01*
X138873960Y-120097014D01*
X138725220Y-120455220D01*
X138724882Y-120843079D01*
X136052087Y-120843079D01*
X136006504Y-120797417D01*
X135519705Y-120595281D01*
X134992607Y-120594821D01*
X134505457Y-120796107D01*
X134132417Y-121168496D01*
X133991545Y-121507754D01*
X133876717Y-121230534D01*
X133670201Y-121141647D01*
X132891847Y-121920000D01*
X132538153Y-121920000D01*
X131759799Y-121141647D01*
X131553283Y-121230534D01*
X131377867Y-121727586D01*
X120274950Y-121727586D01*
X120274950Y-120964799D01*
X131936647Y-120964799D01*
X132715000Y-121743153D01*
X133493353Y-120964799D01*
X133404466Y-120758283D01*
X132907414Y-120582867D01*
X132381068Y-120611016D01*
X132025534Y-120758283D01*
X131936647Y-120964799D01*
X120274950Y-120964799D01*
X120274950Y-120950000D01*
X120269441Y-120921797D01*
X120252998Y-120897002D01*
X118978585Y-119622589D01*
X120694838Y-119622589D01*
X120880933Y-120072972D01*
X121225216Y-120417856D01*
X121675273Y-120604737D01*
X122162589Y-120605162D01*
X122612972Y-120419067D01*
X122769614Y-120262697D01*
X123754150Y-120262697D01*
X123830743Y-120458846D01*
X124291499Y-120617529D01*
X124777907Y-120587811D01*
X125089257Y-120458846D01*
X125165850Y-120262697D01*
X124460000Y-119556847D01*
X123754150Y-120262697D01*
X122769614Y-120262697D01*
X122957856Y-120074784D01*
X123144737Y-119624727D01*
X123145097Y-119211499D01*
X123222471Y-119211499D01*
X123252189Y-119697907D01*
X123381154Y-120009257D01*
X123577303Y-120085850D01*
X124283153Y-119380000D01*
X124636847Y-119380000D01*
X125342697Y-120085850D01*
X125538846Y-120009257D01*
X125672013Y-119622589D01*
X128314838Y-119622589D01*
X128500933Y-120072972D01*
X128845216Y-120417856D01*
X129295273Y-120604737D01*
X129782589Y-120605162D01*
X130232972Y-120419067D01*
X130577856Y-120074784D01*
X130764737Y-119624727D01*
X130765097Y-119211499D01*
X147352471Y-119211499D01*
X147382189Y-119697907D01*
X147511154Y-120009257D01*
X147707303Y-120085850D01*
X148413153Y-119380000D01*
X148766847Y-119380000D01*
X149472697Y-120085850D01*
X149668846Y-120009257D01*
X149802013Y-119622589D01*
X152444838Y-119622589D01*
X152630933Y-120072972D01*
X152975216Y-120417856D01*
X153425273Y-120604737D01*
X153912589Y-120605162D01*
X154362972Y-120419067D01*
X154707856Y-120074784D01*
X154894737Y-119624727D01*
X154894950Y-119380000D01*
X154910072Y-119380000D01*
X155003316Y-119848768D01*
X155268852Y-120246170D01*
X155666254Y-120511706D01*
X156135022Y-120604950D01*
X156284978Y-120604950D01*
X156753746Y-120511706D01*
X157151148Y-120246170D01*
X157416684Y-119848768D01*
X157509928Y-119380000D01*
X157416684Y-118911232D01*
X157151148Y-118513830D01*
X156753746Y-118248294D01*
X156284978Y-118155050D01*
X156135022Y-118155050D01*
X155666254Y-118248294D01*
X155268852Y-118513830D01*
X155003316Y-118911232D01*
X154910072Y-119380000D01*
X154894950Y-119380000D01*
X154895162Y-119137411D01*
X154709067Y-118687028D01*
X154364784Y-118342144D01*
X153914727Y-118155263D01*
X153427411Y-118154838D01*
X152977028Y-118340933D01*
X152632144Y-118685216D01*
X152445263Y-119135273D01*
X152444838Y-119622589D01*
X149802013Y-119622589D01*
X149827529Y-119548501D01*
X149797811Y-119062093D01*
X149668846Y-118750743D01*
X149472697Y-118674150D01*
X148766847Y-119380000D01*
X148413153Y-119380000D01*
X147707303Y-118674150D01*
X147511154Y-118750743D01*
X147352471Y-119211499D01*
X130765097Y-119211499D01*
X130765162Y-119137411D01*
X130579067Y-118687028D01*
X130389673Y-118497303D01*
X147884150Y-118497303D01*
X148590000Y-119203153D01*
X149295850Y-118497303D01*
X149219257Y-118301154D01*
X148758501Y-118142471D01*
X148272093Y-118172189D01*
X147960743Y-118301154D01*
X147884150Y-118497303D01*
X130389673Y-118497303D01*
X130234784Y-118342144D01*
X129784727Y-118155263D01*
X129297411Y-118154838D01*
X128847028Y-118340933D01*
X128502144Y-118685216D01*
X128315263Y-119135273D01*
X128314838Y-119622589D01*
X125672013Y-119622589D01*
X125697529Y-119548501D01*
X125667811Y-119062093D01*
X125538846Y-118750743D01*
X125342697Y-118674150D01*
X124636847Y-119380000D01*
X124283153Y-119380000D01*
X123577303Y-118674150D01*
X123381154Y-118750743D01*
X123222471Y-119211499D01*
X123145097Y-119211499D01*
X123145162Y-119137411D01*
X122959067Y-118687028D01*
X122769673Y-118497303D01*
X123754150Y-118497303D01*
X124460000Y-119203153D01*
X125165850Y-118497303D01*
X125089257Y-118301154D01*
X124628501Y-118142471D01*
X124142093Y-118172189D01*
X123830743Y-118301154D01*
X123754150Y-118497303D01*
X122769673Y-118497303D01*
X122614784Y-118342144D01*
X122164727Y-118155263D01*
X121677411Y-118154838D01*
X121227028Y-118340933D01*
X120882144Y-118685216D01*
X120695263Y-119135273D01*
X120694838Y-119622589D01*
X118978585Y-119622589D01*
X118752998Y-119397002D01*
X118729160Y-119380955D01*
X118700000Y-119375050D01*
X116249950Y-119375050D01*
X116249950Y-118424134D01*
X118146015Y-118424134D01*
X118297980Y-118767040D01*
X118627976Y-119111963D01*
X119064849Y-119304346D01*
X119254950Y-119212383D01*
X119254950Y-118235050D01*
X119505050Y-118235050D01*
X119505050Y-119212383D01*
X119695151Y-119304346D01*
X120132024Y-119111963D01*
X120462020Y-118767040D01*
X120613985Y-118424134D01*
X120529122Y-118235050D01*
X119505050Y-118235050D01*
X119254950Y-118235050D01*
X118230878Y-118235050D01*
X118146015Y-118424134D01*
X116249950Y-118424134D01*
X116249950Y-117795866D01*
X118146015Y-117795866D01*
X118230878Y-117984950D01*
X119254950Y-117984950D01*
X119254950Y-117007617D01*
X119505050Y-117007617D01*
X119505050Y-117984950D01*
X120529122Y-117984950D01*
X120613985Y-117795866D01*
X120581559Y-117722697D01*
X126294150Y-117722697D01*
X126370743Y-117918846D01*
X126831499Y-118077529D01*
X127317907Y-118047811D01*
X127629257Y-117918846D01*
X127705850Y-117722697D01*
X127000000Y-117016847D01*
X126294150Y-117722697D01*
X120581559Y-117722697D01*
X120462020Y-117452960D01*
X120132024Y-117108037D01*
X119695151Y-116915654D01*
X119505050Y-117007617D01*
X119254950Y-117007617D01*
X119064849Y-116915654D01*
X118627976Y-117108037D01*
X118297980Y-117452960D01*
X118146015Y-117795866D01*
X116249950Y-117795866D01*
X116249950Y-116671499D01*
X125762471Y-116671499D01*
X125792189Y-117157907D01*
X125921154Y-117469257D01*
X126117303Y-117545850D01*
X126823153Y-116840000D01*
X127176847Y-116840000D01*
X127882697Y-117545850D01*
X128078846Y-117469257D01*
X128212013Y-117082589D01*
X130854838Y-117082589D01*
X131040933Y-117532972D01*
X131385216Y-117877856D01*
X131835273Y-118064737D01*
X132322589Y-118065162D01*
X132772972Y-117879067D01*
X133117856Y-117534784D01*
X133304737Y-117084727D01*
X133304950Y-116840000D01*
X134590072Y-116840000D01*
X134683316Y-117308768D01*
X134948852Y-117706170D01*
X135346254Y-117971706D01*
X135815022Y-118064950D01*
X135964978Y-118064950D01*
X136433746Y-117971706D01*
X136831148Y-117706170D01*
X137096684Y-117308768D01*
X137127442Y-117154134D01*
X139736015Y-117154134D01*
X139887980Y-117497040D01*
X140217976Y-117841963D01*
X140654849Y-118034346D01*
X140844950Y-117942383D01*
X140844950Y-116965050D01*
X141095050Y-116965050D01*
X141095050Y-117942383D01*
X141285151Y-118034346D01*
X141722024Y-117841963D01*
X142052020Y-117497040D01*
X142203985Y-117154134D01*
X142171875Y-117082589D01*
X142284838Y-117082589D01*
X142470933Y-117532972D01*
X142815216Y-117877856D01*
X143265273Y-118064737D01*
X143752589Y-118065162D01*
X144202972Y-117879067D01*
X144547856Y-117534784D01*
X144734737Y-117084727D01*
X144734738Y-117082589D01*
X149904838Y-117082589D01*
X150090933Y-117532972D01*
X150435216Y-117877856D01*
X150885273Y-118064737D01*
X151372589Y-118065162D01*
X151822972Y-117879067D01*
X151994651Y-117707687D01*
X160114846Y-117707687D01*
X160293345Y-118139686D01*
X160623575Y-118470494D01*
X161055263Y-118649746D01*
X161522687Y-118650154D01*
X161954686Y-118471655D01*
X162285494Y-118141425D01*
X162464746Y-117709737D01*
X162465154Y-117242313D01*
X162286655Y-116810314D01*
X161956425Y-116479506D01*
X161524737Y-116300254D01*
X161057313Y-116299846D01*
X160625314Y-116478345D01*
X160294506Y-116808575D01*
X160115254Y-117240263D01*
X160114846Y-117707687D01*
X151994651Y-117707687D01*
X152167856Y-117534784D01*
X152354737Y-117084727D01*
X152355162Y-116597411D01*
X152169067Y-116147028D01*
X151824784Y-115802144D01*
X151374727Y-115615263D01*
X150887411Y-115614838D01*
X150437028Y-115800933D01*
X150092144Y-116145216D01*
X149905263Y-116595273D01*
X149904838Y-117082589D01*
X144734738Y-117082589D01*
X144735162Y-116597411D01*
X144549067Y-116147028D01*
X144204784Y-115802144D01*
X143754727Y-115615263D01*
X143267411Y-115614838D01*
X142817028Y-115800933D01*
X142472144Y-116145216D01*
X142285263Y-116595273D01*
X142284838Y-117082589D01*
X142171875Y-117082589D01*
X142119122Y-116965050D01*
X141095050Y-116965050D01*
X140844950Y-116965050D01*
X139820878Y-116965050D01*
X139736015Y-117154134D01*
X137127442Y-117154134D01*
X137189928Y-116840000D01*
X137127443Y-116525866D01*
X139736015Y-116525866D01*
X139820878Y-116714950D01*
X140844950Y-116714950D01*
X140844950Y-115737617D01*
X141095050Y-115737617D01*
X141095050Y-116714950D01*
X142119122Y-116714950D01*
X142203985Y-116525866D01*
X142052020Y-116182960D01*
X141722024Y-115838037D01*
X141285151Y-115645654D01*
X141095050Y-115737617D01*
X140844950Y-115737617D01*
X140654849Y-115645654D01*
X140217976Y-115838037D01*
X139887980Y-116182960D01*
X139736015Y-116525866D01*
X137127443Y-116525866D01*
X137096684Y-116371232D01*
X136831148Y-115973830D01*
X136433746Y-115708294D01*
X135964978Y-115615050D01*
X135815022Y-115615050D01*
X135346254Y-115708294D01*
X134948852Y-115973830D01*
X134683316Y-116371232D01*
X134590072Y-116840000D01*
X133304950Y-116840000D01*
X133305162Y-116597411D01*
X133119067Y-116147028D01*
X132774784Y-115802144D01*
X132324727Y-115615263D01*
X131837411Y-115614838D01*
X131387028Y-115800933D01*
X131042144Y-116145216D01*
X130855263Y-116595273D01*
X130854838Y-117082589D01*
X128212013Y-117082589D01*
X128237529Y-117008501D01*
X128207811Y-116522093D01*
X128078846Y-116210743D01*
X127882697Y-116134150D01*
X127176847Y-116840000D01*
X126823153Y-116840000D01*
X126117303Y-116134150D01*
X125921154Y-116210743D01*
X125762471Y-116671499D01*
X116249950Y-116671499D01*
X116249950Y-115957303D01*
X126294150Y-115957303D01*
X127000000Y-116663153D01*
X127705850Y-115957303D01*
X127629257Y-115761154D01*
X127168501Y-115602471D01*
X126682093Y-115632189D01*
X126370743Y-115761154D01*
X126294150Y-115957303D01*
X116249950Y-115957303D01*
X116249950Y-114615151D01*
X123265654Y-114615151D01*
X123458037Y-115052024D01*
X123802960Y-115382020D01*
X124145866Y-115533985D01*
X124334950Y-115449122D01*
X124334950Y-114425050D01*
X124585050Y-114425050D01*
X124585050Y-115449122D01*
X124774134Y-115533985D01*
X125117040Y-115382020D01*
X125461963Y-115052024D01*
X125654346Y-114615151D01*
X125619244Y-114542589D01*
X130854838Y-114542589D01*
X131040933Y-114992972D01*
X131385216Y-115337856D01*
X131835273Y-115524737D01*
X132322589Y-115525162D01*
X132772972Y-115339067D01*
X133117856Y-114994784D01*
X133304737Y-114544727D01*
X133304738Y-114542589D01*
X137204838Y-114542589D01*
X137390933Y-114992972D01*
X137735216Y-115337856D01*
X138185273Y-115524737D01*
X138672589Y-115525162D01*
X139122972Y-115339067D01*
X139467856Y-114994784D01*
X139654737Y-114544727D01*
X139654738Y-114542589D01*
X144824838Y-114542589D01*
X145010933Y-114992972D01*
X145355216Y-115337856D01*
X145805273Y-115524737D01*
X146292589Y-115525162D01*
X146742972Y-115339067D01*
X147087856Y-114994784D01*
X147274737Y-114544727D01*
X147274738Y-114542589D01*
X147364838Y-114542589D01*
X147550933Y-114992972D01*
X147895216Y-115337856D01*
X148345273Y-115524737D01*
X148832589Y-115525162D01*
X149282972Y-115339067D01*
X149443531Y-115178787D01*
X160115050Y-115178787D01*
X160115050Y-115729474D01*
X160187357Y-115904038D01*
X160320963Y-116037643D01*
X160495527Y-116109950D01*
X161046213Y-116109950D01*
X161164950Y-115991213D01*
X161164950Y-115060050D01*
X161415050Y-115060050D01*
X161415050Y-115991213D01*
X161533787Y-116109950D01*
X162084473Y-116109950D01*
X162259037Y-116037643D01*
X162392643Y-115904038D01*
X162464950Y-115729474D01*
X162464950Y-115178787D01*
X162346213Y-115060050D01*
X161415050Y-115060050D01*
X161164950Y-115060050D01*
X160233787Y-115060050D01*
X160115050Y-115178787D01*
X149443531Y-115178787D01*
X149627856Y-114994784D01*
X149814737Y-114544727D01*
X149815089Y-114140526D01*
X160115050Y-114140526D01*
X160115050Y-114691213D01*
X160233787Y-114809950D01*
X161164950Y-114809950D01*
X161164950Y-113878787D01*
X161415050Y-113878787D01*
X161415050Y-114809950D01*
X162346213Y-114809950D01*
X162464950Y-114691213D01*
X162464950Y-114140526D01*
X162392643Y-113965962D01*
X162259037Y-113832357D01*
X162084473Y-113760050D01*
X161533787Y-113760050D01*
X161415050Y-113878787D01*
X161164950Y-113878787D01*
X161046213Y-113760050D01*
X160495527Y-113760050D01*
X160320963Y-113832357D01*
X160187357Y-113965962D01*
X160115050Y-114140526D01*
X149815089Y-114140526D01*
X149815162Y-114057411D01*
X149629067Y-113607028D01*
X149284784Y-113262144D01*
X148834727Y-113075263D01*
X148347411Y-113074838D01*
X147897028Y-113260933D01*
X147552144Y-113605216D01*
X147365263Y-114055273D01*
X147364838Y-114542589D01*
X147274738Y-114542589D01*
X147275162Y-114057411D01*
X147089067Y-113607028D01*
X146744784Y-113262144D01*
X146294727Y-113075263D01*
X145807411Y-113074838D01*
X145357028Y-113260933D01*
X145012144Y-113605216D01*
X144825263Y-114055273D01*
X144824838Y-114542589D01*
X139654738Y-114542589D01*
X139655162Y-114057411D01*
X139469067Y-113607028D01*
X139124784Y-113262144D01*
X138674727Y-113075263D01*
X138187411Y-113074838D01*
X137737028Y-113260933D01*
X137392144Y-113605216D01*
X137205263Y-114055273D01*
X137204838Y-114542589D01*
X133304738Y-114542589D01*
X133305162Y-114057411D01*
X133119067Y-113607028D01*
X132774784Y-113262144D01*
X132324727Y-113075263D01*
X131837411Y-113074838D01*
X131387028Y-113260933D01*
X131042144Y-113605216D01*
X130855263Y-114055273D01*
X130854838Y-114542589D01*
X125619244Y-114542589D01*
X125562383Y-114425050D01*
X124585050Y-114425050D01*
X124334950Y-114425050D01*
X123357617Y-114425050D01*
X123265654Y-114615151D01*
X116249950Y-114615151D01*
X116249950Y-111760000D01*
X120620072Y-111760000D01*
X120713316Y-112228768D01*
X120978852Y-112626170D01*
X121376254Y-112891706D01*
X121845022Y-112984950D01*
X121994978Y-112984950D01*
X122463746Y-112891706D01*
X122861148Y-112626170D01*
X123126684Y-112228768D01*
X123219928Y-111760000D01*
X123205014Y-111685022D01*
X123235050Y-111685022D01*
X123235050Y-111834978D01*
X123328294Y-112303746D01*
X123593830Y-112701148D01*
X123991232Y-112966684D01*
X124334948Y-113035054D01*
X124334948Y-113150877D01*
X124145866Y-113066015D01*
X123802960Y-113217980D01*
X123458037Y-113547976D01*
X123265654Y-113984849D01*
X123357617Y-114174950D01*
X124334950Y-114174950D01*
X124334950Y-114154950D01*
X124585050Y-114154950D01*
X124585050Y-114174950D01*
X125562383Y-114174950D01*
X125654346Y-113984849D01*
X125461963Y-113547976D01*
X125117040Y-113217980D01*
X124774134Y-113066015D01*
X124585052Y-113150877D01*
X124585052Y-113035054D01*
X124928768Y-112966684D01*
X125326170Y-112701148D01*
X125591706Y-112303746D01*
X125651610Y-112002589D01*
X130854838Y-112002589D01*
X131040933Y-112452972D01*
X131385216Y-112797856D01*
X131835273Y-112984737D01*
X132322589Y-112985162D01*
X132772972Y-112799067D01*
X133117856Y-112454784D01*
X133304737Y-112004727D01*
X133305162Y-111517411D01*
X133119067Y-111067028D01*
X132774784Y-110722144D01*
X132324727Y-110535263D01*
X131837411Y-110534838D01*
X131387028Y-110720933D01*
X131042144Y-111065216D01*
X130855263Y-111515273D01*
X130854838Y-112002589D01*
X125651610Y-112002589D01*
X125684950Y-111834978D01*
X125684950Y-111685022D01*
X125591706Y-111216254D01*
X125326170Y-110818852D01*
X124928768Y-110553316D01*
X124460000Y-110460072D01*
X123991232Y-110553316D01*
X123593830Y-110818852D01*
X123328294Y-111216254D01*
X123235050Y-111685022D01*
X123205014Y-111685022D01*
X123126684Y-111291232D01*
X122861148Y-110893830D01*
X122463746Y-110628294D01*
X121994978Y-110535050D01*
X121845022Y-110535050D01*
X121376254Y-110628294D01*
X120978852Y-110893830D01*
X120713316Y-111291232D01*
X120620072Y-111760000D01*
X116249950Y-111760000D01*
X116249950Y-110732589D01*
X118154838Y-110732589D01*
X118340933Y-111182972D01*
X118685216Y-111527856D01*
X119135273Y-111714737D01*
X119622589Y-111715162D01*
X120072972Y-111529067D01*
X120417856Y-111184784D01*
X120604737Y-110734727D01*
X120605162Y-110247411D01*
X120419067Y-109797028D01*
X120074784Y-109452144D01*
X119624727Y-109265263D01*
X119137411Y-109264838D01*
X118687028Y-109450933D01*
X118342144Y-109795216D01*
X118155263Y-110245273D01*
X118154838Y-110732589D01*
X116249950Y-110732589D01*
X116249950Y-107950000D01*
X120671052Y-107950000D01*
X120741460Y-108303963D01*
X120929243Y-108585000D01*
X120741460Y-108866037D01*
X120671052Y-109220000D01*
X120741460Y-109573963D01*
X120941964Y-109874038D01*
X121242039Y-110074542D01*
X121596002Y-110144950D01*
X122243998Y-110144950D01*
X122597961Y-110074542D01*
X122898036Y-109874038D01*
X123098540Y-109573963D01*
X123168948Y-109220000D01*
X123098540Y-108866037D01*
X122910757Y-108585000D01*
X123098540Y-108303963D01*
X123168948Y-107950000D01*
X125751052Y-107950000D01*
X125821460Y-108303963D01*
X126009243Y-108585000D01*
X125821460Y-108866037D01*
X125751052Y-109220000D01*
X125821460Y-109573963D01*
X126021964Y-109874038D01*
X126322039Y-110074542D01*
X126676002Y-110144950D01*
X127323998Y-110144950D01*
X127677961Y-110074542D01*
X127978036Y-109874038D01*
X128178540Y-109573963D01*
X128248948Y-109220000D01*
X128178540Y-108866037D01*
X127990757Y-108585000D01*
X128178540Y-108303963D01*
X128248948Y-107950000D01*
X128178540Y-107596037D01*
X128093432Y-107468664D01*
X128196102Y-107318402D01*
X128234254Y-107130000D01*
X128234254Y-106680000D01*
X130831052Y-106680000D01*
X130901460Y-107033963D01*
X131089243Y-107315000D01*
X130901460Y-107596037D01*
X130831052Y-107950000D01*
X130901460Y-108303963D01*
X130986568Y-108431336D01*
X130883898Y-108581598D01*
X130845746Y-108770000D01*
X130845746Y-109670000D01*
X130878864Y-109846006D01*
X130982883Y-110007656D01*
X131141598Y-110116102D01*
X131330000Y-110154254D01*
X132830000Y-110154254D01*
X133006006Y-110121136D01*
X133167656Y-110017117D01*
X133276102Y-109858402D01*
X133314254Y-109670000D01*
X133314254Y-109462589D01*
X134664838Y-109462589D01*
X134850933Y-109912972D01*
X135195216Y-110257856D01*
X135645273Y-110444737D01*
X136132589Y-110445162D01*
X136582972Y-110259067D01*
X136927856Y-109914784D01*
X137114737Y-109464727D01*
X137114738Y-109462589D01*
X137204838Y-109462589D01*
X137390933Y-109912972D01*
X137735216Y-110257856D01*
X138185273Y-110444737D01*
X138672589Y-110445162D01*
X139122972Y-110259067D01*
X139467856Y-109914784D01*
X139654737Y-109464727D01*
X139654738Y-109462589D01*
X139744838Y-109462589D01*
X139930933Y-109912972D01*
X140275216Y-110257856D01*
X140725273Y-110444737D01*
X141212589Y-110445162D01*
X141662972Y-110259067D01*
X142007856Y-109914784D01*
X142194737Y-109464727D01*
X142194950Y-109220000D01*
X142210072Y-109220000D01*
X142303316Y-109688768D01*
X142568852Y-110086170D01*
X142966254Y-110351706D01*
X143435022Y-110444950D01*
X143584978Y-110444950D01*
X144053746Y-110351706D01*
X144451148Y-110086170D01*
X144716684Y-109688768D01*
X144809928Y-109220000D01*
X146071052Y-109220000D01*
X146141460Y-109573963D01*
X146329243Y-109855000D01*
X146141460Y-110136037D01*
X146071052Y-110490000D01*
X146141460Y-110843963D01*
X146226568Y-110971336D01*
X146123898Y-111121598D01*
X146085746Y-111310000D01*
X146085746Y-112210000D01*
X146118864Y-112386006D01*
X146222883Y-112547656D01*
X146381598Y-112656102D01*
X146570000Y-112694254D01*
X148070000Y-112694254D01*
X148246006Y-112661136D01*
X148407656Y-112557117D01*
X148516102Y-112398402D01*
X148554254Y-112210000D01*
X148554254Y-112002589D01*
X149904838Y-112002589D01*
X150090933Y-112452972D01*
X150435216Y-112797856D01*
X150885273Y-112984737D01*
X151372589Y-112985162D01*
X151822972Y-112799067D01*
X152167856Y-112454784D01*
X152354737Y-112004727D01*
X152354950Y-111760000D01*
X152370072Y-111760000D01*
X152463316Y-112228768D01*
X152728852Y-112626170D01*
X153126254Y-112891706D01*
X153595022Y-112984950D01*
X153744978Y-112984950D01*
X154213746Y-112891706D01*
X154611148Y-112626170D01*
X154876684Y-112228768D01*
X154921673Y-112002589D01*
X154984838Y-112002589D01*
X155170933Y-112452972D01*
X155515216Y-112797856D01*
X155965273Y-112984737D01*
X156452589Y-112985162D01*
X156902972Y-112799067D01*
X157247856Y-112454784D01*
X157434737Y-112004727D01*
X157435162Y-111517411D01*
X157249067Y-111067028D01*
X157192139Y-111010000D01*
X157515746Y-111010000D01*
X157515746Y-112510000D01*
X157548864Y-112686006D01*
X157652883Y-112847656D01*
X157811598Y-112956102D01*
X158000000Y-112994254D01*
X159500000Y-112994254D01*
X159676006Y-112961136D01*
X159837656Y-112857117D01*
X159946102Y-112698402D01*
X159984254Y-112510000D01*
X159984254Y-111736002D01*
X160065050Y-111736002D01*
X160065050Y-111783998D01*
X160158294Y-112252766D01*
X160423830Y-112650168D01*
X160821232Y-112915704D01*
X161290000Y-113008948D01*
X161758768Y-112915704D01*
X162156170Y-112650168D01*
X162421706Y-112252766D01*
X162514950Y-111783998D01*
X162514950Y-111736002D01*
X162421706Y-111267234D01*
X162156170Y-110869832D01*
X161758768Y-110604296D01*
X161290000Y-110511052D01*
X160821232Y-110604296D01*
X160423830Y-110869832D01*
X160158294Y-111267234D01*
X160065050Y-111736002D01*
X159984254Y-111736002D01*
X159984254Y-111010000D01*
X159951136Y-110833994D01*
X159847117Y-110672344D01*
X159688402Y-110563898D01*
X159500000Y-110525746D01*
X158000000Y-110525746D01*
X157823994Y-110558864D01*
X157662344Y-110662883D01*
X157553898Y-110821598D01*
X157515746Y-111010000D01*
X157192139Y-111010000D01*
X156904784Y-110722144D01*
X156454727Y-110535263D01*
X155967411Y-110534838D01*
X155517028Y-110720933D01*
X155172144Y-111065216D01*
X154985263Y-111515273D01*
X154984838Y-112002589D01*
X154921673Y-112002589D01*
X154969928Y-111760000D01*
X154876684Y-111291232D01*
X154611148Y-110893830D01*
X154213746Y-110628294D01*
X153744978Y-110535050D01*
X153595022Y-110535050D01*
X153126254Y-110628294D01*
X152728852Y-110893830D01*
X152463316Y-111291232D01*
X152370072Y-111760000D01*
X152354950Y-111760000D01*
X152355162Y-111517411D01*
X152169067Y-111067028D01*
X151824784Y-110722144D01*
X151374727Y-110535263D01*
X150887411Y-110534838D01*
X150437028Y-110720933D01*
X150092144Y-111065216D01*
X149905263Y-111515273D01*
X149904838Y-112002589D01*
X148554254Y-112002589D01*
X148554254Y-111310000D01*
X148521136Y-111133994D01*
X148417117Y-110972344D01*
X148414125Y-110970299D01*
X148498540Y-110843963D01*
X148568948Y-110490000D01*
X148498540Y-110136037D01*
X148310757Y-109855000D01*
X148498540Y-109573963D01*
X148520693Y-109462589D01*
X149904838Y-109462589D01*
X150090933Y-109912972D01*
X150435216Y-110257856D01*
X150885273Y-110444737D01*
X151372589Y-110445162D01*
X151822972Y-110259067D01*
X152167856Y-109914784D01*
X152354737Y-109464727D01*
X152354738Y-109462589D01*
X154984838Y-109462589D01*
X155170933Y-109912972D01*
X155515216Y-110257856D01*
X155965273Y-110444737D01*
X156452589Y-110445162D01*
X156902972Y-110259067D01*
X157247856Y-109914784D01*
X157434737Y-109464727D01*
X157435162Y-108977411D01*
X157249067Y-108527028D01*
X156904784Y-108182144D01*
X156454727Y-107995263D01*
X155967411Y-107994838D01*
X155517028Y-108180933D01*
X155172144Y-108525216D01*
X154985263Y-108975273D01*
X154984838Y-109462589D01*
X152354738Y-109462589D01*
X152355162Y-108977411D01*
X152169067Y-108527028D01*
X151824784Y-108182144D01*
X151374727Y-107995263D01*
X150887411Y-107994838D01*
X150437028Y-108180933D01*
X150092144Y-108525216D01*
X149905263Y-108975273D01*
X149904838Y-109462589D01*
X148520693Y-109462589D01*
X148568948Y-109220000D01*
X148498540Y-108866037D01*
X148298036Y-108565962D01*
X147997961Y-108365458D01*
X147643998Y-108295050D01*
X146996002Y-108295050D01*
X146642039Y-108365458D01*
X146341964Y-108565962D01*
X146141460Y-108866037D01*
X146071052Y-109220000D01*
X144809928Y-109220000D01*
X144716684Y-108751232D01*
X144451148Y-108353830D01*
X144053746Y-108088294D01*
X143584978Y-107995050D01*
X143435022Y-107995050D01*
X142966254Y-108088294D01*
X142568852Y-108353830D01*
X142303316Y-108751232D01*
X142210072Y-109220000D01*
X142194950Y-109220000D01*
X142195162Y-108977411D01*
X142009067Y-108527028D01*
X141664784Y-108182144D01*
X141214727Y-107995263D01*
X140727411Y-107994838D01*
X140277028Y-108180933D01*
X139932144Y-108525216D01*
X139745263Y-108975273D01*
X139744838Y-109462589D01*
X139654738Y-109462589D01*
X139655162Y-108977411D01*
X139469067Y-108527028D01*
X139124784Y-108182144D01*
X138674727Y-107995263D01*
X138187411Y-107994838D01*
X137737028Y-108180933D01*
X137392144Y-108525216D01*
X137205263Y-108975273D01*
X137204838Y-109462589D01*
X137114738Y-109462589D01*
X137115162Y-108977411D01*
X136929067Y-108527028D01*
X136584784Y-108182144D01*
X136134727Y-107995263D01*
X135647411Y-107994838D01*
X135197028Y-108180933D01*
X134852144Y-108525216D01*
X134665263Y-108975273D01*
X134664838Y-109462589D01*
X133314254Y-109462589D01*
X133314254Y-108770000D01*
X133281136Y-108593994D01*
X133177117Y-108432344D01*
X133174125Y-108430299D01*
X133258540Y-108303963D01*
X133328948Y-107950000D01*
X133258540Y-107596037D01*
X133070757Y-107315000D01*
X133258540Y-107033963D01*
X133280693Y-106922589D01*
X134664838Y-106922589D01*
X134850933Y-107372972D01*
X135195216Y-107717856D01*
X135645273Y-107904737D01*
X136132589Y-107905162D01*
X136582972Y-107719067D01*
X136927856Y-107374784D01*
X137114737Y-106924727D01*
X137114738Y-106922589D01*
X137204838Y-106922589D01*
X137390933Y-107372972D01*
X137735216Y-107717856D01*
X138185273Y-107904737D01*
X138672589Y-107905162D01*
X139122972Y-107719067D01*
X139467856Y-107374784D01*
X139654737Y-106924727D01*
X139654738Y-106922589D01*
X139744838Y-106922589D01*
X139930933Y-107372972D01*
X140275216Y-107717856D01*
X140725273Y-107904737D01*
X141212589Y-107905162D01*
X141662972Y-107719067D01*
X142007856Y-107374784D01*
X142194737Y-106924727D01*
X142194950Y-106680000D01*
X142210072Y-106680000D01*
X142303316Y-107148768D01*
X142568852Y-107546170D01*
X142966254Y-107811706D01*
X143435022Y-107904950D01*
X143584978Y-107904950D01*
X144053746Y-107811706D01*
X144451148Y-107546170D01*
X144716684Y-107148768D01*
X144809928Y-106680000D01*
X144716684Y-106211232D01*
X144451148Y-105813830D01*
X144053746Y-105548294D01*
X143584978Y-105455050D01*
X143435022Y-105455050D01*
X142966254Y-105548294D01*
X142568852Y-105813830D01*
X142303316Y-106211232D01*
X142210072Y-106680000D01*
X142194950Y-106680000D01*
X142195162Y-106437411D01*
X142009067Y-105987028D01*
X141664784Y-105642144D01*
X141214727Y-105455263D01*
X140727411Y-105454838D01*
X140277028Y-105640933D01*
X139932144Y-105985216D01*
X139745263Y-106435273D01*
X139744838Y-106922589D01*
X139654738Y-106922589D01*
X139655162Y-106437411D01*
X139469067Y-105987028D01*
X139124784Y-105642144D01*
X138674727Y-105455263D01*
X138187411Y-105454838D01*
X137737028Y-105640933D01*
X137392144Y-105985216D01*
X137205263Y-106435273D01*
X137204838Y-106922589D01*
X137114738Y-106922589D01*
X137115162Y-106437411D01*
X136929067Y-105987028D01*
X136584784Y-105642144D01*
X136134727Y-105455263D01*
X135647411Y-105454838D01*
X135197028Y-105640933D01*
X134852144Y-105985216D01*
X134665263Y-106435273D01*
X134664838Y-106922589D01*
X133280693Y-106922589D01*
X133328948Y-106680000D01*
X133258540Y-106326037D01*
X133058036Y-106025962D01*
X132757961Y-105825458D01*
X132403998Y-105755050D01*
X131756002Y-105755050D01*
X131402039Y-105825458D01*
X131101964Y-106025962D01*
X130901460Y-106326037D01*
X130831052Y-106680000D01*
X128234254Y-106680000D01*
X128234254Y-106230000D01*
X128201136Y-106053994D01*
X128097117Y-105892344D01*
X127938402Y-105783898D01*
X127750000Y-105745746D01*
X126250000Y-105745746D01*
X126073994Y-105778864D01*
X125912344Y-105882883D01*
X125803898Y-106041598D01*
X125765746Y-106230000D01*
X125765746Y-107130000D01*
X125798864Y-107306006D01*
X125902883Y-107467656D01*
X125905875Y-107469701D01*
X125821460Y-107596037D01*
X125751052Y-107950000D01*
X123168948Y-107950000D01*
X123098540Y-107596037D01*
X123013432Y-107468664D01*
X123116102Y-107318402D01*
X123154254Y-107130000D01*
X123154254Y-106230000D01*
X123121136Y-106053994D01*
X123017117Y-105892344D01*
X122858402Y-105783898D01*
X122670000Y-105745746D01*
X121170000Y-105745746D01*
X120993994Y-105778864D01*
X120832344Y-105882883D01*
X120723898Y-106041598D01*
X120685746Y-106230000D01*
X120685746Y-107130000D01*
X120718864Y-107306006D01*
X120822883Y-107467656D01*
X120825875Y-107469701D01*
X120741460Y-107596037D01*
X120671052Y-107950000D01*
X116249950Y-107950000D01*
X116249950Y-105410000D01*
X118080072Y-105410000D01*
X118173316Y-105878768D01*
X118438852Y-106276170D01*
X118836254Y-106541706D01*
X119305022Y-106634950D01*
X119454978Y-106634950D01*
X119923746Y-106541706D01*
X120321148Y-106276170D01*
X120586684Y-105878768D01*
X120679928Y-105410000D01*
X146071052Y-105410000D01*
X146141460Y-105763963D01*
X146329243Y-106045000D01*
X146141460Y-106326037D01*
X146071052Y-106680000D01*
X146141460Y-107033963D01*
X146341964Y-107334038D01*
X146642039Y-107534542D01*
X146996002Y-107604950D01*
X147643998Y-107604950D01*
X147997961Y-107534542D01*
X148298036Y-107334038D01*
X148498540Y-107033963D01*
X148520693Y-106922589D01*
X149904838Y-106922589D01*
X150090933Y-107372972D01*
X150435216Y-107717856D01*
X150885273Y-107904737D01*
X151372589Y-107905162D01*
X151822972Y-107719067D01*
X152167856Y-107374784D01*
X152354737Y-106924727D01*
X152355149Y-106451241D01*
X152455050Y-106451241D01*
X152455050Y-109448760D01*
X154804950Y-109448760D01*
X154804950Y-106922589D01*
X154984838Y-106922589D01*
X155170933Y-107372972D01*
X155515216Y-107717856D01*
X155965273Y-107904737D01*
X156452589Y-107905162D01*
X156902972Y-107719067D01*
X157247856Y-107374784D01*
X157434737Y-106924727D01*
X157435162Y-106437411D01*
X157249067Y-105987028D01*
X156904784Y-105642144D01*
X156454727Y-105455263D01*
X155967411Y-105454838D01*
X155517028Y-105640933D01*
X155172144Y-105985216D01*
X154985263Y-106435273D01*
X154984838Y-106922589D01*
X154804950Y-106922589D01*
X154804950Y-106451241D01*
X152455050Y-106451241D01*
X152355149Y-106451241D01*
X152355162Y-106437411D01*
X152169067Y-105987028D01*
X151824784Y-105642144D01*
X151374727Y-105455263D01*
X150887411Y-105454838D01*
X150437028Y-105640933D01*
X150092144Y-105985216D01*
X149905263Y-106435273D01*
X149904838Y-106922589D01*
X148520693Y-106922589D01*
X148568948Y-106680000D01*
X148498540Y-106326037D01*
X148310757Y-106045000D01*
X148498540Y-105763963D01*
X148568948Y-105410000D01*
X148498540Y-105056037D01*
X148413432Y-104928664D01*
X148516102Y-104778402D01*
X148554254Y-104590000D01*
X148554254Y-104382589D01*
X149904838Y-104382589D01*
X150090933Y-104832972D01*
X150435216Y-105177856D01*
X150885273Y-105364737D01*
X151372589Y-105365162D01*
X151822972Y-105179067D01*
X152167856Y-104834784D01*
X152354737Y-104384727D01*
X152354950Y-104140000D01*
X152370072Y-104140000D01*
X152463316Y-104608768D01*
X152728852Y-105006170D01*
X153126254Y-105271706D01*
X153595022Y-105364950D01*
X153744978Y-105364950D01*
X154213746Y-105271706D01*
X154611148Y-105006170D01*
X154876684Y-104608768D01*
X154940000Y-104290458D01*
X155003316Y-104608768D01*
X155268852Y-105006170D01*
X155666254Y-105271706D01*
X156135022Y-105364950D01*
X156284978Y-105364950D01*
X156753746Y-105271706D01*
X157151148Y-105006170D01*
X157416684Y-104608768D01*
X157509928Y-104140000D01*
X157505155Y-104116002D01*
X157525050Y-104116002D01*
X157525050Y-104163998D01*
X157618294Y-104632766D01*
X157883830Y-105030168D01*
X158281232Y-105295704D01*
X158750000Y-105388948D01*
X159218768Y-105295704D01*
X159616170Y-105030168D01*
X159881706Y-104632766D01*
X159974950Y-104163998D01*
X159974950Y-104116002D01*
X159881706Y-103647234D01*
X159709828Y-103390000D01*
X160055746Y-103390000D01*
X160055746Y-104890000D01*
X160088864Y-105066006D01*
X160192883Y-105227656D01*
X160351598Y-105336102D01*
X160540000Y-105374254D01*
X162040000Y-105374254D01*
X162216006Y-105341136D01*
X162377656Y-105237117D01*
X162486102Y-105078402D01*
X162524254Y-104890000D01*
X162524254Y-103390000D01*
X162491136Y-103213994D01*
X162387117Y-103052344D01*
X162228402Y-102943898D01*
X162040000Y-102905746D01*
X160540000Y-102905746D01*
X160363994Y-102938864D01*
X160202344Y-103042883D01*
X160093898Y-103201598D01*
X160055746Y-103390000D01*
X159709828Y-103390000D01*
X159616170Y-103249832D01*
X159218768Y-102984296D01*
X158750000Y-102891052D01*
X158281232Y-102984296D01*
X157883830Y-103249832D01*
X157618294Y-103647234D01*
X157525050Y-104116002D01*
X157505155Y-104116002D01*
X157416684Y-103671232D01*
X157151148Y-103273830D01*
X156753746Y-103008294D01*
X156284978Y-102915050D01*
X156135022Y-102915050D01*
X155666254Y-103008294D01*
X155268852Y-103273830D01*
X155003316Y-103671232D01*
X154940000Y-103989542D01*
X154876684Y-103671232D01*
X154611148Y-103273830D01*
X154213746Y-103008294D01*
X153744978Y-102915050D01*
X153595022Y-102915050D01*
X153126254Y-103008294D01*
X152728852Y-103273830D01*
X152463316Y-103671232D01*
X152370072Y-104140000D01*
X152354950Y-104140000D01*
X152355162Y-103897411D01*
X152169067Y-103447028D01*
X151824784Y-103102144D01*
X151374727Y-102915263D01*
X150887411Y-102914838D01*
X150437028Y-103100933D01*
X150092144Y-103445216D01*
X149905263Y-103895273D01*
X149904838Y-104382589D01*
X148554254Y-104382589D01*
X148554254Y-103690000D01*
X148521136Y-103513994D01*
X148417117Y-103352344D01*
X148258402Y-103243898D01*
X148070000Y-103205746D01*
X146570000Y-103205746D01*
X146393994Y-103238864D01*
X146232344Y-103342883D01*
X146123898Y-103501598D01*
X146085746Y-103690000D01*
X146085746Y-104590000D01*
X146118864Y-104766006D01*
X146222883Y-104927656D01*
X146225875Y-104929701D01*
X146141460Y-105056037D01*
X146071052Y-105410000D01*
X120679928Y-105410000D01*
X120586684Y-104941232D01*
X120321148Y-104543830D01*
X120079835Y-104382589D01*
X120694838Y-104382589D01*
X120880933Y-104832972D01*
X121225216Y-105177856D01*
X121675273Y-105364737D01*
X122162589Y-105365162D01*
X122612972Y-105179067D01*
X122957856Y-104834784D01*
X123144737Y-104384727D01*
X123144738Y-104382589D01*
X125774838Y-104382589D01*
X125960933Y-104832972D01*
X126305216Y-105177856D01*
X126755273Y-105364737D01*
X127242589Y-105365162D01*
X127692972Y-105179067D01*
X128037856Y-104834784D01*
X128224737Y-104384727D01*
X128225162Y-103897411D01*
X128039067Y-103447028D01*
X127694784Y-103102144D01*
X127244727Y-102915263D01*
X126757411Y-102914838D01*
X126307028Y-103100933D01*
X125962144Y-103445216D01*
X125775263Y-103895273D01*
X125774838Y-104382589D01*
X123144738Y-104382589D01*
X123145162Y-103897411D01*
X122959067Y-103447028D01*
X122614784Y-103102144D01*
X122164727Y-102915263D01*
X121677411Y-102914838D01*
X121227028Y-103100933D01*
X120882144Y-103445216D01*
X120695263Y-103895273D01*
X120694838Y-104382589D01*
X120079835Y-104382589D01*
X119923746Y-104278294D01*
X119454978Y-104185050D01*
X119305022Y-104185050D01*
X118836254Y-104278294D01*
X118438852Y-104543830D01*
X118173316Y-104941232D01*
X118080072Y-105410000D01*
X116249950Y-105410000D01*
X116249950Y-101842589D01*
X120694838Y-101842589D01*
X120880933Y-102292972D01*
X121225216Y-102637856D01*
X121675273Y-102824737D01*
X122162589Y-102825162D01*
X122612972Y-102639067D01*
X122957856Y-102294784D01*
X123144737Y-101844727D01*
X123144738Y-101842589D01*
X123234838Y-101842589D01*
X123420933Y-102292972D01*
X123765216Y-102637856D01*
X124215273Y-102824737D01*
X124702589Y-102825162D01*
X125152972Y-102639067D01*
X125497856Y-102294784D01*
X125655494Y-101915151D01*
X130885654Y-101915151D01*
X131078037Y-102352024D01*
X131422960Y-102682020D01*
X131765866Y-102833985D01*
X131954950Y-102749122D01*
X131954950Y-101725050D01*
X132205050Y-101725050D01*
X132205050Y-102749122D01*
X132394134Y-102833985D01*
X132737040Y-102682020D01*
X133081963Y-102352024D01*
X133274346Y-101915151D01*
X133239244Y-101842589D01*
X137204838Y-101842589D01*
X137390933Y-102292972D01*
X137735216Y-102637856D01*
X138185273Y-102824737D01*
X138672589Y-102825162D01*
X139122972Y-102639067D01*
X139467856Y-102294784D01*
X139654737Y-101844727D01*
X139654738Y-101842589D01*
X144824838Y-101842589D01*
X145010933Y-102292972D01*
X145355216Y-102637856D01*
X145805273Y-102824737D01*
X146292589Y-102825162D01*
X146742972Y-102639067D01*
X147087856Y-102294784D01*
X147274737Y-101844727D01*
X147274738Y-101842589D01*
X147364838Y-101842589D01*
X147550933Y-102292972D01*
X147895216Y-102637856D01*
X148345273Y-102824737D01*
X148832589Y-102825162D01*
X149282972Y-102639067D01*
X149627856Y-102294784D01*
X149814737Y-101844727D01*
X149815162Y-101357411D01*
X149629067Y-100907028D01*
X149284784Y-100562144D01*
X148834727Y-100375263D01*
X148347411Y-100374838D01*
X147897028Y-100560933D01*
X147552144Y-100905216D01*
X147365263Y-101355273D01*
X147364838Y-101842589D01*
X147274738Y-101842589D01*
X147275162Y-101357411D01*
X147089067Y-100907028D01*
X146744784Y-100562144D01*
X146294727Y-100375263D01*
X145807411Y-100374838D01*
X145357028Y-100560933D01*
X145012144Y-100905216D01*
X144825263Y-101355273D01*
X144824838Y-101842589D01*
X139654738Y-101842589D01*
X139655162Y-101357411D01*
X139469067Y-100907028D01*
X139124784Y-100562144D01*
X138674727Y-100375263D01*
X138187411Y-100374838D01*
X137737028Y-100560933D01*
X137392144Y-100905216D01*
X137205263Y-101355273D01*
X137204838Y-101842589D01*
X133239244Y-101842589D01*
X133182383Y-101725050D01*
X132205050Y-101725050D01*
X131954950Y-101725050D01*
X130977617Y-101725050D01*
X130885654Y-101915151D01*
X125655494Y-101915151D01*
X125684737Y-101844727D01*
X125685162Y-101357411D01*
X125499067Y-100907028D01*
X125154784Y-100562144D01*
X124704727Y-100375263D01*
X124217411Y-100374838D01*
X123767028Y-100560933D01*
X123422144Y-100905216D01*
X123235263Y-101355273D01*
X123234838Y-101842589D01*
X123144738Y-101842589D01*
X123145162Y-101357411D01*
X122959067Y-100907028D01*
X122614784Y-100562144D01*
X122164727Y-100375263D01*
X121677411Y-100374838D01*
X121227028Y-100560933D01*
X120882144Y-100905216D01*
X120695263Y-101355273D01*
X120694838Y-101842589D01*
X116249950Y-101842589D01*
X116249950Y-99375151D01*
X123265654Y-99375151D01*
X123458037Y-99812024D01*
X123802960Y-100142020D01*
X124145866Y-100293985D01*
X124334950Y-100209122D01*
X124334950Y-99185050D01*
X124585050Y-99185050D01*
X124585050Y-100209122D01*
X124774134Y-100293985D01*
X125117040Y-100142020D01*
X125461963Y-99812024D01*
X125654346Y-99375151D01*
X125562383Y-99185050D01*
X124585050Y-99185050D01*
X124334950Y-99185050D01*
X123357617Y-99185050D01*
X123265654Y-99375151D01*
X116249950Y-99375151D01*
X116249950Y-98032589D01*
X118154838Y-98032589D01*
X118340933Y-98482972D01*
X118685216Y-98827856D01*
X119135273Y-99014737D01*
X119622589Y-99015162D01*
X120072972Y-98829067D01*
X120157337Y-98744849D01*
X123265654Y-98744849D01*
X123357617Y-98934950D01*
X124334950Y-98934950D01*
X124334950Y-98914950D01*
X124585050Y-98914950D01*
X124585050Y-98934950D01*
X125562383Y-98934950D01*
X125654346Y-98744849D01*
X125461963Y-98307976D01*
X125117040Y-97977980D01*
X124850003Y-97859638D01*
X125179556Y-97723132D01*
X125274581Y-97511429D01*
X124460000Y-96696847D01*
X123645419Y-97511429D01*
X123740444Y-97723132D01*
X124093685Y-97849140D01*
X123802960Y-97977980D01*
X123458037Y-98307976D01*
X123265654Y-98744849D01*
X120157337Y-98744849D01*
X120417856Y-98484784D01*
X120604737Y-98034727D01*
X120605162Y-97547411D01*
X120419067Y-97097028D01*
X120074784Y-96752144D01*
X119624727Y-96565263D01*
X119137411Y-96564838D01*
X118687028Y-96750933D01*
X118342144Y-97095216D01*
X118155263Y-97545273D01*
X118154838Y-98032589D01*
X116249950Y-98032589D01*
X116249950Y-96524950D01*
X118700000Y-96524950D01*
X118728203Y-96519441D01*
X118752998Y-96502998D01*
X118940360Y-96315636D01*
X123073089Y-96315636D01*
X123100454Y-96861940D01*
X123256868Y-97239556D01*
X123468571Y-97334581D01*
X124283153Y-96520000D01*
X124636847Y-96520000D01*
X125451429Y-97334581D01*
X125663132Y-97239556D01*
X125846911Y-96724364D01*
X125819546Y-96178060D01*
X125663132Y-95800444D01*
X125451429Y-95705419D01*
X124636847Y-96520000D01*
X124283153Y-96520000D01*
X123468571Y-95705419D01*
X123256868Y-95800444D01*
X123073089Y-96315636D01*
X118940360Y-96315636D01*
X119727425Y-95528571D01*
X123645419Y-95528571D01*
X124460000Y-96343153D01*
X125274581Y-95528571D01*
X125179556Y-95316868D01*
X124664364Y-95133089D01*
X124118060Y-95160454D01*
X123740444Y-95316868D01*
X123645419Y-95528571D01*
X119727425Y-95528571D01*
X120252998Y-95002998D01*
X120269045Y-94979160D01*
X120274950Y-94950000D01*
X120274950Y-94294134D01*
X120686015Y-94294134D01*
X120837980Y-94637040D01*
X121167976Y-94981963D01*
X121604849Y-95174346D01*
X121794950Y-95082383D01*
X121794950Y-94105050D01*
X122045050Y-94105050D01*
X122045050Y-95082383D01*
X122235151Y-95174346D01*
X122672024Y-94981963D01*
X123002020Y-94637040D01*
X123153985Y-94294134D01*
X123069122Y-94105050D01*
X122045050Y-94105050D01*
X121794950Y-94105050D01*
X120770878Y-94105050D01*
X120686015Y-94294134D01*
X120274950Y-94294134D01*
X120274950Y-93665866D01*
X120686015Y-93665866D01*
X120770878Y-93854950D01*
X121794950Y-93854950D01*
X121794950Y-92877617D01*
X122045050Y-92877617D01*
X122045050Y-93854950D01*
X123069122Y-93854950D01*
X123153985Y-93665866D01*
X123002020Y-93322960D01*
X122840012Y-93153623D01*
X127102550Y-93153623D01*
X127102550Y-101746377D01*
X129227450Y-101746377D01*
X129227450Y-101284849D01*
X130885654Y-101284849D01*
X130977617Y-101474950D01*
X131954950Y-101474950D01*
X131954950Y-100450878D01*
X132205050Y-100450878D01*
X132205050Y-101474950D01*
X133182383Y-101474950D01*
X133274346Y-101284849D01*
X133081963Y-100847976D01*
X132737040Y-100517980D01*
X132394134Y-100366015D01*
X132205050Y-100450878D01*
X131954950Y-100450878D01*
X131765866Y-100366015D01*
X131422960Y-100517980D01*
X131078037Y-100847976D01*
X130885654Y-101284849D01*
X129227450Y-101284849D01*
X129227450Y-95620000D01*
X130695746Y-95620000D01*
X130695746Y-97420000D01*
X130728864Y-97596006D01*
X130832883Y-97757656D01*
X130991598Y-97866102D01*
X131180000Y-97904254D01*
X131669412Y-97904254D01*
X131387028Y-98020933D01*
X131042144Y-98365216D01*
X130855263Y-98815273D01*
X130854838Y-99302589D01*
X131040933Y-99752972D01*
X131385216Y-100097856D01*
X131835273Y-100284737D01*
X132322589Y-100285162D01*
X132772972Y-100099067D01*
X133117856Y-99754784D01*
X133304737Y-99304727D01*
X133305162Y-98817411D01*
X133119067Y-98367028D01*
X132774784Y-98022144D01*
X132490875Y-97904254D01*
X132980000Y-97904254D01*
X133156006Y-97871136D01*
X133317656Y-97767117D01*
X133426102Y-97608402D01*
X133464254Y-97420000D01*
X133464254Y-95620000D01*
X133431136Y-95443994D01*
X133327117Y-95282344D01*
X133216153Y-95206525D01*
X133464543Y-95103893D01*
X133633529Y-94935201D01*
X134476647Y-94935201D01*
X134565534Y-95141717D01*
X135062586Y-95317133D01*
X135221183Y-95308651D01*
X135112171Y-95353694D01*
X134725054Y-95740136D01*
X134515289Y-96245306D01*
X134514812Y-96792295D01*
X134723694Y-97297829D01*
X135110136Y-97684946D01*
X135582847Y-97881233D01*
X135346254Y-97928294D01*
X134948852Y-98193830D01*
X134683316Y-98591232D01*
X134590072Y-99060000D01*
X134683316Y-99528768D01*
X134948852Y-99926170D01*
X135346254Y-100191706D01*
X135815022Y-100284950D01*
X135964978Y-100284950D01*
X136433746Y-100191706D01*
X136831148Y-99926170D01*
X137096684Y-99528768D01*
X137127442Y-99374134D01*
X139736015Y-99374134D01*
X139887980Y-99717040D01*
X140217976Y-100061963D01*
X140654849Y-100254346D01*
X140844950Y-100162383D01*
X140844950Y-99185050D01*
X141095050Y-99185050D01*
X141095050Y-100162383D01*
X141285151Y-100254346D01*
X141722024Y-100061963D01*
X142052020Y-99717040D01*
X142203985Y-99374134D01*
X142119122Y-99185050D01*
X141095050Y-99185050D01*
X140844950Y-99185050D01*
X139820878Y-99185050D01*
X139736015Y-99374134D01*
X137127442Y-99374134D01*
X137189928Y-99060000D01*
X137127443Y-98745866D01*
X139736015Y-98745866D01*
X139820878Y-98934950D01*
X140844950Y-98934950D01*
X140844950Y-97957617D01*
X141095050Y-97957617D01*
X141095050Y-98934950D01*
X142119122Y-98934950D01*
X142203985Y-98745866D01*
X142052020Y-98402960D01*
X141722024Y-98058037D01*
X141285151Y-97865654D01*
X141095050Y-97957617D01*
X140844950Y-97957617D01*
X140654849Y-97865654D01*
X140217976Y-98058037D01*
X139887980Y-98402960D01*
X139736015Y-98745866D01*
X137127443Y-98745866D01*
X137096684Y-98591232D01*
X136831148Y-98193830D01*
X136433746Y-97928294D01*
X136196422Y-97881087D01*
X136667829Y-97686306D01*
X137054946Y-97299864D01*
X137264711Y-96794694D01*
X137264737Y-96763787D01*
X142135050Y-96763787D01*
X142135050Y-97514474D01*
X142207357Y-97689038D01*
X142340963Y-97822643D01*
X142515527Y-97894950D01*
X143121929Y-97894950D01*
X142817028Y-98020933D01*
X142472144Y-98365216D01*
X142285263Y-98815273D01*
X142284838Y-99302589D01*
X142470933Y-99752972D01*
X142815216Y-100097856D01*
X143265273Y-100284737D01*
X143752589Y-100285162D01*
X144202972Y-100099067D01*
X144547856Y-99754784D01*
X144734737Y-99304727D01*
X144734738Y-99302589D01*
X149904838Y-99302589D01*
X150090933Y-99752972D01*
X150435216Y-100097856D01*
X150885273Y-100284737D01*
X151372589Y-100285162D01*
X151822972Y-100099067D01*
X152167856Y-99754784D01*
X152354737Y-99304727D01*
X152355162Y-98817411D01*
X152301440Y-98687393D01*
X159964821Y-98687393D01*
X160166107Y-99174543D01*
X160538496Y-99547583D01*
X160893789Y-99695113D01*
X160540457Y-99841107D01*
X160167417Y-100213496D01*
X159965281Y-100700295D01*
X159964821Y-101227393D01*
X160166107Y-101714543D01*
X160538496Y-102087583D01*
X161025295Y-102289719D01*
X161552393Y-102290179D01*
X162039543Y-102088893D01*
X162412583Y-101716504D01*
X162614719Y-101229705D01*
X162615179Y-100702607D01*
X162413893Y-100215457D01*
X162041504Y-99842417D01*
X161686211Y-99694887D01*
X162039543Y-99548893D01*
X162412583Y-99176504D01*
X162614719Y-98689705D01*
X162615179Y-98162607D01*
X162413893Y-97675457D01*
X162041504Y-97302417D01*
X161554705Y-97100281D01*
X161027607Y-97099821D01*
X160540457Y-97301107D01*
X160167417Y-97673496D01*
X159965281Y-98160295D01*
X159964821Y-98687393D01*
X152301440Y-98687393D01*
X152169067Y-98367028D01*
X151824784Y-98022144D01*
X151374727Y-97835263D01*
X150887411Y-97834838D01*
X150437028Y-98020933D01*
X150092144Y-98365216D01*
X149905263Y-98815273D01*
X149904838Y-99302589D01*
X144734738Y-99302589D01*
X144735162Y-98817411D01*
X144549067Y-98367028D01*
X144204784Y-98022144D01*
X143898468Y-97894950D01*
X144504473Y-97894950D01*
X144679037Y-97822643D01*
X144812643Y-97689038D01*
X144884950Y-97514474D01*
X144884950Y-97402697D01*
X147884150Y-97402697D01*
X147960743Y-97598846D01*
X148421499Y-97757529D01*
X148907907Y-97727811D01*
X149219257Y-97598846D01*
X149295850Y-97402697D01*
X148590000Y-96696847D01*
X147884150Y-97402697D01*
X144884950Y-97402697D01*
X144884950Y-96763787D01*
X144766213Y-96645050D01*
X143635050Y-96645050D01*
X143635050Y-96665050D01*
X143384950Y-96665050D01*
X143384950Y-96645050D01*
X142253787Y-96645050D01*
X142135050Y-96763787D01*
X137264737Y-96763787D01*
X137265188Y-96247705D01*
X137056306Y-95742171D01*
X136840039Y-95525526D01*
X142135050Y-95525526D01*
X142135050Y-96276213D01*
X142253787Y-96394950D01*
X143384950Y-96394950D01*
X143384950Y-95263787D01*
X143635050Y-95263787D01*
X143635050Y-96394950D01*
X144766213Y-96394950D01*
X144809664Y-96351499D01*
X147352471Y-96351499D01*
X147382189Y-96837907D01*
X147511154Y-97149257D01*
X147707303Y-97225850D01*
X148413153Y-96520000D01*
X148766847Y-96520000D01*
X149472697Y-97225850D01*
X149668846Y-97149257D01*
X149802013Y-96762589D01*
X152444838Y-96762589D01*
X152630933Y-97212972D01*
X152975216Y-97557856D01*
X153425273Y-97744737D01*
X153912589Y-97745162D01*
X154362972Y-97559067D01*
X154707856Y-97214784D01*
X154894737Y-96764727D01*
X154894738Y-96762589D01*
X154984838Y-96762589D01*
X155170933Y-97212972D01*
X155515216Y-97557856D01*
X155965273Y-97744737D01*
X156452589Y-97745162D01*
X156902972Y-97559067D01*
X157247856Y-97214784D01*
X157434737Y-96764727D01*
X157435162Y-96277411D01*
X157249067Y-95827028D01*
X156904784Y-95482144D01*
X156454727Y-95295263D01*
X155967411Y-95294838D01*
X155517028Y-95480933D01*
X155172144Y-95825216D01*
X154985263Y-96275273D01*
X154984838Y-96762589D01*
X154894738Y-96762589D01*
X154895162Y-96277411D01*
X154709067Y-95827028D01*
X154364784Y-95482144D01*
X153914727Y-95295263D01*
X153427411Y-95294838D01*
X152977028Y-95480933D01*
X152632144Y-95825216D01*
X152445263Y-96275273D01*
X152444838Y-96762589D01*
X149802013Y-96762589D01*
X149827529Y-96688501D01*
X149797811Y-96202093D01*
X149668846Y-95890743D01*
X149472697Y-95814150D01*
X148766847Y-96520000D01*
X148413153Y-96520000D01*
X147707303Y-95814150D01*
X147511154Y-95890743D01*
X147352471Y-96351499D01*
X144809664Y-96351499D01*
X144884950Y-96276213D01*
X144884950Y-95637303D01*
X147884150Y-95637303D01*
X148590000Y-96343153D01*
X149295850Y-95637303D01*
X149219257Y-95441154D01*
X148758501Y-95282471D01*
X148272093Y-95312189D01*
X147960743Y-95441154D01*
X147884150Y-95637303D01*
X144884950Y-95637303D01*
X144884950Y-95525526D01*
X144812643Y-95350962D01*
X144679037Y-95217357D01*
X144504473Y-95145050D01*
X143753787Y-95145050D01*
X143635050Y-95263787D01*
X143384950Y-95263787D01*
X143266213Y-95145050D01*
X142515527Y-95145050D01*
X142340963Y-95217357D01*
X142207357Y-95350962D01*
X142135050Y-95525526D01*
X136840039Y-95525526D01*
X136669864Y-95355054D01*
X136164694Y-95145289D01*
X135936323Y-95145090D01*
X135944466Y-95141717D01*
X136033353Y-94935201D01*
X135255000Y-94156847D01*
X134476647Y-94935201D01*
X133633529Y-94935201D01*
X133837583Y-94731504D01*
X133978455Y-94392246D01*
X134093283Y-94669466D01*
X134299799Y-94758353D01*
X135078153Y-93980000D01*
X135431847Y-93980000D01*
X136210201Y-94758353D01*
X136416717Y-94669466D01*
X136549176Y-94294134D01*
X144816015Y-94294134D01*
X144967980Y-94637040D01*
X145297976Y-94981963D01*
X145734849Y-95174346D01*
X145924950Y-95082383D01*
X145924950Y-94105050D01*
X146175050Y-94105050D01*
X146175050Y-95082383D01*
X146365151Y-95174346D01*
X146802024Y-94981963D01*
X147132020Y-94637040D01*
X147283985Y-94294134D01*
X147251875Y-94222589D01*
X148634838Y-94222589D01*
X148820933Y-94672972D01*
X149165216Y-95017856D01*
X149615273Y-95204737D01*
X150102589Y-95205162D01*
X150552972Y-95019067D01*
X150897856Y-94674784D01*
X151055494Y-94295151D01*
X156285654Y-94295151D01*
X156478037Y-94732024D01*
X156822960Y-95062020D01*
X157165866Y-95213985D01*
X157354950Y-95129122D01*
X157354950Y-94105050D01*
X157605050Y-94105050D01*
X157605050Y-95129122D01*
X157794134Y-95213985D01*
X158137040Y-95062020D01*
X158481963Y-94732024D01*
X158674346Y-94295151D01*
X158582383Y-94105050D01*
X157605050Y-94105050D01*
X157354950Y-94105050D01*
X156377617Y-94105050D01*
X156285654Y-94295151D01*
X151055494Y-94295151D01*
X151084737Y-94224727D01*
X151085162Y-93737411D01*
X151055180Y-93664849D01*
X156285654Y-93664849D01*
X156377617Y-93854950D01*
X157354950Y-93854950D01*
X157354950Y-92830878D01*
X157605050Y-92830878D01*
X157605050Y-93854950D01*
X158582383Y-93854950D01*
X158674346Y-93664849D01*
X158481963Y-93227976D01*
X158137040Y-92897980D01*
X157794134Y-92746015D01*
X157605050Y-92830878D01*
X157354950Y-92830878D01*
X157165866Y-92746015D01*
X156822960Y-92897980D01*
X156478037Y-93227976D01*
X156285654Y-93664849D01*
X151055180Y-93664849D01*
X150899067Y-93287028D01*
X150554784Y-92942144D01*
X150104727Y-92755263D01*
X149617411Y-92754838D01*
X149167028Y-92940933D01*
X148822144Y-93285216D01*
X148635263Y-93735273D01*
X148634838Y-94222589D01*
X147251875Y-94222589D01*
X147199122Y-94105050D01*
X146175050Y-94105050D01*
X145924950Y-94105050D01*
X144900878Y-94105050D01*
X144816015Y-94294134D01*
X136549176Y-94294134D01*
X136592133Y-94172414D01*
X136565043Y-93665866D01*
X144816015Y-93665866D01*
X144900878Y-93854950D01*
X145924950Y-93854950D01*
X145924950Y-92877617D01*
X146175050Y-92877617D01*
X146175050Y-93854950D01*
X147199122Y-93854950D01*
X147283985Y-93665866D01*
X147132020Y-93322960D01*
X146802024Y-92978037D01*
X146365151Y-92785654D01*
X146175050Y-92877617D01*
X145924950Y-92877617D01*
X145734849Y-92785654D01*
X145297976Y-92978037D01*
X144967980Y-93322960D01*
X144816015Y-93665866D01*
X136565043Y-93665866D01*
X136563984Y-93646068D01*
X136416717Y-93290534D01*
X136210201Y-93201647D01*
X135431847Y-93980000D01*
X135078153Y-93980000D01*
X134299799Y-93201647D01*
X134093283Y-93290534D01*
X133987531Y-93590189D01*
X133838893Y-93230457D01*
X133633594Y-93024799D01*
X134476647Y-93024799D01*
X135255000Y-93803153D01*
X136033353Y-93024799D01*
X135944466Y-92818283D01*
X135447414Y-92642867D01*
X134921068Y-92671016D01*
X134565534Y-92818283D01*
X134476647Y-93024799D01*
X133633594Y-93024799D01*
X133466504Y-92857417D01*
X132979705Y-92655281D01*
X132452607Y-92654821D01*
X131965457Y-92856107D01*
X131592417Y-93228496D01*
X131390281Y-93715295D01*
X131389821Y-94242393D01*
X131591107Y-94729543D01*
X131963496Y-95102583D01*
X132043362Y-95135746D01*
X131180000Y-95135746D01*
X131003994Y-95168864D01*
X130842344Y-95272883D01*
X130733898Y-95431598D01*
X130695746Y-95620000D01*
X129227450Y-95620000D01*
X129227450Y-93153623D01*
X127102550Y-93153623D01*
X122840012Y-93153623D01*
X122672024Y-92978037D01*
X122235151Y-92785654D01*
X122045050Y-92877617D01*
X121794950Y-92877617D01*
X121604849Y-92785654D01*
X121167976Y-92978037D01*
X120837980Y-93322960D01*
X120686015Y-93665866D01*
X120274950Y-93665866D01*
X120274950Y-92499950D01*
X159125050Y-92499950D01*
X159125050Y-94950000D01*
M02*
