G04 #@! TF.FileFunction,Soldermask,Bot*
%FSLAX46Y46*%
G04 Gerber Fmt 4.6, Leading zero omitted, Abs format (unit mm)*
G04 Created by KiCad (PCBNEW 4.0.6) date Wed Dec 13 01:07:51 2017*
%MOMM*%
%LPD*%
G01*
G04 APERTURE LIST*
%ADD10C,0.100000*%
%ADD11O,1.900000X1.300000*%
%ADD12R,1.900000X1.300000*%
%ADD13R,1.800000X1.800000*%
%ADD14C,1.800000*%
%ADD15C,4.200000*%
%ADD16C,1.400000*%
%ADD17R,1.400000X1.400000*%
%ADD18C,1.900000*%
%ADD19O,2.000000X1.900000*%
%ADD20O,1.900000X2.000000*%
%ADD21R,1.900000X1.900000*%
%ADD22O,1.900000X1.900000*%
%ADD23C,2.100000*%
%ADD24R,2.200000X2.200000*%
%ADD25C,2.200000*%
G04 APERTURE END LIST*
D10*
D11*
X147320000Y-110490000D03*
X147320000Y-109220000D03*
D12*
X147320000Y-111760000D03*
D11*
X147320000Y-105410000D03*
X147320000Y-106680000D03*
D12*
X147320000Y-104140000D03*
D11*
X132080000Y-107950000D03*
X132080000Y-106680000D03*
D12*
X132080000Y-109220000D03*
D11*
X127000000Y-107950000D03*
X127000000Y-109220000D03*
D12*
X127000000Y-106680000D03*
D11*
X121920000Y-107950000D03*
X121920000Y-109220000D03*
D12*
X121920000Y-106680000D03*
D13*
X161290000Y-114935000D03*
D14*
X161290000Y-117475000D03*
D15*
X117700000Y-121950000D03*
X117700000Y-93950000D03*
X161700000Y-93950000D03*
X161700000Y-121950000D03*
D16*
X140970000Y-121920000D03*
X139700000Y-120650000D03*
D17*
X142240000Y-120650000D03*
D18*
X156210000Y-111760000D03*
D19*
X156210000Y-119380000D03*
D18*
X119380000Y-97790000D03*
D19*
X119380000Y-105410000D03*
D18*
X119380000Y-110490000D03*
D19*
X119380000Y-118110000D03*
D18*
X121920000Y-119380000D03*
D19*
X121920000Y-111760000D03*
D18*
X121920000Y-101600000D03*
D19*
X121920000Y-93980000D03*
D18*
X132080000Y-111760000D03*
D20*
X124460000Y-111760000D03*
D18*
X124460000Y-101600000D03*
D20*
X132080000Y-101600000D03*
D18*
X135890000Y-106680000D03*
D19*
X135890000Y-99060000D03*
D18*
X132080000Y-99060000D03*
D20*
X124460000Y-99060000D03*
D18*
X135890000Y-109220000D03*
D19*
X135890000Y-116840000D03*
D18*
X132080000Y-114300000D03*
D20*
X124460000Y-114300000D03*
D18*
X140970000Y-106680000D03*
D19*
X140970000Y-99060000D03*
D18*
X143510000Y-99060000D03*
D19*
X143510000Y-106680000D03*
D18*
X146050000Y-101600000D03*
D19*
X146050000Y-93980000D03*
D18*
X149860000Y-93980000D03*
D20*
X157480000Y-93980000D03*
D18*
X153670000Y-96520000D03*
D19*
X153670000Y-104140000D03*
D18*
X153670000Y-119380000D03*
D19*
X153670000Y-111760000D03*
D18*
X146050000Y-114300000D03*
D19*
X146050000Y-121920000D03*
D18*
X149860000Y-121920000D03*
D20*
X157480000Y-121920000D03*
D18*
X143510000Y-116840000D03*
D19*
X143510000Y-109220000D03*
D18*
X140970000Y-109220000D03*
D19*
X140970000Y-116840000D03*
D18*
X156210000Y-96520000D03*
D19*
X156210000Y-104140000D03*
D18*
X129540000Y-119380000D03*
X124460000Y-119380000D03*
X121920000Y-104140000D03*
X127000000Y-104140000D03*
X138430000Y-101600000D03*
X138430000Y-106680000D03*
X151130000Y-104140000D03*
X151130000Y-99060000D03*
X156210000Y-106680000D03*
X151130000Y-106680000D03*
X151130000Y-111760000D03*
X151130000Y-116840000D03*
X156210000Y-109220000D03*
X151130000Y-109220000D03*
X138430000Y-109220000D03*
X138430000Y-114300000D03*
X132080000Y-116840000D03*
X127000000Y-116840000D03*
D21*
X161290000Y-104140000D03*
D22*
X161290000Y-111760000D03*
D21*
X158750000Y-111760000D03*
D22*
X158750000Y-104140000D03*
D18*
X148590000Y-101600000D03*
X148590000Y-96520000D03*
X148590000Y-114300000D03*
X148590000Y-119380000D03*
D23*
X135255000Y-93980000D03*
X132715000Y-93980000D03*
X161290000Y-100965000D03*
X161290000Y-98425000D03*
X132715000Y-121920000D03*
X135255000Y-121920000D03*
D24*
X143510000Y-96520000D03*
D25*
X135890000Y-96520000D03*
D24*
X132080000Y-96520000D03*
D25*
X124460000Y-96520000D03*
M02*
